G04 Layer_Physical_Order=2*
G04 Layer_Color=36540*
%FSLAX44Y44*%
%MOMM*%
G71*
G01*
G75*
%ADD22C,0.2500*%
G04:AMPARAMS|DCode=23|XSize=1.6002mm|YSize=1.6002mm|CornerRadius=0mm|HoleSize=0mm|Usage=FLASHONLY|Rotation=180.000|XOffset=0mm|YOffset=0mm|HoleType=Round|Shape=Octagon|*
%AMOCTAGOND23*
4,1,8,-0.8001,0.4001,-0.8001,-0.4001,-0.4001,-0.8001,0.4001,-0.8001,0.8001,-0.4001,0.8001,0.4001,0.4001,0.8001,-0.4001,0.8001,-0.8001,0.4001,0.0*
%
%ADD23OCTAGOND23*%

G04:AMPARAMS|DCode=24|XSize=1.2mm|YSize=1.2mm|CornerRadius=0mm|HoleSize=0mm|Usage=FLASHONLY|Rotation=270.000|XOffset=0mm|YOffset=0mm|HoleType=Round|Shape=Octagon|*
%AMOCTAGOND24*
4,1,8,-0.3000,-0.6000,0.3000,-0.6000,0.6000,-0.3000,0.6000,0.3000,0.3000,0.6000,-0.3000,0.6000,-0.6000,0.3000,-0.6000,-0.3000,-0.3000,-0.6000,0.0*
%
%ADD24OCTAGOND24*%

G04:AMPARAMS|DCode=25|XSize=1.6002mm|YSize=1.6002mm|CornerRadius=0mm|HoleSize=0mm|Usage=FLASHONLY|Rotation=270.000|XOffset=0mm|YOffset=0mm|HoleType=Round|Shape=Octagon|*
%AMOCTAGOND25*
4,1,8,-0.4001,-0.8001,0.4001,-0.8001,0.8001,-0.4001,0.8001,0.4001,0.4001,0.8001,-0.4001,0.8001,-0.8001,0.4001,-0.8001,-0.4001,-0.4001,-0.8001,0.0*
%
%ADD25OCTAGOND25*%

%ADD27C,0.5000*%
D22*
X144610Y263591D02*
Y294604D01*
Y261330D02*
Y263591D01*
X159850Y248352D01*
X97112Y311089D02*
X144610Y263591D01*
X234134Y96116D02*
X304800Y25450D01*
X234134Y96116D02*
Y205080D01*
X224620Y214594D02*
X234134Y205080D01*
X224620Y214594D02*
Y245042D01*
X242079Y262500D01*
X263000D01*
X252764Y50D02*
X304800D01*
X244722Y8092D02*
X252764Y50D01*
X8042Y8092D02*
X244722D01*
X-0Y50D02*
X8042Y8092D01*
X213451Y32737D02*
Y145506D01*
X193632Y12918D02*
X213451Y32737D01*
X96858Y12918D02*
X193632D01*
X80856Y28920D02*
X96858Y12918D01*
X80856Y28920D02*
Y112624D01*
X89354Y121122D01*
X228070Y36392D02*
X256116Y8346D01*
X228070Y36392D02*
Y189300D01*
X169019Y248352D02*
X228070Y189300D01*
X159850Y248352D02*
X169019D01*
X97112Y311089D02*
Y326146D01*
X290049Y65601D02*
X304800Y50850D01*
X290049Y65601D02*
Y117670D01*
X254084Y153634D02*
X290049Y117670D01*
X254084Y153634D02*
Y200620D01*
X229954Y224750D02*
X254084Y200620D01*
X184488Y252948D02*
X203030Y271490D01*
X283040D01*
X286596Y267934D01*
X43000Y302500D02*
X61892D01*
X75268Y289124D01*
Y206466D02*
Y289124D01*
Y206466D02*
X89746Y191988D01*
X155532Y261330D02*
X168994Y274792D01*
Y279872D01*
X293262Y138588D02*
X304800Y127050D01*
X293262Y138588D02*
Y212238D01*
X263000Y242500D02*
X293262Y212238D01*
X113314Y313146D02*
X126068D01*
X144610Y294604D01*
X160866Y347436D02*
X198204Y310098D01*
X63838Y347436D02*
X160866D01*
X56980Y340578D02*
X63838Y347436D01*
X248162Y245074D02*
X254338Y251250D01*
X280500D01*
X291930Y262680D01*
Y280888D01*
X281516Y291302D02*
X291930Y280888D01*
X243924Y291302D02*
X281516D01*
X232494Y302732D02*
X243924Y291302D01*
X151976Y302732D02*
X232494D01*
X121750Y332958D02*
X151976Y302732D01*
X53458Y332958D02*
X121750D01*
X43000Y322500D02*
X53458Y332958D01*
X231732Y232374D02*
X266784D01*
X272796Y226362D01*
Y146692D02*
Y226362D01*
Y146692D02*
X294049Y125440D01*
Y95128D02*
Y125440D01*
Y95128D02*
X298377Y90800D01*
Y82673D02*
Y90800D01*
Y82673D02*
X304800Y76250D01*
X297774Y235676D02*
X304800Y228650D01*
X281262Y235676D02*
X297774D01*
X198966Y204750D02*
Y211800D01*
X166415Y244352D02*
X198966Y211800D01*
X156232Y244352D02*
X166415D01*
X146366Y254218D02*
X156232Y244352D01*
X128100Y254218D02*
X146366D01*
X70950Y311368D02*
X128100Y254218D01*
X36282Y311368D02*
X70950D01*
X34250Y309336D02*
X36282Y311368D01*
X34250Y291250D02*
Y309336D01*
Y291250D02*
X43000Y282500D01*
X142550Y44750D02*
X154180D01*
X166200Y32730D01*
X179916D01*
X184234Y37048D01*
Y209600D01*
X145755Y248080D02*
X184234Y209600D01*
X135494Y248080D02*
X145755D01*
X271866Y312384D02*
X304800Y279450D01*
X229700Y312384D02*
X271866D01*
X193886Y348198D02*
X229700Y312384D01*
X30250Y329749D02*
X43000Y342500D01*
X30250Y280695D02*
Y329749D01*
Y280695D02*
X39454Y271490D01*
X50009D01*
X59520Y261979D01*
Y174727D02*
Y261979D01*
Y174727D02*
X173300Y60947D01*
Y44750D02*
Y60947D01*
X145880Y223738D02*
X175598Y194020D01*
X145880Y223738D02*
Y233136D01*
X-0Y279450D02*
X10752Y268697D01*
Y243296D02*
Y268697D01*
Y243296D02*
X20404Y233644D01*
X46312D01*
X51900Y228056D01*
Y169636D02*
Y228056D01*
Y169636D02*
X129878Y91658D01*
Y33746D02*
Y91658D01*
X191346Y73695D02*
Y209006D01*
Y73695D02*
X209451Y55590D01*
Y35849D02*
Y55590D01*
X207348Y33746D02*
X209451Y35849D01*
X186774Y33746D02*
X207348D01*
X179408Y26380D02*
X186774Y33746D01*
X165184Y26380D02*
X179408D01*
X157818Y33746D02*
X165184Y26380D01*
X142578Y33746D02*
X157818D01*
X134196Y25364D02*
X142578Y33746D01*
X126068Y25364D02*
X134196D01*
X117150Y34282D02*
X126068Y25364D01*
X117150Y34282D02*
Y44750D01*
D23*
X173300D02*
D03*
X117150D02*
D03*
X142550D02*
D03*
D24*
X43000Y342500D02*
D03*
Y322500D02*
D03*
Y302500D02*
D03*
Y282500D02*
D03*
X263000Y242500D02*
D03*
Y262500D02*
D03*
D25*
X304800Y50D02*
D03*
Y25450D02*
D03*
Y50850D02*
D03*
Y76250D02*
D03*
Y127050D02*
D03*
Y228650D02*
D03*
Y279450D02*
D03*
X-0Y50D02*
D03*
Y279450D02*
D03*
D27*
X213451Y145506D02*
D03*
X89354Y121122D02*
D03*
X256116Y8346D02*
D03*
X97112Y326146D02*
D03*
X229954Y224750D02*
D03*
X184488Y252948D02*
D03*
X286596Y267934D02*
D03*
X89746Y191988D02*
D03*
X155532Y261330D02*
D03*
X168994Y279872D02*
D03*
X113314Y313146D02*
D03*
X144610Y261330D02*
D03*
X198204Y310098D02*
D03*
X56980Y340578D02*
D03*
X248162Y245074D02*
D03*
X231732Y232374D02*
D03*
X281262Y235676D02*
D03*
X198966Y204750D02*
D03*
X135494Y248080D02*
D03*
X193886Y348198D02*
D03*
X175598Y194020D02*
D03*
X145880Y233136D02*
D03*
X129878Y33746D02*
D03*
X191346Y209006D02*
D03*
M02*
