G04 Layer_Physical_Order=2*
G04 Layer_Color=36540*
%FSLAX44Y44*%
%MOMM*%
G71*
G01*
G75*
%ADD22C,0.2500*%
G04:AMPARAMS|DCode=23|XSize=1.6002mm|YSize=1.6002mm|CornerRadius=0mm|HoleSize=0mm|Usage=FLASHONLY|Rotation=0.000|XOffset=0mm|YOffset=0mm|HoleType=Round|Shape=Octagon|*
%AMOCTAGOND23*
4,1,8,0.8001,-0.4001,0.8001,0.4001,0.4001,0.8001,-0.4001,0.8001,-0.8001,0.4001,-0.8001,-0.4001,-0.4001,-0.8001,0.4001,-0.8001,0.8001,-0.4001,0.0*
%
%ADD23OCTAGOND23*%

G04:AMPARAMS|DCode=24|XSize=1.6002mm|YSize=1.6002mm|CornerRadius=0mm|HoleSize=0mm|Usage=FLASHONLY|Rotation=270.000|XOffset=0mm|YOffset=0mm|HoleType=Round|Shape=Octagon|*
%AMOCTAGOND24*
4,1,8,-0.4001,-0.8001,0.4001,-0.8001,0.8001,-0.4001,0.8001,0.4001,0.4001,0.8001,-0.4001,0.8001,-0.8001,0.4001,-0.8001,-0.4001,-0.4001,-0.8001,0.0*
%
%ADD24OCTAGOND24*%

G04:AMPARAMS|DCode=26|XSize=1.2mm|YSize=1.2mm|CornerRadius=0mm|HoleSize=0mm|Usage=FLASHONLY|Rotation=270.000|XOffset=0mm|YOffset=0mm|HoleType=Round|Shape=Octagon|*
%AMOCTAGOND26*
4,1,8,-0.3000,-0.6000,0.3000,-0.6000,0.6000,-0.3000,0.6000,0.3000,0.3000,0.6000,-0.3000,0.6000,-0.6000,0.3000,-0.6000,-0.3000,-0.3000,-0.6000,0.0*
%
%ADD26OCTAGOND26*%

%ADD27C,0.5000*%
D22*
X81750Y113518D02*
X89354Y121122D01*
X81750Y-1500D02*
Y113518D01*
Y-1500D02*
X91750Y-11500D01*
X192750Y135750D02*
Y207602D01*
X191346Y209006D02*
X192750Y207602D01*
Y135750D02*
X216500Y112000D01*
X143920Y248080D02*
X188750Y203250D01*
Y37000D02*
Y203250D01*
X170750Y19000D02*
X188750Y37000D01*
X54500Y167036D02*
X133000Y88536D01*
Y36868D02*
Y88536D01*
X129878Y33746D02*
X133000Y36868D01*
X53000Y88750D02*
Y140500D01*
X53750Y141250D01*
X153750Y-20250D02*
X226500D01*
X149230Y-24770D02*
X153750Y-20250D01*
X226500D02*
X246800Y50D01*
X304800D01*
X145250Y19000D02*
X170750D01*
X142550Y21700D02*
X145250Y19000D01*
X142550Y21700D02*
Y44750D01*
X182750Y-11500D02*
X221500Y27250D01*
X91750Y-11500D02*
X182750D01*
X81270Y-24770D02*
X149230D01*
X56450Y50D02*
X81270Y-24770D01*
X-0Y279450D02*
X15500Y263950D01*
Y238548D02*
Y263950D01*
Y238548D02*
X21548Y232500D01*
X201990Y271490D02*
X283040D01*
X182000Y251500D02*
X201990Y271490D01*
X219750Y240171D02*
X242079Y262500D01*
X219750Y219464D02*
Y240171D01*
Y219464D02*
X234134Y205080D01*
X183690Y222250D02*
X195120D01*
X144610Y261330D02*
X183690Y222250D01*
X195120D02*
X228070Y189300D01*
X195016Y215750D02*
X198966Y211800D01*
X182500Y215750D02*
X195016D01*
X144032Y254218D02*
X182500Y215750D01*
X128100Y254218D02*
X144032D01*
X135494Y248080D02*
X143920D01*
X144610Y263591D02*
Y281850D01*
X113314Y313146D02*
X144610Y281850D01*
X280568Y292250D02*
X291930Y280888D01*
X242976Y292250D02*
X280568D01*
X232494Y302732D02*
X242976Y292250D01*
X281500Y252250D02*
X291930Y262680D01*
X255338Y252250D02*
X281500D01*
X248162Y245074D02*
X255338Y252250D01*
X295200Y238250D02*
X304800Y228650D01*
X286250Y238250D02*
X295200D01*
X283363Y230500D02*
X291500Y222363D01*
Y184238D02*
Y222363D01*
X283750Y176488D02*
X291500Y184238D01*
X283750Y148100D02*
X304800Y127050D01*
X283750Y148100D02*
Y176488D01*
X283325Y230500D02*
X283363D01*
X280250Y233575D02*
X283325Y230500D01*
X280250Y233575D02*
Y233613D01*
X271363Y242500D02*
X280250Y233613D01*
X277750Y141739D02*
Y224250D01*
X269626Y232374D02*
X277750Y224250D01*
X231732Y232374D02*
X269626D01*
X263000Y242500D02*
X271363D01*
X277750Y141739D02*
X284500Y134989D01*
Y82250D02*
Y134989D01*
Y82250D02*
X290500Y76250D01*
X304800D01*
X254084Y153634D02*
X279000Y128718D01*
Y76650D02*
Y128718D01*
Y76650D02*
X304800Y50850D01*
X54500Y167036D02*
Y228750D01*
X50750Y232500D02*
X54500Y228750D01*
X21548Y232500D02*
X50750D01*
X69818Y312500D02*
X128100Y254218D01*
X37414Y312500D02*
X69818D01*
X34250Y309336D02*
X37414Y312500D01*
X30053Y280891D02*
Y329552D01*
Y280891D02*
X39454Y271490D01*
X30053Y329552D02*
X43000Y342500D01*
X216500Y35750D02*
Y112000D01*
X191000Y10250D02*
X216500Y35750D01*
X218832Y145506D02*
X221500Y142839D01*
Y27250D02*
Y142839D01*
X228070Y36392D02*
X256116Y8346D01*
X228070Y36392D02*
Y189300D01*
X117150Y16100D02*
X123000Y10250D01*
X191000D01*
X-0Y50D02*
X56450D01*
X117150Y16100D02*
Y44750D01*
X145880Y223738D02*
Y233136D01*
Y223738D02*
X175598Y194020D01*
X173300Y44750D02*
Y60947D01*
X59520Y174727D02*
X173300Y60947D01*
X59520Y174727D02*
Y261979D01*
X50009Y271490D02*
X59520Y261979D01*
X39454Y271490D02*
X50009D01*
X193886Y348198D02*
X229700Y312384D01*
X271866D01*
X304800Y279450D01*
X34250Y291250D02*
X43000Y282500D01*
X34250Y291250D02*
Y309336D01*
X198966Y204750D02*
Y211800D01*
X43000Y322500D02*
X53458Y332958D01*
X121750D01*
X151976Y302732D01*
X232494D01*
X291930Y262680D02*
Y280888D01*
X56980Y340578D02*
X63838Y347436D01*
X160866D01*
X198204Y310098D01*
X168994Y274792D02*
Y279872D01*
X155532Y261330D02*
X168994Y274792D01*
X75268Y206466D02*
X89746Y191988D01*
X75268Y206466D02*
Y289124D01*
X61892Y302500D02*
X75268Y289124D01*
X43000Y302500D02*
X61892D01*
X283040Y271490D02*
X286596Y267934D01*
X229954Y224750D02*
X254084Y200620D01*
Y153634D02*
Y200620D01*
X242079Y262500D02*
X263000D01*
X234134Y96116D02*
Y205080D01*
Y96116D02*
X304800Y25450D01*
D23*
X145050Y44750D02*
D03*
X119650D02*
D03*
X175800D02*
D03*
D24*
X-0Y279450D02*
D03*
Y50D02*
D03*
X304800Y279450D02*
D03*
Y228650D02*
D03*
Y127050D02*
D03*
Y76250D02*
D03*
Y50850D02*
D03*
Y25450D02*
D03*
Y50D02*
D03*
D26*
X263000Y262500D02*
D03*
Y242500D02*
D03*
X43000Y282500D02*
D03*
Y302500D02*
D03*
Y322500D02*
D03*
Y342500D02*
D03*
D27*
X53000Y88750D02*
D03*
X53750Y141250D02*
D03*
X286250Y238250D02*
D03*
X182000Y251500D02*
D03*
X218832Y145506D02*
D03*
X191346Y209006D02*
D03*
X129878Y33746D02*
D03*
X145880Y233136D02*
D03*
X175598Y194020D02*
D03*
X193886Y348198D02*
D03*
X135494Y248080D02*
D03*
X198966Y204750D02*
D03*
X231732Y232374D02*
D03*
X248162Y245074D02*
D03*
X56980Y340578D02*
D03*
X198204Y310098D02*
D03*
X144610Y261330D02*
D03*
X113314Y313146D02*
D03*
X168994Y279872D02*
D03*
X155532Y261330D02*
D03*
X89746Y191988D02*
D03*
X286596Y267934D02*
D03*
X229954Y224750D02*
D03*
X256116Y8346D02*
D03*
X89354Y121122D02*
D03*
M02*
