G04 Layer_Color=8421504*
%FSLAX44Y44*%
%MOMM*%
G71*
G01*
G75*
%ADD10R,0.6000X0.8000*%
%ADD11R,0.8000X0.8000*%
%ADD12R,0.8000X0.6000*%
%ADD13R,1.0000X0.6000*%
%ADD14R,1.0000X1.0000*%
%ADD15R,1.5000X1.3000*%
%ADD16R,0.8000X1.0500*%
%ADD17R,1.2000X1.4000*%
%ADD18R,1.5000X1.2000*%
%ADD19R,0.3500X0.8000*%
%ADD20R,0.8000X0.3500*%
%ADD21R,1.6000X0.6500*%
D10*
X249896Y125500D02*
D03*
X263358D02*
D03*
X228642D02*
D03*
X242104D02*
D03*
X89354Y139750D02*
D03*
X75892D02*
D03*
X89354Y151000D02*
D03*
X75892D02*
D03*
X224858Y78560D02*
D03*
X211396D02*
D03*
X251608Y51250D02*
D03*
X238146D02*
D03*
X180354Y288750D02*
D03*
X166892D02*
D03*
X146146D02*
D03*
X159608D02*
D03*
X141142Y339500D02*
D03*
X154604D02*
D03*
X70892Y202250D02*
D03*
X84354D02*
D03*
X82608Y262500D02*
D03*
X69146D02*
D03*
X72642Y333250D02*
D03*
X86104D02*
D03*
X67142Y279000D02*
D03*
X80604D02*
D03*
X249874Y-12452D02*
D03*
X263336D02*
D03*
X249874Y628D02*
D03*
X263336D02*
D03*
X75142Y176000D02*
D03*
X88604D02*
D03*
X88668Y165702D02*
D03*
X75206D02*
D03*
X249896Y102000D02*
D03*
X263358D02*
D03*
X228830Y101790D02*
D03*
X242292D02*
D03*
X249896Y114000D02*
D03*
X263358D02*
D03*
X242292Y114030D02*
D03*
X228830D02*
D03*
D11*
X242750Y67642D02*
D03*
Y83104D02*
D03*
X259500Y67642D02*
D03*
Y83104D02*
D03*
X137000Y4896D02*
D03*
Y20358D02*
D03*
X118750Y4896D02*
D03*
Y20358D02*
D03*
X154750Y4896D02*
D03*
Y20358D02*
D03*
X173500Y4896D02*
D03*
Y20358D02*
D03*
D12*
X270000Y-23896D02*
D03*
Y-37358D02*
D03*
X259750Y18146D02*
D03*
Y31608D02*
D03*
X208000Y14896D02*
D03*
Y28358D02*
D03*
X215250Y340108D02*
D03*
Y326646D02*
D03*
X202750Y339858D02*
D03*
Y326396D02*
D03*
X234750Y247396D02*
D03*
Y260858D02*
D03*
X102000Y213854D02*
D03*
Y200392D02*
D03*
X121250Y323892D02*
D03*
X109250Y326146D02*
D03*
Y339608D02*
D03*
X181750Y326396D02*
D03*
Y339858D02*
D03*
D13*
X246500Y34250D02*
D03*
X222500D02*
D03*
Y24750D02*
D03*
Y15250D02*
D03*
X246500D02*
D03*
D14*
X179500Y-11000D02*
D03*
X162500D02*
D03*
X179500Y-63000D02*
D03*
X162500D02*
D03*
X141000Y-10750D02*
D03*
X124000D02*
D03*
X141000Y-62750D02*
D03*
X124000D02*
D03*
X230250Y-10250D02*
D03*
X213250D02*
D03*
X230250Y-62250D02*
D03*
X213250D02*
D03*
D15*
X162000Y315750D02*
D03*
X137500D02*
D03*
D16*
X121250Y337354D02*
D03*
D17*
X84830Y223149D02*
D03*
X65830Y247149D02*
D03*
X84830D02*
D03*
X65830Y223149D02*
D03*
D18*
X80500Y318625D02*
D03*
Y292375D02*
D03*
D19*
X141250Y269500D02*
D03*
X146250D02*
D03*
X151250D02*
D03*
X156250D02*
D03*
X161250D02*
D03*
X166250D02*
D03*
X171250D02*
D03*
X176250D02*
D03*
X181250D02*
D03*
X186250D02*
D03*
X191250D02*
D03*
X196250D02*
D03*
Y185000D02*
D03*
X191250D02*
D03*
X186250D02*
D03*
X181250D02*
D03*
X176250D02*
D03*
X171250D02*
D03*
X166250D02*
D03*
X161250D02*
D03*
X156250D02*
D03*
X151250D02*
D03*
X146250D02*
D03*
X141250D02*
D03*
D20*
X211000Y254750D02*
D03*
Y249750D02*
D03*
Y244750D02*
D03*
Y239750D02*
D03*
Y234750D02*
D03*
Y229750D02*
D03*
Y224750D02*
D03*
Y219750D02*
D03*
Y214750D02*
D03*
Y209750D02*
D03*
Y204750D02*
D03*
Y199750D02*
D03*
X126500D02*
D03*
Y204750D02*
D03*
Y209750D02*
D03*
Y214750D02*
D03*
Y219750D02*
D03*
Y224750D02*
D03*
Y229750D02*
D03*
Y234750D02*
D03*
Y239750D02*
D03*
Y244750D02*
D03*
Y249750D02*
D03*
Y254750D02*
D03*
D21*
X42100Y-9850D02*
D03*
X84900D02*
D03*
X42100Y-22550D02*
D03*
X84900D02*
D03*
X42100Y-35250D02*
D03*
X84900D02*
D03*
X42100Y-47950D02*
D03*
X84900D02*
D03*
X42100Y-60650D02*
D03*
X84900D02*
D03*
M02*
