G04 Layer_Color=9279142*
%FSLAX44Y44*%
%MOMM*%
G71*
G01*
G75*
%ADD22C,0.2500*%
%ADD35C,0.1500*%
%ADD36C,0.6000*%
%ADD37C,0.2540*%
%ADD38C,0.2000*%
%ADD39C,0.1270*%
G36*
X77691Y28952D02*
X77839Y28934D01*
X78024Y28915D01*
X78228Y28897D01*
X78432Y28860D01*
X78913Y28749D01*
X79395Y28582D01*
X79635Y28471D01*
X79876Y28341D01*
X80117Y28193D01*
X80320Y28027D01*
X80339Y28008D01*
X80376Y27989D01*
X80431Y27934D01*
X80506Y27860D01*
X80580Y27749D01*
X80691Y27638D01*
X80802Y27490D01*
X80913Y27323D01*
X81042Y27138D01*
X81154Y26934D01*
X81283Y26712D01*
X81394Y26471D01*
X81505Y26193D01*
X81616Y25916D01*
X81691Y25601D01*
X81765Y25268D01*
X79709Y24805D01*
Y24823D01*
X79691Y24842D01*
X79654Y24971D01*
X79598Y25138D01*
X79506Y25360D01*
X79395Y25582D01*
X79246Y25842D01*
X79061Y26082D01*
X78858Y26286D01*
X78839Y26305D01*
X78747Y26360D01*
X78617Y26453D01*
X78450Y26545D01*
X78228Y26638D01*
X77987Y26730D01*
X77709Y26786D01*
X77395Y26804D01*
X77265D01*
X77173Y26786D01*
X77062Y26767D01*
X76932Y26749D01*
X76636Y26675D01*
X76284Y26545D01*
X75932Y26360D01*
X75747Y26249D01*
X75580Y26119D01*
X75413Y25953D01*
X75247Y25768D01*
Y25749D01*
X75210Y25712D01*
X75173Y25656D01*
X75117Y25582D01*
X75062Y25471D01*
X74988Y25342D01*
X74914Y25175D01*
X74840Y24990D01*
X74765Y24786D01*
X74691Y24564D01*
X74617Y24305D01*
X74562Y24027D01*
X74506Y23712D01*
X74469Y23379D01*
X74451Y23027D01*
X74432Y22638D01*
Y22620D01*
Y22546D01*
Y22416D01*
X74451Y22268D01*
Y22083D01*
X74488Y21860D01*
X74506Y21620D01*
X74543Y21379D01*
X74654Y20824D01*
X74802Y20250D01*
X75025Y19694D01*
X75154Y19453D01*
X75302Y19213D01*
X75321Y19194D01*
X75339Y19176D01*
X75451Y19065D01*
X75617Y18898D01*
X75839Y18713D01*
X76136Y18527D01*
X76506Y18361D01*
X76913Y18250D01*
X77136Y18231D01*
X77376Y18213D01*
X77487D01*
X77598Y18231D01*
X77747Y18250D01*
X77932Y18287D01*
X78154Y18324D01*
X78376Y18398D01*
X78617Y18491D01*
X78654Y18509D01*
X78728Y18546D01*
X78858Y18602D01*
X79024Y18694D01*
X79191Y18805D01*
X79395Y18935D01*
X79598Y19083D01*
X79802Y19268D01*
Y20842D01*
X77432D01*
Y22953D01*
X81894D01*
Y17972D01*
X81857Y17935D01*
X81765Y17842D01*
X81616Y17694D01*
X81394Y17509D01*
X81117Y17287D01*
X80802Y17065D01*
X80413Y16824D01*
X79969Y16602D01*
X79950D01*
X79913Y16583D01*
X79839Y16546D01*
X79765Y16509D01*
X79635Y16472D01*
X79506Y16435D01*
X79191Y16324D01*
X78821Y16231D01*
X78395Y16139D01*
X77950Y16065D01*
X77487Y16046D01*
X77339D01*
X77228Y16065D01*
X77098D01*
X76950Y16083D01*
X76765Y16102D01*
X76580Y16139D01*
X76173Y16231D01*
X75710Y16361D01*
X75247Y16546D01*
X74802Y16787D01*
X74784Y16805D01*
X74747Y16824D01*
X74691Y16861D01*
X74617Y16935D01*
X74395Y17102D01*
X74136Y17342D01*
X73840Y17657D01*
X73525Y18046D01*
X73229Y18491D01*
X72951Y19009D01*
Y19028D01*
X72914Y19083D01*
X72895Y19157D01*
X72840Y19268D01*
X72803Y19416D01*
X72747Y19583D01*
X72673Y19787D01*
X72618Y20009D01*
X72562Y20250D01*
X72488Y20527D01*
X72432Y20805D01*
X72395Y21120D01*
X72321Y21786D01*
X72284Y22509D01*
Y22527D01*
Y22601D01*
Y22712D01*
X72303Y22860D01*
Y23027D01*
X72321Y23249D01*
X72340Y23472D01*
X72377Y23731D01*
X72451Y24286D01*
X72580Y24879D01*
X72747Y25471D01*
X72969Y26045D01*
Y26064D01*
X73006Y26119D01*
X73043Y26193D01*
X73099Y26286D01*
X73155Y26416D01*
X73247Y26545D01*
X73451Y26860D01*
X73710Y27230D01*
X74006Y27582D01*
X74358Y27934D01*
X74747Y28230D01*
X74765D01*
X74802Y28267D01*
X74858Y28304D01*
X74951Y28341D01*
X75043Y28397D01*
X75173Y28471D01*
X75321Y28526D01*
X75488Y28601D01*
X75876Y28730D01*
X76321Y28860D01*
X76821Y28934D01*
X77376Y28971D01*
X77561D01*
X77691Y28952D01*
D02*
G37*
G36*
X29750Y-12195D02*
X20695D01*
X20714Y-12213D01*
X20751Y-12250D01*
X20807Y-12306D01*
X20899Y-12398D01*
X20992Y-12491D01*
X21121Y-12621D01*
X21251Y-12769D01*
X21381Y-12935D01*
X21677Y-13306D01*
X21992Y-13732D01*
X22269Y-14231D01*
X22510Y-14750D01*
X20325D01*
Y-14732D01*
X20306Y-14713D01*
X20269Y-14602D01*
X20177Y-14454D01*
X20066Y-14231D01*
X19899Y-13972D01*
X19696Y-13695D01*
X19455Y-13380D01*
X19159Y-13046D01*
X19140Y-13028D01*
X19122Y-13009D01*
X19010Y-12898D01*
X18825Y-12750D01*
X18585Y-12565D01*
X18307Y-12361D01*
X17973Y-12158D01*
X17603Y-11973D01*
X17196Y-11824D01*
Y-10213D01*
X29750D01*
Y-12195D01*
D02*
G37*
G36*
X202750Y-60528D02*
X200028Y-62010D01*
X200009D01*
X199954Y-62047D01*
X199880Y-62084D01*
X199787Y-62139D01*
X199676Y-62214D01*
X199547Y-62288D01*
X199250Y-62454D01*
X198936Y-62639D01*
X198621Y-62825D01*
X198491Y-62899D01*
X198380Y-62991D01*
X198269Y-63065D01*
X198195Y-63121D01*
X198176Y-63139D01*
X198139Y-63176D01*
X198065Y-63232D01*
X197991Y-63306D01*
X197825Y-63491D01*
X197732Y-63602D01*
X197676Y-63732D01*
Y-63750D01*
X197658Y-63787D01*
X197621Y-63861D01*
X197602Y-63973D01*
X197565Y-64121D01*
X197547Y-64306D01*
X197528Y-64510D01*
Y-64769D01*
Y-65176D01*
X202750D01*
Y-67250D01*
X190233D01*
Y-62880D01*
Y-62862D01*
Y-62806D01*
Y-62713D01*
Y-62602D01*
X190251Y-62473D01*
Y-62306D01*
X190270Y-61954D01*
X190325Y-61565D01*
X190381Y-61177D01*
X190473Y-60806D01*
X190529Y-60640D01*
X190585Y-60491D01*
X190603Y-60454D01*
X190640Y-60362D01*
X190733Y-60232D01*
X190862Y-60066D01*
X191010Y-59880D01*
X191214Y-59695D01*
X191455Y-59492D01*
X191751Y-59306D01*
X191788Y-59288D01*
X191899Y-59232D01*
X192084Y-59158D01*
X192307Y-59066D01*
X192603Y-58992D01*
X192955Y-58917D01*
X193325Y-58862D01*
X193751Y-58843D01*
X193899D01*
X193992Y-58862D01*
X194121D01*
X194269Y-58881D01*
X194603Y-58936D01*
X194973Y-59010D01*
X195362Y-59140D01*
X195751Y-59325D01*
X196121Y-59566D01*
X196140D01*
X196158Y-59603D01*
X196269Y-59695D01*
X196417Y-59862D01*
X196584Y-60084D01*
X196788Y-60362D01*
X196973Y-60714D01*
X197121Y-61102D01*
X197232Y-61565D01*
X197251Y-61528D01*
X197325Y-61454D01*
X197417Y-61325D01*
X197547Y-61177D01*
X197695Y-61010D01*
X197880Y-60825D01*
X198084Y-60640D01*
X198288Y-60473D01*
X198306Y-60454D01*
X198399Y-60399D01*
X198547Y-60288D01*
X198750Y-60158D01*
X199028Y-59991D01*
X199195Y-59899D01*
X199380Y-59788D01*
X199584Y-59677D01*
X199806Y-59547D01*
X200065Y-59418D01*
X200324Y-59288D01*
X202750Y-58029D01*
Y-60528D01*
D02*
G37*
G36*
X60971Y26656D02*
X57934D01*
Y16250D01*
X55860D01*
Y26656D01*
X52805D01*
Y28767D01*
X60971D01*
Y26656D01*
D02*
G37*
G36*
X71562Y16250D02*
X69321D01*
X68433Y19083D01*
X64285D01*
X63452Y16250D01*
X61248D01*
X65229Y28767D01*
X67433D01*
X71562Y16250D01*
D02*
G37*
G36*
X51323Y20842D02*
Y20824D01*
Y20749D01*
Y20657D01*
Y20527D01*
X51305Y20361D01*
Y20175D01*
X51286Y19972D01*
X51268Y19768D01*
X51231Y19287D01*
X51157Y18824D01*
X51064Y18361D01*
X51009Y18157D01*
X50935Y17972D01*
Y17953D01*
X50916Y17935D01*
X50861Y17824D01*
X50768Y17657D01*
X50638Y17454D01*
X50472Y17213D01*
X50286Y16972D01*
X50046Y16750D01*
X49768Y16546D01*
X49731Y16528D01*
X49638Y16472D01*
X49472Y16380D01*
X49250Y16306D01*
X48972Y16213D01*
X48657Y16120D01*
X48305Y16065D01*
X47898Y16046D01*
X47750D01*
X47657Y16065D01*
X47527Y16083D01*
X47379Y16102D01*
X47046Y16176D01*
X46676Y16287D01*
X46305Y16472D01*
X46102Y16602D01*
X45917Y16731D01*
X45750Y16880D01*
X45583Y17065D01*
Y17083D01*
X45546Y17120D01*
X45509Y17176D01*
X45454Y17250D01*
X45398Y17361D01*
X45324Y17491D01*
X45250Y17657D01*
X45176Y17824D01*
X45083Y18028D01*
X45009Y18268D01*
X44935Y18509D01*
X44880Y18787D01*
X44824Y19083D01*
X44787Y19416D01*
X44769Y19768D01*
X44750Y20138D01*
X46713Y20416D01*
Y20398D01*
Y20361D01*
Y20305D01*
Y20231D01*
X46731Y20046D01*
X46750Y19805D01*
X46787Y19546D01*
X46842Y19287D01*
X46898Y19046D01*
X46990Y18842D01*
X47009Y18824D01*
X47046Y18750D01*
X47139Y18639D01*
X47231Y18527D01*
X47379Y18416D01*
X47546Y18305D01*
X47750Y18231D01*
X47972Y18213D01*
X48083D01*
X48194Y18231D01*
X48342Y18268D01*
X48490Y18324D01*
X48657Y18398D01*
X48805Y18509D01*
X48935Y18657D01*
X48953Y18676D01*
X48990Y18750D01*
X49027Y18879D01*
X49101Y19083D01*
X49120Y19213D01*
X49157Y19361D01*
X49176Y19527D01*
X49194Y19713D01*
X49212Y19916D01*
X49231Y20138D01*
X49250Y20398D01*
Y20675D01*
Y28767D01*
X51323D01*
Y20842D01*
D02*
G37*
G36*
X290910Y271000D02*
X291051D01*
Y239121D01*
X274077D01*
Y270542D01*
Y292500D01*
X290910D01*
Y271000D01*
D02*
G37*
G36*
X290879Y-8589D02*
X274077D01*
Y11750D01*
X290879D01*
Y-8589D01*
D02*
G37*
G36*
X32611Y271049D02*
X32752D01*
Y239170D01*
X32629D01*
Y193799D01*
X32752D01*
Y162564D01*
Y136512D01*
X32752D01*
Y105799D01*
X32752D01*
Y89517D01*
Y62049D01*
X32752D01*
Y40830D01*
X15778D01*
Y59783D01*
X15778D01*
Y89517D01*
Y103755D01*
X15778D01*
Y139549D01*
X15778D01*
Y162564D01*
Y193799D01*
X15827D01*
Y239170D01*
X15778D01*
Y270591D01*
Y292549D01*
X32611D01*
Y271049D01*
D02*
G37*
G36*
X199398Y-49104D02*
X199528Y-49122D01*
X199695Y-49141D01*
X199880Y-49178D01*
X200065Y-49215D01*
X200509Y-49326D01*
X200972Y-49511D01*
X201195Y-49622D01*
X201417Y-49770D01*
X201639Y-49918D01*
X201861Y-50104D01*
X201880Y-50122D01*
X201917Y-50159D01*
X201954Y-50215D01*
X202028Y-50289D01*
X202120Y-50400D01*
X202213Y-50529D01*
X202306Y-50696D01*
X202398Y-50863D01*
X202509Y-51066D01*
X202602Y-51307D01*
X202694Y-51566D01*
X202787Y-51844D01*
X202861Y-52159D01*
X202898Y-52492D01*
X202935Y-52844D01*
X202954Y-53233D01*
Y-53252D01*
Y-53270D01*
Y-53326D01*
Y-53400D01*
X202917Y-53585D01*
X202880Y-53825D01*
X202824Y-54122D01*
X202731Y-54455D01*
X202602Y-54807D01*
X202417Y-55177D01*
X202194Y-55547D01*
X201898Y-55918D01*
X201565Y-56270D01*
X201361Y-56436D01*
X201139Y-56603D01*
X200898Y-56751D01*
X200658Y-56881D01*
X200380Y-57010D01*
X200084Y-57140D01*
X199750Y-57232D01*
X199417Y-57325D01*
X199047Y-57381D01*
X198658Y-57436D01*
X198417Y-55418D01*
X198436D01*
X198528Y-55399D01*
X198639Y-55381D01*
X198787Y-55344D01*
X198973Y-55288D01*
X199176Y-55214D01*
X199398Y-55122D01*
X199621Y-55010D01*
X199843Y-54881D01*
X200065Y-54733D01*
X200269Y-54548D01*
X200454Y-54325D01*
X200602Y-54085D01*
X200713Y-53825D01*
X200806Y-53511D01*
X200824Y-53177D01*
Y-53159D01*
Y-53140D01*
Y-53029D01*
X200806Y-52863D01*
X200769Y-52640D01*
X200713Y-52418D01*
X200621Y-52178D01*
X200509Y-51937D01*
X200343Y-51715D01*
X200324Y-51696D01*
X200250Y-51622D01*
X200139Y-51529D01*
X200009Y-51437D01*
X199824Y-51326D01*
X199621Y-51252D01*
X199380Y-51178D01*
X199121Y-51159D01*
X199047D01*
X198973Y-51178D01*
X198862D01*
X198639Y-51252D01*
X198510Y-51289D01*
X198399Y-51363D01*
X198380D01*
X198343Y-51400D01*
X198232Y-51511D01*
X198158Y-51585D01*
X198065Y-51677D01*
X197991Y-51807D01*
X197917Y-51937D01*
X197899Y-51955D01*
X197880Y-52011D01*
X197825Y-52140D01*
X197750Y-52307D01*
X197714Y-52418D01*
X197676Y-52548D01*
X197621Y-52696D01*
X197565Y-52881D01*
X197491Y-53066D01*
X197417Y-53288D01*
X197343Y-53529D01*
X197269Y-53788D01*
Y-53807D01*
X197251Y-53844D01*
X197232Y-53918D01*
X197195Y-54011D01*
X197158Y-54122D01*
X197121Y-54233D01*
X197010Y-54529D01*
X196880Y-54844D01*
X196732Y-55177D01*
X196565Y-55473D01*
X196399Y-55733D01*
X196380Y-55751D01*
X196306Y-55825D01*
X196214Y-55936D01*
X196066Y-56084D01*
X195899Y-56233D01*
X195695Y-56399D01*
X195454Y-56566D01*
X195177Y-56714D01*
X195140Y-56733D01*
X195047Y-56770D01*
X194880Y-56825D01*
X194677Y-56881D01*
X194436Y-56955D01*
X194158Y-57010D01*
X193843Y-57047D01*
X193529Y-57066D01*
X193362D01*
X193158Y-57047D01*
X192918Y-57010D01*
X192640Y-56955D01*
X192325Y-56862D01*
X192010Y-56751D01*
X191696Y-56603D01*
X191677D01*
X191658Y-56584D01*
X191566Y-56510D01*
X191418Y-56418D01*
X191233Y-56270D01*
X191029Y-56084D01*
X190825Y-55862D01*
X190622Y-55622D01*
X190455Y-55325D01*
Y-55307D01*
X190436Y-55288D01*
X190381Y-55177D01*
X190325Y-54992D01*
X190233Y-54751D01*
X190159Y-54455D01*
X190103Y-54122D01*
X190048Y-53714D01*
X190029Y-53288D01*
Y-53270D01*
Y-53214D01*
Y-53122D01*
X190048Y-52992D01*
X190066Y-52844D01*
X190085Y-52659D01*
X190103Y-52474D01*
X190159Y-52252D01*
X190270Y-51807D01*
X190455Y-51326D01*
X190566Y-51104D01*
X190696Y-50863D01*
X190844Y-50659D01*
X191029Y-50455D01*
X191047Y-50437D01*
X191066Y-50418D01*
X191140Y-50363D01*
X191214Y-50289D01*
X191307Y-50215D01*
X191436Y-50122D01*
X191584Y-50030D01*
X191751Y-49937D01*
X191936Y-49844D01*
X192140Y-49733D01*
X192381Y-49641D01*
X192621Y-49567D01*
X192899Y-49493D01*
X193177Y-49437D01*
X193492Y-49381D01*
X193825Y-49363D01*
X193936Y-51437D01*
X193899D01*
X193843Y-51455D01*
X193769Y-51474D01*
X193603Y-51511D01*
X193381Y-51566D01*
X193158Y-51659D01*
X192918Y-51752D01*
X192714Y-51881D01*
X192529Y-52048D01*
X192510Y-52066D01*
X192473Y-52122D01*
X192399Y-52233D01*
X192325Y-52381D01*
X192251Y-52566D01*
X192177Y-52789D01*
X192140Y-53048D01*
X192122Y-53344D01*
Y-53381D01*
Y-53474D01*
X192140Y-53640D01*
X192159Y-53825D01*
X192214Y-54029D01*
X192270Y-54233D01*
X192362Y-54455D01*
X192473Y-54640D01*
X192492Y-54659D01*
X192529Y-54714D01*
X192603Y-54788D01*
X192714Y-54862D01*
X192844Y-54936D01*
X192992Y-55010D01*
X193158Y-55066D01*
X193344Y-55085D01*
X193418D01*
X193510Y-55066D01*
X193640Y-55029D01*
X193769Y-54992D01*
X193899Y-54918D01*
X194047Y-54807D01*
X194177Y-54677D01*
X194195Y-54659D01*
X194232Y-54585D01*
X194306Y-54474D01*
X194399Y-54288D01*
X194455Y-54159D01*
X194529Y-54029D01*
X194584Y-53881D01*
X194658Y-53696D01*
X194732Y-53511D01*
X194806Y-53288D01*
X194880Y-53048D01*
X194954Y-52789D01*
Y-52770D01*
X194973Y-52715D01*
X194991Y-52640D01*
X195029Y-52529D01*
X195084Y-52400D01*
X195121Y-52252D01*
X195251Y-51918D01*
X195399Y-51548D01*
X195547Y-51178D01*
X195732Y-50826D01*
X195825Y-50659D01*
X195917Y-50529D01*
X195936Y-50493D01*
X196010Y-50418D01*
X196103Y-50289D01*
X196251Y-50122D01*
X196436Y-49956D01*
X196658Y-49770D01*
X196917Y-49604D01*
X197195Y-49456D01*
X197232Y-49437D01*
X197343Y-49400D01*
X197510Y-49345D01*
X197732Y-49270D01*
X198010Y-49196D01*
X198343Y-49141D01*
X198713Y-49104D01*
X199121Y-49085D01*
X199269D01*
X199398Y-49104D01*
D02*
G37*
G36*
X192344Y-42938D02*
X202750D01*
Y-45012D01*
X192344D01*
Y-48067D01*
X190233D01*
Y-39901D01*
X192344D01*
Y-42938D01*
D02*
G37*
G36*
X160630Y105699D02*
X45000D01*
Y127105D01*
X160630D01*
Y105699D01*
D02*
G37*
G36*
X249045Y349286D02*
X249175Y349267D01*
X249323Y349230D01*
X249675Y349119D01*
X249860Y349045D01*
X250063Y348952D01*
X250249Y348841D01*
X250452Y348712D01*
X250656Y348545D01*
X250860Y348341D01*
X251045Y348138D01*
X251230Y347878D01*
X251248Y347860D01*
X251267Y347804D01*
X251323Y347730D01*
X251378Y347601D01*
X251452Y347434D01*
X251526Y347249D01*
X251600Y347008D01*
X251693Y346730D01*
X251786Y346397D01*
X251860Y346045D01*
X251934Y345638D01*
X252008Y345175D01*
X252063Y344694D01*
X252119Y344138D01*
X252137Y343564D01*
X252156Y342916D01*
Y342897D01*
Y342879D01*
Y342823D01*
Y342768D01*
Y342583D01*
X252137Y342342D01*
Y342046D01*
X252100Y341731D01*
X252082Y341361D01*
X252045Y340972D01*
X251934Y340157D01*
X251767Y339324D01*
X251656Y338935D01*
X251545Y338583D01*
X251397Y338250D01*
X251230Y337954D01*
X251211Y337935D01*
X251193Y337898D01*
X251137Y337824D01*
X251063Y337731D01*
X250971Y337620D01*
X250860Y337509D01*
X250582Y337250D01*
X250230Y336991D01*
X249823Y336768D01*
X249601Y336676D01*
X249360Y336602D01*
X249101Y336565D01*
X248823Y336546D01*
X248749D01*
X248675Y336565D01*
X248582D01*
X248452Y336583D01*
X248304Y336620D01*
X247953Y336713D01*
X247767Y336787D01*
X247564Y336880D01*
X247379Y336991D01*
X247175Y337139D01*
X246971Y337287D01*
X246768Y337472D01*
X246582Y337694D01*
X246397Y337935D01*
X246379Y337954D01*
X246360Y338009D01*
X246323Y338083D01*
X246249Y338213D01*
X246194Y338380D01*
X246119Y338565D01*
X246027Y338805D01*
X245953Y339083D01*
X245860Y339416D01*
X245786Y339768D01*
X245694Y340176D01*
X245638Y340639D01*
X245583Y341138D01*
X245527Y341694D01*
X245508Y342286D01*
X245490Y342934D01*
Y342953D01*
Y342972D01*
Y343027D01*
Y343083D01*
Y343268D01*
X245508Y343509D01*
X245527Y343786D01*
X245545Y344120D01*
X245564Y344490D01*
X245601Y344879D01*
X245712Y345694D01*
X245879Y346508D01*
X245971Y346897D01*
X246101Y347249D01*
X246231Y347582D01*
X246397Y347878D01*
X246416Y347897D01*
X246434Y347934D01*
X246490Y348008D01*
X246564Y348101D01*
X246656Y348212D01*
X246768Y348323D01*
X247045Y348601D01*
X247397Y348860D01*
X247805Y349082D01*
X248027Y349175D01*
X248267Y349249D01*
X248527Y349286D01*
X248804Y349304D01*
X248953D01*
X249045Y349286D01*
D02*
G37*
G36*
X241138D02*
X241287Y349267D01*
X241435Y349249D01*
X241805Y349175D01*
X242194Y349045D01*
X242398Y348971D01*
X242601Y348860D01*
X242805Y348730D01*
X242990Y348601D01*
X243157Y348434D01*
X243323Y348249D01*
X243342Y348230D01*
X243361Y348193D01*
X243398Y348138D01*
X243453Y348064D01*
X243509Y347971D01*
X243583Y347841D01*
X243749Y347545D01*
X243897Y347193D01*
X244027Y346786D01*
X244120Y346342D01*
X244157Y346101D01*
Y345842D01*
Y345805D01*
Y345712D01*
X244138Y345564D01*
Y345360D01*
X244101Y345138D01*
X244064Y344879D01*
X244009Y344620D01*
X243934Y344342D01*
Y344305D01*
X243897Y344212D01*
X243842Y344083D01*
X243786Y343897D01*
X243694Y343675D01*
X243583Y343434D01*
X243435Y343175D01*
X243286Y342897D01*
X243268Y342860D01*
X243212Y342768D01*
X243101Y342601D01*
X242953Y342398D01*
X242749Y342120D01*
X242490Y341805D01*
X242194Y341435D01*
X241842Y341027D01*
X241824Y341009D01*
X241805Y340990D01*
X241749Y340935D01*
X241694Y340861D01*
X241527Y340676D01*
X241342Y340453D01*
X241138Y340213D01*
X240935Y339990D01*
X240768Y339787D01*
X240639Y339620D01*
X240620Y339602D01*
X240602Y339565D01*
X240546Y339491D01*
X240490Y339416D01*
X240361Y339213D01*
X240231Y338972D01*
X244157D01*
Y336750D01*
X237250D01*
Y336768D01*
Y336805D01*
X237269Y336880D01*
Y336972D01*
X237287Y337083D01*
X237324Y337213D01*
X237380Y337528D01*
X237454Y337879D01*
X237583Y338287D01*
X237731Y338713D01*
X237917Y339139D01*
Y339157D01*
X237954Y339194D01*
X237972Y339250D01*
X238028Y339342D01*
X238102Y339453D01*
X238176Y339602D01*
X238287Y339750D01*
X238417Y339935D01*
X238546Y340139D01*
X238713Y340361D01*
X238880Y340602D01*
X239083Y340879D01*
X239305Y341157D01*
X239565Y341453D01*
X239824Y341786D01*
X240120Y342120D01*
X240139Y342138D01*
X240176Y342194D01*
X240250Y342268D01*
X240324Y342360D01*
X240435Y342472D01*
X240546Y342620D01*
X240805Y342934D01*
X241083Y343268D01*
X241342Y343583D01*
X241564Y343879D01*
X241657Y344008D01*
X241731Y344120D01*
X241749Y344157D01*
X241805Y344249D01*
X241879Y344397D01*
X241953Y344601D01*
X242027Y344823D01*
X242101Y345083D01*
X242157Y345360D01*
X242175Y345638D01*
Y345657D01*
Y345675D01*
Y345768D01*
X242157Y345916D01*
X242138Y346101D01*
X242083Y346305D01*
X242027Y346508D01*
X241935Y346712D01*
X241805Y346879D01*
X241787Y346897D01*
X241731Y346953D01*
X241657Y347008D01*
X241546Y347101D01*
X241416Y347175D01*
X241250Y347230D01*
X241046Y347286D01*
X240842Y347304D01*
X240787D01*
X240713Y347286D01*
X240639Y347267D01*
X240416Y347193D01*
X240305Y347138D01*
X240176Y347064D01*
X240046Y346953D01*
X239916Y346823D01*
X239805Y346675D01*
X239694Y346471D01*
X239602Y346249D01*
X239527Y345990D01*
X239472Y345694D01*
X239435Y345342D01*
X237472Y345601D01*
Y345620D01*
X237491Y345694D01*
Y345786D01*
X237509Y345916D01*
X237546Y346064D01*
X237565Y346249D01*
X237620Y346453D01*
X237676Y346675D01*
X237806Y347119D01*
X237991Y347582D01*
X238231Y348027D01*
X238361Y348212D01*
X238528Y348397D01*
X238546Y348415D01*
X238565Y348434D01*
X238620Y348489D01*
X238694Y348545D01*
X238787Y348601D01*
X238880Y348693D01*
X239157Y348860D01*
X239491Y349026D01*
X239898Y349156D01*
X240361Y349267D01*
X240620Y349286D01*
X240879Y349304D01*
X241027D01*
X241138Y349286D01*
D02*
G37*
G36*
X67017Y168786D02*
X67147Y168767D01*
X67295Y168730D01*
X67647Y168619D01*
X67832Y168545D01*
X68036Y168452D01*
X68221Y168341D01*
X68425Y168212D01*
X68628Y168045D01*
X68832Y167841D01*
X69017Y167638D01*
X69202Y167379D01*
X69221Y167360D01*
X69239Y167304D01*
X69295Y167230D01*
X69351Y167101D01*
X69425Y166934D01*
X69499Y166749D01*
X69573Y166508D01*
X69665Y166231D01*
X69758Y165897D01*
X69832Y165545D01*
X69906Y165138D01*
X69980Y164675D01*
X70036Y164194D01*
X70091Y163638D01*
X70110Y163064D01*
X70128Y162416D01*
Y162397D01*
Y162379D01*
Y162323D01*
Y162268D01*
Y162083D01*
X70110Y161842D01*
Y161546D01*
X70073Y161231D01*
X70054Y160861D01*
X70017Y160472D01*
X69906Y159657D01*
X69739Y158824D01*
X69628Y158435D01*
X69517Y158083D01*
X69369Y157750D01*
X69202Y157454D01*
X69184Y157435D01*
X69165Y157398D01*
X69110Y157324D01*
X69036Y157231D01*
X68943Y157120D01*
X68832Y157009D01*
X68554Y156750D01*
X68202Y156491D01*
X67795Y156269D01*
X67573Y156176D01*
X67332Y156102D01*
X67073Y156065D01*
X66795Y156046D01*
X66721D01*
X66647Y156065D01*
X66554D01*
X66425Y156083D01*
X66277Y156120D01*
X65925Y156213D01*
X65740Y156287D01*
X65536Y156380D01*
X65351Y156491D01*
X65147Y156639D01*
X64943Y156787D01*
X64740Y156972D01*
X64555Y157194D01*
X64370Y157435D01*
X64351Y157454D01*
X64332Y157509D01*
X64295Y157583D01*
X64221Y157713D01*
X64166Y157879D01*
X64092Y158065D01*
X63999Y158305D01*
X63925Y158583D01*
X63833Y158916D01*
X63758Y159268D01*
X63666Y159676D01*
X63610Y160138D01*
X63555Y160638D01*
X63499Y161194D01*
X63481Y161786D01*
X63462Y162435D01*
Y162453D01*
Y162472D01*
Y162527D01*
Y162583D01*
Y162768D01*
X63481Y163009D01*
X63499Y163286D01*
X63518Y163620D01*
X63536Y163990D01*
X63573Y164379D01*
X63684Y165194D01*
X63851Y166008D01*
X63944Y166397D01*
X64073Y166749D01*
X64203Y167082D01*
X64370Y167379D01*
X64388Y167397D01*
X64406Y167434D01*
X64462Y167508D01*
X64536Y167601D01*
X64629Y167712D01*
X64740Y167823D01*
X65018Y168101D01*
X65369Y168360D01*
X65777Y168582D01*
X65999Y168675D01*
X66240Y168749D01*
X66499Y168786D01*
X66777Y168804D01*
X66925D01*
X67017Y168786D01*
D02*
G37*
G36*
X61037Y336250D02*
X59055D01*
Y345305D01*
X59037Y345286D01*
X59000Y345249D01*
X58944Y345193D01*
X58852Y345101D01*
X58759Y345008D01*
X58629Y344879D01*
X58481Y344749D01*
X58315Y344619D01*
X57944Y344323D01*
X57518Y344008D01*
X57018Y343731D01*
X56500Y343490D01*
Y345675D01*
X56519D01*
X56537Y345694D01*
X56648Y345731D01*
X56796Y345823D01*
X57018Y345934D01*
X57278Y346101D01*
X57555Y346305D01*
X57870Y346545D01*
X58204Y346842D01*
X58222Y346860D01*
X58240Y346879D01*
X58352Y346990D01*
X58500Y347175D01*
X58685Y347416D01*
X58889Y347693D01*
X59092Y348027D01*
X59278Y348397D01*
X59426Y348804D01*
X61037D01*
Y336250D01*
D02*
G37*
G36*
X242287Y156750D02*
X240305D01*
Y165805D01*
X240287Y165786D01*
X240250Y165749D01*
X240194Y165693D01*
X240102Y165601D01*
X240009Y165508D01*
X239879Y165379D01*
X239731Y165249D01*
X239565Y165119D01*
X239194Y164823D01*
X238768Y164508D01*
X238269Y164231D01*
X237750Y163990D01*
Y166175D01*
X237768D01*
X237787Y166194D01*
X237898Y166231D01*
X238046Y166323D01*
X238269Y166434D01*
X238528Y166601D01*
X238805Y166805D01*
X239120Y167045D01*
X239454Y167341D01*
X239472Y167360D01*
X239491Y167379D01*
X239602Y167490D01*
X239750Y167675D01*
X239935Y167915D01*
X240139Y168193D01*
X240342Y168527D01*
X240527Y168897D01*
X240676Y169304D01*
X242287D01*
Y156750D01*
D02*
G37*
G36*
X250267D02*
X248286D01*
Y165805D01*
X248267Y165786D01*
X248230Y165749D01*
X248175Y165693D01*
X248082Y165601D01*
X247990Y165508D01*
X247860Y165379D01*
X247712Y165249D01*
X247545Y165119D01*
X247175Y164823D01*
X246749Y164508D01*
X246249Y164231D01*
X245731Y163990D01*
Y166175D01*
X245749D01*
X245768Y166194D01*
X245879Y166231D01*
X246027Y166323D01*
X246249Y166434D01*
X246508Y166601D01*
X246786Y166805D01*
X247101Y167045D01*
X247434Y167341D01*
X247453Y167360D01*
X247471Y167379D01*
X247582Y167490D01*
X247730Y167675D01*
X247916Y167915D01*
X248119Y168193D01*
X248323Y168527D01*
X248508Y168897D01*
X248656Y169304D01*
X250267D01*
Y156750D01*
D02*
G37*
G36*
X188887Y66194D02*
Y66157D01*
Y66083D01*
Y65953D01*
Y65786D01*
Y65583D01*
X188868Y65342D01*
Y65083D01*
X188850Y64787D01*
X188813Y64194D01*
X188776Y63601D01*
X188739Y63305D01*
X188702Y63028D01*
X188665Y62768D01*
X188609Y62546D01*
Y62527D01*
X188591Y62491D01*
X188572Y62435D01*
X188554Y62361D01*
X188480Y62157D01*
X188350Y61898D01*
X188183Y61620D01*
X187980Y61305D01*
X187720Y61009D01*
X187387Y60731D01*
X187369D01*
X187350Y60694D01*
X187295Y60676D01*
X187220Y60620D01*
X187128Y60565D01*
X187017Y60509D01*
X186869Y60454D01*
X186721Y60398D01*
X186369Y60269D01*
X185943Y60157D01*
X185461Y60083D01*
X184906Y60046D01*
X184758D01*
X184647Y60065D01*
X184499D01*
X184350Y60083D01*
X183980Y60120D01*
X183591Y60194D01*
X183165Y60287D01*
X182758Y60435D01*
X182388Y60620D01*
X182369D01*
X182351Y60639D01*
X182239Y60731D01*
X182073Y60861D01*
X181888Y61046D01*
X181665Y61268D01*
X181443Y61546D01*
X181240Y61861D01*
X181073Y62231D01*
Y62250D01*
X181054Y62287D01*
X181036Y62342D01*
X181017Y62435D01*
X180980Y62565D01*
X180943Y62713D01*
X180906Y62898D01*
X180888Y63102D01*
X180851Y63361D01*
X180814Y63639D01*
X180777Y63953D01*
X180740Y64305D01*
X180721Y64694D01*
X180703Y65120D01*
X180684Y65583D01*
Y66083D01*
Y72767D01*
X182758D01*
Y65990D01*
Y65972D01*
Y65916D01*
Y65842D01*
Y65731D01*
Y65620D01*
Y65472D01*
X182776Y65138D01*
Y64805D01*
X182795Y64453D01*
X182813Y64157D01*
Y64046D01*
X182832Y63935D01*
Y63898D01*
X182869Y63805D01*
X182906Y63657D01*
X182962Y63472D01*
X183054Y63250D01*
X183165Y63046D01*
X183295Y62842D01*
X183480Y62657D01*
X183499Y62639D01*
X183573Y62583D01*
X183684Y62509D01*
X183850Y62435D01*
X184036Y62361D01*
X184276Y62287D01*
X184554Y62231D01*
X184850Y62213D01*
X184980D01*
X185110Y62231D01*
X185276Y62250D01*
X185461Y62287D01*
X185646Y62342D01*
X185832Y62416D01*
X186017Y62527D01*
X186035Y62546D01*
X186091Y62583D01*
X186165Y62657D01*
X186258Y62750D01*
X186369Y62879D01*
X186461Y63028D01*
X186554Y63194D01*
X186628Y63398D01*
Y63435D01*
X186665Y63509D01*
Y63583D01*
X186683Y63676D01*
X186702Y63787D01*
X186721Y63916D01*
X186739Y64064D01*
X186758Y64250D01*
X186776Y64453D01*
Y64675D01*
X186794Y64916D01*
X186813Y65194D01*
Y65509D01*
Y65842D01*
Y72767D01*
X188887D01*
Y66194D01*
D02*
G37*
G36*
X175111Y72952D02*
X175259Y72934D01*
X175425Y72915D01*
X175611Y72878D01*
X175814Y72823D01*
X176277Y72675D01*
X176518Y72582D01*
X176758Y72471D01*
X176999Y72323D01*
X177240Y72156D01*
X177481Y71971D01*
X177703Y71767D01*
X177721D01*
X177740Y71730D01*
X177777Y71675D01*
X177833Y71619D01*
X177907Y71527D01*
X177981Y71416D01*
X178073Y71286D01*
X178166Y71138D01*
X178258Y70971D01*
X178370Y70805D01*
X178462Y70601D01*
X178573Y70379D01*
X178666Y70119D01*
X178758Y69860D01*
X178851Y69582D01*
X178925Y69286D01*
X176870Y68694D01*
Y68712D01*
X176851Y68731D01*
Y68786D01*
X176833Y68860D01*
X176777Y69045D01*
X176703Y69268D01*
X176592Y69527D01*
X176444Y69786D01*
X176277Y70027D01*
X176073Y70249D01*
X176055Y70268D01*
X175981Y70342D01*
X175851Y70434D01*
X175685Y70527D01*
X175481Y70638D01*
X175259Y70712D01*
X175000Y70786D01*
X174703Y70805D01*
X174592D01*
X174518Y70786D01*
X174314Y70749D01*
X174055Y70675D01*
X173759Y70564D01*
X173444Y70379D01*
X173296Y70268D01*
X173148Y70138D01*
X173000Y69990D01*
X172852Y69805D01*
Y69786D01*
X172815Y69767D01*
X172796Y69693D01*
X172740Y69619D01*
X172685Y69508D01*
X172629Y69379D01*
X172574Y69212D01*
X172500Y69027D01*
X172426Y68823D01*
X172370Y68583D01*
X172315Y68305D01*
X172259Y68008D01*
X172222Y67694D01*
X172185Y67342D01*
X172148Y66953D01*
Y66546D01*
Y66527D01*
Y66434D01*
Y66323D01*
X172166Y66157D01*
Y65972D01*
X172185Y65749D01*
X172204Y65509D01*
X172241Y65250D01*
X172315Y64694D01*
X172444Y64138D01*
X172518Y63879D01*
X172611Y63620D01*
X172722Y63398D01*
X172833Y63194D01*
Y63176D01*
X172870Y63157D01*
X172963Y63046D01*
X173111Y62879D01*
X173333Y62713D01*
X173592Y62527D01*
X173888Y62361D01*
X174259Y62250D01*
X174444Y62231D01*
X174648Y62213D01*
X174685D01*
X174777Y62231D01*
X174944Y62250D01*
X175129Y62287D01*
X175351Y62361D01*
X175592Y62472D01*
X175833Y62639D01*
X176055Y62842D01*
X176073Y62879D01*
X176147Y62972D01*
X176259Y63120D01*
X176388Y63342D01*
X176536Y63620D01*
X176666Y63972D01*
X176814Y64379D01*
X176925Y64879D01*
X178944Y64101D01*
Y64083D01*
X178925Y64009D01*
X178888Y63898D01*
X178851Y63750D01*
X178795Y63583D01*
X178740Y63379D01*
X178666Y63157D01*
X178573Y62916D01*
X178351Y62416D01*
X178073Y61898D01*
X177758Y61417D01*
X177573Y61213D01*
X177370Y61009D01*
X177351Y60991D01*
X177314Y60972D01*
X177258Y60917D01*
X177166Y60861D01*
X177073Y60787D01*
X176944Y60713D01*
X176796Y60620D01*
X176629Y60528D01*
X176444Y60435D01*
X176240Y60343D01*
X175777Y60194D01*
X175259Y60083D01*
X174981Y60065D01*
X174685Y60046D01*
X174592D01*
X174499Y60065D01*
X174351D01*
X174185Y60102D01*
X173981Y60120D01*
X173759Y60176D01*
X173518Y60231D01*
X173259Y60324D01*
X173000Y60417D01*
X172740Y60546D01*
X172463Y60694D01*
X172185Y60880D01*
X171926Y61083D01*
X171667Y61305D01*
X171426Y61583D01*
X171407Y61602D01*
X171370Y61657D01*
X171296Y61768D01*
X171204Y61916D01*
X171092Y62083D01*
X170981Y62305D01*
X170852Y62565D01*
X170722Y62861D01*
X170574Y63176D01*
X170444Y63546D01*
X170333Y63935D01*
X170222Y64361D01*
X170130Y64824D01*
X170056Y65324D01*
X170019Y65842D01*
X170000Y66398D01*
Y66416D01*
Y66434D01*
Y66546D01*
X170019Y66712D01*
Y66916D01*
X170037Y67194D01*
X170074Y67509D01*
X170130Y67842D01*
X170185Y68212D01*
X170259Y68619D01*
X170352Y69027D01*
X170463Y69434D01*
X170611Y69860D01*
X170778Y70268D01*
X170963Y70656D01*
X171185Y71045D01*
X171444Y71397D01*
X171463Y71416D01*
X171500Y71471D01*
X171574Y71545D01*
X171667Y71638D01*
X171796Y71767D01*
X171944Y71897D01*
X172129Y72045D01*
X172333Y72193D01*
X172555Y72323D01*
X172815Y72471D01*
X173092Y72601D01*
X173389Y72730D01*
X173722Y72823D01*
X174055Y72897D01*
X174426Y72952D01*
X174814Y72971D01*
X174981D01*
X175111Y72952D01*
D02*
G37*
G36*
X42537Y60000D02*
X40555D01*
Y69055D01*
X40537Y69036D01*
X40500Y68999D01*
X40444Y68944D01*
X40352Y68851D01*
X40259Y68758D01*
X40129Y68629D01*
X39981Y68499D01*
X39815Y68369D01*
X39444Y68073D01*
X39018Y67758D01*
X38519Y67481D01*
X38000Y67240D01*
Y69425D01*
X38019D01*
X38037Y69443D01*
X38148Y69481D01*
X38296Y69573D01*
X38519Y69684D01*
X38778Y69851D01*
X39055Y70054D01*
X39370Y70295D01*
X39704Y70592D01*
X39722Y70610D01*
X39741Y70628D01*
X39852Y70740D01*
X40000Y70925D01*
X40185Y71165D01*
X40389Y71443D01*
X40592Y71777D01*
X40778Y72147D01*
X40926Y72554D01*
X42537D01*
Y60000D01*
D02*
G37*
G36*
X60537Y156250D02*
X58555D01*
Y165305D01*
X58537Y165286D01*
X58500Y165249D01*
X58444Y165194D01*
X58352Y165101D01*
X58259Y165008D01*
X58129Y164879D01*
X57981Y164749D01*
X57815Y164620D01*
X57444Y164323D01*
X57018Y164009D01*
X56519Y163731D01*
X56000Y163490D01*
Y165675D01*
X56019D01*
X56037Y165693D01*
X56148Y165730D01*
X56296Y165823D01*
X56519Y165934D01*
X56778Y166101D01*
X57055Y166304D01*
X57370Y166545D01*
X57703Y166842D01*
X57722Y166860D01*
X57741Y166879D01*
X57852Y166990D01*
X58000Y167175D01*
X58185Y167416D01*
X58389Y167693D01*
X58592Y168027D01*
X58777Y168397D01*
X58926Y168804D01*
X60537D01*
Y156250D01*
D02*
G37*
G36*
X228537Y317750D02*
X226555D01*
Y326805D01*
X226537Y326786D01*
X226500Y326749D01*
X226444Y326693D01*
X226352Y326601D01*
X226259Y326508D01*
X226129Y326379D01*
X225981Y326249D01*
X225815Y326119D01*
X225444Y325823D01*
X225018Y325508D01*
X224519Y325231D01*
X224000Y324990D01*
Y327175D01*
X224018D01*
X224037Y327193D01*
X224148Y327230D01*
X224296Y327323D01*
X224519Y327434D01*
X224778Y327601D01*
X225056Y327804D01*
X225370Y328045D01*
X225704Y328341D01*
X225722Y328360D01*
X225741Y328378D01*
X225852Y328490D01*
X226000Y328675D01*
X226185Y328915D01*
X226389Y329193D01*
X226592Y329527D01*
X226777Y329897D01*
X226926Y330304D01*
X228537D01*
Y317750D01*
D02*
G37*
G36*
X195849Y72749D02*
X196016D01*
X196368Y72730D01*
X196756Y72675D01*
X197145Y72619D01*
X197516Y72526D01*
X197682Y72471D01*
X197830Y72415D01*
X197868Y72397D01*
X197960Y72360D01*
X198090Y72267D01*
X198256Y72138D01*
X198442Y71989D01*
X198627Y71786D01*
X198830Y71545D01*
X199016Y71249D01*
X199034Y71212D01*
X199090Y71101D01*
X199164Y70916D01*
X199256Y70693D01*
X199330Y70397D01*
X199404Y70045D01*
X199460Y69675D01*
X199478Y69249D01*
Y69230D01*
Y69194D01*
Y69101D01*
X199460Y69008D01*
Y68879D01*
X199441Y68731D01*
X199386Y68397D01*
X199312Y68027D01*
X199182Y67638D01*
X198997Y67249D01*
X198756Y66879D01*
Y66860D01*
X198719Y66842D01*
X198627Y66731D01*
X198460Y66583D01*
X198238Y66416D01*
X197960Y66212D01*
X197608Y66027D01*
X197219Y65879D01*
X196756Y65768D01*
X196793Y65749D01*
X196868Y65675D01*
X196997Y65583D01*
X197145Y65453D01*
X197312Y65305D01*
X197497Y65120D01*
X197682Y64916D01*
X197849Y64713D01*
X197868Y64694D01*
X197923Y64601D01*
X198034Y64453D01*
X198164Y64250D01*
X198330Y63972D01*
X198423Y63805D01*
X198534Y63620D01*
X198645Y63416D01*
X198775Y63194D01*
X198904Y62935D01*
X199034Y62676D01*
X200293Y60250D01*
X197793D01*
X196312Y62972D01*
Y62990D01*
X196275Y63046D01*
X196238Y63120D01*
X196182Y63213D01*
X196108Y63324D01*
X196034Y63453D01*
X195868Y63750D01*
X195683Y64064D01*
X195497Y64379D01*
X195423Y64509D01*
X195331Y64620D01*
X195257Y64731D01*
X195201Y64805D01*
X195183Y64824D01*
X195145Y64861D01*
X195090Y64935D01*
X195016Y65009D01*
X194831Y65175D01*
X194720Y65268D01*
X194590Y65324D01*
X194571D01*
X194534Y65342D01*
X194460Y65379D01*
X194349Y65398D01*
X194201Y65435D01*
X194016Y65453D01*
X193812Y65472D01*
X193146D01*
Y60250D01*
X191072D01*
Y72767D01*
X195720D01*
X195849Y72749D01*
D02*
G37*
G36*
X252250Y-35753D02*
X246380Y-38549D01*
X248473Y-40234D01*
X252250D01*
Y-42308D01*
X239733D01*
Y-40234D01*
X245325D01*
X239733Y-36031D01*
Y-33235D01*
X244584Y-37087D01*
X252250Y-33050D01*
Y-35753D01*
D02*
G37*
G36*
Y-31994D02*
X239733D01*
Y-24366D01*
X241844D01*
Y-29920D01*
X244621D01*
Y-24754D01*
X246732D01*
Y-29920D01*
X250139D01*
Y-24180D01*
X252250D01*
Y-31994D01*
D02*
G37*
G36*
X115250Y-64250D02*
X102733D01*
Y-62176D01*
X115250D01*
Y-64250D01*
D02*
G37*
G36*
X32752Y11577D02*
X32629D01*
Y-5589D01*
X15827D01*
Y11577D01*
X15778D01*
Y40799D01*
X32752D01*
Y11577D01*
D02*
G37*
G36*
X252250Y-56270D02*
Y-58473D01*
X242899Y-60528D01*
X252250Y-62565D01*
Y-64824D01*
X239733Y-67250D01*
Y-65139D01*
X248343Y-63602D01*
X239733Y-61732D01*
Y-59269D01*
X248491Y-57455D01*
X239733Y-55881D01*
Y-53788D01*
X252250Y-56270D01*
D02*
G37*
G36*
Y-45678D02*
X249417Y-46567D01*
Y-50715D01*
X252250Y-51548D01*
Y-53751D01*
X239733Y-49770D01*
Y-47567D01*
X252250Y-43438D01*
Y-45678D01*
D02*
G37*
G36*
X106936Y-42789D02*
X107084D01*
X107399Y-42826D01*
X107751Y-42900D01*
X108140Y-42993D01*
X108510Y-43123D01*
X108880Y-43289D01*
X108899D01*
X108917Y-43308D01*
X109028Y-43382D01*
X109195Y-43493D01*
X109380Y-43641D01*
X109584Y-43826D01*
X109806Y-44048D01*
X109991Y-44308D01*
X110158Y-44585D01*
X110176Y-44622D01*
X110195Y-44659D01*
X110213Y-44734D01*
X110251Y-44826D01*
X110269Y-44919D01*
X110306Y-45048D01*
X110343Y-45196D01*
X110380Y-45363D01*
X110417Y-45567D01*
X110436Y-45770D01*
X110473Y-46011D01*
X110491Y-46270D01*
X110510Y-46567D01*
X110528Y-46881D01*
Y-47215D01*
Y-48566D01*
X115250D01*
Y-50640D01*
X102733D01*
Y-47326D01*
Y-47307D01*
Y-47252D01*
Y-47141D01*
Y-47030D01*
Y-46881D01*
Y-46696D01*
X102751Y-46326D01*
X102770Y-45900D01*
X102807Y-45511D01*
X102825Y-45326D01*
X102862Y-45159D01*
X102881Y-45011D01*
X102918Y-44882D01*
Y-44863D01*
X102936Y-44845D01*
X102973Y-44734D01*
X103066Y-44567D01*
X103177Y-44345D01*
X103344Y-44123D01*
X103566Y-43863D01*
X103825Y-43622D01*
X104159Y-43382D01*
X104177D01*
X104196Y-43363D01*
X104251Y-43326D01*
X104325Y-43289D01*
X104418Y-43234D01*
X104529Y-43197D01*
X104658Y-43141D01*
X104825Y-43067D01*
X105177Y-42956D01*
X105584Y-42863D01*
X106066Y-42789D01*
X106603Y-42771D01*
X106825D01*
X106936Y-42789D01*
D02*
G37*
G36*
X38100Y-76150D02*
X-12700D01*
Y-25350D01*
X38100Y-76150D01*
D02*
G37*
G36*
X317500D02*
X266700D01*
X317500Y-25200D01*
Y-76150D01*
D02*
G37*
G36*
X111898Y-52399D02*
X112028Y-52418D01*
X112195Y-52436D01*
X112380Y-52474D01*
X112565Y-52510D01*
X113010Y-52622D01*
X113472Y-52807D01*
X113695Y-52918D01*
X113917Y-53066D01*
X114139Y-53214D01*
X114361Y-53399D01*
X114380Y-53418D01*
X114417Y-53455D01*
X114454Y-53510D01*
X114528Y-53584D01*
X114620Y-53696D01*
X114713Y-53825D01*
X114806Y-53992D01*
X114898Y-54159D01*
X115009Y-54362D01*
X115102Y-54603D01*
X115195Y-54862D01*
X115287Y-55140D01*
X115361Y-55455D01*
X115398Y-55788D01*
X115435Y-56140D01*
X115454Y-56529D01*
Y-56547D01*
Y-56566D01*
Y-56621D01*
Y-56695D01*
X115417Y-56880D01*
X115380Y-57121D01*
X115324Y-57417D01*
X115232Y-57751D01*
X115102Y-58102D01*
X114917Y-58473D01*
X114694Y-58843D01*
X114398Y-59214D01*
X114065Y-59565D01*
X113861Y-59732D01*
X113639Y-59899D01*
X113398Y-60047D01*
X113158Y-60176D01*
X112880Y-60306D01*
X112584Y-60436D01*
X112250Y-60528D01*
X111917Y-60621D01*
X111547Y-60676D01*
X111158Y-60732D01*
X110917Y-58713D01*
X110936D01*
X111028Y-58695D01*
X111139Y-58677D01*
X111287Y-58639D01*
X111473Y-58584D01*
X111676Y-58510D01*
X111898Y-58417D01*
X112121Y-58306D01*
X112343Y-58177D01*
X112565Y-58028D01*
X112769Y-57843D01*
X112954Y-57621D01*
X113102Y-57380D01*
X113213Y-57121D01*
X113306Y-56806D01*
X113324Y-56473D01*
Y-56455D01*
Y-56436D01*
Y-56325D01*
X113306Y-56158D01*
X113269Y-55936D01*
X113213Y-55714D01*
X113121Y-55473D01*
X113010Y-55232D01*
X112843Y-55010D01*
X112824Y-54992D01*
X112750Y-54918D01*
X112639Y-54825D01*
X112510Y-54732D01*
X112324Y-54621D01*
X112121Y-54547D01*
X111880Y-54473D01*
X111621Y-54455D01*
X111547D01*
X111473Y-54473D01*
X111362D01*
X111139Y-54547D01*
X111010Y-54584D01*
X110899Y-54658D01*
X110880D01*
X110843Y-54695D01*
X110732Y-54806D01*
X110658Y-54881D01*
X110565Y-54973D01*
X110491Y-55103D01*
X110417Y-55232D01*
X110399Y-55251D01*
X110380Y-55307D01*
X110325Y-55436D01*
X110251Y-55603D01*
X110213Y-55714D01*
X110176Y-55844D01*
X110121Y-55992D01*
X110065Y-56177D01*
X109991Y-56362D01*
X109917Y-56584D01*
X109843Y-56825D01*
X109769Y-57084D01*
Y-57103D01*
X109751Y-57140D01*
X109732Y-57214D01*
X109695Y-57306D01*
X109658Y-57417D01*
X109621Y-57529D01*
X109510Y-57825D01*
X109380Y-58140D01*
X109232Y-58473D01*
X109066Y-58769D01*
X108899Y-59028D01*
X108880Y-59047D01*
X108806Y-59121D01*
X108714Y-59232D01*
X108566Y-59380D01*
X108399Y-59528D01*
X108195Y-59695D01*
X107955Y-59862D01*
X107677Y-60010D01*
X107640Y-60028D01*
X107547Y-60065D01*
X107381Y-60121D01*
X107177Y-60176D01*
X106936Y-60250D01*
X106658Y-60306D01*
X106343Y-60343D01*
X106029Y-60361D01*
X105862D01*
X105658Y-60343D01*
X105418Y-60306D01*
X105140Y-60250D01*
X104825Y-60158D01*
X104510Y-60047D01*
X104196Y-59899D01*
X104177D01*
X104159Y-59880D01*
X104066Y-59806D01*
X103918Y-59713D01*
X103733Y-59565D01*
X103529Y-59380D01*
X103325Y-59158D01*
X103122Y-58917D01*
X102955Y-58621D01*
Y-58602D01*
X102936Y-58584D01*
X102881Y-58473D01*
X102825Y-58288D01*
X102733Y-58047D01*
X102659Y-57751D01*
X102603Y-57417D01*
X102548Y-57010D01*
X102529Y-56584D01*
Y-56566D01*
Y-56510D01*
Y-56417D01*
X102548Y-56288D01*
X102566Y-56140D01*
X102585Y-55955D01*
X102603Y-55769D01*
X102659Y-55547D01*
X102770Y-55103D01*
X102955Y-54621D01*
X103066Y-54399D01*
X103196Y-54159D01*
X103344Y-53955D01*
X103529Y-53751D01*
X103547Y-53733D01*
X103566Y-53714D01*
X103640Y-53658D01*
X103714Y-53584D01*
X103807Y-53510D01*
X103936Y-53418D01*
X104085Y-53325D01*
X104251Y-53233D01*
X104436Y-53140D01*
X104640Y-53029D01*
X104881Y-52936D01*
X105121Y-52862D01*
X105399Y-52788D01*
X105677Y-52733D01*
X105992Y-52677D01*
X106325Y-52659D01*
X106436Y-54732D01*
X106399D01*
X106343Y-54751D01*
X106270Y-54770D01*
X106103Y-54806D01*
X105881Y-54862D01*
X105658Y-54955D01*
X105418Y-55047D01*
X105214Y-55177D01*
X105029Y-55343D01*
X105010Y-55362D01*
X104973Y-55418D01*
X104899Y-55529D01*
X104825Y-55677D01*
X104751Y-55862D01*
X104677Y-56084D01*
X104640Y-56343D01*
X104621Y-56640D01*
Y-56677D01*
Y-56769D01*
X104640Y-56936D01*
X104658Y-57121D01*
X104714Y-57325D01*
X104770Y-57529D01*
X104862Y-57751D01*
X104973Y-57936D01*
X104992Y-57954D01*
X105029Y-58010D01*
X105103Y-58084D01*
X105214Y-58158D01*
X105344Y-58232D01*
X105492Y-58306D01*
X105658Y-58362D01*
X105844Y-58380D01*
X105918D01*
X106010Y-58362D01*
X106140Y-58325D01*
X106270Y-58288D01*
X106399Y-58214D01*
X106547Y-58102D01*
X106677Y-57973D01*
X106695Y-57954D01*
X106732Y-57880D01*
X106806Y-57769D01*
X106899Y-57584D01*
X106955Y-57454D01*
X107029Y-57325D01*
X107084Y-57177D01*
X107158Y-56992D01*
X107232Y-56806D01*
X107306Y-56584D01*
X107381Y-56343D01*
X107455Y-56084D01*
Y-56066D01*
X107473Y-56010D01*
X107492Y-55936D01*
X107529Y-55825D01*
X107584Y-55695D01*
X107621Y-55547D01*
X107751Y-55214D01*
X107899Y-54844D01*
X108047Y-54473D01*
X108232Y-54121D01*
X108325Y-53955D01*
X108417Y-53825D01*
X108436Y-53788D01*
X108510Y-53714D01*
X108603Y-53584D01*
X108751Y-53418D01*
X108936Y-53251D01*
X109158Y-53066D01*
X109417Y-52899D01*
X109695Y-52751D01*
X109732Y-52733D01*
X109843Y-52696D01*
X110010Y-52640D01*
X110232Y-52566D01*
X110510Y-52492D01*
X110843Y-52436D01*
X111213Y-52399D01*
X111621Y-52381D01*
X111769D01*
X111898Y-52399D01*
D02*
G37*
%LPC*%
G36*
X87207Y120371D02*
X86444D01*
X86073Y120324D01*
X85703Y120301D01*
X85379Y120232D01*
X85055Y120185D01*
X84778Y120116D01*
X84523Y120023D01*
X84292Y119954D01*
X84107Y119885D01*
X83921Y119792D01*
X83783Y119723D01*
X83644Y119676D01*
X83551Y119607D01*
X83482Y119584D01*
X83459Y119537D01*
X83435D01*
X83042Y119190D01*
X82718Y118797D01*
X82441Y118380D01*
X82209Y117987D01*
X82047Y117617D01*
X81978Y117455D01*
X81931Y117316D01*
X81885Y117200D01*
X81862Y117108D01*
X81839Y117062D01*
Y117038D01*
X84593Y116529D01*
X84708Y116807D01*
X84824Y117038D01*
X84940Y117247D01*
X85078Y117409D01*
X85171Y117524D01*
X85264Y117594D01*
X85310Y117640D01*
X85333Y117663D01*
X85518Y117779D01*
X85726Y117872D01*
X85958Y117918D01*
X86166Y117964D01*
X86351Y117987D01*
X86490Y118010D01*
X86629D01*
X87045Y117987D01*
X87392Y117941D01*
X87670Y117895D01*
X87901Y117825D01*
X88063Y117733D01*
X88179Y117686D01*
X88249Y117640D01*
X88272Y117617D01*
X88434Y117455D01*
X88549Y117270D01*
X88619Y117062D01*
X88688Y116853D01*
X88711Y116645D01*
X88734Y116483D01*
Y116390D01*
Y116344D01*
Y116044D01*
X88572Y115974D01*
X88364Y115905D01*
X87924Y115766D01*
X87416Y115650D01*
X86930Y115534D01*
X86467Y115419D01*
X86258Y115372D01*
X86073Y115349D01*
X85935Y115326D01*
X85819Y115303D01*
X85749Y115280D01*
X85726D01*
X85171Y115164D01*
X84662Y115049D01*
X84245Y114933D01*
X83898Y114817D01*
X83621Y114701D01*
X83435Y114632D01*
X83320Y114586D01*
X83273Y114563D01*
X82973Y114401D01*
X82718Y114215D01*
X82487Y114007D01*
X82325Y113822D01*
X82163Y113660D01*
X82070Y113521D01*
X82001Y113429D01*
X81978Y113382D01*
X81816Y113082D01*
X81700Y112781D01*
X81631Y112503D01*
X81584Y112226D01*
X81538Y111994D01*
X81515Y111809D01*
Y111693D01*
Y111647D01*
X81538Y111369D01*
X81561Y111115D01*
X81677Y110629D01*
X81839Y110212D01*
X82024Y109865D01*
X82209Y109588D01*
X82371Y109379D01*
X82487Y109241D01*
X82533Y109217D01*
Y109194D01*
X82950Y108870D01*
X83412Y108639D01*
X83875Y108477D01*
X84338Y108361D01*
X84731Y108292D01*
X84916Y108269D01*
X85055D01*
X85194Y108245D01*
X85356D01*
X85726Y108269D01*
X86096Y108315D01*
X86420Y108361D01*
X86698Y108431D01*
X86930Y108500D01*
X87115Y108569D01*
X87230Y108593D01*
X87277Y108616D01*
X87601Y108778D01*
X87924Y108940D01*
X88202Y109148D01*
X88457Y109333D01*
X88665Y109495D01*
X88827Y109634D01*
X88919Y109726D01*
X88966Y109749D01*
X88989Y109657D01*
X89035Y109541D01*
X89058Y109449D01*
X89081Y109426D01*
Y109402D01*
X89151Y109194D01*
X89197Y109009D01*
X89243Y108847D01*
X89290Y108731D01*
X89336Y108639D01*
X89359Y108546D01*
X89382Y108523D01*
Y108500D01*
X92414D01*
X92275Y108801D01*
X92159Y109079D01*
X92066Y109333D01*
X91974Y109564D01*
X91928Y109749D01*
X91881Y109911D01*
X91858Y110004D01*
Y110027D01*
X91812Y110328D01*
X91789Y110698D01*
X91742Y111068D01*
Y111439D01*
X91719Y111763D01*
Y112040D01*
Y112156D01*
Y112226D01*
Y112272D01*
Y112295D01*
X91766Y115882D01*
Y116252D01*
X91742Y116576D01*
X91719Y116876D01*
X91696Y117154D01*
X91673Y117409D01*
X91627Y117640D01*
X91604Y117848D01*
X91557Y118010D01*
X91511Y118172D01*
X91488Y118288D01*
X91419Y118496D01*
X91372Y118589D01*
X91349Y118635D01*
X91164Y118890D01*
X90956Y119144D01*
X90724Y119352D01*
X90470Y119537D01*
X90262Y119676D01*
X90077Y119769D01*
X89961Y119838D01*
X89938Y119861D01*
X89915D01*
X89706Y119954D01*
X89498Y120023D01*
X89012Y120162D01*
X88503Y120255D01*
X88017Y120301D01*
X87554Y120347D01*
X87369D01*
X87207Y120371D01*
D02*
G37*
G36*
X111897D02*
X111642D01*
X111226Y120347D01*
X110833Y120301D01*
X110439Y120209D01*
X110092Y120116D01*
X109745Y120000D01*
X109444Y119861D01*
X109143Y119699D01*
X108889Y119561D01*
X108657Y119399D01*
X108449Y119237D01*
X108264Y119098D01*
X108125Y118982D01*
X108010Y118890D01*
X107917Y118797D01*
X107871Y118751D01*
X107848Y118728D01*
X107593Y118404D01*
X107362Y118057D01*
X107153Y117710D01*
X106968Y117339D01*
X106829Y116946D01*
X106714Y116576D01*
X106529Y115858D01*
X106459Y115511D01*
X106413Y115210D01*
X106390Y114933D01*
X106367Y114701D01*
X106343Y114493D01*
Y114331D01*
Y114239D01*
Y114215D01*
X106367Y113776D01*
X106390Y113336D01*
X106459Y112943D01*
X106529Y112572D01*
X106598Y112202D01*
X106714Y111878D01*
X106806Y111578D01*
X106922Y111300D01*
X107015Y111045D01*
X107130Y110837D01*
X107223Y110652D01*
X107292Y110490D01*
X107385Y110374D01*
X107431Y110282D01*
X107454Y110236D01*
X107477Y110212D01*
X107778Y109865D01*
X108079Y109564D01*
X108426Y109310D01*
X108796Y109079D01*
X109166Y108893D01*
X109537Y108731D01*
X109907Y108593D01*
X110277Y108500D01*
X110601Y108407D01*
X110925Y108361D01*
X111226Y108315D01*
X111480Y108269D01*
X111689D01*
X111827Y108245D01*
X111966D01*
X112637Y108292D01*
X113262Y108384D01*
X113794Y108523D01*
X114257Y108685D01*
X114465Y108778D01*
X114627Y108847D01*
X114789Y108917D01*
X114905Y108986D01*
X114998Y109055D01*
X115090Y109079D01*
X115113Y109125D01*
X115136D01*
X115576Y109495D01*
X115969Y109888D01*
X116293Y110328D01*
X116548Y110744D01*
X116756Y111115D01*
X116826Y111277D01*
X116895Y111416D01*
X116941Y111531D01*
X116988Y111624D01*
X117011Y111670D01*
Y111693D01*
X113956Y112202D01*
X113841Y111902D01*
X113725Y111624D01*
X113609Y111416D01*
X113470Y111230D01*
X113378Y111092D01*
X113285Y110999D01*
X113216Y110953D01*
X113193Y110930D01*
X113008Y110791D01*
X112799Y110698D01*
X112591Y110629D01*
X112406Y110583D01*
X112244Y110559D01*
X112105Y110536D01*
X111989D01*
X111619Y110559D01*
X111272Y110652D01*
X110948Y110768D01*
X110694Y110906D01*
X110485Y111045D01*
X110347Y111161D01*
X110231Y111254D01*
X110208Y111277D01*
X109976Y111578D01*
X109814Y111925D01*
X109676Y112295D01*
X109583Y112619D01*
X109537Y112943D01*
X109514Y113174D01*
X109490Y113267D01*
Y113336D01*
Y113382D01*
Y113406D01*
X117173D01*
Y114053D01*
X117127Y114632D01*
X117057Y115187D01*
X116965Y115696D01*
X116849Y116182D01*
X116733Y116599D01*
X116594Y116992D01*
X116455Y117339D01*
X116317Y117640D01*
X116178Y117918D01*
X116062Y118126D01*
X115946Y118311D01*
X115854Y118450D01*
X115784Y118566D01*
X115738Y118612D01*
X115715Y118635D01*
X115437Y118936D01*
X115113Y119214D01*
X114789Y119445D01*
X114465Y119630D01*
X114118Y119815D01*
X113771Y119954D01*
X113447Y120070D01*
X113123Y120162D01*
X112823Y120232D01*
X112545Y120278D01*
X112290Y120324D01*
X112082Y120347D01*
X111897Y120371D01*
D02*
G37*
G36*
X71611Y124513D02*
X68534D01*
Y108500D01*
X71380D01*
Y110189D01*
X71658Y109842D01*
X71935Y109541D01*
X72213Y109310D01*
X72467Y109102D01*
X72699Y108940D01*
X72884Y108824D01*
X73000Y108755D01*
X73046Y108731D01*
X73416Y108569D01*
X73763Y108454D01*
X74087Y108361D01*
X74388Y108315D01*
X74643Y108269D01*
X74851Y108245D01*
X75013D01*
X75383Y108269D01*
X75753Y108315D01*
X76077Y108384D01*
X76401Y108500D01*
X77003Y108755D01*
X77257Y108893D01*
X77512Y109055D01*
X77720Y109194D01*
X77905Y109333D01*
X78067Y109472D01*
X78206Y109588D01*
X78322Y109703D01*
X78391Y109773D01*
X78437Y109819D01*
X78460Y109842D01*
X78715Y110166D01*
X78923Y110490D01*
X79132Y110860D01*
X79293Y111230D01*
X79432Y111624D01*
X79548Y111994D01*
X79710Y112734D01*
X79780Y113082D01*
X79826Y113406D01*
X79849Y113683D01*
X79872Y113938D01*
X79895Y114146D01*
Y114285D01*
Y114401D01*
Y114424D01*
X79872Y114956D01*
X79826Y115442D01*
X79756Y115905D01*
X79687Y116321D01*
X79571Y116714D01*
X79455Y117085D01*
X79317Y117409D01*
X79201Y117710D01*
X79062Y117964D01*
X78923Y118195D01*
X78808Y118380D01*
X78715Y118542D01*
X78622Y118658D01*
X78553Y118751D01*
X78507Y118797D01*
X78484Y118820D01*
X78206Y119098D01*
X77928Y119329D01*
X77651Y119537D01*
X77350Y119723D01*
X77049Y119861D01*
X76771Y120000D01*
X76216Y120185D01*
X75938Y120232D01*
X75707Y120278D01*
X75499Y120324D01*
X75314Y120347D01*
X75175Y120371D01*
X74967D01*
X74619Y120347D01*
X74272Y120301D01*
X73925Y120232D01*
X73624Y120116D01*
X73046Y119861D01*
X72560Y119561D01*
X72352Y119422D01*
X72167Y119260D01*
X72005Y119121D01*
X71866Y119005D01*
X71750Y118890D01*
X71681Y118820D01*
X71634Y118774D01*
X71611Y118751D01*
Y124513D01*
D02*
G37*
G36*
X20995Y282364D02*
X18951D01*
Y280697D01*
X20995D01*
Y282364D01*
D02*
G37*
G36*
X21781Y279392D02*
X21278Y279314D01*
X20853Y279204D01*
X20649Y279125D01*
X20476Y279046D01*
X20303Y278968D01*
X20161Y278889D01*
X20020Y278811D01*
X19910Y278732D01*
X19816Y278669D01*
X19721Y278606D01*
X19658Y278559D01*
X19611Y278512D01*
X19595Y278496D01*
X19580Y278480D01*
X19438Y278323D01*
X19312Y278166D01*
X19202Y278009D01*
X19124Y277836D01*
X18966Y277506D01*
X18872Y277207D01*
X18825Y276940D01*
X18809Y276814D01*
X18794Y276720D01*
X18778Y276641D01*
Y276578D01*
Y276547D01*
Y276531D01*
X18794Y276311D01*
X18825Y276106D01*
X18872Y275902D01*
X18919Y275698D01*
X19077Y275352D01*
X19250Y275053D01*
X19423Y274801D01*
X19501Y274707D01*
X19580Y274629D01*
X19627Y274566D01*
X19674Y274503D01*
X19705Y274487D01*
X19721Y274471D01*
X19910Y274314D01*
X20099Y274172D01*
X20303Y274062D01*
X20507Y273968D01*
X20900Y273811D01*
X21278Y273701D01*
X21466Y273669D01*
X21624Y273638D01*
X21765Y273622D01*
X21891Y273606D01*
X21985Y273591D01*
X22127D01*
X22488Y273606D01*
X22819Y273669D01*
X23102Y273732D01*
X23337Y273827D01*
X23526Y273905D01*
X23668Y273984D01*
X23762Y274047D01*
X23793Y274062D01*
X24029Y274251D01*
X24218Y274440D01*
X24359Y274629D01*
X24485Y274817D01*
X24564Y274990D01*
X24611Y275116D01*
X24642Y275210D01*
X24658Y275226D01*
Y275242D01*
X24815Y275021D01*
X24988Y274833D01*
X25161Y274660D01*
X25303Y274534D01*
X25444Y274424D01*
X25539Y274361D01*
X25601Y274314D01*
X25633Y274298D01*
X25853Y274188D01*
X26073Y274110D01*
X26277Y274047D01*
X26482Y274015D01*
X26639Y273984D01*
X26781Y273968D01*
X27079D01*
X27268Y274000D01*
X27614Y274078D01*
X27928Y274188D01*
X28211Y274314D01*
X28447Y274456D01*
X28542Y274518D01*
X28620Y274566D01*
X28683Y274613D01*
X28730Y274644D01*
X28746Y274660D01*
X28762Y274676D01*
X28919Y274817D01*
X29045Y274959D01*
X29155Y275116D01*
X29249Y275273D01*
X29406Y275588D01*
X29501Y275886D01*
X29564Y276169D01*
X29579Y276279D01*
X29595Y276374D01*
X29611Y276468D01*
Y276531D01*
Y276562D01*
Y276578D01*
Y276767D01*
X29579Y276955D01*
X29501Y277301D01*
X29391Y277616D01*
X29281Y277867D01*
X29155Y278072D01*
X29045Y278229D01*
X28966Y278323D01*
X28950Y278339D01*
X28935Y278355D01*
X28809Y278480D01*
X28652Y278591D01*
X28321Y278795D01*
X27976Y278952D01*
X27630Y279078D01*
X27315Y279172D01*
X27190Y279204D01*
X27064Y279235D01*
X26969Y279251D01*
X26891Y279267D01*
X26844Y279282D01*
X26828D01*
X26513Y277742D01*
X26765Y277710D01*
X26969Y277663D01*
X27158Y277600D01*
X27299Y277537D01*
X27410Y277474D01*
X27504Y277427D01*
X27551Y277396D01*
X27567Y277380D01*
X27693Y277254D01*
X27771Y277128D01*
X27834Y277003D01*
X27881Y276893D01*
X27913Y276798D01*
X27928Y276704D01*
Y276657D01*
Y276641D01*
X27913Y276484D01*
X27881Y276342D01*
X27834Y276216D01*
X27771Y276122D01*
X27708Y276043D01*
X27661Y275981D01*
X27630Y275949D01*
X27614Y275933D01*
X27488Y275839D01*
X27347Y275776D01*
X27205Y275713D01*
X27079Y275682D01*
X26954Y275666D01*
X26859Y275650D01*
X26765D01*
X26529Y275666D01*
X26325Y275713D01*
X26152Y275776D01*
X26010Y275839D01*
X25900Y275902D01*
X25806Y275965D01*
X25759Y276012D01*
X25743Y276028D01*
X25633Y276185D01*
X25539Y276342D01*
X25491Y276515D01*
X25444Y276688D01*
X25429Y276830D01*
X25413Y276955D01*
Y277034D01*
Y277066D01*
X23746Y277238D01*
X23793Y277081D01*
X23840Y276940D01*
X23872Y276798D01*
X23888Y276688D01*
X23903Y276609D01*
Y276547D01*
Y276499D01*
Y276484D01*
X23888Y276311D01*
X23840Y276154D01*
X23762Y276012D01*
X23683Y275886D01*
X23589Y275792D01*
X23526Y275713D01*
X23463Y275666D01*
X23447Y275650D01*
X23275Y275540D01*
X23070Y275446D01*
X22866Y275383D01*
X22677Y275352D01*
X22504Y275320D01*
X22363Y275305D01*
X22237D01*
X21938Y275320D01*
X21686Y275367D01*
X21451Y275415D01*
X21278Y275478D01*
X21121Y275556D01*
X21026Y275603D01*
X20948Y275650D01*
X20932Y275666D01*
X20775Y275808D01*
X20665Y275949D01*
X20586Y276106D01*
X20539Y276248D01*
X20507Y276358D01*
X20476Y276452D01*
Y276531D01*
Y276547D01*
X20492Y276720D01*
X20539Y276877D01*
X20602Y277018D01*
X20680Y277128D01*
X20743Y277223D01*
X20806Y277301D01*
X20853Y277348D01*
X20869Y277364D01*
X21026Y277474D01*
X21215Y277569D01*
X21404Y277647D01*
X21592Y277694D01*
X21765Y277742D01*
X21891Y277757D01*
X21985Y277773D01*
X22017D01*
X21781Y279392D01*
D02*
G37*
G36*
X153016Y124605D02*
X152784D01*
X152368Y124582D01*
X151974Y124559D01*
X151604Y124489D01*
X151257Y124420D01*
X150933Y124327D01*
X150632Y124235D01*
X150378Y124119D01*
X150146Y124026D01*
X149915Y123911D01*
X149730Y123795D01*
X149591Y123703D01*
X149452Y123610D01*
X149360Y123541D01*
X149290Y123471D01*
X149244Y123448D01*
X149221Y123425D01*
X149013Y123194D01*
X148804Y122962D01*
X148642Y122708D01*
X148504Y122476D01*
X148272Y121967D01*
X148133Y121504D01*
X148041Y121088D01*
X148018Y120903D01*
X147994Y120764D01*
X147971Y120625D01*
Y120533D01*
Y120486D01*
Y120463D01*
X147994Y120070D01*
X148064Y119723D01*
X148133Y119375D01*
X148249Y119098D01*
X148342Y118843D01*
X148411Y118681D01*
X148480Y118566D01*
X148504Y118519D01*
X148735Y118219D01*
X149013Y117941D01*
X149290Y117710D01*
X149591Y117501D01*
X149846Y117362D01*
X150054Y117247D01*
X150193Y117177D01*
X150216Y117154D01*
X150239D01*
X149753Y116900D01*
X149337Y116645D01*
X148989Y116367D01*
X148712Y116090D01*
X148480Y115835D01*
X148318Y115650D01*
X148226Y115511D01*
X148203Y115488D01*
Y115465D01*
X147994Y115049D01*
X147832Y114632D01*
X147740Y114215D01*
X147647Y113845D01*
X147601Y113544D01*
X147578Y113290D01*
Y113197D01*
Y113128D01*
Y113082D01*
Y113059D01*
X147601Y112619D01*
X147647Y112226D01*
X147740Y111832D01*
X147856Y111485D01*
X147971Y111138D01*
X148110Y110837D01*
X148272Y110559D01*
X148434Y110305D01*
X148596Y110097D01*
X148758Y109888D01*
X148897Y109726D01*
X149013Y109588D01*
X149128Y109472D01*
X149221Y109402D01*
X149267Y109356D01*
X149290Y109333D01*
X149568Y109125D01*
X149869Y108963D01*
X150169Y108801D01*
X150470Y108685D01*
X151072Y108477D01*
X151650Y108338D01*
X151928Y108292D01*
X152160Y108269D01*
X152368Y108245D01*
X152553Y108222D01*
X152715Y108199D01*
X152923D01*
X153363Y108222D01*
X153756Y108269D01*
X154150Y108338D01*
X154520Y108407D01*
X154844Y108523D01*
X155145Y108639D01*
X155445Y108755D01*
X155700Y108893D01*
X155931Y109032D01*
X156116Y109148D01*
X156301Y109264D01*
X156440Y109379D01*
X156556Y109449D01*
X156625Y109518D01*
X156672Y109564D01*
X156695Y109588D01*
X156949Y109865D01*
X157158Y110143D01*
X157366Y110444D01*
X157528Y110744D01*
X157667Y111045D01*
X157782Y111346D01*
X157944Y111925D01*
X158014Y112179D01*
X158060Y112411D01*
X158083Y112642D01*
X158106Y112827D01*
X158130Y112989D01*
Y113105D01*
Y113174D01*
Y113197D01*
X158106Y113683D01*
X158014Y114123D01*
X157921Y114539D01*
X157782Y114887D01*
X157667Y115164D01*
X157551Y115372D01*
X157458Y115511D01*
X157435Y115557D01*
X157158Y115928D01*
X156834Y116252D01*
X156487Y116529D01*
X156163Y116738D01*
X155862Y116923D01*
X155630Y117062D01*
X155538Y117108D01*
X155468Y117131D01*
X155422Y117154D01*
X155399D01*
X155769Y117339D01*
X156093Y117548D01*
X156371Y117756D01*
X156602Y117987D01*
X156787Y118172D01*
X156903Y118334D01*
X156996Y118427D01*
X157019Y118473D01*
X157227Y118820D01*
X157366Y119167D01*
X157482Y119491D01*
X157551Y119792D01*
X157597Y120070D01*
X157620Y120278D01*
Y120417D01*
Y120440D01*
Y120463D01*
X157597Y120787D01*
X157574Y121111D01*
X157412Y121690D01*
X157227Y122175D01*
X156996Y122615D01*
X156741Y122962D01*
X156649Y123101D01*
X156556Y123217D01*
X156463Y123309D01*
X156394Y123379D01*
X156371Y123402D01*
X156348Y123425D01*
X156093Y123633D01*
X155839Y123818D01*
X155538Y123980D01*
X155260Y124119D01*
X154659Y124327D01*
X154080Y124466D01*
X153826Y124513D01*
X153571Y124536D01*
X153363Y124559D01*
X153154Y124582D01*
X153016Y124605D01*
D02*
G37*
G36*
X54326Y120371D02*
X54164D01*
X53748Y120347D01*
X53331Y120278D01*
X52961Y120185D01*
X52591Y120070D01*
X52244Y119908D01*
X51943Y119746D01*
X51642Y119561D01*
X51387Y119399D01*
X51156Y119214D01*
X50948Y119028D01*
X50763Y118867D01*
X50624Y118705D01*
X50508Y118589D01*
X50416Y118496D01*
X50369Y118427D01*
X50346Y118404D01*
Y120116D01*
X47500D01*
Y108500D01*
X50578D01*
Y113729D01*
Y114077D01*
Y114401D01*
X50601Y114701D01*
X50624Y114956D01*
Y115210D01*
X50647Y115419D01*
X50670Y115627D01*
X50693Y115789D01*
X50739Y116067D01*
X50763Y116252D01*
X50809Y116367D01*
Y116390D01*
X50901Y116645D01*
X51040Y116900D01*
X51179Y117085D01*
X51318Y117270D01*
X51457Y117386D01*
X51572Y117501D01*
X51642Y117548D01*
X51665Y117571D01*
X51920Y117710D01*
X52174Y117825D01*
X52406Y117895D01*
X52637Y117964D01*
X52822Y117987D01*
X52961Y118010D01*
X53100D01*
X53331Y117987D01*
X53539Y117964D01*
X53701Y117918D01*
X53863Y117848D01*
X54002Y117779D01*
X54095Y117733D01*
X54141Y117710D01*
X54164Y117686D01*
X54326Y117571D01*
X54442Y117432D01*
X54650Y117154D01*
X54720Y117015D01*
X54766Y116923D01*
X54812Y116853D01*
Y116830D01*
X54858Y116714D01*
X54882Y116576D01*
X54928Y116229D01*
X54974Y115812D01*
X54997Y115419D01*
X55020Y115025D01*
Y114863D01*
Y114701D01*
Y114586D01*
Y114493D01*
Y114424D01*
Y114401D01*
Y108500D01*
X58098D01*
Y115696D01*
Y116182D01*
X58075Y116576D01*
X58052Y116946D01*
X58005Y117224D01*
X57982Y117455D01*
X57936Y117617D01*
X57913Y117733D01*
Y117756D01*
X57843Y118033D01*
X57751Y118265D01*
X57658Y118496D01*
X57543Y118681D01*
X57450Y118843D01*
X57380Y118959D01*
X57334Y119028D01*
X57311Y119052D01*
X57126Y119260D01*
X56918Y119445D01*
X56709Y119607D01*
X56501Y119746D01*
X56316Y119861D01*
X56154Y119931D01*
X56062Y119977D01*
X56015Y120000D01*
X55691Y120116D01*
X55367Y120209D01*
X55067Y120278D01*
X54789Y120324D01*
X54534Y120347D01*
X54326Y120371D01*
D02*
G37*
G36*
X141215Y124605D02*
X141030D01*
X140543Y124582D01*
X140104Y124513D01*
X139664Y124420D01*
X139271Y124304D01*
X138901Y124142D01*
X138530Y123980D01*
X138230Y123795D01*
X137929Y123633D01*
X137674Y123448D01*
X137443Y123263D01*
X137258Y123101D01*
X137096Y122939D01*
X136957Y122823D01*
X136864Y122731D01*
X136818Y122661D01*
X136795Y122638D01*
X136517Y122245D01*
X136263Y121805D01*
X136054Y121319D01*
X135869Y120833D01*
X135707Y120301D01*
X135569Y119769D01*
X135453Y119237D01*
X135383Y118728D01*
X135314Y118242D01*
X135268Y117779D01*
X135222Y117362D01*
X135198Y116992D01*
X135175Y116691D01*
Y116460D01*
Y116390D01*
Y116321D01*
Y116298D01*
Y116275D01*
X135198Y115488D01*
X135245Y114771D01*
X135314Y114100D01*
X135430Y113498D01*
X135545Y112920D01*
X135661Y112411D01*
X135800Y111971D01*
X135962Y111554D01*
X136101Y111207D01*
X136240Y110906D01*
X136355Y110652D01*
X136494Y110444D01*
X136587Y110282D01*
X136656Y110166D01*
X136702Y110097D01*
X136726Y110073D01*
X137026Y109749D01*
X137350Y109449D01*
X137674Y109194D01*
X138021Y108986D01*
X138345Y108801D01*
X138692Y108662D01*
X139016Y108523D01*
X139317Y108431D01*
X139618Y108361D01*
X139873Y108292D01*
X140127Y108269D01*
X140335Y108222D01*
X140497D01*
X140613Y108199D01*
X140729D01*
X141145Y108222D01*
X141538Y108269D01*
X141909Y108338D01*
X142256Y108431D01*
X142603Y108546D01*
X142904Y108662D01*
X143181Y108801D01*
X143436Y108940D01*
X143667Y109079D01*
X143853Y109217D01*
X144038Y109333D01*
X144176Y109449D01*
X144292Y109541D01*
X144361Y109611D01*
X144408Y109657D01*
X144431Y109680D01*
X144685Y109958D01*
X144917Y110282D01*
X145102Y110606D01*
X145264Y110930D01*
X145426Y111254D01*
X145542Y111578D01*
X145704Y112226D01*
X145773Y112503D01*
X145819Y112781D01*
X145843Y113012D01*
X145866Y113220D01*
X145889Y113406D01*
Y113521D01*
Y113614D01*
Y113637D01*
X145866Y114077D01*
X145819Y114470D01*
X145750Y114863D01*
X145681Y115210D01*
X145565Y115557D01*
X145449Y115858D01*
X145333Y116159D01*
X145195Y116414D01*
X145056Y116645D01*
X144940Y116853D01*
X144824Y117015D01*
X144709Y117177D01*
X144639Y117293D01*
X144570Y117362D01*
X144523Y117409D01*
X144500Y117432D01*
X144246Y117686D01*
X143968Y117918D01*
X143691Y118126D01*
X143413Y118288D01*
X143135Y118427D01*
X142858Y118542D01*
X142348Y118728D01*
X142117Y118797D01*
X141886Y118843D01*
X141700Y118867D01*
X141538Y118890D01*
X141400Y118913D01*
X141215D01*
X140891Y118890D01*
X140590Y118843D01*
X140312Y118797D01*
X140035Y118705D01*
X139549Y118473D01*
X139132Y118242D01*
X138808Y117987D01*
X138669Y117872D01*
X138553Y117756D01*
X138461Y117663D01*
X138392Y117617D01*
X138368Y117571D01*
X138345Y117548D01*
X138392Y118033D01*
X138438Y118496D01*
X138484Y118913D01*
X138553Y119283D01*
X138623Y119607D01*
X138692Y119908D01*
X138762Y120162D01*
X138854Y120394D01*
X138924Y120602D01*
X138970Y120764D01*
X139039Y120903D01*
X139086Y120995D01*
X139132Y121088D01*
X139178Y121134D01*
X139201Y121180D01*
X139456Y121481D01*
X139734Y121690D01*
X140011Y121851D01*
X140266Y121944D01*
X140497Y122013D01*
X140682Y122037D01*
X140798Y122060D01*
X140844D01*
X141099Y122037D01*
X141353Y121990D01*
X141562Y121921D01*
X141724Y121851D01*
X141862Y121759D01*
X141955Y121690D01*
X142024Y121643D01*
X142048Y121620D01*
X142210Y121435D01*
X142325Y121227D01*
X142441Y120995D01*
X142510Y120787D01*
X142557Y120579D01*
X142603Y120417D01*
X142626Y120324D01*
Y120278D01*
X145588Y120602D01*
X145426Y121296D01*
X145195Y121875D01*
X144940Y122384D01*
X144685Y122823D01*
X144431Y123147D01*
X144338Y123263D01*
X144223Y123379D01*
X144153Y123448D01*
X144084Y123518D01*
X144061Y123564D01*
X144038D01*
X143806Y123749D01*
X143575Y123911D01*
X143066Y124165D01*
X142557Y124351D01*
X142094Y124466D01*
X141677Y124559D01*
X141492Y124582D01*
X141330D01*
X141215Y124605D01*
D02*
G37*
G36*
X24438Y268049D02*
X24265D01*
X23652Y268018D01*
X23086Y267955D01*
X22819Y267923D01*
X22583Y267876D01*
X22347Y267813D01*
X22143Y267766D01*
X21954Y267719D01*
X21781Y267656D01*
X21639Y267609D01*
X21514Y267577D01*
X21419Y267530D01*
X21356Y267515D01*
X21309Y267483D01*
X21293D01*
X20853Y267247D01*
X20476Y266996D01*
X20146Y266728D01*
X19878Y266477D01*
X19674Y266257D01*
X19533Y266068D01*
X19470Y266005D01*
X19438Y265958D01*
X19423Y265927D01*
X19407Y265911D01*
X19202Y265534D01*
X19045Y265140D01*
X18935Y264748D01*
X18857Y264402D01*
X18825Y264244D01*
X18809Y264087D01*
X18794Y263961D01*
Y263851D01*
X18778Y263757D01*
Y263694D01*
Y263647D01*
Y263631D01*
X18794Y263238D01*
X18857Y262861D01*
X18935Y262499D01*
X19014Y262185D01*
X19108Y261917D01*
X19139Y261807D01*
X19171Y261697D01*
X19202Y261634D01*
X19234Y261572D01*
X19250Y261540D01*
Y261524D01*
X19438Y261147D01*
X19643Y260817D01*
X19831Y260550D01*
X20020Y260314D01*
X20177Y260125D01*
X20303Y259999D01*
X20382Y259921D01*
X20413Y259889D01*
X24642D01*
Y263678D01*
X22850D01*
Y261666D01*
X21514D01*
X21356Y261839D01*
X21231Y262012D01*
X21121Y262185D01*
X21026Y262326D01*
X20948Y262468D01*
X20900Y262578D01*
X20869Y262641D01*
X20853Y262672D01*
X20775Y262876D01*
X20712Y263065D01*
X20680Y263254D01*
X20649Y263411D01*
X20633Y263537D01*
X20617Y263631D01*
Y263710D01*
Y263725D01*
X20633Y263930D01*
X20649Y264119D01*
X20743Y264464D01*
X20885Y264779D01*
X21042Y265030D01*
X21199Y265219D01*
X21341Y265361D01*
X21435Y265455D01*
X21451Y265471D01*
X21466Y265486D01*
X21671Y265612D01*
X21875Y265722D01*
X22347Y265911D01*
X22834Y266037D01*
X23306Y266131D01*
X23510Y266162D01*
X23715Y266178D01*
X23903Y266210D01*
X24061D01*
X24186Y266225D01*
X24375D01*
X24705Y266210D01*
X25004Y266194D01*
X25287Y266162D01*
X25554Y266115D01*
X25790Y266068D01*
X26010Y266005D01*
X26199Y265942D01*
X26372Y265879D01*
X26529Y265817D01*
X26671Y265754D01*
X26781Y265691D01*
X26875Y265644D01*
X26938Y265597D01*
X26985Y265565D01*
X27016Y265534D01*
X27032D01*
X27190Y265392D01*
X27331Y265251D01*
X27441Y265109D01*
X27535Y264952D01*
X27693Y264653D01*
X27803Y264354D01*
X27866Y264103D01*
X27881Y263993D01*
X27897Y263899D01*
X27913Y263820D01*
Y263757D01*
Y263725D01*
Y263710D01*
X27897Y263442D01*
X27850Y263207D01*
X27771Y263002D01*
X27693Y262814D01*
X27614Y262672D01*
X27535Y262562D01*
X27488Y262483D01*
X27473Y262468D01*
X27299Y262295D01*
X27095Y262138D01*
X26875Y262012D01*
X26686Y261917D01*
X26498Y261839D01*
X26356Y261792D01*
X26246Y261760D01*
X26230Y261744D01*
X26215D01*
X26608Y259999D01*
X26891Y260062D01*
X27158Y260125D01*
X27394Y260219D01*
X27630Y260314D01*
X27834Y260408D01*
X28023Y260518D01*
X28196Y260612D01*
X28353Y260723D01*
X28494Y260817D01*
X28620Y260911D01*
X28714Y261005D01*
X28809Y261068D01*
X28872Y261131D01*
X28919Y261178D01*
X28935Y261210D01*
X28950Y261226D01*
X29092Y261399D01*
X29218Y261603D01*
X29328Y261807D01*
X29422Y262012D01*
X29564Y262421D01*
X29658Y262829D01*
X29689Y263002D01*
X29705Y263175D01*
X29721Y263332D01*
X29736Y263458D01*
X29752Y263568D01*
Y263663D01*
Y263710D01*
Y263725D01*
X29721Y264197D01*
X29658Y264622D01*
X29548Y264999D01*
X29438Y265329D01*
X29375Y265471D01*
X29328Y265597D01*
X29265Y265707D01*
X29218Y265785D01*
X29186Y265864D01*
X29155Y265911D01*
X29123Y265942D01*
Y265958D01*
X28872Y266288D01*
X28573Y266587D01*
X28274Y266839D01*
X27960Y267059D01*
X27693Y267232D01*
X27582Y267310D01*
X27473Y267357D01*
X27394Y267405D01*
X27331Y267436D01*
X27284Y267467D01*
X27268D01*
X26781Y267656D01*
X26277Y267798D01*
X25774Y267908D01*
X25303Y267971D01*
X25083Y268002D01*
X24894Y268018D01*
X24705Y268034D01*
X24564D01*
X24438Y268049D01*
D02*
G37*
G36*
X287878Y249432D02*
X277250D01*
Y246130D01*
X277266Y245753D01*
X277297Y245407D01*
X277344Y245108D01*
X277407Y244856D01*
X277454Y244652D01*
X277502Y244510D01*
X277533Y244416D01*
X277549Y244385D01*
X277675Y244133D01*
X277816Y243913D01*
X277957Y243724D01*
X278099Y243551D01*
X278225Y243426D01*
X278335Y243316D01*
X278398Y243253D01*
X278429Y243237D01*
X278665Y243064D01*
X278932Y242907D01*
X279200Y242765D01*
X279467Y242655D01*
X279687Y242561D01*
X279876Y242498D01*
X279954Y242467D01*
X280001Y242451D01*
X280033Y242435D01*
X280049D01*
X280442Y242325D01*
X280851Y242246D01*
X281259Y242199D01*
X281637Y242152D01*
X281810D01*
X281967Y242136D01*
X282108D01*
X282218Y242121D01*
X282454D01*
X283004Y242136D01*
X283492Y242168D01*
X283728Y242183D01*
X283932Y242215D01*
X284121Y242246D01*
X284294Y242262D01*
X284451Y242294D01*
X284592Y242325D01*
X284718Y242356D01*
X284813Y242372D01*
X284891Y242388D01*
X284954Y242404D01*
X284986Y242419D01*
X285001D01*
X285379Y242545D01*
X285709Y242671D01*
X285992Y242812D01*
X286228Y242954D01*
X286432Y243064D01*
X286574Y243158D01*
X286652Y243221D01*
X286684Y243253D01*
X286904Y243457D01*
X287092Y243646D01*
X287250Y243850D01*
X287375Y244023D01*
X287470Y244180D01*
X287548Y244290D01*
X287580Y244369D01*
X287596Y244400D01*
X287690Y244652D01*
X287753Y244951D01*
X287816Y245249D01*
X287847Y245548D01*
X287863Y245815D01*
Y245926D01*
X287878Y246020D01*
Y246114D01*
Y246177D01*
Y246208D01*
Y246224D01*
Y249432D01*
D02*
G37*
G36*
X132445Y124513D02*
X129205D01*
Y115627D01*
Y115280D01*
Y114956D01*
X129182Y114655D01*
Y114377D01*
X129159Y114146D01*
Y113915D01*
X129136Y113706D01*
Y113521D01*
X129089Y113244D01*
X129066Y113035D01*
X129043Y112920D01*
Y112873D01*
X128974Y112572D01*
X128858Y112318D01*
X128719Y112087D01*
X128581Y111878D01*
X128442Y111716D01*
X128326Y111601D01*
X128233Y111531D01*
X128210Y111508D01*
X127933Y111323D01*
X127585Y111184D01*
X127261Y111092D01*
X126914Y111022D01*
X126614Y110976D01*
X126382Y110953D01*
X126151D01*
X125665Y110976D01*
X125248Y111045D01*
X124878Y111138D01*
X124554Y111254D01*
X124323Y111346D01*
X124138Y111439D01*
X124045Y111508D01*
X123999Y111531D01*
X123744Y111763D01*
X123536Y112040D01*
X123351Y112295D01*
X123235Y112549D01*
X123143Y112781D01*
X123073Y112966D01*
X123027Y113082D01*
Y113128D01*
X123004Y113267D01*
X122981Y113406D01*
Y113591D01*
X122958Y113799D01*
X122935Y114239D01*
Y114701D01*
X122911Y115118D01*
Y115303D01*
Y115488D01*
Y115627D01*
Y115719D01*
Y115789D01*
Y115812D01*
Y124513D01*
X119672D01*
Y115951D01*
Y115465D01*
X119695Y115002D01*
Y114563D01*
X119718Y114169D01*
X119741Y113799D01*
X119764Y113475D01*
X119788Y113174D01*
X119834Y112896D01*
X119857Y112665D01*
X119880Y112457D01*
X119903Y112272D01*
X119926Y112133D01*
X119950Y112017D01*
Y111948D01*
X119973Y111902D01*
Y111878D01*
X120088Y111531D01*
X120204Y111207D01*
X120366Y110906D01*
X120505Y110652D01*
X120644Y110421D01*
X120759Y110236D01*
X120852Y110143D01*
X120875Y110097D01*
X121153Y109796D01*
X121454Y109518D01*
X121777Y109287D01*
X122078Y109079D01*
X122333Y108917D01*
X122564Y108801D01*
X122703Y108731D01*
X122726Y108708D01*
X122749D01*
X122981Y108616D01*
X123235Y108546D01*
X123814Y108407D01*
X124392Y108315D01*
X124948Y108269D01*
X125202Y108245D01*
X125457Y108222D01*
X125665D01*
X125873Y108199D01*
X126243D01*
X126914Y108222D01*
X127516Y108269D01*
X128048Y108361D01*
X128488Y108454D01*
X128673Y108477D01*
X128858Y108523D01*
X128997Y108569D01*
X129113Y108616D01*
X129205Y108639D01*
X129275Y108662D01*
X129298Y108685D01*
X129321D01*
X129737Y108870D01*
X130108Y109102D01*
X130432Y109310D01*
X130709Y109518D01*
X130918Y109703D01*
X131080Y109842D01*
X131172Y109935D01*
X131195Y109981D01*
X131450Y110305D01*
X131658Y110652D01*
X131820Y110976D01*
X131959Y111300D01*
X132051Y111578D01*
X132121Y111809D01*
X132144Y111878D01*
Y111948D01*
X132167Y111971D01*
Y111994D01*
X132213Y112249D01*
X132260Y112526D01*
X132306Y112827D01*
X132329Y113128D01*
X132375Y113822D01*
X132422Y114493D01*
Y114794D01*
Y115095D01*
X132445Y115372D01*
Y115604D01*
Y115789D01*
Y115951D01*
Y116044D01*
Y116067D01*
Y124513D01*
D02*
G37*
G36*
X66891Y115858D02*
X60851D01*
Y112781D01*
X66891D01*
Y115858D01*
D02*
G37*
G36*
X99402Y120371D02*
X98546D01*
X98129Y120324D01*
X97736Y120278D01*
X97365Y120209D01*
X97042Y120139D01*
X96741Y120047D01*
X96463Y119954D01*
X96208Y119861D01*
X96000Y119746D01*
X95815Y119653D01*
X95653Y119561D01*
X95537Y119491D01*
X95422Y119422D01*
X95352Y119375D01*
X95329Y119352D01*
X95306Y119329D01*
X95098Y119144D01*
X94913Y118936D01*
X94751Y118728D01*
X94635Y118496D01*
X94404Y118080D01*
X94265Y117686D01*
X94195Y117339D01*
X94172Y117177D01*
X94149Y117062D01*
X94126Y116946D01*
Y116876D01*
Y116830D01*
Y116807D01*
X94149Y116506D01*
X94195Y116229D01*
X94242Y115951D01*
X94334Y115696D01*
X94565Y115257D01*
X94820Y114887D01*
X95051Y114586D01*
X95283Y114377D01*
X95375Y114285D01*
X95422Y114239D01*
X95468Y114215D01*
X95491Y114192D01*
X95699Y114077D01*
X95977Y113938D01*
X96301Y113799D01*
X96648Y113683D01*
X97018Y113544D01*
X97412Y113429D01*
X98222Y113197D01*
X98615Y113082D01*
X98985Y112989D01*
X99309Y112896D01*
X99610Y112827D01*
X99865Y112781D01*
X100050Y112734D01*
X100165Y112688D01*
X100212D01*
X100489Y112619D01*
X100697Y112549D01*
X100883Y112480D01*
X101021Y112434D01*
X101114Y112364D01*
X101183Y112341D01*
X101230Y112295D01*
X101369Y112110D01*
X101438Y111925D01*
X101461Y111786D01*
Y111740D01*
Y111716D01*
X101438Y111531D01*
X101392Y111369D01*
X101322Y111230D01*
X101253Y111115D01*
X101183Y111022D01*
X101114Y110953D01*
X101068Y110906D01*
X101045Y110883D01*
X100790Y110744D01*
X100512Y110652D01*
X100212Y110559D01*
X99934Y110513D01*
X99679Y110490D01*
X99448Y110467D01*
X99263D01*
X98869Y110490D01*
X98546Y110536D01*
X98245Y110606D01*
X98013Y110698D01*
X97828Y110768D01*
X97689Y110837D01*
X97597Y110883D01*
X97574Y110906D01*
X97365Y111092D01*
X97203Y111323D01*
X97065Y111531D01*
X96949Y111763D01*
X96880Y111971D01*
X96833Y112133D01*
X96787Y112226D01*
Y112272D01*
X93709Y111809D01*
X93918Y111230D01*
X94172Y110698D01*
X94450Y110259D01*
X94751Y109888D01*
X95028Y109588D01*
X95283Y109379D01*
X95352Y109287D01*
X95422Y109241D01*
X95468Y109217D01*
X95491Y109194D01*
X95769Y109032D01*
X96046Y108870D01*
X96671Y108639D01*
X97296Y108477D01*
X97898Y108361D01*
X98175Y108315D01*
X98430Y108292D01*
X98661Y108269D01*
X98869D01*
X99031Y108245D01*
X99263D01*
X99726Y108269D01*
X100165Y108292D01*
X100582Y108361D01*
X100975Y108431D01*
X101322Y108500D01*
X101646Y108616D01*
X101947Y108708D01*
X102201Y108824D01*
X102433Y108917D01*
X102641Y109032D01*
X102803Y109125D01*
X102942Y109194D01*
X103058Y109287D01*
X103127Y109333D01*
X103173Y109356D01*
X103196Y109379D01*
X103428Y109611D01*
X103636Y109842D01*
X103821Y110073D01*
X103983Y110305D01*
X104099Y110536D01*
X104215Y110768D01*
X104377Y111184D01*
X104469Y111578D01*
X104492Y111740D01*
X104515Y111855D01*
X104539Y111971D01*
Y112064D01*
Y112110D01*
Y112133D01*
X104492Y112642D01*
X104377Y113105D01*
X104238Y113498D01*
X104053Y113822D01*
X103868Y114077D01*
X103729Y114262D01*
X103613Y114354D01*
X103567Y114401D01*
X103358Y114539D01*
X103150Y114701D01*
X102896Y114817D01*
X102618Y114956D01*
X102063Y115187D01*
X101484Y115396D01*
X100975Y115557D01*
X100744Y115604D01*
X100535Y115673D01*
X100373Y115719D01*
X100258Y115743D01*
X100165Y115766D01*
X100142D01*
X99703Y115882D01*
X99309Y115974D01*
X98962Y116067D01*
X98661Y116159D01*
X98384Y116229D01*
X98152Y116298D01*
X97967Y116367D01*
X97782Y116414D01*
X97643Y116483D01*
X97527Y116529D01*
X97435Y116552D01*
X97389Y116599D01*
X97296Y116622D01*
X97273Y116645D01*
X97180Y116738D01*
X97111Y116830D01*
X97018Y117015D01*
X96972Y117154D01*
Y117177D01*
Y117200D01*
X96995Y117339D01*
X97018Y117455D01*
X97157Y117663D01*
X97273Y117779D01*
X97296Y117825D01*
X97319D01*
X97550Y117941D01*
X97805Y118033D01*
X98083Y118080D01*
X98384Y118126D01*
X98638Y118149D01*
X98846Y118172D01*
X99055D01*
X99402Y118149D01*
X99703Y118126D01*
X99957Y118057D01*
X100165Y117987D01*
X100327Y117918D01*
X100443Y117872D01*
X100512Y117825D01*
X100535Y117802D01*
X100721Y117663D01*
X100859Y117501D01*
X100998Y117339D01*
X101091Y117154D01*
X101160Y117015D01*
X101207Y116900D01*
X101253Y116807D01*
Y116784D01*
X104145Y117316D01*
X103960Y117848D01*
X103706Y118311D01*
X103451Y118705D01*
X103173Y119005D01*
X102942Y119260D01*
X102734Y119445D01*
X102595Y119537D01*
X102572Y119584D01*
X102549D01*
X102317Y119723D01*
X102063Y119838D01*
X101507Y120047D01*
X100929Y120185D01*
X100350Y120278D01*
X100073Y120301D01*
X99818Y120324D01*
X99587Y120347D01*
X99402Y120371D01*
D02*
G37*
G36*
X247306Y-47252D02*
X242658Y-48678D01*
X247306Y-50067D01*
Y-47252D01*
D02*
G37*
G36*
X195220Y70656D02*
X193146D01*
Y67471D01*
X195127D01*
X195423Y67490D01*
X195720D01*
X196016Y67527D01*
X196275Y67545D01*
X196368Y67564D01*
X196460Y67583D01*
X196479D01*
X196534Y67601D01*
X196590Y67638D01*
X196682Y67694D01*
X196793Y67768D01*
X196886Y67842D01*
X196997Y67953D01*
X197090Y68082D01*
X197108Y68101D01*
X197127Y68157D01*
X197164Y68231D01*
X197219Y68360D01*
X197256Y68490D01*
X197293Y68675D01*
X197312Y68860D01*
X197330Y69082D01*
Y69101D01*
Y69175D01*
X197312Y69286D01*
X197293Y69434D01*
X197238Y69749D01*
X197164Y69897D01*
X197090Y70045D01*
X197071Y70064D01*
X197053Y70101D01*
X196997Y70175D01*
X196923Y70249D01*
X196831Y70323D01*
X196719Y70416D01*
X196590Y70490D01*
X196442Y70545D01*
X196423D01*
X196368Y70564D01*
X196275Y70582D01*
X196127Y70601D01*
X196016Y70619D01*
X195905D01*
X195757Y70638D01*
X195423D01*
X195220Y70656D01*
D02*
G37*
G36*
X29579Y37799D02*
X18951D01*
Y36038D01*
X23385D01*
Y35692D01*
Y35472D01*
X23369Y35299D01*
X23353Y35142D01*
X23322Y35016D01*
X23306Y34922D01*
X23275Y34859D01*
X23259Y34828D01*
Y34812D01*
X23212Y34702D01*
X23133Y34608D01*
X22991Y34450D01*
X22929Y34387D01*
X22866Y34340D01*
X22834Y34309D01*
X22819Y34293D01*
X22756Y34246D01*
X22661Y34183D01*
X22567Y34104D01*
X22457Y34042D01*
X22190Y33884D01*
X21922Y33727D01*
X21671Y33586D01*
X21561Y33523D01*
X21466Y33460D01*
X21388Y33413D01*
X21325Y33381D01*
X21278Y33350D01*
X21262D01*
X18951Y32092D01*
Y29969D01*
X21010Y31038D01*
X21231Y31149D01*
X21451Y31259D01*
X21639Y31369D01*
X21812Y31463D01*
X21970Y31557D01*
X22111Y31636D01*
X22347Y31778D01*
X22520Y31888D01*
X22646Y31982D01*
X22724Y32029D01*
X22740Y32045D01*
X22913Y32186D01*
X23086Y32343D01*
X23243Y32501D01*
X23369Y32642D01*
X23479Y32768D01*
X23558Y32878D01*
X23620Y32941D01*
X23636Y32972D01*
X23730Y32579D01*
X23856Y32249D01*
X24014Y31950D01*
X24186Y31715D01*
X24328Y31526D01*
X24454Y31384D01*
X24548Y31306D01*
X24564Y31274D01*
X24580D01*
X24894Y31070D01*
X25224Y30913D01*
X25554Y30803D01*
X25869Y30740D01*
X26152Y30693D01*
X26277Y30677D01*
X26388D01*
X26466Y30661D01*
X26592D01*
X26954Y30677D01*
X27268Y30724D01*
X27567Y30787D01*
X27818Y30850D01*
X28007Y30928D01*
X28164Y30991D01*
X28259Y31038D01*
X28290Y31054D01*
X28542Y31211D01*
X28746Y31384D01*
X28919Y31542D01*
X29045Y31699D01*
X29155Y31840D01*
X29233Y31950D01*
X29265Y32029D01*
X29281Y32060D01*
X29328Y32186D01*
X29375Y32328D01*
X29453Y32642D01*
X29501Y32972D01*
X29548Y33303D01*
X29564Y33601D01*
Y33743D01*
X29579Y33853D01*
Y33947D01*
Y34026D01*
Y34073D01*
Y34089D01*
Y37799D01*
D02*
G37*
G36*
X106640Y-44919D02*
X106529D01*
X106418Y-44937D01*
X106270Y-44956D01*
X106103Y-44993D01*
X105936Y-45030D01*
X105751Y-45104D01*
X105584Y-45196D01*
X105566Y-45215D01*
X105510Y-45252D01*
X105436Y-45307D01*
X105344Y-45382D01*
X105251Y-45493D01*
X105140Y-45604D01*
X105066Y-45733D01*
X104992Y-45882D01*
Y-45900D01*
X104973Y-45956D01*
X104936Y-46067D01*
X104918Y-46233D01*
X104881Y-46456D01*
X104862Y-46752D01*
Y-46937D01*
X104844Y-47122D01*
Y-47326D01*
Y-47567D01*
Y-48566D01*
X108417D01*
Y-47437D01*
Y-47418D01*
Y-47381D01*
Y-47326D01*
Y-47252D01*
Y-47048D01*
X108399Y-46807D01*
X108380Y-46548D01*
X108362Y-46289D01*
X108325Y-46067D01*
X108269Y-45882D01*
Y-45863D01*
X108232Y-45807D01*
X108195Y-45733D01*
X108140Y-45641D01*
X108047Y-45530D01*
X107955Y-45419D01*
X107825Y-45307D01*
X107677Y-45196D01*
X107658Y-45178D01*
X107603Y-45159D01*
X107510Y-45104D01*
X107381Y-45048D01*
X107232Y-45011D01*
X107066Y-44956D01*
X106862Y-44937D01*
X106640Y-44919D01*
D02*
G37*
G36*
X248823Y347304D02*
X248804D01*
X248730Y347286D01*
X248619Y347267D01*
X248490Y347212D01*
X248341Y347119D01*
X248175Y346971D01*
X248027Y346786D01*
X247897Y346527D01*
X247878Y346490D01*
X247860Y346434D01*
X247841Y346360D01*
X247823Y346268D01*
X247786Y346138D01*
X247767Y345971D01*
X247730Y345786D01*
X247693Y345564D01*
X247675Y345305D01*
X247638Y345008D01*
X247619Y344675D01*
X247601Y344305D01*
X247582Y343897D01*
X247564Y343434D01*
Y342916D01*
Y342879D01*
Y342786D01*
Y342657D01*
Y342453D01*
X247582Y342231D01*
Y341972D01*
X247601Y341694D01*
Y341398D01*
X247638Y340787D01*
X247675Y340472D01*
X247712Y340194D01*
X247749Y339916D01*
X247786Y339676D01*
X247841Y339472D01*
X247897Y339305D01*
X247916Y339268D01*
X247953Y339194D01*
X248027Y339065D01*
X248138Y338935D01*
X248267Y338787D01*
X248434Y338657D01*
X248619Y338583D01*
X248823Y338546D01*
X248841D01*
X248916Y338565D01*
X249027Y338583D01*
X249156Y338639D01*
X249304Y338731D01*
X249452Y338861D01*
X249601Y339046D01*
X249730Y339305D01*
Y339324D01*
X249749Y339342D01*
X249767Y339398D01*
X249786Y339472D01*
X249804Y339565D01*
X249841Y339694D01*
X249878Y339861D01*
X249915Y340046D01*
X249934Y340268D01*
X249971Y340527D01*
X250008Y340824D01*
X250026Y341157D01*
X250045Y341527D01*
X250063Y341935D01*
X250082Y342398D01*
Y342916D01*
Y342953D01*
Y343046D01*
Y343194D01*
Y343379D01*
X250063Y343601D01*
Y343860D01*
X250045Y344138D01*
Y344434D01*
X249989Y345045D01*
X249971Y345360D01*
X249934Y345638D01*
X249897Y345916D01*
X249841Y346156D01*
X249786Y346360D01*
X249730Y346527D01*
X249712Y346564D01*
X249675Y346656D01*
X249601Y346768D01*
X249489Y346916D01*
X249360Y347064D01*
X249212Y347175D01*
X249027Y347267D01*
X248823Y347304D01*
D02*
G37*
G36*
X66795Y166805D02*
X66777D01*
X66703Y166786D01*
X66592Y166767D01*
X66462Y166712D01*
X66314Y166619D01*
X66147Y166471D01*
X65999Y166286D01*
X65869Y166027D01*
X65851Y165990D01*
X65832Y165934D01*
X65814Y165860D01*
X65795Y165767D01*
X65758Y165638D01*
X65740Y165471D01*
X65703Y165286D01*
X65666Y165064D01*
X65647Y164805D01*
X65610Y164508D01*
X65592Y164175D01*
X65573Y163805D01*
X65555Y163397D01*
X65536Y162934D01*
Y162416D01*
Y162379D01*
Y162286D01*
Y162157D01*
Y161953D01*
X65555Y161731D01*
Y161472D01*
X65573Y161194D01*
Y160898D01*
X65610Y160287D01*
X65647Y159972D01*
X65684Y159694D01*
X65721Y159416D01*
X65758Y159176D01*
X65814Y158972D01*
X65869Y158805D01*
X65888Y158768D01*
X65925Y158694D01*
X65999Y158565D01*
X66110Y158435D01*
X66240Y158287D01*
X66406Y158157D01*
X66592Y158083D01*
X66795Y158046D01*
X66814D01*
X66888Y158065D01*
X66999Y158083D01*
X67129Y158139D01*
X67277Y158231D01*
X67425Y158361D01*
X67573Y158546D01*
X67702Y158805D01*
Y158824D01*
X67721Y158842D01*
X67740Y158898D01*
X67758Y158972D01*
X67776Y159065D01*
X67814Y159194D01*
X67851Y159361D01*
X67888Y159546D01*
X67906Y159768D01*
X67943Y160027D01*
X67980Y160324D01*
X67999Y160657D01*
X68017Y161027D01*
X68036Y161435D01*
X68054Y161898D01*
Y162416D01*
Y162453D01*
Y162546D01*
Y162694D01*
Y162879D01*
X68036Y163101D01*
Y163360D01*
X68017Y163638D01*
Y163934D01*
X67962Y164545D01*
X67943Y164860D01*
X67906Y165138D01*
X67869Y165416D01*
X67814Y165656D01*
X67758Y165860D01*
X67702Y166027D01*
X67684Y166064D01*
X67647Y166156D01*
X67573Y166268D01*
X67462Y166416D01*
X67332Y166564D01*
X67184Y166675D01*
X66999Y166767D01*
X66795Y166805D01*
D02*
G37*
G36*
X22425Y29466D02*
X22095Y29419D01*
X21781Y29372D01*
X21498Y29293D01*
X21215Y29215D01*
X20963Y29105D01*
X20728Y28995D01*
X20523Y28884D01*
X20319Y28759D01*
X20130Y28617D01*
X19957Y28476D01*
X19674Y28177D01*
X19423Y27863D01*
X19234Y27548D01*
X19077Y27234D01*
X18966Y26935D01*
X18888Y26652D01*
X18841Y26400D01*
X18809Y26196D01*
X18778Y26039D01*
Y25976D01*
Y25929D01*
Y25913D01*
Y25897D01*
X18794Y25567D01*
X18825Y25268D01*
X18857Y24985D01*
X18919Y24718D01*
X18998Y24482D01*
X19077Y24262D01*
X19155Y24058D01*
X19250Y23885D01*
X19328Y23743D01*
X19407Y23602D01*
X19485Y23492D01*
X19564Y23397D01*
X19627Y23334D01*
X19658Y23287D01*
X19690Y23256D01*
X19705Y23240D01*
X19894Y23083D01*
X20083Y22957D01*
X20271Y22831D01*
X20460Y22737D01*
X20853Y22580D01*
X21231Y22485D01*
X21388Y22454D01*
X21545Y22422D01*
X21686Y22407D01*
X21797Y22391D01*
X21907Y22375D01*
X22032D01*
X22378Y22391D01*
X22693Y22422D01*
X22976Y22470D01*
X23212Y22533D01*
X23400Y22596D01*
X23542Y22643D01*
X23636Y22674D01*
X23668Y22690D01*
X23903Y22816D01*
X24123Y22957D01*
X24312Y23114D01*
X24469Y23256D01*
X24595Y23397D01*
X24674Y23507D01*
X24737Y23570D01*
X24753Y23602D01*
X24831Y23712D01*
X24910Y23853D01*
X25067Y24152D01*
X25193Y24466D01*
X25319Y24781D01*
X25429Y25064D01*
X25460Y25190D01*
X25507Y25300D01*
X25539Y25394D01*
X25554Y25457D01*
X25570Y25504D01*
Y25520D01*
X25633Y25740D01*
X25696Y25944D01*
X25759Y26133D01*
X25822Y26290D01*
X25884Y26448D01*
X25932Y26573D01*
X25995Y26683D01*
X26042Y26793D01*
X26120Y26951D01*
X26183Y27045D01*
X26215Y27108D01*
X26230Y27124D01*
X26340Y27234D01*
X26466Y27328D01*
X26576Y27391D01*
X26686Y27422D01*
X26796Y27454D01*
X26875Y27469D01*
X26938D01*
X27095Y27454D01*
X27237Y27407D01*
X27362Y27344D01*
X27473Y27281D01*
X27567Y27218D01*
X27630Y27155D01*
X27661Y27108D01*
X27677Y27092D01*
X27771Y26935D01*
X27850Y26746D01*
X27897Y26573D01*
X27944Y26400D01*
X27960Y26243D01*
X27976Y26102D01*
Y26023D01*
Y25991D01*
X27960Y25740D01*
X27928Y25520D01*
X27866Y25331D01*
X27803Y25174D01*
X27740Y25048D01*
X27677Y24954D01*
X27645Y24907D01*
X27630Y24891D01*
X27473Y24750D01*
X27299Y24639D01*
X27095Y24561D01*
X26906Y24482D01*
X26718Y24435D01*
X26576Y24404D01*
X26513Y24388D01*
X26466Y24372D01*
X26435D01*
X26529Y22611D01*
X26812Y22627D01*
X27079Y22674D01*
X27315Y22721D01*
X27551Y22784D01*
X27755Y22847D01*
X27960Y22926D01*
X28133Y23020D01*
X28290Y23099D01*
X28431Y23177D01*
X28557Y23256D01*
X28667Y23334D01*
X28746Y23397D01*
X28809Y23460D01*
X28872Y23507D01*
X28888Y23523D01*
X28903Y23539D01*
X29060Y23712D01*
X29186Y23885D01*
X29296Y24089D01*
X29391Y24278D01*
X29548Y24687D01*
X29642Y25064D01*
X29689Y25253D01*
X29705Y25410D01*
X29721Y25567D01*
X29736Y25693D01*
X29752Y25803D01*
Y25882D01*
Y25929D01*
Y25944D01*
X29736Y26306D01*
X29689Y26652D01*
X29642Y26935D01*
X29579Y27187D01*
X29501Y27391D01*
X29453Y27548D01*
X29406Y27642D01*
X29391Y27658D01*
Y27674D01*
X29249Y27925D01*
X29076Y28130D01*
X28903Y28319D01*
X28730Y28476D01*
X28573Y28602D01*
X28447Y28680D01*
X28369Y28743D01*
X28353Y28759D01*
X28337D01*
X28070Y28884D01*
X27803Y28979D01*
X27535Y29057D01*
X27299Y29105D01*
X27095Y29136D01*
X26922Y29152D01*
X26781D01*
X26513Y29136D01*
X26246Y29105D01*
X26010Y29057D01*
X25806Y28995D01*
X25633Y28947D01*
X25491Y28900D01*
X25413Y28869D01*
X25381Y28853D01*
X25145Y28727D01*
X24941Y28586D01*
X24768Y28444D01*
X24627Y28319D01*
X24501Y28193D01*
X24422Y28098D01*
X24359Y28036D01*
X24344Y28020D01*
X24202Y27800D01*
X24061Y27548D01*
X23935Y27265D01*
X23825Y26998D01*
X23730Y26746D01*
X23699Y26652D01*
X23668Y26558D01*
X23636Y26479D01*
X23620Y26416D01*
X23605Y26385D01*
Y26369D01*
X23542Y26149D01*
X23479Y25944D01*
X23416Y25756D01*
X23353Y25598D01*
X23306Y25441D01*
X23259Y25315D01*
X23227Y25205D01*
X23196Y25111D01*
X23133Y24970D01*
X23086Y24859D01*
X23070Y24812D01*
X23054Y24797D01*
X22991Y24687D01*
X22929Y24576D01*
X22850Y24498D01*
X22787Y24435D01*
X22693Y24341D01*
X22661Y24309D01*
X22646D01*
X22551Y24246D01*
X22441Y24215D01*
X22253Y24152D01*
X22158D01*
X22095Y24136D01*
X22032D01*
X21812Y24152D01*
X21608Y24215D01*
X21435Y24278D01*
X21278Y24372D01*
X21168Y24451D01*
X21073Y24529D01*
X21010Y24592D01*
X20995Y24608D01*
X20853Y24797D01*
X20759Y25001D01*
X20680Y25205D01*
X20633Y25394D01*
X20602Y25583D01*
X20586Y25724D01*
Y25819D01*
Y25834D01*
Y25850D01*
X20602Y26133D01*
X20680Y26400D01*
X20775Y26620D01*
X20900Y26825D01*
X21058Y27013D01*
X21231Y27171D01*
X21419Y27297D01*
X21608Y27407D01*
X21797Y27501D01*
X21985Y27580D01*
X22158Y27642D01*
X22315Y27690D01*
X22441Y27721D01*
X22536Y27737D01*
X22614Y27752D01*
X22630D01*
X22425Y29466D01*
D02*
G37*
G36*
X29629Y5524D02*
X19000Y2427D01*
Y508D01*
X29629Y-2589D01*
Y-702D01*
X21751Y1420D01*
X29629Y3621D01*
Y5524D01*
D02*
G37*
G36*
X193918Y-60991D02*
X193825D01*
X193714Y-61010D01*
X193566Y-61028D01*
X193251Y-61084D01*
X193103Y-61158D01*
X192955Y-61232D01*
X192936Y-61251D01*
X192899Y-61269D01*
X192825Y-61325D01*
X192751Y-61399D01*
X192677Y-61491D01*
X192584Y-61602D01*
X192510Y-61732D01*
X192455Y-61880D01*
Y-61899D01*
X192436Y-61954D01*
X192418Y-62047D01*
X192399Y-62195D01*
X192381Y-62306D01*
Y-62417D01*
X192362Y-62565D01*
Y-62713D01*
Y-62899D01*
X192344Y-63102D01*
Y-63324D01*
Y-63565D01*
Y-65176D01*
X195529D01*
Y-63658D01*
Y-63639D01*
Y-63602D01*
Y-63528D01*
Y-63436D01*
Y-63324D01*
Y-63195D01*
X195510Y-62899D01*
Y-62602D01*
X195473Y-62306D01*
X195454Y-62047D01*
X195436Y-61954D01*
X195417Y-61862D01*
Y-61843D01*
X195399Y-61788D01*
X195362Y-61732D01*
X195306Y-61639D01*
X195232Y-61528D01*
X195158Y-61436D01*
X195047Y-61325D01*
X194918Y-61232D01*
X194899Y-61214D01*
X194843Y-61195D01*
X194769Y-61158D01*
X194640Y-61102D01*
X194510Y-61066D01*
X194325Y-61028D01*
X194140Y-61010D01*
X193918Y-60991D01*
D02*
G37*
G36*
X21781Y289549D02*
X21278Y289471D01*
X20853Y289361D01*
X20649Y289282D01*
X20476Y289203D01*
X20303Y289125D01*
X20161Y289046D01*
X20020Y288967D01*
X19910Y288889D01*
X19816Y288826D01*
X19721Y288763D01*
X19658Y288716D01*
X19611Y288669D01*
X19595Y288653D01*
X19580Y288637D01*
X19438Y288480D01*
X19312Y288323D01*
X19202Y288166D01*
X19124Y287993D01*
X18966Y287663D01*
X18872Y287364D01*
X18825Y287097D01*
X18809Y286971D01*
X18794Y286876D01*
X18778Y286798D01*
Y286735D01*
Y286703D01*
Y286688D01*
X18794Y286468D01*
X18825Y286263D01*
X18872Y286059D01*
X18919Y285854D01*
X19077Y285508D01*
X19250Y285210D01*
X19423Y284958D01*
X19501Y284864D01*
X19580Y284785D01*
X19627Y284722D01*
X19674Y284660D01*
X19705Y284644D01*
X19721Y284628D01*
X19910Y284471D01*
X20099Y284329D01*
X20303Y284219D01*
X20507Y284125D01*
X20900Y283968D01*
X21278Y283858D01*
X21466Y283826D01*
X21624Y283795D01*
X21765Y283779D01*
X21891Y283763D01*
X21985Y283748D01*
X22127D01*
X22488Y283763D01*
X22819Y283826D01*
X23102Y283889D01*
X23337Y283983D01*
X23526Y284062D01*
X23668Y284141D01*
X23762Y284203D01*
X23793Y284219D01*
X24029Y284408D01*
X24218Y284597D01*
X24359Y284785D01*
X24485Y284974D01*
X24564Y285147D01*
X24611Y285273D01*
X24642Y285367D01*
X24658Y285383D01*
Y285398D01*
X24815Y285178D01*
X24988Y284990D01*
X25161Y284817D01*
X25303Y284691D01*
X25444Y284581D01*
X25539Y284518D01*
X25601Y284471D01*
X25633Y284455D01*
X25853Y284345D01*
X26073Y284266D01*
X26277Y284203D01*
X26482Y284172D01*
X26639Y284141D01*
X26781Y284125D01*
X27079D01*
X27268Y284156D01*
X27614Y284235D01*
X27928Y284345D01*
X28211Y284471D01*
X28447Y284612D01*
X28542Y284675D01*
X28620Y284722D01*
X28683Y284769D01*
X28730Y284801D01*
X28746Y284817D01*
X28762Y284832D01*
X28919Y284974D01*
X29045Y285115D01*
X29155Y285273D01*
X29249Y285430D01*
X29406Y285744D01*
X29501Y286043D01*
X29564Y286326D01*
X29579Y286436D01*
X29595Y286530D01*
X29611Y286625D01*
Y286688D01*
Y286719D01*
Y286735D01*
Y286924D01*
X29579Y287112D01*
X29501Y287458D01*
X29391Y287773D01*
X29281Y288024D01*
X29155Y288228D01*
X29045Y288386D01*
X28966Y288480D01*
X28950Y288496D01*
X28935Y288512D01*
X28809Y288637D01*
X28652Y288747D01*
X28321Y288952D01*
X27976Y289109D01*
X27630Y289235D01*
X27315Y289329D01*
X27190Y289361D01*
X27064Y289392D01*
X26969Y289408D01*
X26891Y289423D01*
X26844Y289439D01*
X26828D01*
X26513Y287898D01*
X26765Y287867D01*
X26969Y287820D01*
X27158Y287757D01*
X27299Y287694D01*
X27410Y287631D01*
X27504Y287584D01*
X27551Y287552D01*
X27567Y287537D01*
X27693Y287411D01*
X27771Y287285D01*
X27834Y287159D01*
X27881Y287049D01*
X27913Y286955D01*
X27928Y286861D01*
Y286814D01*
Y286798D01*
X27913Y286640D01*
X27881Y286499D01*
X27834Y286373D01*
X27771Y286279D01*
X27708Y286200D01*
X27661Y286137D01*
X27630Y286106D01*
X27614Y286090D01*
X27488Y285996D01*
X27347Y285933D01*
X27205Y285870D01*
X27079Y285839D01*
X26954Y285823D01*
X26859Y285807D01*
X26765D01*
X26529Y285823D01*
X26325Y285870D01*
X26152Y285933D01*
X26010Y285996D01*
X25900Y286059D01*
X25806Y286122D01*
X25759Y286169D01*
X25743Y286185D01*
X25633Y286342D01*
X25539Y286499D01*
X25491Y286672D01*
X25444Y286845D01*
X25429Y286986D01*
X25413Y287112D01*
Y287191D01*
Y287222D01*
X23746Y287395D01*
X23793Y287238D01*
X23840Y287097D01*
X23872Y286955D01*
X23888Y286845D01*
X23903Y286766D01*
Y286703D01*
Y286656D01*
Y286640D01*
X23888Y286468D01*
X23840Y286310D01*
X23762Y286169D01*
X23683Y286043D01*
X23589Y285949D01*
X23526Y285870D01*
X23463Y285823D01*
X23447Y285807D01*
X23275Y285697D01*
X23070Y285603D01*
X22866Y285540D01*
X22677Y285508D01*
X22504Y285477D01*
X22363Y285461D01*
X22237D01*
X21938Y285477D01*
X21686Y285524D01*
X21451Y285571D01*
X21278Y285634D01*
X21121Y285713D01*
X21026Y285760D01*
X20948Y285807D01*
X20932Y285823D01*
X20775Y285965D01*
X20665Y286106D01*
X20586Y286263D01*
X20539Y286405D01*
X20507Y286515D01*
X20476Y286609D01*
Y286688D01*
Y286703D01*
X20492Y286876D01*
X20539Y287034D01*
X20602Y287175D01*
X20680Y287285D01*
X20743Y287379D01*
X20806Y287458D01*
X20853Y287505D01*
X20869Y287521D01*
X21026Y287631D01*
X21215Y287725D01*
X21404Y287804D01*
X21592Y287851D01*
X21765Y287898D01*
X21891Y287914D01*
X21985Y287930D01*
X22017D01*
X21781Y289549D01*
D02*
G37*
G36*
X29579Y21511D02*
X27787D01*
Y18916D01*
X18951D01*
Y17155D01*
X27787D01*
Y14750D01*
X29579D01*
Y21511D01*
D02*
G37*
G36*
X66322Y25842D02*
X64933Y21194D01*
X67748D01*
X66322Y25842D01*
D02*
G37*
G36*
X21759Y11577D02*
X20910D01*
X20808Y11546D01*
X20619Y11467D01*
X20447Y11388D01*
X20273Y11310D01*
X20132Y11231D01*
X20006Y11152D01*
X19896Y11074D01*
X19802Y11011D01*
X19723Y10948D01*
X19660Y10901D01*
X19613Y10854D01*
X19597Y10838D01*
X19582Y10822D01*
X19456Y10665D01*
X19330Y10508D01*
X19141Y10194D01*
X19016Y9863D01*
X18921Y9564D01*
X18874Y9297D01*
X18843Y9172D01*
Y9077D01*
X18827Y8999D01*
Y8936D01*
Y8904D01*
Y8888D01*
X18843Y8621D01*
X18874Y8385D01*
X18937Y8149D01*
X19016Y7945D01*
X19094Y7741D01*
X19189Y7568D01*
X19299Y7395D01*
X19409Y7253D01*
X19519Y7128D01*
X19629Y7002D01*
X19723Y6907D01*
X19802Y6829D01*
X19880Y6766D01*
X19943Y6719D01*
X19975Y6703D01*
X19991Y6687D01*
X20211Y6546D01*
X20447Y6420D01*
X20667Y6326D01*
X20887Y6231D01*
X21327Y6090D01*
X21720Y5996D01*
X21909Y5964D01*
X22066Y5948D01*
X22207Y5917D01*
X22333D01*
X22427Y5901D01*
X22569D01*
X22884Y5917D01*
X23182Y5933D01*
X23449Y5980D01*
X23717Y6043D01*
X23953Y6106D01*
X24188Y6184D01*
X24393Y6278D01*
X24581Y6357D01*
X24739Y6436D01*
X24880Y6530D01*
X25006Y6609D01*
X25116Y6672D01*
X25195Y6734D01*
X25258Y6766D01*
X25289Y6797D01*
X25305Y6813D01*
X25446Y6955D01*
X25572Y7096D01*
X25682Y7238D01*
X25776Y7395D01*
X25918Y7694D01*
X26028Y7961D01*
X26075Y8212D01*
X26091Y8307D01*
X26107Y8401D01*
X26122Y8480D01*
Y8527D01*
Y8558D01*
Y8574D01*
X26107Y8794D01*
X26059Y8999D01*
X26012Y9187D01*
X25949Y9360D01*
X25871Y9517D01*
X25824Y9627D01*
X25776Y9690D01*
X25761Y9722D01*
X27585Y9439D01*
Y6294D01*
X29487D01*
Y10712D01*
X23953Y11561D01*
X23717Y10209D01*
X23858Y10099D01*
X23968Y9989D01*
X24078Y9879D01*
X24157Y9769D01*
X24299Y9549D01*
X24393Y9344D01*
X24440Y9172D01*
X24471Y9046D01*
X24487Y8951D01*
Y8920D01*
X24471Y8716D01*
X24409Y8543D01*
X24330Y8370D01*
X24251Y8244D01*
X24157Y8134D01*
X24078Y8055D01*
X24016Y8008D01*
X24000Y7992D01*
X23795Y7867D01*
X23575Y7772D01*
X23324Y7709D01*
X23088Y7662D01*
X22868Y7631D01*
X22695Y7615D01*
X22522D01*
X22160Y7631D01*
X21830Y7678D01*
X21563Y7741D01*
X21343Y7804D01*
X21185Y7867D01*
X21060Y7929D01*
X20997Y7977D01*
X20965Y7992D01*
X20792Y8134D01*
X20682Y8275D01*
X20588Y8432D01*
X20525Y8574D01*
X20494Y8684D01*
X20478Y8778D01*
X20462Y8857D01*
Y8873D01*
X20478Y9030D01*
X20525Y9172D01*
X20588Y9313D01*
X20667Y9423D01*
X20729Y9517D01*
X20792Y9596D01*
X20840Y9643D01*
X20855Y9659D01*
X21012Y9785D01*
X21201Y9879D01*
X21374Y9958D01*
X21547Y10005D01*
X21704Y10036D01*
X21846Y10068D01*
X21924Y10083D01*
X21956D01*
X21759Y11577D01*
D02*
G37*
G36*
X29579Y126424D02*
X18951D01*
Y124663D01*
X29579D01*
Y126424D01*
D02*
G37*
G36*
X22425Y123437D02*
X22095Y123389D01*
X21781Y123342D01*
X21498Y123264D01*
X21215Y123185D01*
X20963Y123075D01*
X20728Y122965D01*
X20523Y122855D01*
X20319Y122729D01*
X20130Y122587D01*
X19957Y122446D01*
X19674Y122147D01*
X19423Y121833D01*
X19234Y121518D01*
X19077Y121204D01*
X18966Y120905D01*
X18888Y120622D01*
X18841Y120371D01*
X18809Y120166D01*
X18778Y120009D01*
Y119946D01*
Y119899D01*
Y119883D01*
Y119867D01*
X18794Y119537D01*
X18825Y119239D01*
X18857Y118956D01*
X18919Y118688D01*
X18998Y118453D01*
X19077Y118232D01*
X19155Y118028D01*
X19250Y117855D01*
X19328Y117713D01*
X19407Y117572D01*
X19485Y117462D01*
X19564Y117368D01*
X19627Y117305D01*
X19658Y117258D01*
X19690Y117226D01*
X19705Y117210D01*
X19894Y117053D01*
X20083Y116927D01*
X20271Y116802D01*
X20460Y116707D01*
X20853Y116550D01*
X21231Y116456D01*
X21388Y116424D01*
X21545Y116393D01*
X21686Y116377D01*
X21797Y116361D01*
X21907Y116346D01*
X22032D01*
X22378Y116361D01*
X22693Y116393D01*
X22976Y116440D01*
X23212Y116503D01*
X23400Y116566D01*
X23542Y116613D01*
X23636Y116644D01*
X23668Y116660D01*
X23903Y116786D01*
X24123Y116927D01*
X24312Y117085D01*
X24469Y117226D01*
X24595Y117368D01*
X24674Y117478D01*
X24737Y117541D01*
X24753Y117572D01*
X24831Y117682D01*
X24910Y117824D01*
X25067Y118122D01*
X25193Y118437D01*
X25319Y118751D01*
X25429Y119034D01*
X25460Y119160D01*
X25507Y119270D01*
X25539Y119364D01*
X25554Y119427D01*
X25570Y119474D01*
Y119490D01*
X25633Y119710D01*
X25696Y119915D01*
X25759Y120103D01*
X25822Y120261D01*
X25884Y120418D01*
X25932Y120544D01*
X25995Y120654D01*
X26042Y120764D01*
X26120Y120921D01*
X26183Y121015D01*
X26215Y121078D01*
X26230Y121094D01*
X26340Y121204D01*
X26466Y121298D01*
X26576Y121361D01*
X26686Y121393D01*
X26796Y121424D01*
X26875Y121440D01*
X26938D01*
X27095Y121424D01*
X27237Y121377D01*
X27362Y121314D01*
X27473Y121251D01*
X27567Y121188D01*
X27630Y121125D01*
X27661Y121078D01*
X27677Y121062D01*
X27771Y120905D01*
X27850Y120716D01*
X27897Y120544D01*
X27944Y120371D01*
X27960Y120213D01*
X27976Y120072D01*
Y119993D01*
Y119962D01*
X27960Y119710D01*
X27928Y119490D01*
X27866Y119302D01*
X27803Y119144D01*
X27740Y119018D01*
X27677Y118924D01*
X27645Y118877D01*
X27630Y118861D01*
X27473Y118720D01*
X27299Y118610D01*
X27095Y118531D01*
X26906Y118453D01*
X26718Y118405D01*
X26576Y118374D01*
X26513Y118358D01*
X26466Y118342D01*
X26435D01*
X26529Y116581D01*
X26812Y116597D01*
X27079Y116644D01*
X27315Y116692D01*
X27551Y116755D01*
X27755Y116817D01*
X27960Y116896D01*
X28133Y116990D01*
X28290Y117069D01*
X28431Y117148D01*
X28557Y117226D01*
X28667Y117305D01*
X28746Y117368D01*
X28809Y117430D01*
X28872Y117478D01*
X28888Y117493D01*
X28903Y117509D01*
X29060Y117682D01*
X29186Y117855D01*
X29296Y118059D01*
X29391Y118248D01*
X29548Y118657D01*
X29642Y119034D01*
X29689Y119223D01*
X29705Y119380D01*
X29721Y119537D01*
X29736Y119663D01*
X29752Y119773D01*
Y119852D01*
Y119899D01*
Y119915D01*
X29736Y120276D01*
X29689Y120622D01*
X29642Y120905D01*
X29579Y121157D01*
X29501Y121361D01*
X29453Y121518D01*
X29406Y121613D01*
X29391Y121629D01*
Y121644D01*
X29249Y121896D01*
X29076Y122100D01*
X28903Y122289D01*
X28730Y122446D01*
X28573Y122572D01*
X28447Y122650D01*
X28369Y122713D01*
X28353Y122729D01*
X28337D01*
X28070Y122855D01*
X27803Y122949D01*
X27535Y123028D01*
X27299Y123075D01*
X27095Y123106D01*
X26922Y123122D01*
X26781D01*
X26513Y123106D01*
X26246Y123075D01*
X26010Y123028D01*
X25806Y122965D01*
X25633Y122918D01*
X25491Y122871D01*
X25413Y122839D01*
X25381Y122823D01*
X25145Y122698D01*
X24941Y122556D01*
X24768Y122415D01*
X24627Y122289D01*
X24501Y122163D01*
X24422Y122069D01*
X24359Y122006D01*
X24344Y121990D01*
X24202Y121770D01*
X24061Y121518D01*
X23935Y121235D01*
X23825Y120968D01*
X23730Y120716D01*
X23699Y120622D01*
X23668Y120528D01*
X23636Y120449D01*
X23620Y120386D01*
X23605Y120355D01*
Y120339D01*
X23542Y120119D01*
X23479Y119915D01*
X23416Y119726D01*
X23353Y119569D01*
X23306Y119412D01*
X23259Y119286D01*
X23227Y119176D01*
X23196Y119081D01*
X23133Y118940D01*
X23086Y118830D01*
X23070Y118783D01*
X23054Y118767D01*
X22991Y118657D01*
X22929Y118547D01*
X22850Y118468D01*
X22787Y118405D01*
X22693Y118311D01*
X22661Y118279D01*
X22646D01*
X22551Y118217D01*
X22441Y118185D01*
X22253Y118122D01*
X22158D01*
X22095Y118107D01*
X22032D01*
X21812Y118122D01*
X21608Y118185D01*
X21435Y118248D01*
X21278Y118342D01*
X21168Y118421D01*
X21073Y118500D01*
X21010Y118563D01*
X20995Y118578D01*
X20853Y118767D01*
X20759Y118971D01*
X20680Y119176D01*
X20633Y119364D01*
X20602Y119553D01*
X20586Y119695D01*
Y119789D01*
Y119805D01*
Y119820D01*
X20602Y120103D01*
X20680Y120371D01*
X20775Y120591D01*
X20900Y120795D01*
X21058Y120984D01*
X21231Y121141D01*
X21419Y121267D01*
X21608Y121377D01*
X21797Y121471D01*
X21985Y121550D01*
X22158Y121613D01*
X22315Y121660D01*
X22441Y121691D01*
X22536Y121707D01*
X22614Y121723D01*
X22630D01*
X22425Y123437D01*
D02*
G37*
G36*
X29501Y145644D02*
X18951D01*
Y139549D01*
X20743D01*
Y143883D01*
X29501D01*
Y145644D01*
D02*
G37*
G36*
X29579Y136512D02*
X18951D01*
Y134914D01*
X27331D01*
X18951Y133185D01*
Y131502D01*
X27331Y129741D01*
X18951D01*
Y128106D01*
X29579D01*
Y130763D01*
X22300Y132336D01*
X29579Y133924D01*
Y136512D01*
D02*
G37*
G36*
X24375Y115214D02*
X24186D01*
X23715Y115198D01*
X23259Y115167D01*
X22834Y115104D01*
X22441Y115025D01*
X22080Y114931D01*
X21749Y114821D01*
X21435Y114711D01*
X21152Y114585D01*
X20916Y114475D01*
X20696Y114365D01*
X20507Y114255D01*
X20350Y114160D01*
X20240Y114082D01*
X20146Y114019D01*
X20099Y113987D01*
X20083Y113972D01*
X19847Y113751D01*
X19658Y113531D01*
X19485Y113280D01*
X19328Y113044D01*
X19202Y112792D01*
X19092Y112541D01*
X19014Y112305D01*
X18935Y112069D01*
X18888Y111849D01*
X18841Y111645D01*
X18825Y111456D01*
X18794Y111299D01*
Y111173D01*
X18778Y111063D01*
Y111000D01*
Y110984D01*
X18794Y110638D01*
X18841Y110324D01*
X18904Y110009D01*
X18982Y109726D01*
X19092Y109459D01*
X19202Y109223D01*
X19312Y109003D01*
X19438Y108799D01*
X19564Y108610D01*
X19674Y108453D01*
X19800Y108327D01*
X19894Y108217D01*
X19973Y108123D01*
X20036Y108060D01*
X20083Y108028D01*
X20099Y108013D01*
X20397Y107793D01*
X20712Y107604D01*
X21042Y107431D01*
X21388Y107289D01*
X21734Y107164D01*
X22080Y107054D01*
X22410Y106975D01*
X22740Y106912D01*
X23054Y106865D01*
X23337Y106818D01*
X23605Y106786D01*
X23825Y106771D01*
X24014Y106755D01*
X24265D01*
X24737Y106771D01*
X25193Y106802D01*
X25617Y106865D01*
X26010Y106944D01*
X26372Y107022D01*
X26702Y107132D01*
X27001Y107227D01*
X27284Y107337D01*
X27520Y107447D01*
X27724Y107557D01*
X27913Y107667D01*
X28054Y107745D01*
X28180Y107824D01*
X28259Y107887D01*
X28306Y107918D01*
X28321Y107934D01*
X28573Y108170D01*
X28793Y108406D01*
X28982Y108657D01*
X29155Y108909D01*
X29281Y109160D01*
X29406Y109412D01*
X29501Y109664D01*
X29579Y109899D01*
X29627Y110119D01*
X29674Y110324D01*
X29705Y110513D01*
X29736Y110670D01*
Y110796D01*
X29752Y110906D01*
Y110969D01*
Y110984D01*
X29721Y111456D01*
X29658Y111880D01*
X29564Y112258D01*
X29453Y112588D01*
X29391Y112714D01*
X29328Y112839D01*
X29281Y112950D01*
X29233Y113044D01*
X29202Y113107D01*
X29170Y113154D01*
X29139Y113185D01*
Y113201D01*
X28888Y113516D01*
X28605Y113814D01*
X28306Y114050D01*
X28007Y114270D01*
X27740Y114443D01*
X27614Y114506D01*
X27520Y114553D01*
X27425Y114600D01*
X27362Y114632D01*
X27331Y114663D01*
X27315D01*
X27079Y114758D01*
X26828Y114852D01*
X26309Y114978D01*
X25790Y115072D01*
X25287Y115151D01*
X25067Y115167D01*
X24847Y115182D01*
X24658Y115198D01*
X24501D01*
X24375Y115214D01*
D02*
G37*
G36*
X22425Y88049D02*
X22095Y88002D01*
X21781Y87955D01*
X21498Y87876D01*
X21215Y87798D01*
X20963Y87688D01*
X20728Y87577D01*
X20523Y87467D01*
X20319Y87342D01*
X20130Y87200D01*
X19957Y87059D01*
X19674Y86760D01*
X19423Y86446D01*
X19234Y86131D01*
X19077Y85817D01*
X18966Y85518D01*
X18888Y85235D01*
X18841Y84983D01*
X18809Y84779D01*
X18778Y84622D01*
Y84559D01*
Y84512D01*
Y84496D01*
Y84480D01*
X18794Y84150D01*
X18825Y83851D01*
X18857Y83568D01*
X18919Y83301D01*
X18998Y83065D01*
X19077Y82845D01*
X19155Y82641D01*
X19250Y82468D01*
X19328Y82326D01*
X19407Y82185D01*
X19485Y82075D01*
X19564Y81980D01*
X19627Y81917D01*
X19658Y81870D01*
X19690Y81839D01*
X19705Y81823D01*
X19894Y81666D01*
X20083Y81540D01*
X20271Y81414D01*
X20460Y81320D01*
X20853Y81163D01*
X21231Y81068D01*
X21388Y81037D01*
X21545Y81005D01*
X21686Y80990D01*
X21797Y80974D01*
X21907Y80958D01*
X22032D01*
X22378Y80974D01*
X22693Y81005D01*
X22976Y81053D01*
X23212Y81116D01*
X23400Y81178D01*
X23542Y81226D01*
X23636Y81257D01*
X23668Y81273D01*
X23903Y81398D01*
X24123Y81540D01*
X24312Y81697D01*
X24469Y81839D01*
X24595Y81980D01*
X24674Y82090D01*
X24737Y82153D01*
X24753Y82185D01*
X24831Y82295D01*
X24910Y82436D01*
X25067Y82735D01*
X25193Y83049D01*
X25319Y83364D01*
X25429Y83647D01*
X25460Y83773D01*
X25507Y83883D01*
X25539Y83977D01*
X25554Y84040D01*
X25570Y84087D01*
Y84103D01*
X25633Y84323D01*
X25696Y84527D01*
X25759Y84716D01*
X25822Y84873D01*
X25884Y85030D01*
X25932Y85156D01*
X25995Y85266D01*
X26042Y85376D01*
X26120Y85534D01*
X26183Y85628D01*
X26215Y85691D01*
X26230Y85707D01*
X26340Y85817D01*
X26466Y85911D01*
X26576Y85974D01*
X26686Y86005D01*
X26796Y86037D01*
X26875Y86052D01*
X26938D01*
X27095Y86037D01*
X27237Y85990D01*
X27362Y85927D01*
X27473Y85864D01*
X27567Y85801D01*
X27630Y85738D01*
X27661Y85691D01*
X27677Y85675D01*
X27771Y85518D01*
X27850Y85329D01*
X27897Y85156D01*
X27944Y84983D01*
X27960Y84826D01*
X27976Y84685D01*
Y84606D01*
Y84574D01*
X27960Y84323D01*
X27928Y84103D01*
X27866Y83914D01*
X27803Y83757D01*
X27740Y83631D01*
X27677Y83537D01*
X27645Y83490D01*
X27630Y83474D01*
X27473Y83332D01*
X27299Y83222D01*
X27095Y83144D01*
X26906Y83065D01*
X26718Y83018D01*
X26576Y82986D01*
X26513Y82971D01*
X26466Y82955D01*
X26435D01*
X26529Y81194D01*
X26812Y81210D01*
X27079Y81257D01*
X27315Y81304D01*
X27551Y81367D01*
X27755Y81430D01*
X27960Y81509D01*
X28133Y81603D01*
X28290Y81681D01*
X28431Y81760D01*
X28557Y81839D01*
X28667Y81917D01*
X28746Y81980D01*
X28809Y82043D01*
X28872Y82090D01*
X28888Y82106D01*
X28903Y82122D01*
X29060Y82295D01*
X29186Y82468D01*
X29296Y82672D01*
X29391Y82861D01*
X29548Y83270D01*
X29642Y83647D01*
X29689Y83835D01*
X29705Y83993D01*
X29721Y84150D01*
X29736Y84276D01*
X29752Y84386D01*
Y84464D01*
Y84512D01*
Y84527D01*
X29736Y84889D01*
X29689Y85235D01*
X29642Y85518D01*
X29579Y85769D01*
X29501Y85974D01*
X29453Y86131D01*
X29406Y86225D01*
X29391Y86241D01*
Y86257D01*
X29249Y86508D01*
X29076Y86713D01*
X28903Y86902D01*
X28730Y87059D01*
X28573Y87184D01*
X28447Y87263D01*
X28369Y87326D01*
X28353Y87342D01*
X28337D01*
X28070Y87467D01*
X27803Y87562D01*
X27535Y87640D01*
X27299Y87688D01*
X27095Y87719D01*
X26922Y87735D01*
X26781D01*
X26513Y87719D01*
X26246Y87688D01*
X26010Y87640D01*
X25806Y87577D01*
X25633Y87530D01*
X25491Y87483D01*
X25413Y87452D01*
X25381Y87436D01*
X25145Y87310D01*
X24941Y87169D01*
X24768Y87027D01*
X24627Y86902D01*
X24501Y86776D01*
X24422Y86681D01*
X24359Y86618D01*
X24344Y86603D01*
X24202Y86383D01*
X24061Y86131D01*
X23935Y85848D01*
X23825Y85581D01*
X23730Y85329D01*
X23699Y85235D01*
X23668Y85140D01*
X23636Y85062D01*
X23620Y84999D01*
X23605Y84968D01*
Y84952D01*
X23542Y84732D01*
X23479Y84527D01*
X23416Y84339D01*
X23353Y84181D01*
X23306Y84024D01*
X23259Y83898D01*
X23227Y83788D01*
X23196Y83694D01*
X23133Y83553D01*
X23086Y83442D01*
X23070Y83395D01*
X23054Y83380D01*
X22991Y83270D01*
X22929Y83160D01*
X22850Y83081D01*
X22787Y83018D01*
X22693Y82924D01*
X22661Y82892D01*
X22646D01*
X22551Y82829D01*
X22441Y82798D01*
X22253Y82735D01*
X22158D01*
X22095Y82719D01*
X22032D01*
X21812Y82735D01*
X21608Y82798D01*
X21435Y82861D01*
X21278Y82955D01*
X21168Y83034D01*
X21073Y83112D01*
X21010Y83175D01*
X20995Y83191D01*
X20853Y83380D01*
X20759Y83584D01*
X20680Y83788D01*
X20633Y83977D01*
X20602Y84166D01*
X20586Y84307D01*
Y84402D01*
Y84417D01*
Y84433D01*
X20602Y84716D01*
X20680Y84983D01*
X20775Y85203D01*
X20900Y85408D01*
X21058Y85597D01*
X21231Y85754D01*
X21419Y85879D01*
X21608Y85990D01*
X21797Y86084D01*
X21985Y86163D01*
X22158Y86225D01*
X22315Y86272D01*
X22441Y86304D01*
X22536Y86320D01*
X22614Y86335D01*
X22630D01*
X22425Y88049D01*
D02*
G37*
G36*
X24297Y79779D02*
X24171D01*
X23699Y79763D01*
X23259Y79732D01*
X22834Y79669D01*
X22441Y79590D01*
X22080Y79496D01*
X21749Y79402D01*
X21435Y79292D01*
X21168Y79166D01*
X20916Y79056D01*
X20696Y78946D01*
X20507Y78851D01*
X20366Y78757D01*
X20240Y78678D01*
X20146Y78616D01*
X20099Y78584D01*
X20083Y78569D01*
X19847Y78364D01*
X19658Y78144D01*
X19485Y77924D01*
X19328Y77688D01*
X19202Y77452D01*
X19092Y77232D01*
X19014Y77012D01*
X18935Y76792D01*
X18888Y76587D01*
X18841Y76399D01*
X18825Y76226D01*
X18794Y76084D01*
Y75958D01*
X18778Y75880D01*
Y75817D01*
Y75801D01*
X18794Y75550D01*
X18809Y75314D01*
X18904Y74874D01*
X19029Y74481D01*
X19108Y74308D01*
X19187Y74150D01*
X19265Y74009D01*
X19344Y73883D01*
X19407Y73773D01*
X19470Y73695D01*
X19517Y73616D01*
X19564Y73569D01*
X19580Y73537D01*
X19595Y73521D01*
X19768Y73349D01*
X19941Y73191D01*
X20350Y72924D01*
X20790Y72688D01*
X21215Y72500D01*
X21419Y72421D01*
X21608Y72358D01*
X21781Y72311D01*
X21922Y72264D01*
X22048Y72232D01*
X22143Y72201D01*
X22205Y72185D01*
X22221D01*
X22882Y73899D01*
X22457Y73993D01*
X22111Y74119D01*
X21812Y74229D01*
X21576Y74355D01*
X21388Y74465D01*
X21262Y74559D01*
X21183Y74622D01*
X21152Y74638D01*
X20979Y74826D01*
X20838Y75031D01*
X20743Y75235D01*
X20680Y75424D01*
X20649Y75581D01*
X20633Y75723D01*
X20617Y75801D01*
Y75817D01*
Y75833D01*
X20633Y76006D01*
X20649Y76163D01*
X20743Y76477D01*
X20885Y76729D01*
X21042Y76949D01*
X21183Y77138D01*
X21325Y77263D01*
X21419Y77342D01*
X21435Y77374D01*
X21451D01*
X21624Y77468D01*
X21812Y77562D01*
X22032Y77641D01*
X22253Y77704D01*
X22724Y77814D01*
X23196Y77877D01*
X23416Y77908D01*
X23620Y77924D01*
X23809Y77940D01*
X23966D01*
X24108Y77955D01*
X24642D01*
X24973Y77924D01*
X25271Y77892D01*
X25539Y77861D01*
X25790Y77814D01*
X26026Y77767D01*
X26230Y77719D01*
X26403Y77657D01*
X26561Y77594D01*
X26702Y77547D01*
X26812Y77499D01*
X26906Y77452D01*
X26969Y77405D01*
X27032Y77389D01*
X27048Y77358D01*
X27064D01*
X27221Y77232D01*
X27347Y77106D01*
X27457Y76981D01*
X27551Y76855D01*
X27708Y76587D01*
X27803Y76336D01*
X27866Y76116D01*
X27897Y75943D01*
X27913Y75880D01*
Y75833D01*
Y75801D01*
Y75786D01*
X27897Y75534D01*
X27834Y75314D01*
X27771Y75125D01*
X27677Y74952D01*
X27598Y74811D01*
X27520Y74701D01*
X27457Y74638D01*
X27441Y74622D01*
X27252Y74449D01*
X27048Y74308D01*
X26828Y74182D01*
X26608Y74088D01*
X26419Y74025D01*
X26262Y73977D01*
X26199Y73962D01*
X26152D01*
X26136Y73946D01*
X26120D01*
X26623Y72201D01*
X26875Y72264D01*
X27111Y72342D01*
X27331Y72421D01*
X27551Y72500D01*
X27740Y72594D01*
X27913Y72673D01*
X28054Y72767D01*
X28196Y72845D01*
X28321Y72924D01*
X28431Y73003D01*
X28526Y73066D01*
X28605Y73128D01*
X28652Y73176D01*
X28699Y73207D01*
X28730Y73223D01*
Y73239D01*
X28903Y73427D01*
X29060Y73632D01*
X29202Y73836D01*
X29328Y74040D01*
X29422Y74245D01*
X29501Y74449D01*
X29627Y74842D01*
X29674Y75015D01*
X29705Y75172D01*
X29721Y75314D01*
X29736Y75440D01*
X29752Y75550D01*
Y75628D01*
Y75676D01*
Y75691D01*
X29736Y76021D01*
X29689Y76336D01*
X29627Y76619D01*
X29548Y76902D01*
X29438Y77153D01*
X29328Y77389D01*
X29202Y77609D01*
X29092Y77798D01*
X28966Y77971D01*
X28840Y78128D01*
X28730Y78254D01*
X28620Y78364D01*
X28542Y78443D01*
X28479Y78506D01*
X28431Y78537D01*
X28416Y78553D01*
X28117Y78773D01*
X27787Y78962D01*
X27457Y79119D01*
X27111Y79260D01*
X26749Y79386D01*
X26403Y79480D01*
X26057Y79559D01*
X25712Y79622D01*
X25397Y79669D01*
X25114Y79716D01*
X24847Y79748D01*
X24611Y79763D01*
X24438D01*
X24297Y79779D01*
D02*
G37*
G36*
X22425Y102799D02*
X22095Y102752D01*
X21781Y102705D01*
X21498Y102626D01*
X21215Y102548D01*
X20963Y102438D01*
X20728Y102327D01*
X20523Y102218D01*
X20319Y102092D01*
X20130Y101950D01*
X19957Y101809D01*
X19674Y101510D01*
X19423Y101195D01*
X19234Y100881D01*
X19077Y100567D01*
X18966Y100268D01*
X18888Y99985D01*
X18841Y99733D01*
X18809Y99529D01*
X18778Y99372D01*
Y99309D01*
Y99262D01*
Y99246D01*
Y99230D01*
X18794Y98900D01*
X18825Y98601D01*
X18857Y98318D01*
X18919Y98051D01*
X18998Y97815D01*
X19077Y97595D01*
X19155Y97391D01*
X19250Y97218D01*
X19328Y97076D01*
X19407Y96935D01*
X19485Y96825D01*
X19564Y96730D01*
X19627Y96667D01*
X19658Y96620D01*
X19690Y96589D01*
X19705Y96573D01*
X19894Y96416D01*
X20083Y96290D01*
X20271Y96164D01*
X20460Y96070D01*
X20853Y95913D01*
X21231Y95818D01*
X21388Y95787D01*
X21545Y95756D01*
X21686Y95740D01*
X21797Y95724D01*
X21907Y95708D01*
X22032D01*
X22378Y95724D01*
X22693Y95756D01*
X22976Y95803D01*
X23212Y95865D01*
X23400Y95928D01*
X23542Y95976D01*
X23636Y96007D01*
X23668Y96023D01*
X23903Y96149D01*
X24123Y96290D01*
X24312Y96447D01*
X24469Y96589D01*
X24595Y96730D01*
X24674Y96840D01*
X24737Y96903D01*
X24753Y96935D01*
X24831Y97045D01*
X24910Y97186D01*
X25067Y97485D01*
X25193Y97799D01*
X25319Y98114D01*
X25429Y98397D01*
X25460Y98523D01*
X25507Y98633D01*
X25539Y98727D01*
X25554Y98790D01*
X25570Y98837D01*
Y98853D01*
X25633Y99073D01*
X25696Y99277D01*
X25759Y99466D01*
X25822Y99623D01*
X25884Y99781D01*
X25932Y99906D01*
X25995Y100016D01*
X26042Y100126D01*
X26120Y100284D01*
X26183Y100378D01*
X26215Y100441D01*
X26230Y100456D01*
X26340Y100567D01*
X26466Y100661D01*
X26576Y100724D01*
X26686Y100755D01*
X26796Y100787D01*
X26875Y100802D01*
X26938D01*
X27095Y100787D01*
X27237Y100739D01*
X27362Y100677D01*
X27473Y100614D01*
X27567Y100551D01*
X27630Y100488D01*
X27661Y100441D01*
X27677Y100425D01*
X27771Y100268D01*
X27850Y100079D01*
X27897Y99906D01*
X27944Y99733D01*
X27960Y99576D01*
X27976Y99435D01*
Y99356D01*
Y99325D01*
X27960Y99073D01*
X27928Y98853D01*
X27866Y98664D01*
X27803Y98507D01*
X27740Y98381D01*
X27677Y98287D01*
X27645Y98240D01*
X27630Y98224D01*
X27473Y98082D01*
X27299Y97972D01*
X27095Y97894D01*
X26906Y97815D01*
X26718Y97768D01*
X26576Y97737D01*
X26513Y97721D01*
X26466Y97705D01*
X26435D01*
X26529Y95944D01*
X26812Y95960D01*
X27079Y96007D01*
X27315Y96054D01*
X27551Y96117D01*
X27755Y96180D01*
X27960Y96259D01*
X28133Y96353D01*
X28290Y96432D01*
X28431Y96510D01*
X28557Y96589D01*
X28667Y96667D01*
X28746Y96730D01*
X28809Y96793D01*
X28872Y96840D01*
X28888Y96856D01*
X28903Y96872D01*
X29060Y97045D01*
X29186Y97218D01*
X29296Y97422D01*
X29391Y97611D01*
X29548Y98020D01*
X29642Y98397D01*
X29689Y98586D01*
X29705Y98743D01*
X29721Y98900D01*
X29736Y99026D01*
X29752Y99136D01*
Y99214D01*
Y99262D01*
Y99277D01*
X29736Y99639D01*
X29689Y99985D01*
X29642Y100268D01*
X29579Y100519D01*
X29501Y100724D01*
X29453Y100881D01*
X29406Y100975D01*
X29391Y100991D01*
Y101007D01*
X29249Y101258D01*
X29076Y101463D01*
X28903Y101651D01*
X28730Y101809D01*
X28573Y101934D01*
X28447Y102013D01*
X28369Y102076D01*
X28353Y102092D01*
X28337D01*
X28070Y102218D01*
X27803Y102312D01*
X27535Y102390D01*
X27299Y102438D01*
X27095Y102469D01*
X26922Y102485D01*
X26781D01*
X26513Y102469D01*
X26246Y102438D01*
X26010Y102390D01*
X25806Y102327D01*
X25633Y102280D01*
X25491Y102233D01*
X25413Y102202D01*
X25381Y102186D01*
X25145Y102060D01*
X24941Y101919D01*
X24768Y101777D01*
X24627Y101651D01*
X24501Y101526D01*
X24422Y101431D01*
X24359Y101369D01*
X24344Y101353D01*
X24202Y101133D01*
X24061Y100881D01*
X23935Y100598D01*
X23825Y100331D01*
X23730Y100079D01*
X23699Y99985D01*
X23668Y99890D01*
X23636Y99812D01*
X23620Y99749D01*
X23605Y99718D01*
Y99702D01*
X23542Y99482D01*
X23479Y99277D01*
X23416Y99089D01*
X23353Y98932D01*
X23306Y98774D01*
X23259Y98648D01*
X23227Y98538D01*
X23196Y98444D01*
X23133Y98302D01*
X23086Y98193D01*
X23070Y98145D01*
X23054Y98130D01*
X22991Y98020D01*
X22929Y97909D01*
X22850Y97831D01*
X22787Y97768D01*
X22693Y97674D01*
X22661Y97642D01*
X22646D01*
X22551Y97579D01*
X22441Y97548D01*
X22253Y97485D01*
X22158D01*
X22095Y97469D01*
X22032D01*
X21812Y97485D01*
X21608Y97548D01*
X21435Y97611D01*
X21278Y97705D01*
X21168Y97784D01*
X21073Y97862D01*
X21010Y97925D01*
X20995Y97941D01*
X20853Y98130D01*
X20759Y98334D01*
X20680Y98538D01*
X20633Y98727D01*
X20602Y98916D01*
X20586Y99057D01*
Y99152D01*
Y99167D01*
Y99183D01*
X20602Y99466D01*
X20680Y99733D01*
X20775Y99953D01*
X20900Y100158D01*
X21058Y100346D01*
X21231Y100504D01*
X21419Y100630D01*
X21608Y100739D01*
X21797Y100834D01*
X21985Y100913D01*
X22158Y100975D01*
X22315Y101023D01*
X22441Y101054D01*
X22536Y101070D01*
X22614Y101085D01*
X22630D01*
X22425Y102799D01*
D02*
G37*
G36*
X29579Y94278D02*
X18951D01*
Y92517D01*
X29579D01*
Y94278D01*
D02*
G37*
G36*
X24297Y154779D02*
X24171D01*
X23699Y154763D01*
X23259Y154732D01*
X22834Y154669D01*
X22441Y154590D01*
X22080Y154496D01*
X21749Y154402D01*
X21435Y154292D01*
X21168Y154166D01*
X20916Y154056D01*
X20696Y153946D01*
X20507Y153851D01*
X20366Y153757D01*
X20240Y153679D01*
X20146Y153616D01*
X20099Y153584D01*
X20083Y153568D01*
X19847Y153364D01*
X19658Y153144D01*
X19485Y152924D01*
X19328Y152688D01*
X19202Y152452D01*
X19092Y152232D01*
X19014Y152012D01*
X18935Y151792D01*
X18888Y151587D01*
X18841Y151399D01*
X18825Y151226D01*
X18794Y151084D01*
Y150958D01*
X18778Y150880D01*
Y150817D01*
Y150801D01*
X18794Y150550D01*
X18809Y150314D01*
X18904Y149874D01*
X19029Y149481D01*
X19108Y149308D01*
X19187Y149150D01*
X19265Y149009D01*
X19344Y148883D01*
X19407Y148773D01*
X19470Y148694D01*
X19517Y148616D01*
X19564Y148569D01*
X19580Y148537D01*
X19595Y148521D01*
X19768Y148349D01*
X19941Y148191D01*
X20350Y147924D01*
X20790Y147688D01*
X21215Y147500D01*
X21419Y147421D01*
X21608Y147358D01*
X21781Y147311D01*
X21922Y147264D01*
X22048Y147232D01*
X22143Y147201D01*
X22205Y147185D01*
X22221D01*
X22882Y148899D01*
X22457Y148993D01*
X22111Y149119D01*
X21812Y149229D01*
X21576Y149355D01*
X21388Y149465D01*
X21262Y149559D01*
X21183Y149622D01*
X21152Y149638D01*
X20979Y149826D01*
X20838Y150031D01*
X20743Y150235D01*
X20680Y150424D01*
X20649Y150581D01*
X20633Y150723D01*
X20617Y150801D01*
Y150817D01*
Y150833D01*
X20633Y151006D01*
X20649Y151163D01*
X20743Y151477D01*
X20885Y151729D01*
X21042Y151949D01*
X21183Y152138D01*
X21325Y152263D01*
X21419Y152342D01*
X21435Y152374D01*
X21451D01*
X21624Y152468D01*
X21812Y152562D01*
X22032Y152641D01*
X22253Y152704D01*
X22724Y152814D01*
X23196Y152877D01*
X23416Y152908D01*
X23620Y152924D01*
X23809Y152940D01*
X23966D01*
X24108Y152955D01*
X24642D01*
X24973Y152924D01*
X25271Y152892D01*
X25539Y152861D01*
X25790Y152814D01*
X26026Y152767D01*
X26230Y152719D01*
X26403Y152657D01*
X26561Y152594D01*
X26702Y152547D01*
X26812Y152499D01*
X26906Y152452D01*
X26969Y152405D01*
X27032Y152389D01*
X27048Y152358D01*
X27064D01*
X27221Y152232D01*
X27347Y152106D01*
X27457Y151980D01*
X27551Y151855D01*
X27708Y151587D01*
X27803Y151336D01*
X27866Y151116D01*
X27897Y150943D01*
X27913Y150880D01*
Y150833D01*
Y150801D01*
Y150786D01*
X27897Y150534D01*
X27834Y150314D01*
X27771Y150125D01*
X27677Y149952D01*
X27598Y149811D01*
X27520Y149701D01*
X27457Y149638D01*
X27441Y149622D01*
X27252Y149449D01*
X27048Y149308D01*
X26828Y149182D01*
X26608Y149087D01*
X26419Y149025D01*
X26262Y148977D01*
X26199Y148962D01*
X26152D01*
X26136Y148946D01*
X26120D01*
X26623Y147201D01*
X26875Y147264D01*
X27111Y147342D01*
X27331Y147421D01*
X27551Y147500D01*
X27740Y147594D01*
X27913Y147673D01*
X28054Y147767D01*
X28196Y147845D01*
X28321Y147924D01*
X28431Y148003D01*
X28526Y148066D01*
X28605Y148128D01*
X28652Y148176D01*
X28699Y148207D01*
X28730Y148223D01*
Y148238D01*
X28903Y148427D01*
X29060Y148632D01*
X29202Y148836D01*
X29328Y149040D01*
X29422Y149245D01*
X29501Y149449D01*
X29627Y149842D01*
X29674Y150015D01*
X29705Y150172D01*
X29721Y150314D01*
X29736Y150440D01*
X29752Y150550D01*
Y150628D01*
Y150675D01*
Y150691D01*
X29736Y151021D01*
X29689Y151336D01*
X29627Y151619D01*
X29548Y151902D01*
X29438Y152153D01*
X29328Y152389D01*
X29202Y152609D01*
X29092Y152798D01*
X28966Y152971D01*
X28840Y153128D01*
X28730Y153254D01*
X28620Y153364D01*
X28542Y153443D01*
X28479Y153506D01*
X28431Y153537D01*
X28416Y153553D01*
X28117Y153773D01*
X27787Y153961D01*
X27457Y154119D01*
X27111Y154260D01*
X26749Y154386D01*
X26403Y154480D01*
X26057Y154559D01*
X25712Y154622D01*
X25397Y154669D01*
X25114Y154716D01*
X24847Y154748D01*
X24611Y154763D01*
X24438D01*
X24297Y154779D01*
D02*
G37*
G36*
X19000Y224081D02*
Y222210D01*
X21405Y221502D01*
Y217980D01*
X19000Y217226D01*
Y215323D01*
X29629Y218829D01*
Y220700D01*
X19000Y224081D01*
D02*
G37*
G36*
X29629Y214396D02*
X19000D01*
Y212635D01*
X23434D01*
Y212289D01*
Y212069D01*
X23418Y211896D01*
X23402Y211738D01*
X23371Y211613D01*
X23355Y211518D01*
X23324Y211455D01*
X23308Y211424D01*
Y211408D01*
X23261Y211298D01*
X23182Y211204D01*
X23041Y211047D01*
X22978Y210984D01*
X22915Y210937D01*
X22884Y210905D01*
X22868Y210889D01*
X22805Y210842D01*
X22710Y210779D01*
X22616Y210701D01*
X22506Y210638D01*
X22239Y210481D01*
X21972Y210324D01*
X21720Y210182D01*
X21610Y210119D01*
X21516Y210056D01*
X21437Y210009D01*
X21374Y209978D01*
X21327Y209946D01*
X21311D01*
X19000Y208688D01*
Y206566D01*
X21060Y207635D01*
X21280Y207745D01*
X21500Y207855D01*
X21689Y207965D01*
X21862Y208059D01*
X22019Y208154D01*
X22160Y208232D01*
X22396Y208374D01*
X22569Y208484D01*
X22695Y208578D01*
X22773Y208625D01*
X22789Y208641D01*
X22962Y208783D01*
X23135Y208940D01*
X23292Y209097D01*
X23418Y209239D01*
X23528Y209364D01*
X23607Y209474D01*
X23670Y209537D01*
X23685Y209569D01*
X23780Y209176D01*
X23905Y208846D01*
X24063Y208547D01*
X24236Y208311D01*
X24377Y208122D01*
X24503Y207981D01*
X24597Y207902D01*
X24613Y207871D01*
X24629D01*
X24943Y207666D01*
X25273Y207509D01*
X25603Y207399D01*
X25918Y207336D01*
X26201Y207289D01*
X26327Y207273D01*
X26437D01*
X26515Y207257D01*
X26641D01*
X27003Y207273D01*
X27317Y207320D01*
X27616Y207383D01*
X27868Y207446D01*
X28056Y207525D01*
X28213Y207588D01*
X28308Y207635D01*
X28339Y207651D01*
X28591Y207808D01*
X28795Y207981D01*
X28968Y208138D01*
X29094Y208295D01*
X29204Y208437D01*
X29283Y208547D01*
X29314Y208625D01*
X29330Y208657D01*
X29377Y208783D01*
X29424Y208924D01*
X29503Y209239D01*
X29550Y209569D01*
X29597Y209899D01*
X29613Y210198D01*
Y210339D01*
X29629Y210449D01*
Y210544D01*
Y210622D01*
Y210669D01*
Y210685D01*
Y214396D01*
D02*
G37*
G36*
X29579Y249481D02*
X18951D01*
Y246179D01*
X18966Y245802D01*
X18998Y245456D01*
X19045Y245157D01*
X19108Y244906D01*
X19155Y244701D01*
X19202Y244560D01*
X19234Y244465D01*
X19250Y244434D01*
X19375Y244182D01*
X19517Y243962D01*
X19658Y243773D01*
X19800Y243601D01*
X19926Y243475D01*
X20036Y243365D01*
X20099Y243302D01*
X20130Y243286D01*
X20366Y243113D01*
X20633Y242956D01*
X20900Y242814D01*
X21168Y242704D01*
X21388Y242610D01*
X21576Y242547D01*
X21655Y242516D01*
X21702Y242500D01*
X21734Y242484D01*
X21749D01*
X22143Y242374D01*
X22551Y242296D01*
X22960Y242248D01*
X23337Y242201D01*
X23510D01*
X23668Y242185D01*
X23809D01*
X23919Y242170D01*
X24155D01*
X24705Y242185D01*
X25193Y242217D01*
X25429Y242233D01*
X25633Y242264D01*
X25822Y242296D01*
X25995Y242311D01*
X26152Y242343D01*
X26293Y242374D01*
X26419Y242406D01*
X26513Y242421D01*
X26592Y242437D01*
X26655Y242453D01*
X26686Y242469D01*
X26702D01*
X27079Y242594D01*
X27410Y242720D01*
X27693Y242862D01*
X27928Y243003D01*
X28133Y243113D01*
X28274Y243207D01*
X28353Y243270D01*
X28384Y243302D01*
X28605Y243506D01*
X28793Y243695D01*
X28950Y243899D01*
X29076Y244072D01*
X29170Y244230D01*
X29249Y244340D01*
X29281Y244418D01*
X29296Y244450D01*
X29391Y244701D01*
X29453Y245000D01*
X29516Y245299D01*
X29548Y245597D01*
X29564Y245865D01*
Y245975D01*
X29579Y246069D01*
Y246163D01*
Y246226D01*
Y246258D01*
Y246273D01*
Y249481D01*
D02*
G37*
G36*
X29629Y232005D02*
X23528D01*
X23135Y231989D01*
X22773Y231973D01*
X22443Y231958D01*
X22144Y231926D01*
X21877Y231895D01*
X21641Y231863D01*
X21421Y231832D01*
X21248Y231816D01*
X21091Y231785D01*
X20965Y231753D01*
X20855Y231722D01*
X20777Y231706D01*
X20729Y231691D01*
X20698Y231675D01*
X20682D01*
X20368Y231533D01*
X20101Y231360D01*
X19865Y231172D01*
X19676Y230983D01*
X19519Y230826D01*
X19409Y230684D01*
X19330Y230590D01*
X19314Y230574D01*
Y230558D01*
X19157Y230244D01*
X19031Y229898D01*
X18953Y229536D01*
X18890Y229206D01*
X18858Y228892D01*
X18843Y228766D01*
Y228640D01*
X18827Y228546D01*
Y228483D01*
Y228436D01*
Y228420D01*
X18858Y227948D01*
X18921Y227540D01*
X19016Y227178D01*
X19126Y226879D01*
X19173Y226754D01*
X19220Y226628D01*
X19267Y226534D01*
X19314Y226455D01*
X19362Y226392D01*
X19377Y226345D01*
X19409Y226329D01*
Y226313D01*
X19645Y226030D01*
X19896Y225810D01*
X20164Y225637D01*
X20399Y225496D01*
X20619Y225386D01*
X20792Y225323D01*
X20855Y225307D01*
X20902Y225291D01*
X20934Y225276D01*
X20950D01*
X21138Y225229D01*
X21358Y225197D01*
X21594Y225166D01*
X21846Y225134D01*
X22349Y225103D01*
X22852Y225071D01*
X23104Y225056D01*
X23324D01*
X23528Y225040D01*
X29629D01*
Y226801D01*
X23198D01*
X22962Y226817D01*
X22758Y226832D01*
X22569D01*
X22396Y226848D01*
X22239Y226864D01*
X22113Y226879D01*
X22003Y226895D01*
X21909Y226911D01*
X21830Y226926D01*
X21767D01*
X21704Y226958D01*
X21673D01*
X21500Y227021D01*
X21358Y227099D01*
X21233Y227178D01*
X21123Y227272D01*
X21044Y227351D01*
X20981Y227414D01*
X20950Y227461D01*
X20934Y227477D01*
X20840Y227634D01*
X20777Y227791D01*
X20729Y227948D01*
X20698Y228106D01*
X20682Y228247D01*
X20667Y228357D01*
Y228436D01*
Y228467D01*
X20682Y228719D01*
X20729Y228955D01*
X20792Y229159D01*
X20855Y229316D01*
X20918Y229458D01*
X20981Y229552D01*
X21028Y229615D01*
X21044Y229631D01*
X21201Y229788D01*
X21374Y229898D01*
X21547Y229992D01*
X21736Y230071D01*
X21893Y230118D01*
X22019Y230150D01*
X22097Y230181D01*
X22129D01*
X22223Y230197D01*
X22318D01*
X22569Y230212D01*
X22868Y230228D01*
X23151D01*
X23434Y230244D01*
X29629D01*
Y232005D01*
D02*
G37*
G36*
Y206236D02*
X27836D01*
Y203641D01*
X19000D01*
Y201880D01*
X27836D01*
Y199302D01*
X29629D01*
Y206236D01*
D02*
G37*
G36*
X18951Y174322D02*
Y172451D01*
X21356Y171743D01*
Y168222D01*
X18951Y167467D01*
Y166049D01*
X20420D01*
X29579Y169071D01*
Y170942D01*
X18951Y174322D01*
D02*
G37*
G36*
X27794Y162564D02*
X25758D01*
X25633Y162530D01*
X25491Y162483D01*
X25413Y162452D01*
X25381Y162436D01*
X25145Y162310D01*
X24941Y162169D01*
X24768Y162027D01*
X24627Y161901D01*
X24501Y161776D01*
X24422Y161681D01*
X24359Y161618D01*
X24344Y161603D01*
X24202Y161383D01*
X24061Y161131D01*
X23935Y160848D01*
X23825Y160581D01*
X23730Y160329D01*
X23699Y160235D01*
X23668Y160140D01*
X23636Y160062D01*
X23620Y159999D01*
X23605Y159968D01*
Y159952D01*
X23542Y159732D01*
X23479Y159527D01*
X23416Y159339D01*
X23353Y159181D01*
X23306Y159024D01*
X23259Y158898D01*
X23227Y158788D01*
X23196Y158694D01*
X23133Y158553D01*
X23086Y158442D01*
X23070Y158395D01*
X23054Y158380D01*
X22991Y158270D01*
X22929Y158160D01*
X22850Y158081D01*
X22787Y158018D01*
X22693Y157924D01*
X22661Y157892D01*
X22646D01*
X22551Y157829D01*
X22441Y157798D01*
X22253Y157735D01*
X22158D01*
X22095Y157719D01*
X22032D01*
X21812Y157735D01*
X21608Y157798D01*
X21435Y157861D01*
X21278Y157955D01*
X21168Y158034D01*
X21073Y158112D01*
X21010Y158175D01*
X20995Y158191D01*
X20853Y158380D01*
X20759Y158584D01*
X20680Y158788D01*
X20633Y158977D01*
X20602Y159166D01*
X20586Y159307D01*
Y159402D01*
Y159417D01*
Y159433D01*
X20602Y159716D01*
X20680Y159983D01*
X20775Y160203D01*
X20900Y160408D01*
X21058Y160597D01*
X21231Y160754D01*
X21419Y160879D01*
X21608Y160989D01*
X21797Y161084D01*
X21985Y161162D01*
X22158Y161225D01*
X22315Y161273D01*
X22441Y161304D01*
X22536Y161320D01*
X22614Y161335D01*
X22630D01*
X22483Y162564D01*
X20703D01*
X20523Y162467D01*
X20319Y162342D01*
X20130Y162200D01*
X19957Y162059D01*
X19674Y161760D01*
X19423Y161446D01*
X19234Y161131D01*
X19077Y160817D01*
X18966Y160518D01*
X18888Y160235D01*
X18841Y159983D01*
X18809Y159779D01*
X18778Y159622D01*
Y159559D01*
Y159512D01*
Y159496D01*
Y159480D01*
X18794Y159150D01*
X18825Y158851D01*
X18857Y158568D01*
X18919Y158301D01*
X18998Y158065D01*
X19077Y157845D01*
X19155Y157641D01*
X19250Y157468D01*
X19328Y157326D01*
X19407Y157185D01*
X19485Y157075D01*
X19564Y156980D01*
X19627Y156917D01*
X19658Y156870D01*
X19690Y156839D01*
X19705Y156823D01*
X19894Y156666D01*
X20083Y156540D01*
X20271Y156414D01*
X20460Y156320D01*
X20853Y156163D01*
X21231Y156068D01*
X21388Y156037D01*
X21545Y156005D01*
X21686Y155990D01*
X21797Y155974D01*
X21907Y155958D01*
X22032D01*
X22378Y155974D01*
X22693Y156005D01*
X22976Y156053D01*
X23212Y156116D01*
X23400Y156178D01*
X23542Y156226D01*
X23636Y156257D01*
X23668Y156273D01*
X23903Y156398D01*
X24123Y156540D01*
X24312Y156697D01*
X24469Y156839D01*
X24595Y156980D01*
X24674Y157090D01*
X24737Y157153D01*
X24753Y157185D01*
X24831Y157295D01*
X24910Y157436D01*
X25067Y157735D01*
X25193Y158049D01*
X25319Y158364D01*
X25429Y158647D01*
X25460Y158773D01*
X25507Y158883D01*
X25539Y158977D01*
X25554Y159040D01*
X25570Y159087D01*
Y159103D01*
X25633Y159323D01*
X25696Y159527D01*
X25759Y159716D01*
X25822Y159873D01*
X25884Y160030D01*
X25932Y160156D01*
X25995Y160266D01*
X26042Y160376D01*
X26120Y160534D01*
X26183Y160628D01*
X26215Y160691D01*
X26230Y160707D01*
X26340Y160817D01*
X26466Y160911D01*
X26576Y160974D01*
X26686Y161005D01*
X26796Y161037D01*
X26875Y161052D01*
X26938D01*
X27095Y161037D01*
X27237Y160989D01*
X27362Y160927D01*
X27473Y160864D01*
X27567Y160801D01*
X27630Y160738D01*
X27661Y160691D01*
X27677Y160675D01*
X27771Y160518D01*
X27850Y160329D01*
X27897Y160156D01*
X27944Y159983D01*
X27960Y159826D01*
X27976Y159685D01*
Y159606D01*
Y159574D01*
X27960Y159323D01*
X27928Y159103D01*
X27866Y158914D01*
X27803Y158757D01*
X27740Y158631D01*
X27677Y158537D01*
X27645Y158490D01*
X27630Y158474D01*
X27473Y158332D01*
X27299Y158222D01*
X27095Y158144D01*
X26906Y158065D01*
X26718Y158018D01*
X26576Y157986D01*
X26513Y157971D01*
X26466Y157955D01*
X26435D01*
X26529Y156194D01*
X26812Y156210D01*
X27079Y156257D01*
X27315Y156304D01*
X27551Y156367D01*
X27755Y156430D01*
X27960Y156509D01*
X28133Y156603D01*
X28290Y156682D01*
X28431Y156760D01*
X28557Y156839D01*
X28667Y156917D01*
X28746Y156980D01*
X28809Y157043D01*
X28872Y157090D01*
X28888Y157106D01*
X28903Y157122D01*
X29060Y157295D01*
X29186Y157468D01*
X29296Y157672D01*
X29391Y157861D01*
X29548Y158270D01*
X29642Y158647D01*
X29689Y158835D01*
X29705Y158993D01*
X29721Y159150D01*
X29736Y159276D01*
X29752Y159386D01*
Y159465D01*
Y159512D01*
Y159527D01*
X29736Y159889D01*
X29689Y160235D01*
X29642Y160518D01*
X29579Y160769D01*
X29501Y160974D01*
X29453Y161131D01*
X29406Y161225D01*
X29391Y161241D01*
Y161257D01*
X29249Y161508D01*
X29076Y161713D01*
X28903Y161901D01*
X28730Y162059D01*
X28573Y162185D01*
X28447Y162263D01*
X28369Y162326D01*
X28353Y162342D01*
X28337D01*
X28070Y162467D01*
X27803Y162562D01*
X27794Y162564D01*
D02*
G37*
G36*
X22425Y190799D02*
X22095Y190752D01*
X21781Y190705D01*
X21498Y190626D01*
X21215Y190548D01*
X20963Y190438D01*
X20728Y190327D01*
X20523Y190217D01*
X20319Y190092D01*
X20130Y189950D01*
X19957Y189809D01*
X19674Y189510D01*
X19423Y189195D01*
X19234Y188881D01*
X19077Y188567D01*
X18966Y188268D01*
X18888Y187985D01*
X18841Y187733D01*
X18809Y187529D01*
X18778Y187372D01*
Y187309D01*
Y187262D01*
Y187246D01*
Y187230D01*
X18794Y186900D01*
X18825Y186601D01*
X18857Y186318D01*
X18919Y186051D01*
X18998Y185815D01*
X19077Y185595D01*
X19155Y185391D01*
X19250Y185218D01*
X19328Y185076D01*
X19407Y184935D01*
X19485Y184825D01*
X19564Y184730D01*
X19627Y184667D01*
X19658Y184620D01*
X19690Y184589D01*
X19705Y184573D01*
X19894Y184416D01*
X20083Y184290D01*
X20271Y184164D01*
X20460Y184070D01*
X20853Y183913D01*
X21231Y183818D01*
X21388Y183787D01*
X21545Y183755D01*
X21686Y183740D01*
X21797Y183724D01*
X21907Y183708D01*
X22032D01*
X22378Y183724D01*
X22693Y183755D01*
X22976Y183803D01*
X23212Y183866D01*
X23400Y183928D01*
X23542Y183976D01*
X23636Y184007D01*
X23668Y184023D01*
X23903Y184149D01*
X24123Y184290D01*
X24312Y184447D01*
X24469Y184589D01*
X24595Y184730D01*
X24674Y184840D01*
X24737Y184903D01*
X24753Y184935D01*
X24831Y185045D01*
X24910Y185186D01*
X25067Y185485D01*
X25193Y185799D01*
X25319Y186114D01*
X25429Y186397D01*
X25460Y186523D01*
X25507Y186633D01*
X25539Y186727D01*
X25554Y186790D01*
X25570Y186837D01*
Y186853D01*
X25633Y187073D01*
X25696Y187277D01*
X25759Y187466D01*
X25822Y187623D01*
X25884Y187780D01*
X25932Y187906D01*
X25995Y188016D01*
X26042Y188126D01*
X26120Y188284D01*
X26183Y188378D01*
X26215Y188441D01*
X26230Y188456D01*
X26340Y188567D01*
X26466Y188661D01*
X26576Y188724D01*
X26686Y188755D01*
X26796Y188787D01*
X26875Y188802D01*
X26938D01*
X27095Y188787D01*
X27237Y188740D01*
X27362Y188677D01*
X27473Y188614D01*
X27567Y188551D01*
X27630Y188488D01*
X27661Y188441D01*
X27677Y188425D01*
X27771Y188268D01*
X27850Y188079D01*
X27897Y187906D01*
X27944Y187733D01*
X27960Y187576D01*
X27976Y187435D01*
Y187356D01*
Y187325D01*
X27960Y187073D01*
X27928Y186853D01*
X27866Y186664D01*
X27803Y186507D01*
X27740Y186381D01*
X27677Y186287D01*
X27645Y186240D01*
X27630Y186224D01*
X27473Y186082D01*
X27299Y185972D01*
X27095Y185894D01*
X26906Y185815D01*
X26718Y185768D01*
X26576Y185737D01*
X26513Y185721D01*
X26466Y185705D01*
X26435D01*
X26529Y183944D01*
X26812Y183960D01*
X27079Y184007D01*
X27315Y184054D01*
X27551Y184117D01*
X27755Y184180D01*
X27960Y184259D01*
X28133Y184353D01*
X28290Y184432D01*
X28431Y184510D01*
X28557Y184589D01*
X28667Y184667D01*
X28746Y184730D01*
X28809Y184793D01*
X28872Y184840D01*
X28888Y184856D01*
X28903Y184872D01*
X29060Y185045D01*
X29186Y185218D01*
X29296Y185422D01*
X29391Y185611D01*
X29548Y186019D01*
X29642Y186397D01*
X29689Y186586D01*
X29705Y186743D01*
X29721Y186900D01*
X29736Y187026D01*
X29752Y187136D01*
Y187215D01*
Y187262D01*
Y187277D01*
X29736Y187639D01*
X29689Y187985D01*
X29642Y188268D01*
X29579Y188519D01*
X29501Y188724D01*
X29453Y188881D01*
X29406Y188975D01*
X29391Y188991D01*
Y189007D01*
X29249Y189258D01*
X29076Y189463D01*
X28903Y189652D01*
X28730Y189809D01*
X28573Y189935D01*
X28447Y190013D01*
X28369Y190076D01*
X28353Y190092D01*
X28337D01*
X28070Y190217D01*
X27803Y190312D01*
X27535Y190390D01*
X27299Y190438D01*
X27095Y190469D01*
X26922Y190485D01*
X26781D01*
X26513Y190469D01*
X26246Y190438D01*
X26010Y190390D01*
X25806Y190327D01*
X25633Y190280D01*
X25491Y190233D01*
X25413Y190202D01*
X25381Y190186D01*
X25145Y190060D01*
X24941Y189919D01*
X24768Y189777D01*
X24627Y189652D01*
X24501Y189526D01*
X24422Y189431D01*
X24359Y189368D01*
X24344Y189353D01*
X24202Y189133D01*
X24061Y188881D01*
X23935Y188598D01*
X23825Y188331D01*
X23730Y188079D01*
X23699Y187985D01*
X23668Y187890D01*
X23636Y187812D01*
X23620Y187749D01*
X23605Y187718D01*
Y187702D01*
X23542Y187482D01*
X23479Y187277D01*
X23416Y187089D01*
X23353Y186931D01*
X23306Y186774D01*
X23259Y186648D01*
X23227Y186538D01*
X23196Y186444D01*
X23133Y186303D01*
X23086Y186192D01*
X23070Y186145D01*
X23054Y186130D01*
X22991Y186019D01*
X22929Y185910D01*
X22850Y185831D01*
X22787Y185768D01*
X22693Y185674D01*
X22661Y185642D01*
X22646D01*
X22551Y185579D01*
X22441Y185548D01*
X22253Y185485D01*
X22158D01*
X22095Y185469D01*
X22032D01*
X21812Y185485D01*
X21608Y185548D01*
X21435Y185611D01*
X21278Y185705D01*
X21168Y185784D01*
X21073Y185862D01*
X21010Y185925D01*
X20995Y185941D01*
X20853Y186130D01*
X20759Y186334D01*
X20680Y186538D01*
X20633Y186727D01*
X20602Y186916D01*
X20586Y187057D01*
Y187152D01*
Y187167D01*
Y187183D01*
X20602Y187466D01*
X20680Y187733D01*
X20775Y187953D01*
X20900Y188158D01*
X21058Y188347D01*
X21231Y188504D01*
X21419Y188629D01*
X21608Y188740D01*
X21797Y188834D01*
X21985Y188913D01*
X22158Y188975D01*
X22315Y189023D01*
X22441Y189054D01*
X22536Y189070D01*
X22614Y189085D01*
X22630D01*
X22425Y190799D01*
D02*
G37*
G36*
X29579Y182230D02*
X18951D01*
Y178929D01*
X18966Y178551D01*
X18998Y178205D01*
X19045Y177907D01*
X19108Y177655D01*
X19155Y177451D01*
X19202Y177309D01*
X19234Y177215D01*
X19250Y177183D01*
X19375Y176932D01*
X19517Y176712D01*
X19658Y176523D01*
X19800Y176350D01*
X19926Y176224D01*
X20036Y176114D01*
X20099Y176051D01*
X20130Y176036D01*
X20366Y175863D01*
X20633Y175706D01*
X20900Y175564D01*
X21168Y175454D01*
X21388Y175360D01*
X21576Y175297D01*
X21655Y175265D01*
X21702Y175250D01*
X21734Y175234D01*
X21749D01*
X22143Y175124D01*
X22551Y175045D01*
X22960Y174998D01*
X23337Y174951D01*
X23510D01*
X23668Y174935D01*
X23809D01*
X23919Y174919D01*
X24155D01*
X24705Y174935D01*
X25193Y174967D01*
X25429Y174982D01*
X25633Y175014D01*
X25822Y175045D01*
X25995Y175061D01*
X26152Y175092D01*
X26293Y175124D01*
X26419Y175155D01*
X26513Y175171D01*
X26592Y175187D01*
X26655Y175202D01*
X26686Y175218D01*
X26702D01*
X27079Y175344D01*
X27410Y175470D01*
X27693Y175611D01*
X27928Y175753D01*
X28133Y175863D01*
X28274Y175957D01*
X28353Y176020D01*
X28384Y176051D01*
X28605Y176256D01*
X28793Y176444D01*
X28950Y176649D01*
X29076Y176822D01*
X29170Y176979D01*
X29249Y177089D01*
X29281Y177168D01*
X29296Y177199D01*
X29391Y177451D01*
X29453Y177750D01*
X29516Y178048D01*
X29548Y178347D01*
X29564Y178614D01*
Y178724D01*
X29579Y178819D01*
Y178913D01*
Y178976D01*
Y179007D01*
Y179023D01*
Y182230D01*
D02*
G37*
G36*
X280080Y289500D02*
X279577Y289421D01*
X279152Y289311D01*
X278948Y289233D01*
X278775Y289154D01*
X278602Y289076D01*
X278461Y288997D01*
X278319Y288918D01*
X278209Y288840D01*
X278115Y288777D01*
X278020Y288714D01*
X277957Y288667D01*
X277910Y288619D01*
X277895Y288604D01*
X277879Y288588D01*
X277737Y288431D01*
X277612Y288274D01*
X277502Y288116D01*
X277423Y287943D01*
X277266Y287613D01*
X277171Y287315D01*
X277124Y287047D01*
X277108Y286922D01*
X277093Y286827D01*
X277077Y286749D01*
Y286686D01*
Y286654D01*
Y286639D01*
X277093Y286418D01*
X277124Y286214D01*
X277171Y286010D01*
X277218Y285805D01*
X277376Y285459D01*
X277549Y285161D01*
X277722Y284909D01*
X277800Y284815D01*
X277879Y284736D01*
X277926Y284673D01*
X277973Y284610D01*
X278005Y284595D01*
X278020Y284579D01*
X278209Y284422D01*
X278398Y284280D01*
X278602Y284170D01*
X278806Y284076D01*
X279200Y283918D01*
X279577Y283808D01*
X279766Y283777D01*
X279923Y283745D01*
X280064Y283730D01*
X280190Y283714D01*
X280285Y283698D01*
X280426D01*
X280788Y283714D01*
X281118Y283777D01*
X281401Y283840D01*
X281637Y283934D01*
X281825Y284013D01*
X281967Y284091D01*
X282061Y284154D01*
X282093Y284170D01*
X282328Y284359D01*
X282517Y284547D01*
X282659Y284736D01*
X282784Y284925D01*
X282863Y285098D01*
X282910Y285224D01*
X282942Y285318D01*
X282957Y285333D01*
Y285349D01*
X283114Y285129D01*
X283288Y284940D01*
X283460Y284767D01*
X283602Y284642D01*
X283743Y284532D01*
X283838Y284469D01*
X283901Y284422D01*
X283932Y284406D01*
X284152Y284296D01*
X284372Y284217D01*
X284577Y284154D01*
X284781Y284123D01*
X284938Y284091D01*
X285080Y284076D01*
X285379D01*
X285567Y284107D01*
X285913Y284186D01*
X286228Y284296D01*
X286511Y284422D01*
X286746Y284563D01*
X286841Y284626D01*
X286919Y284673D01*
X286982Y284720D01*
X287029Y284752D01*
X287045Y284767D01*
X287061Y284783D01*
X287218Y284925D01*
X287344Y285066D01*
X287454Y285224D01*
X287548Y285381D01*
X287705Y285695D01*
X287800Y285994D01*
X287863Y286277D01*
X287878Y286387D01*
X287894Y286481D01*
X287910Y286576D01*
Y286639D01*
Y286670D01*
Y286686D01*
Y286874D01*
X287878Y287063D01*
X287800Y287409D01*
X287690Y287723D01*
X287580Y287975D01*
X287454Y288179D01*
X287344Y288337D01*
X287265Y288431D01*
X287250Y288447D01*
X287234Y288462D01*
X287108Y288588D01*
X286951Y288698D01*
X286621Y288902D01*
X286275Y289060D01*
X285929Y289186D01*
X285614Y289280D01*
X285489Y289311D01*
X285363Y289343D01*
X285268Y289359D01*
X285190Y289374D01*
X285143Y289390D01*
X285127D01*
X284813Y287849D01*
X285064Y287818D01*
X285268Y287771D01*
X285457Y287708D01*
X285599Y287645D01*
X285709Y287582D01*
X285803Y287535D01*
X285850Y287503D01*
X285866Y287488D01*
X285992Y287362D01*
X286070Y287236D01*
X286133Y287110D01*
X286180Y287000D01*
X286212Y286906D01*
X286228Y286811D01*
Y286764D01*
Y286749D01*
X286212Y286591D01*
X286180Y286450D01*
X286133Y286324D01*
X286070Y286230D01*
X286007Y286151D01*
X285960Y286088D01*
X285929Y286057D01*
X285913Y286041D01*
X285787Y285947D01*
X285646Y285884D01*
X285504Y285821D01*
X285379Y285790D01*
X285253Y285774D01*
X285159Y285758D01*
X285064D01*
X284828Y285774D01*
X284624Y285821D01*
X284451Y285884D01*
X284309Y285947D01*
X284199Y286010D01*
X284105Y286073D01*
X284058Y286120D01*
X284042Y286135D01*
X283932Y286293D01*
X283838Y286450D01*
X283791Y286623D01*
X283743Y286796D01*
X283728Y286937D01*
X283712Y287063D01*
Y287142D01*
Y287173D01*
X282045Y287346D01*
X282093Y287189D01*
X282140Y287047D01*
X282171Y286906D01*
X282187Y286796D01*
X282203Y286717D01*
Y286654D01*
Y286607D01*
Y286591D01*
X282187Y286418D01*
X282140Y286261D01*
X282061Y286120D01*
X281982Y285994D01*
X281888Y285900D01*
X281825Y285821D01*
X281762Y285774D01*
X281747Y285758D01*
X281574Y285648D01*
X281369Y285554D01*
X281165Y285491D01*
X280976Y285459D01*
X280803Y285428D01*
X280662Y285412D01*
X280536D01*
X280237Y285428D01*
X279986Y285475D01*
X279750Y285522D01*
X279577Y285585D01*
X279420Y285664D01*
X279325Y285711D01*
X279247Y285758D01*
X279231Y285774D01*
X279074Y285915D01*
X278964Y286057D01*
X278885Y286214D01*
X278838Y286355D01*
X278806Y286465D01*
X278775Y286560D01*
Y286639D01*
Y286654D01*
X278791Y286827D01*
X278838Y286984D01*
X278901Y287126D01*
X278979Y287236D01*
X279042Y287330D01*
X279105Y287409D01*
X279152Y287456D01*
X279168Y287472D01*
X279325Y287582D01*
X279514Y287676D01*
X279703Y287755D01*
X279891Y287802D01*
X280064Y287849D01*
X280190Y287865D01*
X280285Y287881D01*
X280316D01*
X280080Y289500D01*
D02*
G37*
G36*
X29579Y258223D02*
X18951D01*
Y256587D01*
X25869D01*
X18951Y253081D01*
Y251305D01*
X29579D01*
Y252940D01*
X22473D01*
X29579Y256525D01*
Y258223D01*
D02*
G37*
G36*
X287878Y2524D02*
X277250Y-573D01*
Y-2492D01*
X287878Y-5589D01*
Y-3702D01*
X280001Y-1580D01*
X287878Y621D01*
Y2524D01*
D02*
G37*
G36*
X279294Y282315D02*
X277250D01*
Y280648D01*
X279294D01*
Y282315D01*
D02*
G37*
G36*
X287878Y258173D02*
X277250D01*
Y256538D01*
X284168D01*
X277250Y253032D01*
Y251255D01*
X287878D01*
Y252891D01*
X280772D01*
X287878Y256475D01*
Y258173D01*
D02*
G37*
G36*
X282737Y268000D02*
X282564D01*
X281951Y267969D01*
X281385Y267906D01*
X281118Y267874D01*
X280882Y267827D01*
X280646Y267764D01*
X280442Y267717D01*
X280253Y267670D01*
X280080Y267607D01*
X279939Y267560D01*
X279813Y267528D01*
X279718Y267481D01*
X279655Y267465D01*
X279608Y267434D01*
X279593D01*
X279152Y267198D01*
X278775Y266947D01*
X278445Y266679D01*
X278178Y266428D01*
X277973Y266208D01*
X277832Y266019D01*
X277769Y265956D01*
X277737Y265909D01*
X277722Y265877D01*
X277706Y265862D01*
X277502Y265484D01*
X277344Y265091D01*
X277234Y264698D01*
X277156Y264352D01*
X277124Y264195D01*
X277108Y264038D01*
X277093Y263912D01*
Y263802D01*
X277077Y263708D01*
Y263645D01*
Y263598D01*
Y263582D01*
X277093Y263189D01*
X277156Y262812D01*
X277234Y262450D01*
X277313Y262136D01*
X277407Y261868D01*
X277439Y261758D01*
X277470Y261648D01*
X277502Y261585D01*
X277533Y261522D01*
X277549Y261491D01*
Y261475D01*
X277737Y261098D01*
X277942Y260768D01*
X278130Y260500D01*
X278319Y260264D01*
X278476Y260076D01*
X278602Y259950D01*
X278681Y259871D01*
X278712Y259840D01*
X282942D01*
Y263629D01*
X281149D01*
Y261617D01*
X279813D01*
X279655Y261790D01*
X279530Y261963D01*
X279420Y262136D01*
X279325Y262277D01*
X279247Y262418D01*
X279200Y262529D01*
X279168Y262591D01*
X279152Y262623D01*
X279074Y262827D01*
X279011Y263016D01*
X278979Y263205D01*
X278948Y263362D01*
X278932Y263488D01*
X278917Y263582D01*
Y263661D01*
Y263676D01*
X278932Y263881D01*
X278948Y264069D01*
X279042Y264415D01*
X279184Y264730D01*
X279341Y264981D01*
X279498Y265170D01*
X279640Y265312D01*
X279734Y265406D01*
X279750Y265422D01*
X279766Y265437D01*
X279970Y265563D01*
X280174Y265673D01*
X280646Y265862D01*
X281133Y265987D01*
X281605Y266082D01*
X281810Y266113D01*
X282014Y266129D01*
X282203Y266161D01*
X282360D01*
X282486Y266176D01*
X282674D01*
X283004Y266161D01*
X283303Y266145D01*
X283586Y266113D01*
X283853Y266066D01*
X284089Y266019D01*
X284309Y265956D01*
X284498Y265893D01*
X284671Y265830D01*
X284828Y265767D01*
X284970Y265704D01*
X285080Y265642D01*
X285174Y265595D01*
X285237Y265547D01*
X285284Y265516D01*
X285316Y265484D01*
X285331D01*
X285489Y265343D01*
X285630Y265201D01*
X285740Y265060D01*
X285835Y264903D01*
X285992Y264604D01*
X286102Y264305D01*
X286165Y264054D01*
X286180Y263944D01*
X286196Y263849D01*
X286212Y263771D01*
Y263708D01*
Y263676D01*
Y263661D01*
X286196Y263393D01*
X286149Y263158D01*
X286070Y262953D01*
X285992Y262764D01*
X285913Y262623D01*
X285835Y262513D01*
X285787Y262434D01*
X285772Y262418D01*
X285599Y262246D01*
X285394Y262088D01*
X285174Y261963D01*
X284986Y261868D01*
X284797Y261790D01*
X284655Y261742D01*
X284545Y261711D01*
X284530Y261695D01*
X284514D01*
X284907Y259950D01*
X285190Y260013D01*
X285457Y260076D01*
X285693Y260170D01*
X285929Y260264D01*
X286133Y260359D01*
X286322Y260469D01*
X286495Y260563D01*
X286652Y260673D01*
X286794Y260768D01*
X286919Y260862D01*
X287014Y260956D01*
X287108Y261019D01*
X287171Y261082D01*
X287218Y261129D01*
X287234Y261161D01*
X287250Y261176D01*
X287391Y261349D01*
X287517Y261554D01*
X287627Y261758D01*
X287721Y261963D01*
X287863Y262371D01*
X287957Y262780D01*
X287988Y262953D01*
X288004Y263126D01*
X288020Y263283D01*
X288036Y263409D01*
X288051Y263519D01*
Y263613D01*
Y263661D01*
Y263676D01*
X288020Y264148D01*
X287957Y264573D01*
X287847Y264950D01*
X287737Y265280D01*
X287674Y265422D01*
X287627Y265547D01*
X287564Y265657D01*
X287517Y265736D01*
X287485Y265815D01*
X287454Y265862D01*
X287423Y265893D01*
Y265909D01*
X287171Y266239D01*
X286872Y266538D01*
X286574Y266789D01*
X286259Y267010D01*
X285992Y267182D01*
X285882Y267261D01*
X285772Y267308D01*
X285693Y267355D01*
X285630Y267387D01*
X285583Y267418D01*
X285567D01*
X285080Y267607D01*
X284577Y267749D01*
X284074Y267859D01*
X283602Y267921D01*
X283382Y267953D01*
X283193Y267969D01*
X283004Y267984D01*
X282863D01*
X282737Y268000D01*
D02*
G37*
G36*
X280080Y279343D02*
X279577Y279265D01*
X279152Y279154D01*
X278948Y279076D01*
X278775Y278997D01*
X278602Y278919D01*
X278461Y278840D01*
X278319Y278762D01*
X278209Y278683D01*
X278115Y278620D01*
X278020Y278557D01*
X277957Y278510D01*
X277910Y278463D01*
X277895Y278447D01*
X277879Y278431D01*
X277737Y278274D01*
X277612Y278117D01*
X277502Y277960D01*
X277423Y277787D01*
X277266Y277456D01*
X277171Y277158D01*
X277124Y276891D01*
X277108Y276765D01*
X277093Y276670D01*
X277077Y276592D01*
Y276529D01*
Y276497D01*
Y276482D01*
X277093Y276262D01*
X277124Y276057D01*
X277171Y275853D01*
X277218Y275648D01*
X277376Y275303D01*
X277549Y275004D01*
X277722Y274752D01*
X277800Y274658D01*
X277879Y274579D01*
X277926Y274516D01*
X277973Y274454D01*
X278005Y274438D01*
X278020Y274422D01*
X278209Y274265D01*
X278398Y274123D01*
X278602Y274013D01*
X278806Y273919D01*
X279200Y273762D01*
X279577Y273652D01*
X279766Y273620D01*
X279923Y273589D01*
X280064Y273573D01*
X280190Y273557D01*
X280285Y273542D01*
X280426D01*
X280788Y273557D01*
X281118Y273620D01*
X281401Y273683D01*
X281637Y273777D01*
X281825Y273856D01*
X281967Y273935D01*
X282061Y273997D01*
X282093Y274013D01*
X282328Y274202D01*
X282517Y274391D01*
X282659Y274579D01*
X282784Y274768D01*
X282863Y274941D01*
X282910Y275067D01*
X282942Y275161D01*
X282957Y275177D01*
Y275192D01*
X283114Y274972D01*
X283288Y274784D01*
X283460Y274611D01*
X283602Y274485D01*
X283743Y274375D01*
X283838Y274312D01*
X283901Y274265D01*
X283932Y274249D01*
X284152Y274139D01*
X284372Y274060D01*
X284577Y273997D01*
X284781Y273966D01*
X284938Y273935D01*
X285080Y273919D01*
X285379D01*
X285567Y273950D01*
X285913Y274029D01*
X286228Y274139D01*
X286511Y274265D01*
X286746Y274406D01*
X286841Y274469D01*
X286919Y274516D01*
X286982Y274564D01*
X287029Y274595D01*
X287045Y274611D01*
X287061Y274626D01*
X287218Y274768D01*
X287344Y274909D01*
X287454Y275067D01*
X287548Y275224D01*
X287705Y275538D01*
X287800Y275837D01*
X287863Y276120D01*
X287878Y276230D01*
X287894Y276325D01*
X287910Y276419D01*
Y276482D01*
Y276513D01*
Y276529D01*
Y276717D01*
X287878Y276906D01*
X287800Y277252D01*
X287690Y277567D01*
X287580Y277818D01*
X287454Y278022D01*
X287344Y278180D01*
X287265Y278274D01*
X287250Y278290D01*
X287234Y278305D01*
X287108Y278431D01*
X286951Y278541D01*
X286621Y278746D01*
X286275Y278903D01*
X285929Y279029D01*
X285614Y279123D01*
X285489Y279154D01*
X285363Y279186D01*
X285268Y279202D01*
X285190Y279217D01*
X285143Y279233D01*
X285127D01*
X284813Y277692D01*
X285064Y277661D01*
X285268Y277614D01*
X285457Y277551D01*
X285599Y277488D01*
X285709Y277425D01*
X285803Y277378D01*
X285850Y277346D01*
X285866Y277331D01*
X285992Y277205D01*
X286070Y277079D01*
X286133Y276953D01*
X286180Y276843D01*
X286212Y276749D01*
X286228Y276655D01*
Y276607D01*
Y276592D01*
X286212Y276434D01*
X286180Y276293D01*
X286133Y276167D01*
X286070Y276073D01*
X286007Y275994D01*
X285960Y275931D01*
X285929Y275900D01*
X285913Y275884D01*
X285787Y275790D01*
X285646Y275727D01*
X285504Y275664D01*
X285379Y275633D01*
X285253Y275617D01*
X285159Y275601D01*
X285064D01*
X284828Y275617D01*
X284624Y275664D01*
X284451Y275727D01*
X284309Y275790D01*
X284199Y275853D01*
X284105Y275916D01*
X284058Y275963D01*
X284042Y275979D01*
X283932Y276136D01*
X283838Y276293D01*
X283791Y276466D01*
X283743Y276639D01*
X283728Y276780D01*
X283712Y276906D01*
Y276985D01*
Y277016D01*
X282045Y277189D01*
X282093Y277032D01*
X282140Y276891D01*
X282171Y276749D01*
X282187Y276639D01*
X282203Y276560D01*
Y276497D01*
Y276450D01*
Y276434D01*
X282187Y276262D01*
X282140Y276104D01*
X282061Y275963D01*
X281982Y275837D01*
X281888Y275743D01*
X281825Y275664D01*
X281762Y275617D01*
X281747Y275601D01*
X281574Y275491D01*
X281369Y275397D01*
X281165Y275334D01*
X280976Y275303D01*
X280803Y275271D01*
X280662Y275255D01*
X280536D01*
X280237Y275271D01*
X279986Y275318D01*
X279750Y275365D01*
X279577Y275428D01*
X279420Y275507D01*
X279325Y275554D01*
X279247Y275601D01*
X279231Y275617D01*
X279074Y275758D01*
X278964Y275900D01*
X278885Y276057D01*
X278838Y276199D01*
X278806Y276309D01*
X278775Y276403D01*
Y276482D01*
Y276497D01*
X278791Y276670D01*
X278838Y276828D01*
X278901Y276969D01*
X278979Y277079D01*
X279042Y277174D01*
X279105Y277252D01*
X279152Y277299D01*
X279168Y277315D01*
X279325Y277425D01*
X279514Y277519D01*
X279703Y277598D01*
X279891Y277645D01*
X280064Y277692D01*
X280190Y277708D01*
X280285Y277724D01*
X280316D01*
X280080Y279343D01*
D02*
G37*
G36*
X22425Y50921D02*
X22095Y50873D01*
X21781Y50826D01*
X21498Y50748D01*
X21215Y50669D01*
X20963Y50559D01*
X20728Y50449D01*
X20523Y50339D01*
X20319Y50213D01*
X20130Y50072D01*
X19957Y49930D01*
X19674Y49631D01*
X19423Y49317D01*
X19234Y49002D01*
X19077Y48688D01*
X18966Y48389D01*
X18888Y48106D01*
X18841Y47855D01*
X18809Y47650D01*
X18778Y47493D01*
Y47430D01*
Y47383D01*
Y47367D01*
Y47352D01*
X18794Y47021D01*
X18825Y46723D01*
X18857Y46440D01*
X18919Y46172D01*
X18998Y45937D01*
X19077Y45716D01*
X19155Y45512D01*
X19250Y45339D01*
X19328Y45198D01*
X19407Y45056D01*
X19485Y44946D01*
X19564Y44852D01*
X19627Y44789D01*
X19658Y44742D01*
X19690Y44710D01*
X19705Y44694D01*
X19894Y44537D01*
X20083Y44412D01*
X20271Y44286D01*
X20460Y44191D01*
X20853Y44034D01*
X21231Y43940D01*
X21388Y43908D01*
X21545Y43877D01*
X21686Y43861D01*
X21797Y43846D01*
X21907Y43830D01*
X22032D01*
X22378Y43846D01*
X22693Y43877D01*
X22976Y43924D01*
X23212Y43987D01*
X23400Y44050D01*
X23542Y44097D01*
X23636Y44128D01*
X23668Y44144D01*
X23903Y44270D01*
X24123Y44412D01*
X24312Y44569D01*
X24469Y44710D01*
X24595Y44852D01*
X24674Y44962D01*
X24737Y45025D01*
X24753Y45056D01*
X24831Y45166D01*
X24910Y45308D01*
X25067Y45606D01*
X25193Y45921D01*
X25319Y46235D01*
X25429Y46518D01*
X25460Y46644D01*
X25507Y46754D01*
X25539Y46849D01*
X25554Y46911D01*
X25570Y46958D01*
Y46974D01*
X25633Y47194D01*
X25696Y47399D01*
X25759Y47587D01*
X25822Y47745D01*
X25884Y47902D01*
X25932Y48028D01*
X25995Y48138D01*
X26042Y48248D01*
X26120Y48405D01*
X26183Y48499D01*
X26215Y48562D01*
X26230Y48578D01*
X26340Y48688D01*
X26466Y48782D01*
X26576Y48845D01*
X26686Y48877D01*
X26796Y48908D01*
X26875Y48924D01*
X26938D01*
X27095Y48908D01*
X27237Y48861D01*
X27362Y48798D01*
X27473Y48735D01*
X27567Y48672D01*
X27630Y48609D01*
X27661Y48562D01*
X27677Y48547D01*
X27771Y48389D01*
X27850Y48201D01*
X27897Y48028D01*
X27944Y47855D01*
X27960Y47698D01*
X27976Y47556D01*
Y47477D01*
Y47446D01*
X27960Y47194D01*
X27928Y46974D01*
X27866Y46786D01*
X27803Y46628D01*
X27740Y46503D01*
X27677Y46408D01*
X27645Y46361D01*
X27630Y46345D01*
X27473Y46204D01*
X27299Y46094D01*
X27095Y46015D01*
X26906Y45937D01*
X26718Y45889D01*
X26576Y45858D01*
X26513Y45842D01*
X26466Y45827D01*
X26435D01*
X26529Y44066D01*
X26812Y44081D01*
X27079Y44128D01*
X27315Y44176D01*
X27551Y44239D01*
X27755Y44301D01*
X27960Y44380D01*
X28133Y44474D01*
X28290Y44553D01*
X28431Y44632D01*
X28557Y44710D01*
X28667Y44789D01*
X28746Y44852D01*
X28809Y44915D01*
X28872Y44962D01*
X28888Y44977D01*
X28903Y44993D01*
X29060Y45166D01*
X29186Y45339D01*
X29296Y45543D01*
X29391Y45732D01*
X29548Y46141D01*
X29642Y46518D01*
X29689Y46707D01*
X29705Y46864D01*
X29721Y47021D01*
X29736Y47147D01*
X29752Y47257D01*
Y47336D01*
Y47383D01*
Y47399D01*
X29736Y47760D01*
X29689Y48106D01*
X29642Y48389D01*
X29579Y48641D01*
X29501Y48845D01*
X29453Y49002D01*
X29406Y49097D01*
X29391Y49113D01*
Y49128D01*
X29249Y49380D01*
X29076Y49584D01*
X28903Y49773D01*
X28730Y49930D01*
X28573Y50056D01*
X28447Y50135D01*
X28369Y50197D01*
X28353Y50213D01*
X28337D01*
X28070Y50339D01*
X27803Y50433D01*
X27535Y50512D01*
X27299Y50559D01*
X27095Y50591D01*
X26922Y50606D01*
X26781D01*
X26513Y50591D01*
X26246Y50559D01*
X26010Y50512D01*
X25806Y50449D01*
X25633Y50402D01*
X25491Y50355D01*
X25413Y50323D01*
X25381Y50307D01*
X25145Y50182D01*
X24941Y50040D01*
X24768Y49899D01*
X24627Y49773D01*
X24501Y49647D01*
X24422Y49553D01*
X24359Y49490D01*
X24344Y49474D01*
X24202Y49254D01*
X24061Y49002D01*
X23935Y48720D01*
X23825Y48452D01*
X23730Y48201D01*
X23699Y48106D01*
X23668Y48012D01*
X23636Y47933D01*
X23620Y47870D01*
X23605Y47839D01*
Y47823D01*
X23542Y47603D01*
X23479Y47399D01*
X23416Y47210D01*
X23353Y47053D01*
X23306Y46896D01*
X23259Y46770D01*
X23227Y46660D01*
X23196Y46565D01*
X23133Y46424D01*
X23086Y46314D01*
X23070Y46267D01*
X23054Y46251D01*
X22991Y46141D01*
X22929Y46031D01*
X22850Y45952D01*
X22787Y45889D01*
X22693Y45795D01*
X22661Y45764D01*
X22646D01*
X22551Y45701D01*
X22441Y45669D01*
X22253Y45606D01*
X22158D01*
X22095Y45591D01*
X22032D01*
X21812Y45606D01*
X21608Y45669D01*
X21435Y45732D01*
X21278Y45827D01*
X21168Y45905D01*
X21073Y45984D01*
X21010Y46047D01*
X20995Y46062D01*
X20853Y46251D01*
X20759Y46455D01*
X20680Y46660D01*
X20633Y46849D01*
X20602Y47037D01*
X20586Y47179D01*
Y47273D01*
Y47289D01*
Y47304D01*
X20602Y47587D01*
X20680Y47855D01*
X20775Y48075D01*
X20900Y48279D01*
X21058Y48468D01*
X21231Y48625D01*
X21419Y48751D01*
X21608Y48861D01*
X21797Y48955D01*
X21985Y49034D01*
X22158Y49097D01*
X22315Y49144D01*
X22441Y49175D01*
X22536Y49191D01*
X22614Y49207D01*
X22630D01*
X22425Y50921D01*
D02*
G37*
G36*
X279986Y8750D02*
X279498Y8671D01*
X279263Y8608D01*
X279058Y8546D01*
X278869Y8467D01*
X278696Y8388D01*
X278524Y8310D01*
X278382Y8231D01*
X278256Y8153D01*
X278146Y8074D01*
X278052Y8011D01*
X277973Y7948D01*
X277910Y7901D01*
X277863Y7854D01*
X277847Y7838D01*
X277832Y7822D01*
X277706Y7665D01*
X277580Y7508D01*
X277391Y7193D01*
X277266Y6863D01*
X277171Y6565D01*
X277124Y6297D01*
X277093Y6172D01*
Y6077D01*
X277077Y5999D01*
Y5936D01*
Y5904D01*
Y5889D01*
X277093Y5621D01*
X277124Y5385D01*
X277187Y5149D01*
X277266Y4945D01*
X277344Y4741D01*
X277439Y4568D01*
X277549Y4395D01*
X277659Y4253D01*
X277769Y4128D01*
X277879Y4002D01*
X277973Y3907D01*
X278052Y3829D01*
X278130Y3766D01*
X278193Y3719D01*
X278225Y3703D01*
X278241Y3687D01*
X278461Y3546D01*
X278696Y3420D01*
X278917Y3326D01*
X279137Y3231D01*
X279577Y3090D01*
X279970Y2995D01*
X280159Y2964D01*
X280316Y2948D01*
X280457Y2917D01*
X280583D01*
X280678Y2901D01*
X280819D01*
X281133Y2917D01*
X281432Y2933D01*
X281700Y2980D01*
X281967Y3043D01*
X282203Y3106D01*
X282438Y3184D01*
X282643Y3279D01*
X282831Y3357D01*
X282989Y3436D01*
X283130Y3530D01*
X283256Y3609D01*
X283366Y3672D01*
X283445Y3735D01*
X283508Y3766D01*
X283539Y3797D01*
X283555Y3813D01*
X283696Y3955D01*
X283822Y4096D01*
X283932Y4238D01*
X284026Y4395D01*
X284168Y4694D01*
X284278Y4961D01*
X284325Y5212D01*
X284341Y5307D01*
X284357Y5401D01*
X284372Y5480D01*
Y5527D01*
Y5558D01*
Y5574D01*
X284357Y5794D01*
X284309Y5999D01*
X284262Y6187D01*
X284199Y6360D01*
X284121Y6517D01*
X284074Y6628D01*
X284026Y6690D01*
X284011Y6722D01*
X285835Y6439D01*
Y3294D01*
X287737D01*
Y7712D01*
X282203Y8561D01*
X281967Y7209D01*
X282108Y7099D01*
X282218Y6989D01*
X282328Y6879D01*
X282407Y6769D01*
X282549Y6549D01*
X282643Y6345D01*
X282690Y6172D01*
X282722Y6046D01*
X282737Y5951D01*
Y5920D01*
X282722Y5716D01*
X282659Y5543D01*
X282580Y5370D01*
X282501Y5244D01*
X282407Y5134D01*
X282328Y5055D01*
X282265Y5008D01*
X282250Y4992D01*
X282045Y4866D01*
X281825Y4772D01*
X281574Y4709D01*
X281338Y4662D01*
X281118Y4631D01*
X280945Y4615D01*
X280772D01*
X280410Y4631D01*
X280080Y4678D01*
X279813Y4741D01*
X279593Y4804D01*
X279435Y4866D01*
X279310Y4929D01*
X279247Y4977D01*
X279215Y4992D01*
X279042Y5134D01*
X278932Y5275D01*
X278838Y5433D01*
X278775Y5574D01*
X278744Y5684D01*
X278728Y5778D01*
X278712Y5857D01*
Y5873D01*
X278728Y6030D01*
X278775Y6172D01*
X278838Y6313D01*
X278917Y6423D01*
X278979Y6517D01*
X279042Y6596D01*
X279090Y6643D01*
X279105Y6659D01*
X279263Y6785D01*
X279451Y6879D01*
X279624Y6958D01*
X279797Y7005D01*
X279954Y7036D01*
X280096Y7068D01*
X280174Y7083D01*
X280206D01*
X279986Y8750D01*
D02*
G37*
G36*
X29579Y70644D02*
X18951D01*
Y68883D01*
X22158D01*
X23935Y67453D01*
X18951Y65079D01*
Y62783D01*
X25460Y66210D01*
X29579Y62940D01*
Y65314D01*
X24831Y68883D01*
X29579D01*
Y70644D01*
D02*
G37*
G36*
X22425Y59049D02*
X22095Y59002D01*
X21781Y58955D01*
X21498Y58876D01*
X21215Y58798D01*
X20963Y58688D01*
X20728Y58577D01*
X20523Y58467D01*
X20319Y58342D01*
X20130Y58200D01*
X19957Y58059D01*
X19674Y57760D01*
X19423Y57446D01*
X19234Y57131D01*
X19077Y56817D01*
X18966Y56518D01*
X18888Y56235D01*
X18841Y55983D01*
X18809Y55779D01*
X18778Y55622D01*
Y55559D01*
Y55512D01*
Y55496D01*
Y55480D01*
X18794Y55150D01*
X18825Y54851D01*
X18857Y54568D01*
X18919Y54301D01*
X18998Y54065D01*
X19077Y53845D01*
X19155Y53641D01*
X19250Y53468D01*
X19328Y53326D01*
X19407Y53185D01*
X19485Y53075D01*
X19564Y52980D01*
X19627Y52917D01*
X19658Y52870D01*
X19690Y52839D01*
X19705Y52823D01*
X19894Y52666D01*
X20083Y52540D01*
X20271Y52414D01*
X20460Y52320D01*
X20853Y52163D01*
X21231Y52068D01*
X21388Y52037D01*
X21545Y52006D01*
X21686Y51990D01*
X21797Y51974D01*
X21907Y51958D01*
X22032D01*
X22378Y51974D01*
X22693Y52006D01*
X22976Y52053D01*
X23212Y52116D01*
X23400Y52178D01*
X23542Y52226D01*
X23636Y52257D01*
X23668Y52273D01*
X23903Y52399D01*
X24123Y52540D01*
X24312Y52697D01*
X24469Y52839D01*
X24595Y52980D01*
X24674Y53090D01*
X24737Y53153D01*
X24753Y53185D01*
X24831Y53295D01*
X24910Y53436D01*
X25067Y53735D01*
X25193Y54049D01*
X25319Y54364D01*
X25429Y54647D01*
X25460Y54773D01*
X25507Y54883D01*
X25539Y54977D01*
X25554Y55040D01*
X25570Y55087D01*
Y55103D01*
X25633Y55323D01*
X25696Y55527D01*
X25759Y55716D01*
X25822Y55873D01*
X25884Y56031D01*
X25932Y56156D01*
X25995Y56266D01*
X26042Y56376D01*
X26120Y56534D01*
X26183Y56628D01*
X26215Y56691D01*
X26230Y56707D01*
X26340Y56817D01*
X26466Y56911D01*
X26576Y56974D01*
X26686Y57005D01*
X26796Y57037D01*
X26875Y57052D01*
X26938D01*
X27095Y57037D01*
X27237Y56989D01*
X27362Y56927D01*
X27473Y56864D01*
X27567Y56801D01*
X27630Y56738D01*
X27661Y56691D01*
X27677Y56675D01*
X27771Y56518D01*
X27850Y56329D01*
X27897Y56156D01*
X27944Y55983D01*
X27960Y55826D01*
X27976Y55685D01*
Y55606D01*
Y55574D01*
X27960Y55323D01*
X27928Y55103D01*
X27866Y54914D01*
X27803Y54757D01*
X27740Y54631D01*
X27677Y54537D01*
X27645Y54490D01*
X27630Y54474D01*
X27473Y54332D01*
X27299Y54222D01*
X27095Y54144D01*
X26906Y54065D01*
X26718Y54018D01*
X26576Y53987D01*
X26513Y53971D01*
X26466Y53955D01*
X26435D01*
X26529Y52194D01*
X26812Y52210D01*
X27079Y52257D01*
X27315Y52304D01*
X27551Y52367D01*
X27755Y52430D01*
X27960Y52509D01*
X28133Y52603D01*
X28290Y52682D01*
X28431Y52760D01*
X28557Y52839D01*
X28667Y52917D01*
X28746Y52980D01*
X28809Y53043D01*
X28872Y53090D01*
X28888Y53106D01*
X28903Y53122D01*
X29060Y53295D01*
X29186Y53468D01*
X29296Y53672D01*
X29391Y53861D01*
X29548Y54269D01*
X29642Y54647D01*
X29689Y54836D01*
X29705Y54993D01*
X29721Y55150D01*
X29736Y55276D01*
X29752Y55386D01*
Y55465D01*
Y55512D01*
Y55527D01*
X29736Y55889D01*
X29689Y56235D01*
X29642Y56518D01*
X29579Y56769D01*
X29501Y56974D01*
X29453Y57131D01*
X29406Y57225D01*
X29391Y57241D01*
Y57257D01*
X29249Y57508D01*
X29076Y57713D01*
X28903Y57902D01*
X28730Y58059D01*
X28573Y58184D01*
X28447Y58263D01*
X28369Y58326D01*
X28353Y58342D01*
X28337D01*
X28070Y58467D01*
X27803Y58562D01*
X27535Y58640D01*
X27299Y58688D01*
X27095Y58719D01*
X26922Y58735D01*
X26781D01*
X26513Y58719D01*
X26246Y58688D01*
X26010Y58640D01*
X25806Y58577D01*
X25633Y58530D01*
X25491Y58483D01*
X25413Y58452D01*
X25381Y58436D01*
X25145Y58310D01*
X24941Y58169D01*
X24768Y58027D01*
X24627Y57902D01*
X24501Y57776D01*
X24422Y57681D01*
X24359Y57618D01*
X24344Y57603D01*
X24202Y57383D01*
X24061Y57131D01*
X23935Y56848D01*
X23825Y56581D01*
X23730Y56329D01*
X23699Y56235D01*
X23668Y56140D01*
X23636Y56062D01*
X23620Y55999D01*
X23605Y55968D01*
Y55952D01*
X23542Y55732D01*
X23479Y55527D01*
X23416Y55339D01*
X23353Y55181D01*
X23306Y55024D01*
X23259Y54898D01*
X23227Y54788D01*
X23196Y54694D01*
X23133Y54552D01*
X23086Y54443D01*
X23070Y54395D01*
X23054Y54380D01*
X22991Y54269D01*
X22929Y54159D01*
X22850Y54081D01*
X22787Y54018D01*
X22693Y53924D01*
X22661Y53892D01*
X22646D01*
X22551Y53829D01*
X22441Y53798D01*
X22253Y53735D01*
X22158D01*
X22095Y53719D01*
X22032D01*
X21812Y53735D01*
X21608Y53798D01*
X21435Y53861D01*
X21278Y53955D01*
X21168Y54034D01*
X21073Y54112D01*
X21010Y54175D01*
X20995Y54191D01*
X20853Y54380D01*
X20759Y54584D01*
X20680Y54788D01*
X20633Y54977D01*
X20602Y55166D01*
X20586Y55307D01*
Y55402D01*
Y55417D01*
Y55433D01*
X20602Y55716D01*
X20680Y55983D01*
X20775Y56203D01*
X20900Y56408D01*
X21058Y56596D01*
X21231Y56754D01*
X21419Y56880D01*
X21608Y56989D01*
X21797Y57084D01*
X21985Y57162D01*
X22158Y57225D01*
X22315Y57273D01*
X22441Y57304D01*
X22536Y57320D01*
X22614Y57335D01*
X22630D01*
X22425Y59049D01*
D02*
G37*
%LPD*%
G36*
X27836Y211267D02*
Y211062D01*
Y210874D01*
X27820Y210701D01*
Y210544D01*
Y210418D01*
X27805Y210292D01*
Y210198D01*
X27789Y210103D01*
X27773Y209978D01*
X27757Y209899D01*
X27742Y209852D01*
Y209836D01*
X27695Y209710D01*
X27632Y209600D01*
X27553Y209506D01*
X27490Y209427D01*
X27427Y209364D01*
X27364Y209317D01*
X27333Y209301D01*
X27317Y209286D01*
X27192Y209223D01*
X27066Y209160D01*
X26798Y209113D01*
X26673Y209097D01*
X26578Y209081D01*
X26500D01*
X26311Y209097D01*
X26154Y209113D01*
X25996Y209144D01*
X25886Y209176D01*
X25776Y209223D01*
X25714Y209254D01*
X25666Y209270D01*
X25651Y209286D01*
X25541Y209364D01*
X25446Y209459D01*
X25383Y209537D01*
X25320Y209632D01*
X25273Y209710D01*
X25242Y209757D01*
X25226Y209805D01*
Y209820D01*
X25210Y209899D01*
X25195Y209978D01*
X25179Y210198D01*
X25148Y210449D01*
Y210701D01*
X25132Y210952D01*
Y211062D01*
Y211157D01*
Y211235D01*
Y211298D01*
Y211330D01*
Y211345D01*
Y212635D01*
X27836D01*
Y211267D01*
D02*
G37*
G36*
X141053Y116622D02*
X141353Y116529D01*
X141608Y116414D01*
X141839Y116275D01*
X142024Y116136D01*
X142140Y116020D01*
X142233Y115928D01*
X142256Y115905D01*
X142464Y115604D01*
X142626Y115234D01*
X142719Y114840D01*
X142811Y114470D01*
X142858Y114123D01*
X142881Y113845D01*
Y113753D01*
Y113660D01*
Y113614D01*
Y113591D01*
X142858Y113059D01*
X142788Y112596D01*
X142696Y112226D01*
X142603Y111925D01*
X142487Y111693D01*
X142395Y111531D01*
X142325Y111416D01*
X142302Y111392D01*
X142071Y111184D01*
X141839Y111022D01*
X141585Y110906D01*
X141377Y110837D01*
X141168Y110791D01*
X141006Y110744D01*
X140868D01*
X140543Y110791D01*
X140243Y110883D01*
X139988Y110999D01*
X139757Y111161D01*
X139572Y111300D01*
X139410Y111439D01*
X139317Y111531D01*
X139294Y111554D01*
X139063Y111878D01*
X138901Y112249D01*
X138785Y112642D01*
X138715Y113012D01*
X138669Y113359D01*
X138623Y113614D01*
Y113729D01*
Y113799D01*
Y113845D01*
Y113868D01*
X138646Y114354D01*
X138715Y114771D01*
X138808Y115118D01*
X138924Y115419D01*
X139039Y115627D01*
X139132Y115789D01*
X139201Y115905D01*
X139225Y115928D01*
X139456Y116159D01*
X139711Y116344D01*
X139965Y116460D01*
X140196Y116552D01*
X140405Y116599D01*
X140590Y116645D01*
X140729D01*
X141053Y116622D01*
D02*
G37*
G36*
X27787Y246934D02*
Y246745D01*
Y246572D01*
X27771Y246258D01*
X27755Y246022D01*
X27740Y245818D01*
X27724Y245676D01*
X27708Y245582D01*
X27693Y245519D01*
Y245503D01*
X27630Y245330D01*
X27567Y245173D01*
X27473Y245031D01*
X27394Y244906D01*
X27299Y244811D01*
X27237Y244733D01*
X27190Y244685D01*
X27174Y244670D01*
X27016Y244544D01*
X26844Y244450D01*
X26655Y244355D01*
X26482Y244292D01*
X26325Y244230D01*
X26199Y244198D01*
X26120Y244167D01*
X26089D01*
X25822Y244104D01*
X25507Y244072D01*
X25208Y244041D01*
X24910Y244009D01*
X24642D01*
X24532Y243994D01*
X23825D01*
X23463Y244025D01*
X23149Y244041D01*
X22882Y244072D01*
X22677Y244104D01*
X22520Y244135D01*
X22425Y244151D01*
X22410Y244167D01*
X22394D01*
X22158Y244230D01*
X21938Y244292D01*
X21765Y244371D01*
X21624Y244434D01*
X21514Y244481D01*
X21435Y244528D01*
X21388Y244560D01*
X21372Y244575D01*
X21168Y244764D01*
X21026Y244968D01*
X20963Y245063D01*
X20932Y245126D01*
X20916Y245173D01*
X20900Y245189D01*
X20853Y245346D01*
X20806Y245534D01*
X20775Y245739D01*
X20759Y245943D01*
Y246132D01*
X20743Y246273D01*
Y246336D01*
Y246383D01*
Y246399D01*
Y246415D01*
Y247720D01*
X27787D01*
Y246934D01*
D02*
G37*
G36*
X153178Y115835D02*
X153502Y115743D01*
X153779Y115650D01*
X154011Y115511D01*
X154196Y115396D01*
X154335Y115280D01*
X154427Y115187D01*
X154450Y115164D01*
X154659Y114887D01*
X154820Y114586D01*
X154936Y114285D01*
X155029Y113984D01*
X155075Y113729D01*
X155098Y113521D01*
Y113382D01*
Y113359D01*
Y113336D01*
X155075Y112873D01*
X155006Y112480D01*
X154890Y112133D01*
X154774Y111855D01*
X154659Y111624D01*
X154543Y111485D01*
X154473Y111369D01*
X154450Y111346D01*
X154196Y111115D01*
X153941Y110953D01*
X153687Y110837D01*
X153432Y110768D01*
X153201Y110721D01*
X153039Y110675D01*
X152877D01*
X152530Y110698D01*
X152206Y110791D01*
X151928Y110906D01*
X151697Y111022D01*
X151512Y111161D01*
X151373Y111254D01*
X151280Y111346D01*
X151257Y111369D01*
X151049Y111670D01*
X150887Y111994D01*
X150771Y112318D01*
X150702Y112642D01*
X150655Y112943D01*
X150609Y113174D01*
Y113267D01*
Y113336D01*
Y113359D01*
Y113382D01*
X150632Y113706D01*
X150702Y114030D01*
X150771Y114308D01*
X150887Y114563D01*
X150979Y114771D01*
X151049Y114933D01*
X151118Y115025D01*
X151141Y115072D01*
X151373Y115326D01*
X151650Y115534D01*
X151928Y115673D01*
X152206Y115766D01*
X152437Y115812D01*
X152645Y115858D01*
X152831D01*
X153178Y115835D01*
D02*
G37*
G36*
X286086Y246885D02*
Y246696D01*
Y246523D01*
X286070Y246208D01*
X286055Y245973D01*
X286039Y245768D01*
X286023Y245627D01*
X286007Y245532D01*
X285992Y245469D01*
Y245454D01*
X285929Y245281D01*
X285866Y245124D01*
X285772Y244982D01*
X285693Y244856D01*
X285599Y244762D01*
X285536Y244683D01*
X285489Y244636D01*
X285473Y244620D01*
X285316Y244495D01*
X285143Y244400D01*
X284954Y244306D01*
X284781Y244243D01*
X284624Y244180D01*
X284498Y244149D01*
X284419Y244117D01*
X284388D01*
X284121Y244055D01*
X283806Y244023D01*
X283508Y243992D01*
X283209Y243960D01*
X282942D01*
X282831Y243944D01*
X282124D01*
X281762Y243976D01*
X281448Y243992D01*
X281181Y244023D01*
X280976Y244055D01*
X280819Y244086D01*
X280725Y244102D01*
X280709Y244117D01*
X280693D01*
X280457Y244180D01*
X280237Y244243D01*
X280064Y244322D01*
X279923Y244385D01*
X279813Y244432D01*
X279734Y244479D01*
X279687Y244510D01*
X279671Y244526D01*
X279467Y244715D01*
X279325Y244919D01*
X279263Y245014D01*
X279231Y245077D01*
X279215Y245124D01*
X279200Y245139D01*
X279152Y245297D01*
X279105Y245485D01*
X279074Y245690D01*
X279058Y245894D01*
Y246083D01*
X279042Y246224D01*
Y246287D01*
Y246334D01*
Y246350D01*
Y246366D01*
Y247671D01*
X286086D01*
Y246885D01*
D02*
G37*
G36*
X74573Y117964D02*
X74920Y117872D01*
X75244Y117733D01*
X75499Y117571D01*
X75730Y117409D01*
X75869Y117270D01*
X75985Y117177D01*
X76008Y117131D01*
X76147Y116946D01*
X76262Y116761D01*
X76447Y116321D01*
X76563Y115835D01*
X76656Y115372D01*
X76702Y114933D01*
X76725Y114748D01*
X76748Y114586D01*
Y114447D01*
Y114354D01*
Y114285D01*
Y114262D01*
Y113915D01*
X76725Y113614D01*
X76679Y113313D01*
X76632Y113035D01*
X76517Y112572D01*
X76378Y112202D01*
X76239Y111902D01*
X76123Y111693D01*
X76031Y111578D01*
X76008Y111531D01*
X75730Y111254D01*
X75429Y111045D01*
X75152Y110883D01*
X74874Y110791D01*
X74643Y110721D01*
X74434Y110698D01*
X74319Y110675D01*
X74272D01*
X74018Y110698D01*
X73786Y110721D01*
X73370Y110860D01*
X73000Y111045D01*
X72699Y111277D01*
X72444Y111508D01*
X72259Y111693D01*
X72167Y111832D01*
X72120Y111855D01*
Y111878D01*
X71935Y112249D01*
X71796Y112665D01*
X71704Y113105D01*
X71634Y113521D01*
X71588Y113915D01*
Y114100D01*
X71565Y114239D01*
Y114377D01*
Y114470D01*
Y114516D01*
Y114539D01*
X71588Y115164D01*
X71681Y115696D01*
X71796Y116136D01*
X71935Y116506D01*
X72051Y116784D01*
X72167Y116992D01*
X72259Y117108D01*
X72282Y117154D01*
X72583Y117432D01*
X72884Y117640D01*
X73208Y117802D01*
X73509Y117895D01*
X73763Y117964D01*
X73972Y117987D01*
X74110Y118010D01*
X74157D01*
X74573Y117964D01*
D02*
G37*
G36*
X27144Y219773D02*
X23198Y218562D01*
Y220952D01*
X27144Y219773D01*
D02*
G37*
G36*
X112175Y117987D02*
X112475Y117895D01*
X112753Y117779D01*
X112985Y117663D01*
X113170Y117524D01*
X113308Y117409D01*
X113401Y117316D01*
X113424Y117293D01*
X113632Y117015D01*
X113818Y116691D01*
X113933Y116344D01*
X114026Y116020D01*
X114072Y115743D01*
X114095Y115488D01*
X114118Y115396D01*
Y115349D01*
Y115303D01*
Y115280D01*
X109537D01*
X109560Y115719D01*
X109629Y116113D01*
X109722Y116460D01*
X109861Y116738D01*
X109976Y116969D01*
X110092Y117131D01*
X110162Y117247D01*
X110185Y117270D01*
X110439Y117524D01*
X110717Y117710D01*
X110995Y117825D01*
X111249Y117918D01*
X111480Y117964D01*
X111666Y118010D01*
X111827D01*
X112175Y117987D01*
D02*
G37*
G36*
X24595Y113374D02*
X24910Y113358D01*
X25208Y113327D01*
X25476Y113280D01*
X25727Y113233D01*
X25947Y113185D01*
X26152Y113123D01*
X26340Y113060D01*
X26498Y112997D01*
X26639Y112934D01*
X26749Y112887D01*
X26844Y112839D01*
X26922Y112792D01*
X26969Y112761D01*
X27001Y112730D01*
X27016D01*
X27174Y112604D01*
X27315Y112462D01*
X27425Y112321D01*
X27535Y112163D01*
X27630Y112022D01*
X27693Y111880D01*
X27803Y111597D01*
X27866Y111362D01*
X27881Y111251D01*
X27897Y111157D01*
X27913Y111094D01*
Y111031D01*
Y111000D01*
Y110984D01*
X27897Y110796D01*
X27881Y110607D01*
X27834Y110434D01*
X27771Y110261D01*
X27630Y109962D01*
X27473Y109711D01*
X27299Y109522D01*
X27158Y109381D01*
X27095Y109318D01*
X27048Y109286D01*
X27032Y109255D01*
X27016D01*
X26844Y109129D01*
X26655Y109035D01*
X26215Y108862D01*
X25774Y108736D01*
X25334Y108657D01*
X25114Y108642D01*
X24925Y108610D01*
X24753Y108594D01*
X24595D01*
X24469Y108579D01*
X23951D01*
X23636Y108610D01*
X23353Y108642D01*
X23070Y108689D01*
X22819Y108736D01*
X22599Y108799D01*
X22394Y108862D01*
X22205Y108925D01*
X22048Y108988D01*
X21907Y109050D01*
X21781Y109113D01*
X21686Y109160D01*
X21608Y109208D01*
X21561Y109239D01*
X21529Y109255D01*
X21514Y109270D01*
X21356Y109396D01*
X21215Y109538D01*
X21105Y109679D01*
X20995Y109821D01*
X20916Y109962D01*
X20838Y110104D01*
X20728Y110387D01*
X20665Y110623D01*
X20649Y110717D01*
X20633Y110811D01*
X20617Y110890D01*
Y110937D01*
Y110969D01*
Y110984D01*
X20633Y111173D01*
X20665Y111346D01*
X20696Y111519D01*
X20759Y111676D01*
X20900Y111975D01*
X21073Y112226D01*
X21246Y112431D01*
X21388Y112572D01*
X21451Y112619D01*
X21498Y112667D01*
X21514Y112682D01*
X21529Y112698D01*
X21718Y112824D01*
X21907Y112918D01*
X22347Y113091D01*
X22803Y113217D01*
X23243Y113295D01*
X23447Y113327D01*
X23636Y113358D01*
X23809Y113374D01*
X23966D01*
X24092Y113390D01*
X24265D01*
X24595Y113374D01*
D02*
G37*
G36*
X88734Y113429D02*
Y113059D01*
X88711Y112734D01*
X88688Y112480D01*
X88665Y112272D01*
X88642Y112133D01*
X88619Y112017D01*
X88596Y111971D01*
Y111948D01*
X88526Y111740D01*
X88411Y111531D01*
X88295Y111369D01*
X88179Y111207D01*
X88063Y111092D01*
X87971Y110999D01*
X87901Y110953D01*
X87878Y110930D01*
X87601Y110744D01*
X87300Y110629D01*
X87045Y110536D01*
X86791Y110467D01*
X86582Y110421D01*
X86420Y110397D01*
X86282D01*
X86027Y110421D01*
X85773Y110467D01*
X85564Y110536D01*
X85402Y110629D01*
X85240Y110721D01*
X85148Y110791D01*
X85078Y110837D01*
X85055Y110860D01*
X84893Y111045D01*
X84778Y111230D01*
X84708Y111416D01*
X84662Y111601D01*
X84616Y111740D01*
X84593Y111855D01*
Y111948D01*
Y111971D01*
X84616Y112202D01*
X84685Y112411D01*
X84778Y112596D01*
X84893Y112758D01*
X84986Y112873D01*
X85078Y112966D01*
X85148Y113012D01*
X85171Y113035D01*
X85356Y113128D01*
X85588Y113244D01*
X85865Y113336D01*
X86143Y113406D01*
X86420Y113475D01*
X86629Y113521D01*
X86721Y113544D01*
X86791Y113567D01*
X86837D01*
X87300Y113660D01*
X87670Y113753D01*
X88017Y113845D01*
X88272Y113915D01*
X88480Y113984D01*
X88619Y114007D01*
X88711Y114053D01*
X88734D01*
Y113429D01*
D02*
G37*
G36*
X27095Y170014D02*
X23149Y168803D01*
Y171193D01*
X27095Y170014D01*
D02*
G37*
G36*
X153108Y122152D02*
X153386Y122083D01*
X153617Y122013D01*
X153826Y121921D01*
X153988Y121805D01*
X154103Y121736D01*
X154173Y121666D01*
X154196Y121643D01*
X154381Y121435D01*
X154497Y121203D01*
X154589Y120972D01*
X154659Y120741D01*
X154705Y120556D01*
X154728Y120394D01*
Y120301D01*
Y120255D01*
X154705Y119931D01*
X154635Y119630D01*
X154566Y119399D01*
X154473Y119190D01*
X154358Y119005D01*
X154288Y118890D01*
X154219Y118820D01*
X154196Y118797D01*
X153988Y118635D01*
X153756Y118496D01*
X153525Y118404D01*
X153293Y118357D01*
X153085Y118311D01*
X152923Y118288D01*
X152784D01*
X152484Y118311D01*
X152206Y118357D01*
X151974Y118450D01*
X151766Y118542D01*
X151604Y118635D01*
X151489Y118728D01*
X151419Y118774D01*
X151396Y118797D01*
X151234Y119005D01*
X151095Y119237D01*
X151003Y119468D01*
X150956Y119699D01*
X150910Y119908D01*
X150887Y120070D01*
Y120185D01*
Y120232D01*
X150910Y120556D01*
X150956Y120833D01*
X151049Y121065D01*
X151141Y121273D01*
X151234Y121435D01*
X151327Y121551D01*
X151373Y121620D01*
X151396Y121643D01*
X151604Y121828D01*
X151836Y121944D01*
X152067Y122037D01*
X152298Y122106D01*
X152507Y122152D01*
X152669Y122175D01*
X152807D01*
X153108Y122152D01*
D02*
G37*
G36*
X27787Y179683D02*
Y179495D01*
Y179322D01*
X27771Y179007D01*
X27755Y178771D01*
X27740Y178567D01*
X27724Y178426D01*
X27708Y178331D01*
X27693Y178268D01*
Y178253D01*
X27630Y178080D01*
X27567Y177922D01*
X27473Y177781D01*
X27394Y177655D01*
X27299Y177561D01*
X27237Y177482D01*
X27190Y177435D01*
X27174Y177419D01*
X27016Y177293D01*
X26844Y177199D01*
X26655Y177105D01*
X26482Y177042D01*
X26325Y176979D01*
X26199Y176948D01*
X26120Y176916D01*
X26089D01*
X25822Y176853D01*
X25507Y176822D01*
X25208Y176790D01*
X24910Y176759D01*
X24642D01*
X24532Y176743D01*
X23825D01*
X23463Y176775D01*
X23149Y176790D01*
X22882Y176822D01*
X22677Y176853D01*
X22520Y176885D01*
X22425Y176900D01*
X22410Y176916D01*
X22394D01*
X22158Y176979D01*
X21938Y177042D01*
X21765Y177120D01*
X21624Y177183D01*
X21514Y177231D01*
X21435Y177278D01*
X21388Y177309D01*
X21372Y177325D01*
X21168Y177514D01*
X21026Y177718D01*
X20963Y177812D01*
X20932Y177875D01*
X20916Y177922D01*
X20900Y177938D01*
X20853Y178095D01*
X20806Y178284D01*
X20775Y178488D01*
X20759Y178693D01*
Y178881D01*
X20743Y179023D01*
Y179086D01*
Y179133D01*
Y179149D01*
Y179165D01*
Y180469D01*
X27787D01*
Y179683D01*
D02*
G37*
G36*
Y34670D02*
Y34466D01*
Y34277D01*
X27771Y34104D01*
Y33947D01*
Y33821D01*
X27755Y33696D01*
Y33601D01*
X27740Y33507D01*
X27724Y33381D01*
X27708Y33303D01*
X27693Y33255D01*
Y33240D01*
X27645Y33114D01*
X27582Y33004D01*
X27504Y32910D01*
X27441Y32831D01*
X27378Y32768D01*
X27315Y32721D01*
X27284Y32705D01*
X27268Y32689D01*
X27142Y32627D01*
X27016Y32564D01*
X26749Y32516D01*
X26623Y32501D01*
X26529Y32485D01*
X26451D01*
X26262Y32501D01*
X26105Y32516D01*
X25947Y32548D01*
X25837Y32579D01*
X25727Y32627D01*
X25664Y32658D01*
X25617Y32674D01*
X25601Y32689D01*
X25491Y32768D01*
X25397Y32862D01*
X25334Y32941D01*
X25271Y33035D01*
X25224Y33114D01*
X25193Y33161D01*
X25177Y33208D01*
Y33224D01*
X25161Y33303D01*
X25145Y33381D01*
X25130Y33601D01*
X25098Y33853D01*
Y34104D01*
X25083Y34356D01*
Y34466D01*
Y34560D01*
Y34639D01*
Y34702D01*
Y34733D01*
Y34749D01*
Y36038D01*
X27787D01*
Y34670D01*
D02*
G37*
D22*
X233718Y34128D02*
G03*
X233718Y34128I-1250J0D01*
G01*
X125750Y262850D02*
G03*
X125750Y262850I-1250J0D01*
G01*
X234000Y121500D02*
Y129500D01*
X143250Y13750D02*
Y27000D01*
X130750D02*
X143250D01*
X130750Y13750D02*
Y27000D01*
Y13750D02*
X143250D01*
X125000D02*
Y27000D01*
X112500D02*
X125000D01*
X112500Y13750D02*
Y27000D01*
Y13750D02*
X125000D01*
X161000D02*
Y27000D01*
X148500D02*
X161000D01*
X148500Y13750D02*
Y27000D01*
Y13750D02*
X161000D01*
X179750D02*
Y27000D01*
X167250D02*
X179750D01*
X167250Y13750D02*
Y27000D01*
Y13750D02*
X179750D01*
X30750Y-68270D02*
Y-2230D01*
X96250D01*
X30750Y-68270D02*
X96250D01*
Y-2230D01*
X234188Y97790D02*
Y105790D01*
Y110030D02*
Y118030D01*
D35*
X317950Y330250D02*
G03*
X317950Y330250I-19500J0D01*
G01*
X25850D02*
G03*
X25850Y330250I-19500J0D01*
G01*
X317696Y-50750D02*
G03*
X317696Y-50750I-19500J0D01*
G01*
X25850D02*
G03*
X25850Y-50750I-19500J0D01*
G01*
X53000Y152500D02*
Y352500D01*
X33000Y152500D02*
X53000D01*
X33000D02*
Y352500D01*
X53000D01*
X33000Y332500D02*
X53000D01*
X253000Y352500D02*
X273000D01*
X253000Y152500D02*
Y352500D01*
Y152500D02*
X273000D01*
Y352500D01*
X93080Y213900D02*
Y232399D01*
X76580Y213900D02*
X93080D01*
X76580Y232399D02*
X93080D01*
X76580Y213900D02*
Y232399D01*
D36*
X149000Y250000D02*
G03*
X149000Y250000I-3000J0D01*
G01*
D37*
X57790Y-9850D02*
G03*
X57790Y-9850I-2540J0D01*
G01*
D38*
X236500Y74250D02*
X249000D01*
Y61000D02*
Y74250D01*
X236500Y61000D02*
X249000D01*
X236500D02*
Y74250D01*
X253250D02*
X265750D01*
Y61000D02*
Y74250D01*
X253250Y61000D02*
X265750D01*
X253250D02*
Y74250D01*
X129000Y324500D02*
Y329000D01*
X126500Y326750D02*
X131250D01*
X117000Y318750D02*
X125500D01*
X136000Y194500D02*
X201500D01*
X136000Y260000D02*
X201500D01*
Y194500D02*
Y260000D01*
X136000Y194500D02*
Y260000D01*
D39*
X179650Y57450D02*
X186000Y51100D01*
X166950Y57450D02*
X179650D01*
X160600Y51100D02*
X166950Y57450D01*
X160600Y38400D02*
Y51100D01*
Y38400D02*
X166950Y32050D01*
X179650D01*
X186000Y38400D01*
X192350Y57450D02*
X205050D01*
X211400Y51100D01*
X205050Y32050D02*
X211400Y38400D01*
Y51100D01*
X186000D02*
X192350Y57450D01*
X186000Y38400D02*
Y51100D01*
Y38400D02*
X192350Y32050D01*
X205050D01*
X12700Y247700D02*
Y260400D01*
Y273100D02*
Y285800D01*
Y222300D02*
Y235000D01*
Y171500D02*
Y184200D01*
Y196900D02*
Y209600D01*
Y146100D02*
Y158800D01*
Y95300D02*
Y108000D01*
Y120700D02*
Y133400D01*
Y69900D02*
Y82600D01*
Y19100D02*
Y31800D01*
Y44500D02*
Y57200D01*
Y-6300D02*
Y6400D01*
X292100Y273100D02*
Y285800D01*
X298450Y292150D01*
X311150D02*
X317500Y285800D01*
X298450Y292150D02*
X311150D01*
X292100Y260400D02*
X298450Y266750D01*
X292100Y247700D02*
Y260400D01*
Y247700D02*
X298450Y241350D01*
X311150D01*
X317500Y247700D01*
Y260400D01*
X311150Y266750D02*
X317500Y260400D01*
X292100Y273100D02*
X298450Y266750D01*
X311150D01*
X317500Y273100D01*
Y285800D01*
X292100Y196900D02*
Y209600D01*
X298450Y215950D01*
X311150D02*
X317500Y209600D01*
X292100Y235000D02*
X298450Y241350D01*
X292100Y222300D02*
Y235000D01*
Y222300D02*
X298450Y215950D01*
X311150D01*
X317500Y222300D01*
Y235000D01*
X311150Y241350D02*
X317500Y235000D01*
X292100Y184200D02*
X298450Y190550D01*
X292100Y171500D02*
Y184200D01*
Y171500D02*
X298450Y165150D01*
X311150D01*
X317500Y171500D01*
Y184200D01*
X311150Y190550D02*
X317500Y184200D01*
X292100Y196900D02*
X298450Y190550D01*
X311150D01*
X317500Y196900D01*
Y209600D01*
X292100Y120700D02*
Y133400D01*
X298450Y139750D01*
X311150D02*
X317500Y133400D01*
X292100Y158800D02*
X298450Y165150D01*
X292100Y146100D02*
Y158800D01*
Y146100D02*
X298450Y139750D01*
X311150D01*
X317500Y146100D01*
Y158800D01*
X311150Y165150D02*
X317500Y158800D01*
X292100Y108000D02*
X298450Y114350D01*
X292100Y95300D02*
Y108000D01*
Y95300D02*
X298450Y88950D01*
X311150D01*
X317500Y95300D01*
Y108000D01*
X311150Y114350D02*
X317500Y108000D01*
X292100Y120700D02*
X298450Y114350D01*
X311150D01*
X317500Y120700D01*
Y133400D01*
X292100Y44500D02*
Y57200D01*
X298450Y63550D01*
X311150D02*
X317500Y57200D01*
X292100Y82600D02*
X298450Y88950D01*
X292100Y69900D02*
Y82600D01*
Y69900D02*
X298450Y63550D01*
X311150D01*
X317500Y69900D01*
Y82600D01*
X311150Y88950D02*
X317500Y82600D01*
X292100Y31800D02*
X298450Y38150D01*
X292100Y19100D02*
Y31800D01*
Y19100D02*
X298450Y12750D01*
X311150D01*
X317500Y19100D01*
Y31800D01*
X311150Y38150D02*
X317500Y31800D01*
X292100Y44500D02*
X298450Y38150D01*
X311150D01*
X317500Y44500D01*
Y57200D01*
X292100Y6400D02*
X298450Y12750D01*
X292100Y-6300D02*
Y6400D01*
Y-6300D02*
X298450Y-12650D01*
X311150D01*
X317500Y-6300D01*
Y6400D01*
X311150Y12750D02*
X317500Y6400D01*
X-12700Y273100D02*
Y285800D01*
X-6350Y292150D01*
X6350D02*
X12700Y285800D01*
X-6350Y292150D02*
X6350D01*
X-12700Y260400D02*
X-6350Y266750D01*
X-12700Y247700D02*
Y260400D01*
Y247700D02*
X-6350Y241350D01*
X6350D01*
X12700Y247700D01*
X6350Y266750D02*
X12700Y260400D01*
X-12700Y273100D02*
X-6350Y266750D01*
X6350D01*
X12700Y273100D01*
X-12700Y196900D02*
Y209600D01*
X-6350Y215950D01*
X6350D02*
X12700Y209600D01*
X-12700Y235000D02*
X-6350Y241350D01*
X-12700Y222300D02*
Y235000D01*
Y222300D02*
X-6350Y215950D01*
X6350D01*
X12700Y222300D01*
X6350Y241350D02*
X12700Y235000D01*
X-12700Y184200D02*
X-6350Y190550D01*
X-12700Y171500D02*
Y184200D01*
Y171500D02*
X-6350Y165150D01*
X6350D01*
X12700Y171500D01*
X6350Y190550D02*
X12700Y184200D01*
X-12700Y196900D02*
X-6350Y190550D01*
X6350D01*
X12700Y196900D01*
X-12700Y120700D02*
Y133400D01*
X-6350Y139750D01*
X6350D02*
X12700Y133400D01*
X-12700Y158800D02*
X-6350Y165150D01*
X-12700Y146100D02*
Y158800D01*
Y146100D02*
X-6350Y139750D01*
X6350D01*
X12700Y146100D01*
X6350Y165150D02*
X12700Y158800D01*
X-12700Y108000D02*
X-6350Y114350D01*
X-12700Y95300D02*
Y108000D01*
Y95300D02*
X-6350Y88950D01*
X6350D01*
X12700Y95300D01*
X6350Y114350D02*
X12700Y108000D01*
X-12700Y120700D02*
X-6350Y114350D01*
X6350D01*
X12700Y120700D01*
X-12700Y44500D02*
Y57200D01*
X-6350Y63550D01*
X6350D02*
X12700Y57200D01*
X-12700Y82600D02*
X-6350Y88950D01*
X-12700Y69900D02*
Y82600D01*
Y69900D02*
X-6350Y63550D01*
X6350D01*
X12700Y69900D01*
X6350Y88950D02*
X12700Y82600D01*
X-12700Y31800D02*
X-6350Y38150D01*
X-12700Y19100D02*
Y31800D01*
Y19100D02*
X-6350Y12750D01*
X6350D01*
X12700Y19100D01*
X6350Y38150D02*
X12700Y31800D01*
X-12700Y44500D02*
X-6350Y38150D01*
X6350D01*
X12700Y44500D01*
X-12700Y6400D02*
X-6350Y12750D01*
X-12700Y-6300D02*
Y6400D01*
Y-6300D02*
X-6350Y-12650D01*
X6350D01*
X12700Y-6300D01*
X6350Y12750D02*
X12700Y6400D01*
X110800Y57450D02*
X123500D01*
X129850Y51100D01*
Y38400D02*
Y51100D01*
X123500Y32050D02*
X129850Y38400D01*
X79050Y51100D02*
X85400Y57450D01*
X98100D01*
X104450Y51100D01*
Y38400D02*
Y51100D01*
X98100Y32050D02*
X104450Y38400D01*
X85400Y32050D02*
X98100D01*
X79050Y38400D02*
X85400Y32050D01*
X104450Y51100D02*
X110800Y57450D01*
X104450Y38400D02*
X110800Y32050D01*
X123500D01*
X34600Y57450D02*
X47300D01*
X53650Y51100D01*
Y38400D02*
Y51100D01*
X47300Y32050D02*
X53650Y38400D01*
Y51100D02*
X60000Y57450D01*
X72700D01*
X79050Y51100D01*
Y38400D02*
Y51100D01*
X72700Y32050D02*
X79050Y38400D01*
X60000Y32050D02*
X72700D01*
X53650Y38400D02*
X60000Y32050D01*
X28250Y38400D02*
Y51100D01*
X34600Y57450D01*
X28250Y38400D02*
X34600Y32050D01*
X47300D01*
X136200Y57450D02*
X148900D01*
X155250Y51100D01*
Y38400D02*
Y51100D01*
X148900Y32050D02*
X155250Y38400D01*
X129850Y51100D02*
X136200Y57450D01*
X129850Y38400D02*
X136200Y32050D01*
X148900D01*
M02*
