G04 Layer_Physical_Order=3*
G04 Layer_Color=32768*
%FSLAX44Y44*%
%MOMM*%
G71*
G01*
G75*
%ADD28C,0.8000*%
%ADD29C,1.6000*%
%ADD30C,1.4000*%
%ADD31C,2.6000*%
%ADD32C,0.8000*%
D28*
X-12750Y-76250D02*
Y355500D01*
X317500D01*
Y-76250D02*
Y355500D01*
X-12750Y-76250D02*
X317500D01*
D29*
X173300Y44750D02*
D03*
X198700D02*
D03*
X304800Y50D02*
D03*
Y25450D02*
D03*
Y50850D02*
D03*
Y76250D02*
D03*
Y101650D02*
D03*
Y127050D02*
D03*
Y152450D02*
D03*
Y177850D02*
D03*
Y203250D02*
D03*
Y228650D02*
D03*
Y279450D02*
D03*
X-0Y50D02*
D03*
Y25450D02*
D03*
Y50850D02*
D03*
Y76250D02*
D03*
Y101650D02*
D03*
Y127050D02*
D03*
Y152450D02*
D03*
Y177850D02*
D03*
Y203250D02*
D03*
Y228650D02*
D03*
Y279450D02*
D03*
X40950Y44750D02*
D03*
X91750D02*
D03*
X117150D02*
D03*
X142550D02*
D03*
D30*
X43000Y342500D02*
D03*
Y322500D02*
D03*
Y302500D02*
D03*
Y282500D02*
D03*
Y262500D02*
D03*
Y242500D02*
D03*
Y222500D02*
D03*
Y202500D02*
D03*
Y182500D02*
D03*
X263000Y162500D02*
D03*
Y182500D02*
D03*
Y202500D02*
D03*
Y222500D02*
D03*
Y242500D02*
D03*
Y262500D02*
D03*
Y282500D02*
D03*
Y302500D02*
D03*
Y322500D02*
D03*
Y342500D02*
D03*
D31*
X298450Y330250D02*
D03*
X6350D02*
D03*
X298196Y-50750D02*
D03*
X6350D02*
D03*
D32*
X241384Y194812D02*
D03*
X157056Y204434D02*
D03*
X213451Y145506D02*
D03*
X89354Y121122D02*
D03*
X256116Y8346D02*
D03*
X97112Y326146D02*
D03*
X229954Y224750D02*
D03*
X184488Y252948D02*
D03*
X286596Y267934D02*
D03*
X300058Y165064D02*
D03*
X164930Y335752D02*
D03*
X246718Y219166D02*
D03*
X144864Y176748D02*
D03*
X89746Y191988D02*
D03*
X144610Y210530D02*
D03*
X166250Y176240D02*
D03*
X155532Y261330D02*
D03*
X168994Y279872D02*
D03*
X22774Y251424D02*
D03*
X269832Y-48550D02*
D03*
X304884Y89118D02*
D03*
X113314Y313146D02*
D03*
X144610Y261330D02*
D03*
X198204Y310098D02*
D03*
X56980Y340578D02*
D03*
X248162Y245074D02*
D03*
X231732Y232374D02*
D03*
X281262Y235676D02*
D03*
X160866Y222468D02*
D03*
X198966Y204750D02*
D03*
X135494Y248080D02*
D03*
X193886Y348198D02*
D03*
X150198Y159730D02*
D03*
X165324Y134952D02*
D03*
X204554Y184622D02*
D03*
X100668Y156428D02*
D03*
X301074Y190972D02*
D03*
X175314Y158460D02*
D03*
X218016Y184876D02*
D03*
X169932Y154460D02*
D03*
X274658Y69814D02*
D03*
X175598Y194020D02*
D03*
X145880Y233136D02*
D03*
X129878Y33746D02*
D03*
X191346Y209006D02*
D03*
X218832Y145506D02*
D03*
X196934Y-47534D02*
D03*
M02*
