G04 Layer_Physical_Order=1*
G04 Layer_Color=255*
%FSLAX44Y44*%
%MOMM*%
G71*
G01*
G75*
%ADD10R,0.6000X0.8000*%
%ADD11R,0.8000X0.8000*%
%ADD12R,0.8000X0.6000*%
%ADD13R,1.0000X0.6000*%
%ADD14R,1.0000X1.0000*%
%ADD15R,1.5000X1.3000*%
%ADD16R,0.8000X1.0500*%
%ADD17R,1.2000X1.4000*%
%ADD18R,1.5000X1.2000*%
%ADD19R,0.3500X0.8000*%
%ADD20R,0.8000X0.3500*%
%ADD21R,1.6000X0.6500*%
%ADD22C,0.2500*%
G04:AMPARAMS|DCode=23|XSize=1.6002mm|YSize=1.6002mm|CornerRadius=0mm|HoleSize=0mm|Usage=FLASHONLY|Rotation=180.000|XOffset=0mm|YOffset=0mm|HoleType=Round|Shape=Octagon|*
%AMOCTAGOND23*
4,1,8,-0.8001,0.4001,-0.8001,-0.4001,-0.4001,-0.8001,0.4001,-0.8001,0.8001,-0.4001,0.8001,0.4001,0.4001,0.8001,-0.4001,0.8001,-0.8001,0.4001,0.0*
%
%ADD23OCTAGOND23*%

G04:AMPARAMS|DCode=24|XSize=1.2mm|YSize=1.2mm|CornerRadius=0mm|HoleSize=0mm|Usage=FLASHONLY|Rotation=270.000|XOffset=0mm|YOffset=0mm|HoleType=Round|Shape=Octagon|*
%AMOCTAGOND24*
4,1,8,-0.3000,-0.6000,0.3000,-0.6000,0.6000,-0.3000,0.6000,0.3000,0.3000,0.6000,-0.3000,0.6000,-0.6000,0.3000,-0.6000,-0.3000,-0.3000,-0.6000,0.0*
%
%ADD24OCTAGOND24*%

G04:AMPARAMS|DCode=25|XSize=1.6002mm|YSize=1.6002mm|CornerRadius=0mm|HoleSize=0mm|Usage=FLASHONLY|Rotation=270.000|XOffset=0mm|YOffset=0mm|HoleType=Round|Shape=Octagon|*
%AMOCTAGOND25*
4,1,8,-0.4001,-0.8001,0.4001,-0.8001,0.8001,-0.4001,0.8001,0.4001,0.4001,0.8001,-0.4001,0.8001,-0.8001,0.4001,-0.8001,-0.4001,-0.4001,-0.8001,0.0*
%
%ADD25OCTAGOND25*%

%ADD26C,1.0000*%
%ADD27C,0.5000*%
D10*
X249896Y125500D02*
D03*
X263358D02*
D03*
X228642D02*
D03*
X242104D02*
D03*
X89354Y139750D02*
D03*
X75892D02*
D03*
X89354Y151000D02*
D03*
X75892D02*
D03*
X224858Y78560D02*
D03*
X211396D02*
D03*
X251608Y51250D02*
D03*
X238146D02*
D03*
X180354Y288750D02*
D03*
X166892D02*
D03*
X146146D02*
D03*
X159608D02*
D03*
X141142Y339500D02*
D03*
X154604D02*
D03*
X70892Y202250D02*
D03*
X84354D02*
D03*
X82608Y262500D02*
D03*
X69146D02*
D03*
X72642Y333250D02*
D03*
X86104D02*
D03*
X67142Y279000D02*
D03*
X80604D02*
D03*
X249874Y-12452D02*
D03*
X263336D02*
D03*
X249874Y628D02*
D03*
X263336D02*
D03*
X75142Y176000D02*
D03*
X88604D02*
D03*
X88668Y165702D02*
D03*
X75206D02*
D03*
X249896Y102000D02*
D03*
X263358D02*
D03*
X228830Y101790D02*
D03*
X242292D02*
D03*
X249896Y114000D02*
D03*
X263358D02*
D03*
X242292Y114030D02*
D03*
X228830D02*
D03*
D11*
X242750Y67642D02*
D03*
Y83104D02*
D03*
X259500Y67642D02*
D03*
Y83104D02*
D03*
X137000Y4896D02*
D03*
Y20358D02*
D03*
X118750Y4896D02*
D03*
Y20358D02*
D03*
X154750Y4896D02*
D03*
Y20358D02*
D03*
X173500Y4896D02*
D03*
Y20358D02*
D03*
D12*
X270000Y-23896D02*
D03*
Y-37358D02*
D03*
X259750Y18146D02*
D03*
Y31608D02*
D03*
X208000Y14896D02*
D03*
Y28358D02*
D03*
X215250Y340108D02*
D03*
Y326646D02*
D03*
X202750Y339858D02*
D03*
Y326396D02*
D03*
X234750Y247396D02*
D03*
Y260858D02*
D03*
X102000Y213854D02*
D03*
Y200392D02*
D03*
X121250Y323892D02*
D03*
X109250Y326146D02*
D03*
Y339608D02*
D03*
X181750Y326396D02*
D03*
Y339858D02*
D03*
D13*
X246500Y34250D02*
D03*
X222500D02*
D03*
Y24750D02*
D03*
Y15250D02*
D03*
X246500D02*
D03*
D14*
X179500Y-11000D02*
D03*
X162500D02*
D03*
X179500Y-63000D02*
D03*
X162500D02*
D03*
X141000Y-10750D02*
D03*
X124000D02*
D03*
X141000Y-62750D02*
D03*
X124000D02*
D03*
X230250Y-10250D02*
D03*
X213250D02*
D03*
X230250Y-62250D02*
D03*
X213250D02*
D03*
D15*
X162000Y315750D02*
D03*
X137500D02*
D03*
D16*
X121250Y337354D02*
D03*
D17*
X84830Y223149D02*
D03*
X65830Y247149D02*
D03*
X84830D02*
D03*
X65830Y223149D02*
D03*
D18*
X80500Y318625D02*
D03*
Y292375D02*
D03*
D19*
X141250Y269500D02*
D03*
X146250D02*
D03*
X151250D02*
D03*
X156250D02*
D03*
X161250D02*
D03*
X166250D02*
D03*
X171250D02*
D03*
X176250D02*
D03*
X181250D02*
D03*
X186250D02*
D03*
X191250D02*
D03*
X196250D02*
D03*
Y185000D02*
D03*
X191250D02*
D03*
X186250D02*
D03*
X181250D02*
D03*
X176250D02*
D03*
X171250D02*
D03*
X166250D02*
D03*
X161250D02*
D03*
X156250D02*
D03*
X151250D02*
D03*
X146250D02*
D03*
X141250D02*
D03*
D20*
X211000Y254750D02*
D03*
Y249750D02*
D03*
Y244750D02*
D03*
Y239750D02*
D03*
Y234750D02*
D03*
Y229750D02*
D03*
Y224750D02*
D03*
Y219750D02*
D03*
Y214750D02*
D03*
Y209750D02*
D03*
Y204750D02*
D03*
Y199750D02*
D03*
X126500D02*
D03*
Y204750D02*
D03*
Y209750D02*
D03*
Y214750D02*
D03*
Y219750D02*
D03*
Y224750D02*
D03*
Y229750D02*
D03*
Y234750D02*
D03*
Y239750D02*
D03*
Y244750D02*
D03*
Y249750D02*
D03*
Y254750D02*
D03*
D21*
X42100Y-9850D02*
D03*
X84900D02*
D03*
X42100Y-22550D02*
D03*
X84900D02*
D03*
X42100Y-35250D02*
D03*
X84900D02*
D03*
X42100Y-47950D02*
D03*
X84900D02*
D03*
X42100Y-60650D02*
D03*
X84900D02*
D03*
D22*
X216238Y321020D02*
Y326646D01*
X237828Y-37358D02*
X253306D01*
X171250Y182250D02*
X171672D01*
X262229Y-25944D02*
X264277Y-23896D01*
X82608Y267456D02*
X93550D01*
X175894Y339858D02*
X181750D01*
X169756D02*
X175894D01*
X160866Y266664D02*
X161250D01*
X160866Y266280D02*
Y266664D01*
Y250408D02*
Y266280D01*
Y236034D02*
Y250408D01*
X166524Y244750D02*
X199220D01*
X171534Y302224D02*
X175274D01*
X158592D02*
X171534D01*
X75206Y158638D02*
Y165572D01*
X65616D02*
X75206D01*
X88668Y165826D02*
X109050D01*
X88668D02*
Y170652D01*
X83904Y-60650D02*
Y-58456D01*
X154516Y-18832D02*
Y4896D01*
X180170Y102834D02*
X228830D01*
X196250Y185130D02*
X204046D01*
X196250Y190126D02*
X223266D01*
X196250Y185130D02*
Y190126D01*
Y185000D02*
Y185130D01*
X170772Y265902D02*
X171250D01*
X182217Y115026D02*
X228830D01*
X121496Y170577D02*
Y199750D01*
X134196Y269458D02*
X141250D01*
X126576Y254750D02*
Y258282D01*
X139530Y181320D02*
X141250D01*
X196250Y270982D02*
X253830D01*
X84075Y-9850D02*
Y13110D01*
X69146Y260031D02*
X81364Y272250D01*
X65830Y256715D02*
X69146Y260031D01*
X195040Y194812D02*
X241384D01*
X180168Y209684D02*
X195040Y194812D01*
X151806Y209684D02*
X180168D01*
X146872Y204750D02*
X151806Y209684D01*
X126500Y204750D02*
X146872D01*
X202750Y326396D02*
X203284D01*
X209338Y332450D01*
X253050D01*
X263000Y322500D01*
X151250Y185000D02*
Y198628D01*
X157056Y204434D01*
X251608Y51250D02*
Y59750D01*
X259500Y67642D01*
X199220Y244750D02*
X211000D01*
X193448Y250522D02*
X199220Y244750D01*
X193448Y250522D02*
Y252434D01*
X181250Y264632D02*
X193448Y252434D01*
X181250Y264632D02*
Y269500D01*
X88668Y165702D02*
Y165826D01*
X109050D02*
X142550Y132326D01*
Y44750D02*
Y132326D01*
X123836Y63464D02*
X142550Y44750D01*
X38014Y63464D02*
X123836D01*
X-0Y25450D02*
X38014Y63464D01*
X190490Y36540D02*
X198700Y44750D01*
X173500Y20358D02*
X190490Y36540D01*
X42100Y-9850D02*
X56634D01*
X75522Y-28738D01*
X103716D01*
X112606Y-19848D01*
Y-1248D01*
X118750Y4896D01*
X228830Y101790D02*
Y102834D01*
X114892Y168112D02*
X180170Y102834D01*
X114892Y168112D02*
Y211800D01*
X117842Y214750D01*
X126500D01*
X89354Y121122D02*
Y139750D01*
X230250Y-10250D02*
X243924Y3424D01*
Y6314D01*
X245956Y8346D01*
X256116D01*
X97112Y326146D02*
X109250D01*
X211000Y224750D02*
X229954D01*
X171250Y265902D02*
Y269500D01*
X170772Y256504D02*
Y265902D01*
Y256504D02*
X174328Y252948D01*
X184488D01*
X286596Y178526D02*
Y267934D01*
Y178526D02*
X300058Y165064D01*
X121496Y199750D02*
X126500D01*
X121496Y170577D02*
X163247Y128826D01*
X168417D01*
X182217Y115026D01*
X228830Y114030D02*
Y115026D01*
X71909Y292375D02*
X80500D01*
X62568Y301716D02*
X71909Y292375D01*
X62568Y301716D02*
Y343880D01*
X64959Y346271D01*
X86340D01*
X91854Y340756D01*
Y323560D02*
Y340756D01*
Y323560D02*
X128608Y286806D01*
Y275046D02*
Y286806D01*
Y275046D02*
X134196Y269458D01*
X141250D02*
Y269500D01*
X86104Y324229D02*
Y333250D01*
X80500Y318625D02*
X86104Y324229D01*
X164930Y332196D02*
Y335752D01*
X158580Y325846D02*
X164930Y332196D01*
X154008Y325846D02*
X158580D01*
X151722Y323560D02*
X154008Y325846D01*
X151722Y306947D02*
Y323560D01*
X140395Y295620D02*
X151722Y306947D01*
X140395Y281999D02*
Y295620D01*
Y281999D02*
X150567D01*
X156250Y276316D01*
Y269500D02*
Y276316D01*
X211000Y219750D02*
X217508D01*
X218092Y219166D01*
X246718D01*
X161250Y179288D02*
Y185000D01*
X158710Y176748D02*
X161250Y179288D01*
X144864Y176748D02*
X158710D01*
X144610Y210530D02*
X150452Y216372D01*
X181938D01*
X205316Y239750D01*
X211000D01*
X166250Y176240D02*
Y185000D01*
X151250Y263616D02*
Y269500D01*
Y263616D02*
X155532Y261330D01*
X-0Y228650D02*
X22774Y251424D01*
X141000Y-36812D02*
Y-10750D01*
Y-36812D02*
X158580Y-54392D01*
X263990D01*
X269832Y-48550D01*
X301328Y89118D02*
X304884D01*
X293962Y96484D02*
X301328Y89118D01*
X293962Y96484D02*
Y116212D01*
X304800Y127050D01*
X69146Y260031D02*
Y262500D01*
X65830Y247149D02*
Y256715D01*
X117940Y229750D02*
X126500D01*
X112352Y235338D02*
X117940Y229750D01*
X112352Y235338D02*
Y264632D01*
X104735Y272250D02*
X112352Y264632D01*
X81364Y272250D02*
X104735D01*
X181250Y175088D02*
Y185000D01*
Y175088D02*
X207348Y148990D01*
Y143728D02*
Y148990D01*
Y143728D02*
X215476Y135600D01*
X225636D01*
X228642Y132594D01*
Y125500D02*
Y132594D01*
X109250Y317210D02*
Y326146D01*
Y317210D02*
X113314Y313146D01*
X144610Y261330D02*
X148674Y257266D01*
Y248376D02*
Y257266D01*
X140546Y240248D02*
X148674Y248376D01*
X130122Y240248D02*
X140546D01*
X129624Y239750D02*
X130122Y240248D01*
X126500Y239750D02*
X129624D01*
X126500Y254750D02*
X126576D01*
X102954Y281904D02*
X126576Y258282D01*
X102954Y281904D02*
Y303533D01*
X87862Y318625D02*
X102954Y303533D01*
X80500Y318625D02*
X87862D01*
X108288Y339608D02*
X109250D01*
X97626Y350271D02*
X108288Y339608D01*
X50771Y350271D02*
X97626D01*
X43000Y342500D02*
X50771Y350271D01*
X68578Y341021D02*
X69405D01*
X72642Y337784D01*
Y333250D02*
Y337784D01*
X186250Y269500D02*
Y298144D01*
X198204Y310098D01*
X56980Y238724D02*
Y340578D01*
Y238724D02*
X61044Y234660D01*
X72220D01*
X74760Y232120D01*
Y209514D02*
Y232120D01*
Y209514D02*
X78570Y205704D01*
Y193766D02*
Y205704D01*
Y193766D02*
X81872Y190464D01*
Y132722D02*
Y190464D01*
X-0Y50850D02*
X81872Y132722D01*
X181750Y326396D02*
X191346D01*
X203538Y314204D01*
Y289112D02*
Y314204D01*
X191250Y276824D02*
X203538Y289112D01*
X191250Y269500D02*
Y276824D01*
X180354Y288750D02*
Y297144D01*
X175274Y302224D02*
X180354Y297144D01*
X173270Y311686D02*
Y313400D01*
X170920Y315750D02*
X173270Y313400D01*
X162000Y315750D02*
X170920D01*
X173820Y337784D02*
X175894Y339858D01*
X173820Y322290D02*
Y337784D01*
Y322290D02*
X178646Y317464D01*
Y309336D02*
Y317464D01*
X171534Y302224D02*
X178646Y309336D01*
X146146Y289778D02*
X158592Y302224D01*
X146146Y288750D02*
Y289778D01*
X211000Y234750D02*
X217344D01*
X221064Y238470D01*
X241558D01*
X248162Y245074D01*
X293962Y36288D02*
X304800Y25450D01*
X293962Y36288D02*
Y77688D01*
X281262Y90388D02*
X293962Y77688D01*
X229430Y90388D02*
X281262D01*
X224858Y85816D02*
X229430Y90388D01*
X224858Y78560D02*
Y85816D01*
X211000Y229750D02*
X216916D01*
X217750Y230584D01*
X229942D01*
X231732Y232374D01*
X263358Y94960D02*
Y102000D01*
X183726Y94960D02*
X263358D01*
X173300Y84534D02*
X183726Y94960D01*
X173300Y44750D02*
Y84534D01*
X285580Y19269D02*
X304800Y50D01*
X285580Y19269D02*
Y72862D01*
X283294Y75148D02*
X285580Y72862D01*
X250706Y75148D02*
X283294D01*
X242750Y83104D02*
X250706Y75148D01*
X179500Y-11000D02*
Y-1214D01*
X180424Y-290D01*
Y11648D01*
X147658D02*
X180424D01*
X144610Y8600D02*
X147658Y11648D01*
X144610Y-36D02*
Y8600D01*
X142324Y-2322D02*
X144610Y-36D01*
X134196Y-2322D02*
X142324D01*
X131910Y-4608D02*
X134196Y-2322D01*
X131910Y-25944D02*
Y-4608D01*
X97204Y-60650D02*
X131910Y-25944D01*
X84900Y-60650D02*
X97204D01*
X154516Y4896D02*
X154750D01*
X154516Y-18832D02*
X187282D01*
Y-9942D01*
X199220Y1996D01*
X223858D01*
X234526Y12664D01*
Y28920D01*
X239856Y34250D01*
X246500D01*
X144610Y222468D02*
X160866D01*
X131892Y209750D02*
X144610Y222468D01*
X126500Y209750D02*
X131892D01*
X198966Y204750D02*
X211000D01*
X160866Y266280D02*
X161250Y266664D01*
X160866Y250408D02*
X166524Y244750D01*
X166250Y253602D02*
Y269500D01*
X132164Y244750D02*
X135494Y248080D01*
X126500Y244750D02*
X132164D01*
X141250Y181320D02*
Y185000D01*
X139530Y170398D02*
Y181320D01*
Y170398D02*
X150198Y159730D01*
X176250Y172089D02*
Y185000D01*
Y172089D02*
X180564Y167774D01*
Y150192D02*
Y167774D01*
X165324Y134952D02*
X180564Y150192D01*
X204046Y185130D02*
X204554Y184622D01*
X89354Y156428D02*
X100668D01*
X89354Y151000D02*
Y156428D01*
X292438Y199608D02*
X301074Y190972D01*
X292438Y199608D02*
Y272760D01*
X290406Y274792D02*
X292438Y272760D01*
X272118Y274792D02*
X290406D01*
X268816Y271490D02*
X272118Y274792D01*
X254338Y271490D02*
X268816D01*
X253830Y270982D02*
X254338Y271490D01*
X196250Y269500D02*
Y270982D01*
X171250Y182250D02*
Y185000D01*
X171672Y162102D02*
Y182250D01*
Y162102D02*
X175314Y158460D01*
X191250Y179214D02*
Y185000D01*
Y179214D02*
X195156Y175308D01*
X208448D01*
X218016Y184876D01*
X294556Y152450D02*
X304800D01*
X280500Y138394D02*
X294556Y152450D01*
X254846Y138394D02*
X280500D01*
X242400Y150840D02*
X254846Y138394D01*
X242400Y150840D02*
Y170992D01*
X223266Y190126D02*
X242400Y170992D01*
X146250Y185000D02*
Y191480D01*
X145764Y191966D02*
X146250Y191480D01*
X137338Y191966D02*
X145764D01*
X134820Y189448D02*
X137338Y191966D01*
X134820Y168080D02*
Y189448D01*
Y168080D02*
X143547Y159353D01*
Y156936D02*
Y159353D01*
Y156936D02*
X146023Y154460D01*
X169932D01*
X274658Y12664D02*
Y69814D01*
X268562Y6568D02*
X274658Y12664D01*
X263336Y6568D02*
X268562D01*
X263336Y628D02*
Y6568D01*
X199166Y251836D02*
Y253814D01*
Y251836D02*
X201252Y249750D01*
X211000D01*
X161250Y266664D02*
Y269500D01*
X151805Y226973D02*
X160866Y236034D01*
X141673Y226973D02*
X151805D01*
X134450Y219750D02*
X141673Y226973D01*
X126500Y219750D02*
X134450D01*
X156250Y185000D02*
Y191750D01*
X158520Y194020D01*
X175598D01*
X116670Y33746D02*
X129878D01*
X111844Y28920D02*
X116670Y33746D01*
X111844Y13426D02*
Y28920D01*
Y13426D02*
X128470D01*
X137000Y4896D01*
X197090Y214750D02*
X211000D01*
X191346Y209006D02*
X197090Y214750D01*
X126500Y234750D02*
X134270D01*
X70892Y190416D02*
Y202250D01*
X180354Y279498D02*
Y288750D01*
Y279498D02*
X181250Y278602D01*
Y269500D02*
Y278602D01*
X43000Y336250D02*
Y342500D01*
X34120Y327370D02*
X43000Y336250D01*
X34120Y215864D02*
Y327370D01*
Y215864D02*
X36406Y213578D01*
X50122D01*
X55964Y207736D01*
Y175224D02*
Y207736D01*
Y175224D02*
X65616Y165572D01*
X75206D02*
Y165702D01*
X106333Y224750D02*
X126500D01*
X104732Y223149D02*
X106333Y224750D01*
X84830Y223149D02*
X104732D01*
X109867Y219750D02*
X126500D01*
X103970Y213854D02*
X109867Y219750D01*
X102000Y213854D02*
X103970D01*
X186250Y178089D02*
X218832Y145506D01*
X186250Y178089D02*
Y185000D01*
X191250Y264632D02*
Y269500D01*
Y264632D02*
X194298Y261584D01*
X218778D01*
X226144Y254218D01*
X251282D01*
X263000Y242500D01*
X137500Y299605D02*
Y315750D01*
X136395Y298500D02*
X137500Y299605D01*
X136395Y277999D02*
Y298500D01*
Y277999D02*
X145836D01*
X146250Y277586D01*
Y269500D02*
Y277586D01*
X267520Y14082D02*
Y14870D01*
X264244Y18146D02*
X267520Y14870D01*
X259750Y18146D02*
X264244D01*
X186326Y18760D02*
X197484D01*
X201348Y14896D01*
X208000D01*
X211396Y61432D02*
Y78560D01*
Y61432D02*
X212188Y60640D01*
X230224D01*
X238146Y52718D01*
Y51250D02*
Y52718D01*
X222500Y34250D02*
Y38914D01*
X205570Y55844D02*
X222500Y38914D01*
X205570Y55844D02*
Y83784D01*
X208872Y87086D01*
X213952D01*
X217254Y83784D01*
Y73624D02*
Y83784D01*
Y73624D02*
X223236Y67642D01*
X242750D01*
X222500Y15250D02*
X227668D01*
X230462Y18044D01*
Y43334D01*
X238146Y51018D01*
Y51250D01*
X83904Y-60650D02*
X84900D01*
X80094Y-54646D02*
X83904Y-58456D01*
X32596Y-54646D02*
X80094D01*
X30564Y-52614D02*
X32596Y-54646D01*
X30564Y-52614D02*
Y-5114D01*
X-0Y25450D02*
X30564Y-5114D01*
X211000Y209750D02*
X237338D01*
X253576Y193512D01*
X265768D01*
X271864Y187416D01*
Y171364D02*
Y187416D01*
X263000Y162500D02*
X271864Y171364D01*
X189666Y24750D02*
X197794D01*
X203044Y19500D01*
X210128D01*
X215379Y24750D01*
X222500D01*
X196934Y-47534D02*
X227652D01*
X237828Y-37358D01*
X215250Y326646D02*
X216238D01*
Y321020D02*
X223604Y313654D01*
X268308D01*
X271864Y317210D01*
Y333636D01*
X263000Y342500D02*
X271864Y333636D01*
X211000Y244750D02*
X226696D01*
X229342Y247396D01*
X234750D01*
X93550Y267456D02*
X94800Y266206D01*
X82608Y262500D02*
Y267456D01*
X262954Y628D02*
X263336D01*
X249874Y-12452D02*
X262954Y628D01*
X91750Y20784D02*
Y44750D01*
X84075Y13110D02*
X91750Y20784D01*
X84075Y-9850D02*
X84900D01*
X103970Y31570D02*
X117150Y44750D01*
X103970Y-12136D02*
Y31570D01*
X93556Y-22550D02*
X103970Y-12136D01*
X84900Y-22550D02*
X93556D01*
X121250Y337354D02*
Y343380D01*
X126068Y348198D01*
X161416D01*
X169756Y339858D01*
X253306Y-37358D02*
X270000D01*
X243924Y-27976D02*
X253306Y-37358D01*
X243924Y-27976D02*
Y-5624D01*
X247842D01*
X249874Y-3592D01*
Y628D01*
X170332Y296520D02*
X170956D01*
X166892Y293080D02*
X170332Y296520D01*
X166892Y288750D02*
Y293080D01*
X242750Y67642D02*
X259500D01*
X218066Y34250D02*
X222500D01*
X212174Y28358D02*
X218066Y34250D01*
X208000Y28358D02*
X212174D01*
X263358Y102000D02*
Y114000D01*
Y125500D01*
X116130Y337354D02*
X121250D01*
X113876Y339608D02*
X116130Y337354D01*
X109250Y339608D02*
X113876D01*
X181750Y339858D02*
X202750D01*
X209122Y340108D02*
X215250D01*
X208872Y339858D02*
X209122Y340108D01*
X202750Y339858D02*
X208872D01*
X75206Y158638D02*
X75892Y157952D01*
Y151000D02*
Y157952D01*
Y139750D02*
Y151000D01*
X88604Y170716D02*
Y176000D01*
Y170716D02*
X88668Y170652D01*
X254440Y31608D02*
X259750D01*
X251798Y34250D02*
X254440Y31608D01*
X246500Y34250D02*
X251798D01*
X154750Y20358D02*
X173500D01*
X118750D02*
X137000D01*
X154750D01*
X40950Y17878D02*
Y44750D01*
Y17878D02*
X42100Y16728D01*
Y-9850D02*
Y16728D01*
X141142Y329234D02*
Y339500D01*
X137500Y325592D02*
X141142Y329234D01*
X137500Y315750D02*
Y325592D01*
X133194Y315750D02*
X137500D01*
X125052Y323892D02*
X133194Y315750D01*
X121250Y323892D02*
X125052D01*
X80500Y285564D02*
Y292375D01*
Y285564D02*
X80604Y285460D01*
Y279000D02*
Y285460D01*
X84830Y212784D02*
Y223149D01*
X84354Y212308D02*
X84830Y212784D01*
X84354Y202250D02*
Y212308D01*
X246166Y102000D02*
X249896D01*
X245956Y101790D02*
X246166Y102000D01*
X242292Y101790D02*
X245956D01*
X245986Y114000D02*
X249896D01*
X245956Y114030D02*
X245986Y114000D01*
X242292Y114030D02*
X245956D01*
X242104Y125500D02*
X249896D01*
X262229Y-32024D02*
Y-25944D01*
X264277Y-23896D02*
X270000D01*
X262212Y-23912D02*
X263336Y-22788D01*
Y-12452D01*
X42100Y-60650D02*
X53870D01*
X42100Y-35250D02*
X53870D01*
X42100Y-22550D02*
X53870D01*
X124000Y-19520D02*
Y-10750D01*
X162500Y-11000D02*
Y-2230D01*
X75142Y176000D02*
Y183771D01*
X94230Y200392D02*
X102000D01*
X65830Y212379D02*
Y223149D01*
X84830Y236379D02*
Y247149D01*
X118730Y249750D02*
X126500D01*
X67142Y271229D02*
Y279000D01*
X176250Y261730D02*
Y269500D01*
X159608Y280979D02*
Y288750D01*
X226980Y260858D02*
X234750D01*
X154604Y331730D02*
Y339500D01*
D23*
X173300Y44750D02*
D03*
X198700D02*
D03*
X40950D02*
D03*
X66350D02*
D03*
X91750D02*
D03*
X117150D02*
D03*
X142550D02*
D03*
D24*
X43000Y342500D02*
D03*
Y322500D02*
D03*
Y302500D02*
D03*
Y282500D02*
D03*
Y262500D02*
D03*
Y242500D02*
D03*
Y222500D02*
D03*
Y202500D02*
D03*
Y182500D02*
D03*
Y162500D02*
D03*
X263000D02*
D03*
Y182500D02*
D03*
Y202500D02*
D03*
Y222500D02*
D03*
Y242500D02*
D03*
Y262500D02*
D03*
Y282500D02*
D03*
Y302500D02*
D03*
Y322500D02*
D03*
Y342500D02*
D03*
D25*
X304800Y50D02*
D03*
Y25450D02*
D03*
Y50850D02*
D03*
Y76250D02*
D03*
Y101650D02*
D03*
Y127050D02*
D03*
Y152450D02*
D03*
Y177850D02*
D03*
Y203250D02*
D03*
Y228650D02*
D03*
Y254050D02*
D03*
Y279450D02*
D03*
X-0Y50D02*
D03*
Y25450D02*
D03*
Y50850D02*
D03*
Y76250D02*
D03*
Y101650D02*
D03*
Y127050D02*
D03*
Y152450D02*
D03*
Y177850D02*
D03*
Y203250D02*
D03*
Y228650D02*
D03*
Y254050D02*
D03*
Y279450D02*
D03*
D26*
X298450Y330250D02*
D03*
X6350D02*
D03*
X298196Y-50750D02*
D03*
X6350D02*
D03*
D27*
X241384Y194812D02*
D03*
X157056Y204434D02*
D03*
X213451Y145506D02*
D03*
X89354Y121122D02*
D03*
X256116Y8346D02*
D03*
X97112Y326146D02*
D03*
X229954Y224750D02*
D03*
X184488Y252948D02*
D03*
X286596Y267934D02*
D03*
X300058Y165064D02*
D03*
X164930Y335752D02*
D03*
X246718Y219166D02*
D03*
X144864Y176748D02*
D03*
X89746Y191988D02*
D03*
X144610Y210530D02*
D03*
X166250Y176240D02*
D03*
X155532Y261330D02*
D03*
X168994Y279872D02*
D03*
X22774Y251424D02*
D03*
X269832Y-48550D02*
D03*
X304884Y89118D02*
D03*
X113314Y313146D02*
D03*
X144610Y261330D02*
D03*
X68578Y341021D02*
D03*
X198204Y310098D02*
D03*
X56980Y340578D02*
D03*
X173270Y311686D02*
D03*
X248162Y245074D02*
D03*
X231732Y232374D02*
D03*
X281262Y235676D02*
D03*
X160866Y222468D02*
D03*
X198966Y204750D02*
D03*
X166250Y253602D02*
D03*
X135494Y248080D02*
D03*
X193886Y348198D02*
D03*
X150198Y159730D02*
D03*
X165324Y134952D02*
D03*
X204554Y184622D02*
D03*
X100668Y156428D02*
D03*
X301074Y190972D02*
D03*
X175314Y158460D02*
D03*
X218016Y184876D02*
D03*
X169932Y154460D02*
D03*
X274658Y69814D02*
D03*
X199166Y253814D02*
D03*
X175598Y194020D02*
D03*
X145880Y233136D02*
D03*
X129878Y33746D02*
D03*
X191346Y209006D02*
D03*
X134270Y234750D02*
D03*
X70892Y190416D02*
D03*
X218832Y145506D02*
D03*
X267520Y14082D02*
D03*
X186326Y18760D02*
D03*
X189666Y24750D02*
D03*
X196934Y-47534D02*
D03*
X174836Y-27271D02*
D03*
X94800Y266206D02*
D03*
X170956Y296520D02*
D03*
X262229Y-32024D02*
D03*
X262212Y-23912D02*
D03*
X53870Y-60650D02*
D03*
Y-35250D02*
D03*
Y-22550D02*
D03*
X124000Y-19520D02*
D03*
X123730Y-42250D02*
D03*
X148420Y27956D02*
D03*
X162500Y-2230D02*
D03*
X75142Y183771D02*
D03*
X218480Y-42250D02*
D03*
X202294Y-11720D02*
D03*
X94230Y200392D02*
D03*
X65830Y212379D02*
D03*
X84830Y236379D02*
D03*
X118730Y249750D02*
D03*
X67142Y271229D02*
D03*
X176250Y261730D02*
D03*
X159608Y280979D02*
D03*
X226980Y260858D02*
D03*
X154604Y331730D02*
D03*
M02*
