M48
;Layer_Color=9474304
;FILE_FORMAT=4:4
METRIC,LZ
;TYPE=PLATED
T1F00S00C0.2000
T2F00S00C0.8000
T3F00S00C1.0000
T4F00S00C2.0000
%
T01
X0005387Y-0006065
Y-0003525
Y-0002255
X00124Y-0001952
X0012373Y-0004225
X00174836Y-00027271
X001625Y-0000223
X0014842Y00027956
X00129878Y00033746
X00186326Y0001876
X0020401Y-00014501
X0021848Y-0004225
X00218832Y00145506
X00218016Y00184876
X00204554Y00184622
X00198966Y0020475
X00191346Y00209006
X00175598Y0019402
X0016625Y0017624
X00144864Y00176748
X00150198Y0015973
X0016575Y0015448
X0017525Y00156
X00165324Y00134952
X00157056Y00204434
X00144507Y0021151
X0014588Y00233136
X0013427Y0023475
X00135494Y0024808
X0011873Y0024975
X0014461Y0026133
X00155532
X0016625Y00253602
X00182Y002515
X0017625Y0026173
X00199166Y00253814
X0022698Y00260858
X00231732Y00232374
X00229954Y0022475
X00246718Y00219166
X00248162Y00245074
X00241384Y00194812
X00160866Y00222468
X0009423Y00200392
X00089746Y00191988
X00070892Y00190416
X00075142Y00183771
X0006583Y00212379
X0008483Y00236379
X00022774Y00251424
X0005375Y0014125
X00053Y0008875
X00089354Y00121122
X00100668Y00156428
X0028975Y0016325
X002855Y0018925
X0028625Y0023825
X00304884Y00089118
X00274658Y00069814
X0026752Y00014082
X00256116Y00008346
X00262212Y-00023912
X00262229Y-00032024
X00269832Y-0004855
X002775Y-000175
X00286596Y00267934
X00168994Y00279872
X00159608Y00280979
X00170956Y0029652
X0017327Y00311686
X00198204Y00310098
X00193886Y00348198
X0016493Y00335752
X00154604Y0033173
X00113314Y00313146
X0008525Y0027825
X000945Y00266
X00068578Y00341021
X0005698Y00340578
T02
X00043Y001625
Y001825
Y002025
Y002225
Y002425
Y002625
X00263
Y002425
Y002225
Y002025
Y001825
Y001625
Y002825
Y003025
Y003225
Y003425
X00043
Y003225
Y003025
Y002825
T03
X-0Y0000005
Y0002545
Y0005085
Y0007625
Y0010165
Y0012705
Y0015245
Y0017785
Y0020325
Y0022865
Y0025405
X0004345Y0004475
X0006885
X0009425
X0011965
X0014505
X001758
X002012
X003048Y0005085
Y0007625
Y0010165
Y0012705
Y0015245
Y0017785
Y0020325
Y0022865
Y0025405
Y0002545
Y0000005
Y0027945
X-0
T04
X0000635Y-0005075
X00298196
X0029845Y0033025
X0000635
M30
