G04 Layer_Color=16711935*
%FSLAX44Y44*%
%MOMM*%
G71*
G01*
G75*
G04:AMPARAMS|DCode=23|XSize=1.6002mm|YSize=1.6002mm|CornerRadius=0mm|HoleSize=0mm|Usage=FLASHONLY|Rotation=180.000|XOffset=0mm|YOffset=0mm|HoleType=Round|Shape=Octagon|*
%AMOCTAGOND23*
4,1,8,-0.8001,0.4001,-0.8001,-0.4001,-0.4001,-0.8001,0.4001,-0.8001,0.8001,-0.4001,0.8001,0.4001,0.4001,0.8001,-0.4001,0.8001,-0.8001,0.4001,0.0*
%
%ADD23OCTAGOND23*%

G04:AMPARAMS|DCode=24|XSize=1.2mm|YSize=1.2mm|CornerRadius=0mm|HoleSize=0mm|Usage=FLASHONLY|Rotation=270.000|XOffset=0mm|YOffset=0mm|HoleType=Round|Shape=Octagon|*
%AMOCTAGOND24*
4,1,8,-0.3000,-0.6000,0.3000,-0.6000,0.6000,-0.3000,0.6000,0.3000,0.3000,0.6000,-0.3000,0.6000,-0.6000,0.3000,-0.6000,-0.3000,-0.3000,-0.6000,0.0*
%
%ADD24OCTAGOND24*%

G04:AMPARAMS|DCode=25|XSize=1.6002mm|YSize=1.6002mm|CornerRadius=0mm|HoleSize=0mm|Usage=FLASHONLY|Rotation=270.000|XOffset=0mm|YOffset=0mm|HoleType=Round|Shape=Octagon|*
%AMOCTAGOND25*
4,1,8,-0.4001,-0.8001,0.4001,-0.8001,0.8001,-0.4001,0.8001,0.4001,0.4001,0.8001,-0.4001,0.8001,-0.8001,0.4001,-0.8001,-0.4001,-0.4001,-0.8001,0.0*
%
%ADD25OCTAGOND25*%

%ADD26C,1.0000*%
%ADD27C,0.5000*%
%ADD33R,3.0000X3.0000*%
%ADD34R,0.5000X1.7000*%
D23*
X173300Y44750D02*
D03*
X198700D02*
D03*
X40950D02*
D03*
X66350D02*
D03*
X91750D02*
D03*
X117150D02*
D03*
X142550D02*
D03*
D24*
X43000Y342500D02*
D03*
Y322500D02*
D03*
Y302500D02*
D03*
Y282500D02*
D03*
Y262500D02*
D03*
Y242500D02*
D03*
Y222500D02*
D03*
Y202500D02*
D03*
Y182500D02*
D03*
Y162500D02*
D03*
X263000D02*
D03*
Y182500D02*
D03*
Y202500D02*
D03*
Y222500D02*
D03*
Y242500D02*
D03*
Y262500D02*
D03*
Y282500D02*
D03*
Y302500D02*
D03*
Y322500D02*
D03*
Y342500D02*
D03*
D25*
X304800Y50D02*
D03*
Y25450D02*
D03*
Y50850D02*
D03*
Y76250D02*
D03*
Y101650D02*
D03*
Y127050D02*
D03*
Y152450D02*
D03*
Y177850D02*
D03*
Y203250D02*
D03*
Y228650D02*
D03*
Y254050D02*
D03*
Y279450D02*
D03*
X-0Y50D02*
D03*
Y25450D02*
D03*
Y50850D02*
D03*
Y76250D02*
D03*
Y101650D02*
D03*
Y127050D02*
D03*
Y152450D02*
D03*
Y177850D02*
D03*
Y203250D02*
D03*
Y228650D02*
D03*
Y254050D02*
D03*
Y279450D02*
D03*
D26*
X298450Y330250D02*
D03*
X6350D02*
D03*
X298196Y-50750D02*
D03*
X6350D02*
D03*
D27*
X241384Y194812D02*
D03*
X157056Y204434D02*
D03*
X213451Y145506D02*
D03*
X89354Y121122D02*
D03*
X256116Y8346D02*
D03*
X97112Y326146D02*
D03*
X229954Y224750D02*
D03*
X184488Y252948D02*
D03*
X286596Y267934D02*
D03*
X300058Y165064D02*
D03*
X164930Y335752D02*
D03*
X246718Y219166D02*
D03*
X144864Y176748D02*
D03*
X89746Y191988D02*
D03*
X144610Y210530D02*
D03*
X166250Y176240D02*
D03*
X155532Y261330D02*
D03*
X168994Y279872D02*
D03*
X22774Y251424D02*
D03*
X269832Y-48550D02*
D03*
X304884Y89118D02*
D03*
X113314Y313146D02*
D03*
X144610Y261330D02*
D03*
X68578Y341021D02*
D03*
X198204Y310098D02*
D03*
X56980Y340578D02*
D03*
X173270Y311686D02*
D03*
X248162Y245074D02*
D03*
X231732Y232374D02*
D03*
X281262Y235676D02*
D03*
X160866Y222468D02*
D03*
X198966Y204750D02*
D03*
X166250Y253602D02*
D03*
X135494Y248080D02*
D03*
X193886Y348198D02*
D03*
X150198Y159730D02*
D03*
X165324Y134952D02*
D03*
X204554Y184622D02*
D03*
X100668Y156428D02*
D03*
X301074Y190972D02*
D03*
X175314Y158460D02*
D03*
X218016Y184876D02*
D03*
X169932Y154460D02*
D03*
X274658Y69814D02*
D03*
X199166Y253814D02*
D03*
X175598Y194020D02*
D03*
X145880Y233136D02*
D03*
X129878Y33746D02*
D03*
X191346Y209006D02*
D03*
X134270Y234750D02*
D03*
X70892Y190416D02*
D03*
X218832Y145506D02*
D03*
X267520Y14082D02*
D03*
X186326Y18760D02*
D03*
X189666Y24750D02*
D03*
X196934Y-47534D02*
D03*
X174836Y-27271D02*
D03*
X94800Y266206D02*
D03*
X170956Y296520D02*
D03*
X262229Y-32024D02*
D03*
X262212Y-23912D02*
D03*
X53870Y-60650D02*
D03*
Y-35250D02*
D03*
Y-22550D02*
D03*
X124000Y-19520D02*
D03*
X123730Y-42250D02*
D03*
X148420Y27956D02*
D03*
X162500Y-2230D02*
D03*
X75142Y183771D02*
D03*
X218480Y-42250D02*
D03*
X202294Y-11720D02*
D03*
X94230Y200392D02*
D03*
X65830Y212379D02*
D03*
X84830Y236379D02*
D03*
X118730Y249750D02*
D03*
X67142Y271229D02*
D03*
X176250Y261730D02*
D03*
X159608Y280979D02*
D03*
X226980Y260858D02*
D03*
X154604Y331730D02*
D03*
D33*
X237250Y-42250D02*
D03*
X142500D02*
D03*
Y-6750D02*
D03*
X237000D02*
D03*
D34*
X206500Y5000D02*
D03*
X198500D02*
D03*
X190500D02*
D03*
X182500D02*
D03*
X174500D02*
D03*
M02*
