G04 Layer_Physical_Order=4*
G04 Layer_Color=16711680*
%FSLAX44Y44*%
%MOMM*%
G71*
G01*
G75*
%ADD22C,0.2500*%
G04:AMPARAMS|DCode=23|XSize=1.6002mm|YSize=1.6002mm|CornerRadius=0mm|HoleSize=0mm|Usage=FLASHONLY|Rotation=0.000|XOffset=0mm|YOffset=0mm|HoleType=Round|Shape=Octagon|*
%AMOCTAGOND23*
4,1,8,0.8001,-0.4001,0.8001,0.4001,0.4001,0.8001,-0.4001,0.8001,-0.8001,0.4001,-0.8001,-0.4001,-0.4001,-0.8001,0.4001,-0.8001,0.8001,-0.4001,0.0*
%
%ADD23OCTAGOND23*%

G04:AMPARAMS|DCode=24|XSize=1.6002mm|YSize=1.6002mm|CornerRadius=0mm|HoleSize=0mm|Usage=FLASHONLY|Rotation=270.000|XOffset=0mm|YOffset=0mm|HoleType=Round|Shape=Octagon|*
%AMOCTAGOND24*
4,1,8,-0.4001,-0.8001,0.4001,-0.8001,0.8001,-0.4001,0.8001,0.4001,0.4001,0.8001,-0.4001,0.8001,-0.8001,0.4001,-0.8001,-0.4001,-0.4001,-0.8001,0.0*
%
%ADD24OCTAGOND24*%

%ADD25C,1.0000*%
G04:AMPARAMS|DCode=26|XSize=1.2mm|YSize=1.2mm|CornerRadius=0mm|HoleSize=0mm|Usage=FLASHONLY|Rotation=270.000|XOffset=0mm|YOffset=0mm|HoleType=Round|Shape=Octagon|*
%AMOCTAGOND26*
4,1,8,-0.3000,-0.6000,0.3000,-0.6000,0.6000,-0.3000,0.6000,0.3000,0.3000,0.6000,-0.3000,0.6000,-0.6000,0.3000,-0.6000,-0.3000,-0.3000,-0.6000,0.0*
%
%ADD26OCTAGOND26*%

%ADD27C,0.5000*%
%ADD33R,0.5000X1.7000*%
%ADD34R,3.0000X3.0000*%
D22*
X66675Y252250D02*
X100654Y286229D01*
X23600Y252250D02*
X66675D01*
X162637Y286229D02*
X168994Y279872D01*
X100654Y286229D02*
X162637D01*
X271500Y-11250D02*
X277750Y-17500D01*
X269832Y-32592D02*
X287358Y-15066D01*
X269832Y-48550D02*
Y-32592D01*
X287358Y-15066D02*
Y79466D01*
X277500Y-17500D02*
X277750D01*
X287358Y79466D02*
X297010Y89118D01*
X304884D01*
X271500Y-11250D02*
Y250D01*
X277250Y6000D01*
Y23750D01*
X217250D02*
X277250D01*
X206500Y13000D02*
X217250Y23750D01*
X206500Y5000D02*
Y13000D01*
X21574Y101650D02*
X81941Y162016D01*
X-0Y101650D02*
X21574D01*
X81941Y162016D02*
X130132D01*
X204010Y-14501D02*
X229250D01*
X237000Y-6750D01*
X282825Y170825D02*
X289850Y177850D01*
X304800D01*
X22774Y251424D02*
X23600Y252250D01*
X185758Y95742D02*
Y145492D01*
Y95742D02*
X217500Y64000D01*
Y39679D02*
Y64000D01*
X198500Y20679D02*
X217500Y39679D01*
X198500Y5000D02*
Y20679D01*
X158072Y37500D02*
Y127700D01*
Y37500D02*
X168072Y27500D01*
X187500D01*
X191576Y23424D01*
Y6076D02*
Y23424D01*
X190500Y5000D02*
X191576Y6076D01*
X158250Y161178D02*
X165014Y167942D01*
X158250Y144668D02*
Y161178D01*
X91750Y78168D02*
X158250Y144668D01*
X268520Y333000D02*
X274747Y326773D01*
X255142Y333000D02*
X268520D01*
X160866Y238724D02*
X255142Y333000D01*
X274747Y249753D02*
Y326773D01*
Y249753D02*
X286250Y238250D01*
X168740Y173750D02*
X195500D01*
X275250Y177250D02*
Y198250D01*
X195500Y173750D02*
X197250Y172000D01*
X270000D01*
X275250Y177250D01*
Y198250D02*
X280250Y203250D01*
X304800D01*
X285500Y180500D02*
Y189250D01*
X277139Y172139D02*
X285500Y180500D01*
X277139Y154639D02*
Y172139D01*
X209888Y153634D02*
X248500D01*
X251884Y150250D01*
X272750D01*
X277139Y154639D01*
X218832Y145506D02*
X279506D01*
X282825Y148825D01*
Y170825D01*
X181722Y162750D02*
X274658Y69814D01*
X167750Y162750D02*
X181722D01*
X165750Y160750D02*
X167750Y162750D01*
X175250Y156000D02*
X185758Y145492D01*
X165750Y154480D02*
Y160750D01*
X117228Y270728D02*
X176642D01*
X101142Y242500D02*
Y254642D01*
X117228Y270728D01*
X252567Y312067D02*
X263000Y322500D01*
X247009Y312067D02*
X252567D01*
X192766Y257824D02*
X247009Y312067D01*
X252836Y302500D02*
X263000D01*
X218016Y267680D02*
X252836Y302500D01*
X218016Y184876D02*
Y267680D01*
X157500Y217218D02*
X166116D01*
X130119D02*
X157500D01*
X157056Y216774D02*
X157500Y217218D01*
X157056Y204434D02*
Y216774D01*
X14500Y266602D02*
X20404Y272506D01*
X14500Y217750D02*
Y266602D01*
X-0Y203250D02*
X14500Y217750D01*
X30750Y210250D02*
X43000Y222500D01*
X30750Y183200D02*
Y210250D01*
X-0Y152450D02*
X30750Y183200D01*
X19750Y219250D02*
X43000Y242500D01*
X19750Y197600D02*
Y219250D01*
X-0Y177850D02*
X19750Y197600D01*
X124985Y191988D02*
X144507Y211510D01*
X89746Y191988D02*
X124985D01*
X166250Y176240D02*
X168740Y173750D01*
X289750Y116700D02*
Y163250D01*
Y116700D02*
X304800Y101650D01*
X218480Y-42250D02*
X237250D01*
X142500Y-6750D02*
Y14954D01*
X148420Y20874D01*
Y27956D01*
X123730Y-42250D02*
X142500D01*
X174500Y-26935D02*
Y5000D01*
Y-26935D02*
X174836Y-27271D01*
X248413Y342500D02*
X263000D01*
X176642Y270728D02*
X248413Y342500D01*
X43000Y242500D02*
X101142D01*
X136516D02*
X145880Y233136D01*
X195580Y167942D02*
X209888Y153634D01*
X165014Y167942D02*
X195580D01*
X91750Y44750D02*
Y78168D01*
X100668Y156428D02*
X136742D01*
X164936Y184622D01*
X204554D01*
X158072Y127700D02*
X165324Y134952D01*
X-0Y76250D02*
X66718D01*
X150198Y159730D01*
X-0Y279450D02*
X13122Y292572D01*
X51900D01*
X107526Y348198D01*
X193886D01*
X160866Y222468D02*
Y238724D01*
X130132Y162016D02*
X144864Y176748D01*
X-0Y127050D02*
X25062D01*
X64854Y166842D01*
X126785D01*
X159214Y199270D01*
X199050D01*
X211747Y186573D01*
Y183352D02*
Y186573D01*
Y183352D02*
X216825Y178274D01*
X239355D01*
X246718Y185638D01*
Y219166D01*
X164930Y329656D02*
Y335752D01*
X155024Y319750D02*
X164930Y329656D01*
X103208Y319750D02*
X155024D01*
X55964Y272506D02*
X103208Y319750D01*
X20404Y272506D02*
X55964D01*
X192766Y243867D02*
Y257824D01*
X166116Y217218D02*
X192766Y243867D01*
X124836Y222500D02*
X130119Y217218D01*
X43000Y222500D02*
X124836D01*
X241384Y194812D02*
Y260884D01*
X263000Y282500D01*
X101142Y242500D02*
X136516D01*
D23*
X145050Y44750D02*
D03*
X119650D02*
D03*
X94250D02*
D03*
X68850D02*
D03*
X43450D02*
D03*
X201200D02*
D03*
X175800D02*
D03*
D24*
X-0Y279450D02*
D03*
Y254050D02*
D03*
Y228650D02*
D03*
Y203250D02*
D03*
Y177850D02*
D03*
Y152450D02*
D03*
Y127050D02*
D03*
Y101650D02*
D03*
Y76250D02*
D03*
Y50850D02*
D03*
Y25450D02*
D03*
Y50D02*
D03*
X304800Y279450D02*
D03*
Y254050D02*
D03*
Y228650D02*
D03*
Y203250D02*
D03*
Y177850D02*
D03*
Y152450D02*
D03*
Y127050D02*
D03*
Y101650D02*
D03*
Y76250D02*
D03*
Y50850D02*
D03*
Y25450D02*
D03*
Y50D02*
D03*
D25*
X6350Y-50750D02*
D03*
X298196D02*
D03*
X6350Y330250D02*
D03*
X298450D02*
D03*
D26*
X263000Y342500D02*
D03*
Y322500D02*
D03*
Y302500D02*
D03*
Y282500D02*
D03*
Y262500D02*
D03*
Y242500D02*
D03*
Y222500D02*
D03*
Y202500D02*
D03*
Y182500D02*
D03*
Y162500D02*
D03*
X43000D02*
D03*
Y182500D02*
D03*
Y202500D02*
D03*
Y222500D02*
D03*
Y242500D02*
D03*
Y262500D02*
D03*
Y282500D02*
D03*
Y302500D02*
D03*
Y322500D02*
D03*
Y342500D02*
D03*
D27*
X94500Y266000D02*
D03*
X85250Y278250D02*
D03*
X186326Y18760D02*
D03*
X277500Y-17500D02*
D03*
X53000Y88750D02*
D03*
X53750Y141250D02*
D03*
X204010Y-14501D02*
D03*
X175250Y156000D02*
D03*
X165750Y154480D02*
D03*
X199166Y253814D02*
D03*
X286250Y238250D02*
D03*
X176250Y261730D02*
D03*
X166250Y253602D02*
D03*
X182000Y251500D02*
D03*
X144507Y211510D02*
D03*
X285500Y189250D02*
D03*
X289750Y163250D02*
D03*
X154604Y331730D02*
D03*
X226980Y260858D02*
D03*
X159608Y280979D02*
D03*
X118730Y249750D02*
D03*
X84830Y236379D02*
D03*
X65830Y212379D02*
D03*
X94230Y200392D02*
D03*
X218480Y-42250D02*
D03*
X75142Y183771D02*
D03*
X162500Y-2230D02*
D03*
X148420Y27956D02*
D03*
X123730Y-42250D02*
D03*
X124000Y-19520D02*
D03*
X53870Y-22550D02*
D03*
Y-35250D02*
D03*
Y-60650D02*
D03*
X262212Y-23912D02*
D03*
X262229Y-32024D02*
D03*
X170956Y296520D02*
D03*
X174836Y-27271D02*
D03*
X267520Y14082D02*
D03*
X218832Y145506D02*
D03*
X70892Y190416D02*
D03*
X134270Y234750D02*
D03*
X191346Y209006D02*
D03*
X129878Y33746D02*
D03*
X145880Y233136D02*
D03*
X175598Y194020D02*
D03*
X274658Y69814D02*
D03*
X218016Y184876D02*
D03*
X100668Y156428D02*
D03*
X204554Y184622D02*
D03*
X165324Y134952D02*
D03*
X150198Y159730D02*
D03*
X193886Y348198D02*
D03*
X135494Y248080D02*
D03*
X198966Y204750D02*
D03*
X160866Y222468D02*
D03*
X231732Y232374D02*
D03*
X248162Y245074D02*
D03*
X173270Y311686D02*
D03*
X56980Y340578D02*
D03*
X198204Y310098D02*
D03*
X68578Y341021D02*
D03*
X144610Y261330D02*
D03*
X113314Y313146D02*
D03*
X304884Y89118D02*
D03*
X269832Y-48550D02*
D03*
X22774Y251424D02*
D03*
X168994Y279872D02*
D03*
X155532Y261330D02*
D03*
X166250Y176240D02*
D03*
X89746Y191988D02*
D03*
X144864Y176748D02*
D03*
X246718Y219166D02*
D03*
X164930Y335752D02*
D03*
X286596Y267934D02*
D03*
X229954Y224750D02*
D03*
X256116Y8346D02*
D03*
X89354Y121122D02*
D03*
X157056Y204434D02*
D03*
X241384Y194812D02*
D03*
D33*
X174500Y5000D02*
D03*
X182500D02*
D03*
X190500D02*
D03*
X198500D02*
D03*
X206500D02*
D03*
D34*
X237000Y-6750D02*
D03*
X142500D02*
D03*
Y-42250D02*
D03*
X237250D02*
D03*
M02*
