G04 Layer_Color=16711935*
%FSLAX44Y44*%
%MOMM*%
G71*
G01*
G75*
G04:AMPARAMS|DCode=23|XSize=1.6002mm|YSize=1.6002mm|CornerRadius=0mm|HoleSize=0mm|Usage=FLASHONLY|Rotation=0.000|XOffset=0mm|YOffset=0mm|HoleType=Round|Shape=Octagon|*
%AMOCTAGOND23*
4,1,8,0.8001,-0.4001,0.8001,0.4001,0.4001,0.8001,-0.4001,0.8001,-0.8001,0.4001,-0.8001,-0.4001,-0.4001,-0.8001,0.4001,-0.8001,0.8001,-0.4001,0.0*
%
%ADD23OCTAGOND23*%

G04:AMPARAMS|DCode=24|XSize=1.6002mm|YSize=1.6002mm|CornerRadius=0mm|HoleSize=0mm|Usage=FLASHONLY|Rotation=270.000|XOffset=0mm|YOffset=0mm|HoleType=Round|Shape=Octagon|*
%AMOCTAGOND24*
4,1,8,-0.4001,-0.8001,0.4001,-0.8001,0.8001,-0.4001,0.8001,0.4001,0.4001,0.8001,-0.4001,0.8001,-0.8001,0.4001,-0.8001,-0.4001,-0.4001,-0.8001,0.0*
%
%ADD24OCTAGOND24*%

%ADD25C,1.0000*%
G04:AMPARAMS|DCode=26|XSize=1.2mm|YSize=1.2mm|CornerRadius=0mm|HoleSize=0mm|Usage=FLASHONLY|Rotation=270.000|XOffset=0mm|YOffset=0mm|HoleType=Round|Shape=Octagon|*
%AMOCTAGOND26*
4,1,8,-0.3000,-0.6000,0.3000,-0.6000,0.6000,-0.3000,0.6000,0.3000,0.3000,0.6000,-0.3000,0.6000,-0.6000,0.3000,-0.6000,-0.3000,-0.3000,-0.6000,0.0*
%
%ADD26OCTAGOND26*%

%ADD27C,0.5000*%
%ADD33R,0.5000X1.7000*%
%ADD34R,3.0000X3.0000*%
D23*
X145050Y44750D02*
D03*
X119650D02*
D03*
X94250D02*
D03*
X68850D02*
D03*
X43450D02*
D03*
X201200D02*
D03*
X175800D02*
D03*
D24*
X-0Y279450D02*
D03*
Y254050D02*
D03*
Y228650D02*
D03*
Y203250D02*
D03*
Y177850D02*
D03*
Y152450D02*
D03*
Y127050D02*
D03*
Y101650D02*
D03*
Y76250D02*
D03*
Y50850D02*
D03*
Y25450D02*
D03*
Y50D02*
D03*
X304800Y279450D02*
D03*
Y254050D02*
D03*
Y228650D02*
D03*
Y203250D02*
D03*
Y177850D02*
D03*
Y152450D02*
D03*
Y127050D02*
D03*
Y101650D02*
D03*
Y76250D02*
D03*
Y50850D02*
D03*
Y25450D02*
D03*
Y50D02*
D03*
D25*
X6350Y-50750D02*
D03*
X298196D02*
D03*
X6350Y330250D02*
D03*
X298450D02*
D03*
D26*
X263000Y342500D02*
D03*
Y322500D02*
D03*
Y302500D02*
D03*
Y282500D02*
D03*
Y262500D02*
D03*
Y242500D02*
D03*
Y222500D02*
D03*
Y202500D02*
D03*
Y182500D02*
D03*
Y162500D02*
D03*
X43000D02*
D03*
Y182500D02*
D03*
Y202500D02*
D03*
Y222500D02*
D03*
Y242500D02*
D03*
Y262500D02*
D03*
Y282500D02*
D03*
Y302500D02*
D03*
Y322500D02*
D03*
Y342500D02*
D03*
D27*
X94500Y266000D02*
D03*
X85250Y278250D02*
D03*
D33*
X174500Y5000D02*
D03*
X182500D02*
D03*
X190500D02*
D03*
X198500D02*
D03*
X206500D02*
D03*
D34*
X237000Y-6750D02*
D03*
X142500D02*
D03*
Y-42250D02*
D03*
X237250D02*
D03*
M02*
