G04 Layer_Color=32896*
%FSLAX44Y44*%
%MOMM*%
G71*
G01*
G75*
%ADD40C,0.3500*%
G36*
X225651Y168952D02*
X226058Y168897D01*
X226392Y168841D01*
X226688Y168767D01*
X226929Y168675D01*
X227114Y168619D01*
X227225Y168563D01*
X227243Y168545D01*
X227262D01*
X227558Y168378D01*
X227799Y168175D01*
X228021Y167971D01*
X228206Y167767D01*
X228354Y167582D01*
X228447Y167434D01*
X228521Y167341D01*
X228540Y167323D01*
Y167304D01*
X228688Y166990D01*
X228799Y166675D01*
X228891Y166360D01*
X228947Y166082D01*
X228984Y165842D01*
X229002Y165638D01*
Y165564D01*
Y165508D01*
Y165490D01*
Y165471D01*
X228984Y165156D01*
X228947Y164842D01*
X228891Y164564D01*
X228817Y164323D01*
X228762Y164120D01*
X228706Y163953D01*
X228669Y163860D01*
X228651Y163823D01*
X228502Y163545D01*
X228336Y163305D01*
X228169Y163101D01*
X228021Y162934D01*
X227873Y162786D01*
X227762Y162694D01*
X227688Y162620D01*
X227669Y162601D01*
X227410Y162435D01*
X227114Y162268D01*
X226780Y162120D01*
X226466Y161990D01*
X226169Y161879D01*
X226058Y161842D01*
X225947Y161805D01*
X225855Y161768D01*
X225781Y161749D01*
X225744Y161731D01*
X225725D01*
X225466Y161657D01*
X225225Y161583D01*
X225003Y161509D01*
X224818Y161435D01*
X224632Y161379D01*
X224484Y161324D01*
X224355Y161287D01*
X224244Y161250D01*
X224077Y161175D01*
X223947Y161120D01*
X223892Y161101D01*
X223873Y161083D01*
X223744Y161009D01*
X223614Y160935D01*
X223521Y160842D01*
X223447Y160768D01*
X223336Y160657D01*
X223299Y160620D01*
Y160601D01*
X223225Y160490D01*
X223188Y160361D01*
X223114Y160138D01*
Y160027D01*
X223096Y159953D01*
Y159898D01*
Y159879D01*
X223114Y159620D01*
X223188Y159379D01*
X223262Y159176D01*
X223373Y158990D01*
X223466Y158861D01*
X223559Y158750D01*
X223633Y158676D01*
X223651Y158657D01*
X223873Y158490D01*
X224114Y158379D01*
X224355Y158287D01*
X224577Y158231D01*
X224799Y158194D01*
X224966Y158176D01*
X225114D01*
X225447Y158194D01*
X225762Y158287D01*
X226021Y158398D01*
X226262Y158546D01*
X226484Y158731D01*
X226669Y158935D01*
X226817Y159157D01*
X226947Y159379D01*
X227058Y159601D01*
X227151Y159824D01*
X227225Y160027D01*
X227280Y160213D01*
X227317Y160361D01*
X227336Y160472D01*
X227354Y160564D01*
Y160583D01*
X229373Y160342D01*
X229317Y159953D01*
X229262Y159583D01*
X229169Y159250D01*
X229076Y158916D01*
X228947Y158620D01*
X228817Y158342D01*
X228688Y158102D01*
X228540Y157861D01*
X228373Y157639D01*
X228206Y157435D01*
X227854Y157102D01*
X227484Y156805D01*
X227114Y156583D01*
X226743Y156398D01*
X226392Y156269D01*
X226058Y156176D01*
X225762Y156120D01*
X225521Y156083D01*
X225336Y156046D01*
X225170D01*
X224781Y156065D01*
X224429Y156102D01*
X224095Y156139D01*
X223781Y156213D01*
X223503Y156306D01*
X223244Y156398D01*
X223003Y156491D01*
X222799Y156602D01*
X222633Y156694D01*
X222466Y156787D01*
X222336Y156880D01*
X222225Y156972D01*
X222151Y157046D01*
X222096Y157083D01*
X222059Y157120D01*
X222040Y157139D01*
X221855Y157361D01*
X221707Y157583D01*
X221559Y157805D01*
X221448Y158028D01*
X221262Y158490D01*
X221151Y158935D01*
X221114Y159120D01*
X221077Y159305D01*
X221059Y159472D01*
X221040Y159601D01*
X221022Y159731D01*
Y159805D01*
Y159861D01*
Y159879D01*
X221040Y160287D01*
X221077Y160657D01*
X221133Y160990D01*
X221207Y161268D01*
X221281Y161490D01*
X221336Y161657D01*
X221374Y161768D01*
X221392Y161805D01*
X221540Y162083D01*
X221707Y162342D01*
X221892Y162564D01*
X222059Y162749D01*
X222225Y162897D01*
X222355Y162990D01*
X222429Y163064D01*
X222466Y163083D01*
X222596Y163175D01*
X222762Y163268D01*
X223114Y163453D01*
X223484Y163601D01*
X223855Y163749D01*
X224188Y163879D01*
X224336Y163916D01*
X224466Y163971D01*
X224577Y164009D01*
X224651Y164027D01*
X224706Y164046D01*
X224725D01*
X224984Y164120D01*
X225225Y164194D01*
X225447Y164268D01*
X225632Y164342D01*
X225818Y164416D01*
X225966Y164471D01*
X226095Y164545D01*
X226225Y164601D01*
X226410Y164694D01*
X226521Y164768D01*
X226595Y164805D01*
X226614Y164823D01*
X226743Y164953D01*
X226854Y165101D01*
X226929Y165231D01*
X226966Y165360D01*
X227003Y165490D01*
X227021Y165582D01*
Y165638D01*
Y165656D01*
X227003Y165842D01*
X226947Y166008D01*
X226873Y166156D01*
X226799Y166286D01*
X226725Y166397D01*
X226651Y166471D01*
X226595Y166508D01*
X226577Y166527D01*
X226392Y166638D01*
X226169Y166730D01*
X225966Y166786D01*
X225762Y166842D01*
X225577Y166860D01*
X225410Y166879D01*
X225281D01*
X224984Y166860D01*
X224725Y166823D01*
X224503Y166749D01*
X224318Y166675D01*
X224170Y166601D01*
X224058Y166527D01*
X224003Y166490D01*
X223984Y166471D01*
X223818Y166286D01*
X223688Y166082D01*
X223596Y165842D01*
X223503Y165619D01*
X223447Y165397D01*
X223410Y165231D01*
X223392Y165156D01*
X223373Y165101D01*
Y165082D01*
Y165064D01*
X221299Y165175D01*
X221318Y165508D01*
X221374Y165823D01*
X221429Y166101D01*
X221503Y166379D01*
X221577Y166619D01*
X221670Y166860D01*
X221781Y167064D01*
X221873Y167249D01*
X221966Y167416D01*
X222059Y167564D01*
X222151Y167693D01*
X222225Y167786D01*
X222299Y167860D01*
X222355Y167934D01*
X222373Y167952D01*
X222392Y167971D01*
X222596Y168156D01*
X222799Y168304D01*
X223040Y168434D01*
X223262Y168545D01*
X223744Y168730D01*
X224188Y168841D01*
X224410Y168897D01*
X224595Y168915D01*
X224781Y168934D01*
X224929Y168952D01*
X225058Y168971D01*
X225225D01*
X225651Y168952D01*
D02*
G37*
G36*
X39129Y100551D02*
X38629Y100440D01*
X38222Y100292D01*
X37870Y100163D01*
X37592Y100014D01*
X37370Y99885D01*
X37222Y99774D01*
X37129Y99700D01*
X37092Y99681D01*
X36889Y99459D01*
X36722Y99218D01*
X36611Y98977D01*
X36537Y98755D01*
X36500Y98570D01*
X36481Y98404D01*
X36463Y98311D01*
Y98292D01*
Y98274D01*
X36481Y98070D01*
X36500Y97885D01*
X36611Y97515D01*
X36778Y97218D01*
X36963Y96959D01*
X37129Y96737D01*
X37296Y96589D01*
X37407Y96496D01*
X37426Y96459D01*
X37444D01*
X37648Y96348D01*
X37870Y96237D01*
X38129Y96145D01*
X38389Y96070D01*
X38944Y95941D01*
X39499Y95867D01*
X39759Y95830D01*
X39999Y95811D01*
X40222Y95793D01*
X40407D01*
X40574Y95774D01*
X41203D01*
X41592Y95811D01*
X41944Y95848D01*
X42259Y95885D01*
X42555Y95941D01*
X42832Y95996D01*
X43073Y96052D01*
X43277Y96126D01*
X43462Y96200D01*
X43629Y96256D01*
X43758Y96311D01*
X43869Y96367D01*
X43944Y96422D01*
X44018Y96441D01*
X44036Y96478D01*
X44055D01*
X44240Y96626D01*
X44388Y96774D01*
X44517Y96922D01*
X44629Y97070D01*
X44814Y97385D01*
X44925Y97681D01*
X44999Y97941D01*
X45036Y98144D01*
X45054Y98218D01*
Y98274D01*
Y98311D01*
Y98329D01*
X45036Y98626D01*
X44962Y98885D01*
X44888Y99107D01*
X44777Y99311D01*
X44684Y99477D01*
X44592Y99607D01*
X44517Y99681D01*
X44499Y99700D01*
X44277Y99903D01*
X44036Y100070D01*
X43777Y100218D01*
X43518Y100329D01*
X43295Y100403D01*
X43110Y100459D01*
X43036Y100477D01*
X42981D01*
X42962Y100496D01*
X42944D01*
X43536Y102551D01*
X43832Y102477D01*
X44110Y102385D01*
X44369Y102292D01*
X44629Y102199D01*
X44851Y102088D01*
X45054Y101996D01*
X45221Y101885D01*
X45388Y101792D01*
X45536Y101699D01*
X45665Y101607D01*
X45777Y101533D01*
X45869Y101459D01*
X45925Y101403D01*
X45980Y101366D01*
X46017Y101348D01*
Y101329D01*
X46221Y101107D01*
X46406Y100866D01*
X46573Y100625D01*
X46721Y100385D01*
X46832Y100144D01*
X46925Y99903D01*
X47073Y99440D01*
X47128Y99237D01*
X47165Y99052D01*
X47184Y98885D01*
X47202Y98737D01*
X47221Y98607D01*
Y98515D01*
Y98459D01*
Y98441D01*
X47202Y98052D01*
X47147Y97681D01*
X47073Y97348D01*
X46980Y97015D01*
X46851Y96719D01*
X46721Y96441D01*
X46573Y96181D01*
X46443Y95959D01*
X46295Y95756D01*
X46147Y95570D01*
X46017Y95422D01*
X45888Y95293D01*
X45795Y95200D01*
X45721Y95126D01*
X45665Y95089D01*
X45647Y95070D01*
X45295Y94811D01*
X44906Y94589D01*
X44517Y94404D01*
X44110Y94237D01*
X43684Y94089D01*
X43277Y93978D01*
X42870Y93885D01*
X42462Y93811D01*
X42092Y93756D01*
X41758Y93700D01*
X41444Y93663D01*
X41166Y93645D01*
X40962D01*
X40796Y93626D01*
X40648D01*
X40092Y93645D01*
X39574Y93682D01*
X39074Y93756D01*
X38611Y93848D01*
X38185Y93960D01*
X37796Y94071D01*
X37426Y94200D01*
X37111Y94348D01*
X36815Y94478D01*
X36555Y94608D01*
X36333Y94719D01*
X36167Y94830D01*
X36018Y94922D01*
X35907Y94996D01*
X35852Y95034D01*
X35833Y95052D01*
X35556Y95293D01*
X35333Y95552D01*
X35130Y95811D01*
X34944Y96089D01*
X34796Y96367D01*
X34667Y96626D01*
X34574Y96885D01*
X34481Y97144D01*
X34426Y97385D01*
X34370Y97607D01*
X34352Y97811D01*
X34315Y97978D01*
Y98126D01*
X34296Y98218D01*
Y98292D01*
Y98311D01*
X34315Y98607D01*
X34333Y98885D01*
X34444Y99403D01*
X34593Y99866D01*
X34685Y100070D01*
X34778Y100255D01*
X34870Y100422D01*
X34963Y100570D01*
X35037Y100700D01*
X35111Y100792D01*
X35167Y100885D01*
X35222Y100940D01*
X35241Y100977D01*
X35259Y100996D01*
X35463Y101200D01*
X35667Y101385D01*
X36148Y101699D01*
X36666Y101977D01*
X37166Y102199D01*
X37407Y102292D01*
X37629Y102366D01*
X37833Y102422D01*
X38000Y102477D01*
X38148Y102514D01*
X38259Y102551D01*
X38333Y102570D01*
X38352D01*
X39129Y100551D01*
D02*
G37*
G36*
X236002Y168934D02*
X236502Y168860D01*
X236946Y168749D01*
X237335Y168619D01*
X237483Y168545D01*
X237631Y168471D01*
X237761Y168415D01*
X237872Y168360D01*
X237946Y168323D01*
X238001Y168286D01*
X238039Y168249D01*
X238057D01*
X238427Y167952D01*
X238779Y167619D01*
X239057Y167267D01*
X239316Y166916D01*
X239520Y166601D01*
X239594Y166453D01*
X239649Y166342D01*
X239705Y166231D01*
X239742Y166156D01*
X239779Y166119D01*
Y166101D01*
X239890Y165823D01*
X240001Y165527D01*
X240149Y164916D01*
X240261Y164305D01*
X240353Y163712D01*
X240372Y163453D01*
X240390Y163194D01*
X240409Y162971D01*
Y162786D01*
X240427Y162638D01*
Y162509D01*
Y162435D01*
Y162416D01*
X240409Y161861D01*
X240372Y161324D01*
X240298Y160824D01*
X240205Y160361D01*
X240094Y159935D01*
X239964Y159546D01*
X239835Y159176D01*
X239687Y158842D01*
X239557Y158565D01*
X239427Y158305D01*
X239298Y158083D01*
X239186Y157898D01*
X239094Y157768D01*
X239020Y157657D01*
X238983Y157602D01*
X238964Y157583D01*
X238705Y157305D01*
X238446Y157083D01*
X238150Y156880D01*
X237872Y156694D01*
X237576Y156546D01*
X237279Y156417D01*
X237002Y156324D01*
X236724Y156231D01*
X236465Y156176D01*
X236224Y156120D01*
X236002Y156102D01*
X235816Y156065D01*
X235668D01*
X235539Y156046D01*
X235446D01*
X235039Y156065D01*
X234669Y156120D01*
X234298Y156194D01*
X233965Y156287D01*
X233650Y156417D01*
X233372Y156546D01*
X233113Y156676D01*
X232872Y156824D01*
X232650Y156972D01*
X232465Y157102D01*
X232317Y157250D01*
X232187Y157361D01*
X232076Y157454D01*
X232002Y157528D01*
X231965Y157583D01*
X231947Y157602D01*
X231687Y157954D01*
X231465Y158324D01*
X231261Y158713D01*
X231095Y159120D01*
X230947Y159527D01*
X230817Y159935D01*
X230724Y160324D01*
X230650Y160713D01*
X230595Y161083D01*
X230539Y161416D01*
X230502Y161731D01*
X230484Y161990D01*
X230465Y162212D01*
Y162379D01*
Y162472D01*
Y162509D01*
X230484Y163064D01*
X230521Y163601D01*
X230595Y164101D01*
X230687Y164564D01*
X230780Y164990D01*
X230910Y165379D01*
X231021Y165730D01*
X231150Y166064D01*
X231280Y166342D01*
X231409Y166582D01*
X231539Y166805D01*
X231632Y166971D01*
X231724Y167119D01*
X231798Y167212D01*
X231835Y167267D01*
X231854Y167286D01*
X232132Y167582D01*
X232409Y167841D01*
X232706Y168064D01*
X233002Y168267D01*
X233298Y168415D01*
X233594Y168563D01*
X233891Y168675D01*
X234168Y168767D01*
X234428Y168823D01*
X234669Y168878D01*
X234891Y168915D01*
X235076Y168952D01*
X235224D01*
X235354Y168971D01*
X235446D01*
X236002Y168934D01*
D02*
G37*
G36*
X252000Y156250D02*
X250074D01*
Y166119D01*
X248037Y156250D01*
X246056D01*
X243982Y166119D01*
Y156250D01*
X242057D01*
Y168767D01*
X245186D01*
X247038Y160194D01*
X248908Y168767D01*
X252000D01*
Y156250D01*
D02*
G37*
G36*
X219337D02*
X217263D01*
Y168767D01*
X219337D01*
Y156250D01*
D02*
G37*
G36*
X39129Y90201D02*
X38629Y90090D01*
X38222Y89941D01*
X37870Y89812D01*
X37592Y89664D01*
X37370Y89534D01*
X37222Y89423D01*
X37129Y89349D01*
X37092Y89330D01*
X36889Y89108D01*
X36722Y88867D01*
X36611Y88627D01*
X36537Y88405D01*
X36500Y88219D01*
X36481Y88053D01*
X36463Y87960D01*
Y87942D01*
Y87923D01*
X36481Y87719D01*
X36500Y87534D01*
X36611Y87164D01*
X36778Y86868D01*
X36963Y86608D01*
X37129Y86386D01*
X37296Y86238D01*
X37407Y86145D01*
X37426Y86109D01*
X37444D01*
X37648Y85997D01*
X37870Y85886D01*
X38129Y85794D01*
X38389Y85720D01*
X38944Y85590D01*
X39499Y85516D01*
X39759Y85479D01*
X39999Y85460D01*
X40222Y85442D01*
X40407D01*
X40574Y85423D01*
X41203D01*
X41592Y85460D01*
X41944Y85497D01*
X42259Y85534D01*
X42555Y85590D01*
X42832Y85646D01*
X43073Y85701D01*
X43277Y85775D01*
X43462Y85849D01*
X43629Y85905D01*
X43758Y85960D01*
X43869Y86016D01*
X43944Y86071D01*
X44018Y86090D01*
X44036Y86127D01*
X44055D01*
X44240Y86275D01*
X44388Y86423D01*
X44517Y86571D01*
X44629Y86720D01*
X44814Y87034D01*
X44925Y87331D01*
X44999Y87590D01*
X45036Y87794D01*
X45054Y87867D01*
Y87923D01*
Y87960D01*
Y87979D01*
X45036Y88275D01*
X44962Y88534D01*
X44888Y88756D01*
X44777Y88960D01*
X44684Y89127D01*
X44592Y89256D01*
X44517Y89330D01*
X44499Y89349D01*
X44277Y89553D01*
X44036Y89719D01*
X43777Y89867D01*
X43518Y89978D01*
X43295Y90052D01*
X43110Y90108D01*
X43036Y90127D01*
X42981D01*
X42962Y90145D01*
X42944D01*
X43536Y92200D01*
X43832Y92126D01*
X44110Y92034D01*
X44369Y91941D01*
X44629Y91849D01*
X44851Y91737D01*
X45054Y91645D01*
X45221Y91534D01*
X45388Y91441D01*
X45536Y91349D01*
X45665Y91256D01*
X45777Y91182D01*
X45869Y91108D01*
X45925Y91052D01*
X45980Y91015D01*
X46017Y90997D01*
Y90978D01*
X46221Y90756D01*
X46406Y90515D01*
X46573Y90275D01*
X46721Y90034D01*
X46832Y89793D01*
X46925Y89553D01*
X47073Y89090D01*
X47128Y88886D01*
X47165Y88701D01*
X47184Y88534D01*
X47202Y88386D01*
X47221Y88256D01*
Y88164D01*
Y88108D01*
Y88090D01*
X47202Y87701D01*
X47147Y87331D01*
X47073Y86997D01*
X46980Y86664D01*
X46851Y86368D01*
X46721Y86090D01*
X46573Y85831D01*
X46443Y85609D01*
X46295Y85405D01*
X46147Y85220D01*
X46017Y85071D01*
X45888Y84942D01*
X45795Y84849D01*
X45721Y84775D01*
X45665Y84738D01*
X45647Y84720D01*
X45295Y84460D01*
X44906Y84238D01*
X44517Y84053D01*
X44110Y83886D01*
X43684Y83738D01*
X43277Y83627D01*
X42870Y83535D01*
X42462Y83461D01*
X42092Y83405D01*
X41758Y83350D01*
X41444Y83313D01*
X41166Y83294D01*
X40962D01*
X40796Y83275D01*
X40648D01*
X40092Y83294D01*
X39574Y83331D01*
X39074Y83405D01*
X38611Y83498D01*
X38185Y83609D01*
X37796Y83720D01*
X37426Y83849D01*
X37111Y83998D01*
X36815Y84127D01*
X36555Y84257D01*
X36333Y84368D01*
X36167Y84479D01*
X36018Y84572D01*
X35907Y84646D01*
X35852Y84683D01*
X35833Y84701D01*
X35556Y84942D01*
X35333Y85201D01*
X35130Y85460D01*
X34944Y85738D01*
X34796Y86016D01*
X34667Y86275D01*
X34574Y86534D01*
X34481Y86794D01*
X34426Y87034D01*
X34370Y87256D01*
X34352Y87460D01*
X34315Y87627D01*
Y87775D01*
X34296Y87867D01*
Y87942D01*
Y87960D01*
X34315Y88256D01*
X34333Y88534D01*
X34444Y89053D01*
X34593Y89515D01*
X34685Y89719D01*
X34778Y89904D01*
X34870Y90071D01*
X34963Y90219D01*
X35037Y90349D01*
X35111Y90441D01*
X35167Y90534D01*
X35222Y90590D01*
X35241Y90626D01*
X35259Y90645D01*
X35463Y90849D01*
X35667Y91034D01*
X36148Y91349D01*
X36666Y91626D01*
X37166Y91849D01*
X37407Y91941D01*
X37629Y92015D01*
X37833Y92071D01*
X38000Y92126D01*
X38148Y92163D01*
X38259Y92200D01*
X38333Y92219D01*
X38352D01*
X39129Y90201D01*
D02*
G37*
G36*
X66277Y90460D02*
X66851Y90423D01*
X67129Y90404D01*
X67370Y90367D01*
X67592Y90330D01*
X67795Y90312D01*
X67981Y90275D01*
X68147Y90238D01*
X68295Y90201D01*
X68407Y90182D01*
X68499Y90163D01*
X68573Y90145D01*
X68610Y90126D01*
X68629D01*
X69073Y89978D01*
X69462Y89830D01*
X69795Y89664D01*
X70073Y89497D01*
X70314Y89367D01*
X70480Y89256D01*
X70573Y89182D01*
X70610Y89145D01*
X70869Y88904D01*
X71091Y88682D01*
X71277Y88441D01*
X71425Y88238D01*
X71536Y88053D01*
X71628Y87923D01*
X71665Y87830D01*
X71684Y87793D01*
X71795Y87497D01*
X71869Y87145D01*
X71943Y86793D01*
X71980Y86442D01*
X71999Y86127D01*
Y85997D01*
X72017Y85886D01*
Y85775D01*
Y85701D01*
Y85664D01*
Y85646D01*
Y81868D01*
X59500D01*
Y85757D01*
X59518Y86201D01*
X59556Y86608D01*
X59611Y86960D01*
X59685Y87256D01*
X59741Y87497D01*
X59796Y87664D01*
X59833Y87775D01*
X59852Y87812D01*
X60000Y88108D01*
X60167Y88367D01*
X60333Y88590D01*
X60500Y88793D01*
X60648Y88941D01*
X60778Y89071D01*
X60852Y89145D01*
X60889Y89164D01*
X61167Y89367D01*
X61481Y89552D01*
X61796Y89719D01*
X62111Y89849D01*
X62370Y89960D01*
X62592Y90034D01*
X62685Y90071D01*
X62740Y90090D01*
X62777Y90108D01*
X62796D01*
X63259Y90238D01*
X63740Y90330D01*
X64222Y90386D01*
X64666Y90441D01*
X64870D01*
X65055Y90460D01*
X65222D01*
X65351Y90478D01*
X65629D01*
X66277Y90460D01*
D02*
G37*
G36*
X72017Y77794D02*
X63648D01*
X72017Y73573D01*
Y71573D01*
X59500D01*
Y73499D01*
X67647D01*
X59500Y77628D01*
Y79720D01*
X72017D01*
Y77794D01*
D02*
G37*
G36*
X47017Y64999D02*
X38648D01*
X38389Y64981D01*
X38166Y64963D01*
X37963Y64944D01*
X37777Y64925D01*
X37611Y64907D01*
X37463Y64870D01*
X37333Y64851D01*
X37129Y64777D01*
X37000Y64740D01*
X36926Y64703D01*
X36907Y64685D01*
X36759Y64555D01*
X36648Y64407D01*
X36574Y64240D01*
X36518Y64092D01*
X36481Y63944D01*
X36463Y63833D01*
Y63759D01*
Y63722D01*
X36481Y63500D01*
X36555Y63296D01*
X36666Y63129D01*
X36778Y62981D01*
X36889Y62889D01*
X37000Y62796D01*
X37074Y62759D01*
X37092Y62741D01*
X37296Y62648D01*
X37537Y62592D01*
X37796Y62537D01*
X38055Y62500D01*
X38296Y62481D01*
X38481Y62463D01*
X38666D01*
X38389Y60500D01*
X38018Y60518D01*
X37666Y60537D01*
X37333Y60574D01*
X37037Y60630D01*
X36759Y60685D01*
X36518Y60759D01*
X36278Y60833D01*
X36074Y60926D01*
X35907Y61000D01*
X35741Y61074D01*
X35611Y61148D01*
X35500Y61204D01*
X35426Y61259D01*
X35370Y61296D01*
X35333Y61333D01*
X35315D01*
X35130Y61500D01*
X34981Y61667D01*
X34852Y61852D01*
X34722Y62055D01*
X34537Y62426D01*
X34426Y62796D01*
X34352Y63129D01*
X34333Y63278D01*
X34315Y63407D01*
X34296Y63500D01*
Y63592D01*
Y63629D01*
Y63648D01*
X34315Y64055D01*
X34370Y64407D01*
X34463Y64722D01*
X34556Y64999D01*
X34630Y65222D01*
X34722Y65388D01*
X34778Y65481D01*
X34796Y65518D01*
X35000Y65796D01*
X35222Y66037D01*
X35463Y66222D01*
X35704Y66388D01*
X35907Y66518D01*
X36074Y66610D01*
X36185Y66666D01*
X36203Y66685D01*
X36222D01*
X36407Y66759D01*
X36611Y66814D01*
X37074Y66907D01*
X37537Y66981D01*
X38018Y67018D01*
X38222Y67036D01*
X38426Y67055D01*
X38611D01*
X38777Y67073D01*
X47017D01*
Y64999D01*
D02*
G37*
G36*
Y80350D02*
X37740Y77850D01*
X47017Y75258D01*
Y73017D01*
X34500Y76665D01*
Y78924D01*
X47017Y82572D01*
Y80350D01*
D02*
G37*
G36*
X40240Y68684D02*
X37833D01*
Y72573D01*
X40240D01*
Y68684D01*
D02*
G37*
G36*
X247778Y188952D02*
X248186Y188897D01*
X248519Y188841D01*
X248815Y188767D01*
X249056Y188675D01*
X249241Y188619D01*
X249352Y188563D01*
X249371Y188545D01*
X249389D01*
X249685Y188378D01*
X249926Y188175D01*
X250148Y187971D01*
X250333Y187767D01*
X250482Y187582D01*
X250574Y187434D01*
X250648Y187341D01*
X250667Y187323D01*
Y187304D01*
X250815Y186990D01*
X250926Y186675D01*
X251019Y186360D01*
X251074Y186082D01*
X251111Y185842D01*
X251130Y185638D01*
Y185564D01*
Y185508D01*
Y185490D01*
Y185471D01*
X251111Y185156D01*
X251074Y184842D01*
X251019Y184564D01*
X250944Y184323D01*
X250889Y184119D01*
X250833Y183953D01*
X250796Y183860D01*
X250778Y183823D01*
X250630Y183545D01*
X250463Y183305D01*
X250296Y183101D01*
X250148Y182934D01*
X250000Y182786D01*
X249889Y182694D01*
X249815Y182620D01*
X249797Y182601D01*
X249537Y182435D01*
X249241Y182268D01*
X248908Y182120D01*
X248593Y181990D01*
X248297Y181879D01*
X248186Y181842D01*
X248074Y181805D01*
X247982Y181768D01*
X247908Y181749D01*
X247871Y181731D01*
X247852D01*
X247593Y181657D01*
X247352Y181583D01*
X247130Y181509D01*
X246945Y181435D01*
X246760Y181379D01*
X246612Y181324D01*
X246482Y181287D01*
X246371Y181250D01*
X246204Y181175D01*
X246075Y181120D01*
X246019Y181101D01*
X246001Y181083D01*
X245871Y181009D01*
X245741Y180935D01*
X245649Y180842D01*
X245575Y180768D01*
X245464Y180657D01*
X245427Y180620D01*
Y180601D01*
X245352Y180490D01*
X245315Y180361D01*
X245241Y180138D01*
Y180027D01*
X245223Y179953D01*
Y179898D01*
Y179879D01*
X245241Y179620D01*
X245315Y179379D01*
X245389Y179176D01*
X245501Y178990D01*
X245593Y178861D01*
X245686Y178750D01*
X245760Y178676D01*
X245778Y178657D01*
X246001Y178491D01*
X246241Y178379D01*
X246482Y178287D01*
X246704Y178231D01*
X246926Y178194D01*
X247093Y178176D01*
X247241D01*
X247575Y178194D01*
X247889Y178287D01*
X248148Y178398D01*
X248389Y178546D01*
X248611Y178731D01*
X248797Y178935D01*
X248945Y179157D01*
X249074Y179379D01*
X249185Y179601D01*
X249278Y179824D01*
X249352Y180027D01*
X249408Y180212D01*
X249445Y180361D01*
X249463Y180472D01*
X249482Y180564D01*
Y180583D01*
X251500Y180342D01*
X251444Y179953D01*
X251389Y179583D01*
X251296Y179250D01*
X251204Y178916D01*
X251074Y178620D01*
X250944Y178342D01*
X250815Y178102D01*
X250667Y177861D01*
X250500Y177639D01*
X250333Y177435D01*
X249982Y177102D01*
X249611Y176805D01*
X249241Y176583D01*
X248871Y176398D01*
X248519Y176269D01*
X248186Y176176D01*
X247889Y176120D01*
X247649Y176083D01*
X247463Y176046D01*
X247297D01*
X246908Y176065D01*
X246556Y176102D01*
X246223Y176139D01*
X245908Y176213D01*
X245630Y176306D01*
X245371Y176398D01*
X245130Y176491D01*
X244927Y176602D01*
X244760Y176694D01*
X244593Y176787D01*
X244464Y176880D01*
X244353Y176972D01*
X244279Y177046D01*
X244223Y177083D01*
X244186Y177120D01*
X244167Y177139D01*
X243982Y177361D01*
X243834Y177583D01*
X243686Y177805D01*
X243575Y178028D01*
X243390Y178491D01*
X243279Y178935D01*
X243242Y179120D01*
X243205Y179305D01*
X243186Y179472D01*
X243167Y179601D01*
X243149Y179731D01*
Y179805D01*
Y179861D01*
Y179879D01*
X243167Y180287D01*
X243205Y180657D01*
X243260Y180990D01*
X243334Y181268D01*
X243408Y181490D01*
X243464Y181657D01*
X243501Y181768D01*
X243519Y181805D01*
X243668Y182083D01*
X243834Y182342D01*
X244019Y182564D01*
X244186Y182749D01*
X244353Y182897D01*
X244482Y182990D01*
X244556Y183064D01*
X244593Y183083D01*
X244723Y183175D01*
X244890Y183268D01*
X245241Y183453D01*
X245612Y183601D01*
X245982Y183749D01*
X246315Y183879D01*
X246464Y183916D01*
X246593Y183971D01*
X246704Y184008D01*
X246778Y184027D01*
X246834Y184046D01*
X246852D01*
X247112Y184119D01*
X247352Y184194D01*
X247575Y184268D01*
X247760Y184342D01*
X247945Y184416D01*
X248093Y184471D01*
X248223Y184545D01*
X248352Y184601D01*
X248537Y184694D01*
X248648Y184768D01*
X248722Y184805D01*
X248741Y184823D01*
X248871Y184953D01*
X248982Y185101D01*
X249056Y185231D01*
X249093Y185360D01*
X249130Y185490D01*
X249148Y185582D01*
Y185638D01*
Y185656D01*
X249130Y185842D01*
X249074Y186008D01*
X249000Y186156D01*
X248926Y186286D01*
X248852Y186397D01*
X248778Y186471D01*
X248722Y186508D01*
X248704Y186527D01*
X248519Y186638D01*
X248297Y186730D01*
X248093Y186786D01*
X247889Y186842D01*
X247704Y186860D01*
X247537Y186879D01*
X247408D01*
X247112Y186860D01*
X246852Y186823D01*
X246630Y186749D01*
X246445Y186675D01*
X246297Y186601D01*
X246186Y186527D01*
X246130Y186490D01*
X246112Y186471D01*
X245945Y186286D01*
X245815Y186082D01*
X245723Y185842D01*
X245630Y185619D01*
X245575Y185397D01*
X245538Y185231D01*
X245519Y185156D01*
X245501Y185101D01*
Y185082D01*
Y185064D01*
X243427Y185175D01*
X243445Y185508D01*
X243501Y185823D01*
X243556Y186101D01*
X243630Y186379D01*
X243704Y186619D01*
X243797Y186860D01*
X243908Y187064D01*
X244001Y187249D01*
X244093Y187416D01*
X244186Y187564D01*
X244279Y187693D01*
X244353Y187786D01*
X244427Y187860D01*
X244482Y187934D01*
X244501Y187952D01*
X244519Y187971D01*
X244723Y188156D01*
X244927Y188304D01*
X245167Y188434D01*
X245389Y188545D01*
X245871Y188730D01*
X246315Y188841D01*
X246538Y188897D01*
X246723Y188915D01*
X246908Y188934D01*
X247056Y188952D01*
X247186Y188971D01*
X247352D01*
X247778Y188952D01*
D02*
G37*
G36*
X226882Y242083D02*
Y241583D01*
X226864Y241120D01*
X226845Y240694D01*
X226827Y240305D01*
X226790Y239953D01*
X226753Y239639D01*
X226716Y239361D01*
X226679Y239102D01*
X226660Y238898D01*
X226623Y238713D01*
X226586Y238565D01*
X226549Y238435D01*
X226530Y238342D01*
X226512Y238287D01*
X226493Y238250D01*
Y238231D01*
X226327Y237861D01*
X226123Y237546D01*
X225901Y237268D01*
X225679Y237046D01*
X225494Y236861D01*
X225327Y236731D01*
X225216Y236639D01*
X225197Y236620D01*
X225179D01*
X224808Y236435D01*
X224401Y236287D01*
X223975Y236194D01*
X223586Y236120D01*
X223216Y236083D01*
X223068Y236065D01*
X222920D01*
X222808Y236046D01*
X222660D01*
X222105Y236083D01*
X221623Y236157D01*
X221198Y236269D01*
X220846Y236398D01*
X220698Y236454D01*
X220550Y236509D01*
X220438Y236565D01*
X220346Y236620D01*
X220272Y236676D01*
X220216Y236694D01*
X220198Y236731D01*
X220179D01*
X219846Y237009D01*
X219587Y237305D01*
X219383Y237620D01*
X219216Y237898D01*
X219087Y238157D01*
X219013Y238361D01*
X218994Y238435D01*
X218976Y238491D01*
X218957Y238528D01*
Y238546D01*
X218902Y238768D01*
X218864Y239028D01*
X218827Y239305D01*
X218790Y239601D01*
X218753Y240194D01*
X218716Y240787D01*
X218698Y241083D01*
Y241342D01*
X218679Y241583D01*
Y241786D01*
Y241953D01*
Y242083D01*
Y242157D01*
Y242194D01*
Y248767D01*
X220753D01*
Y241842D01*
Y241509D01*
Y241194D01*
X220772Y240916D01*
X220790Y240676D01*
Y240453D01*
X220809Y240250D01*
X220827Y240064D01*
X220846Y239916D01*
X220864Y239787D01*
X220883Y239676D01*
X220901Y239583D01*
Y239509D01*
X220938Y239435D01*
Y239398D01*
X221012Y239194D01*
X221105Y239028D01*
X221198Y238879D01*
X221309Y238750D01*
X221401Y238657D01*
X221475Y238583D01*
X221531Y238546D01*
X221549Y238528D01*
X221735Y238416D01*
X221920Y238342D01*
X222105Y238287D01*
X222290Y238250D01*
X222457Y238231D01*
X222586Y238213D01*
X222716D01*
X223012Y238231D01*
X223290Y238287D01*
X223531Y238361D01*
X223716Y238435D01*
X223883Y238509D01*
X223994Y238583D01*
X224068Y238639D01*
X224086Y238657D01*
X224271Y238842D01*
X224401Y239046D01*
X224512Y239250D01*
X224605Y239472D01*
X224660Y239657D01*
X224697Y239805D01*
X224734Y239898D01*
Y239935D01*
X224753Y240046D01*
Y240157D01*
X224771Y240453D01*
X224790Y240805D01*
Y241138D01*
X224808Y241472D01*
Y241620D01*
Y241731D01*
Y241842D01*
Y241916D01*
Y241972D01*
Y241990D01*
Y248767D01*
X226882D01*
Y242083D01*
D02*
G37*
G36*
X216513Y236250D02*
X214439D01*
Y240972D01*
X212754D01*
X212439Y240990D01*
X212143Y241009D01*
X211884Y241027D01*
X211643Y241064D01*
X211439Y241083D01*
X211236Y241120D01*
X211069Y241157D01*
X210921Y241194D01*
X210791Y241231D01*
X210699Y241250D01*
X210606Y241287D01*
X210532Y241305D01*
X210495Y241324D01*
X210458Y241342D01*
X210180Y241509D01*
X209921Y241694D01*
X209699Y241916D01*
X209514Y242120D01*
X209366Y242305D01*
X209254Y242472D01*
X209180Y242583D01*
X209162Y242601D01*
Y242620D01*
X208995Y242990D01*
X208866Y243360D01*
X208773Y243749D01*
X208699Y244101D01*
X208662Y244416D01*
Y244564D01*
X208643Y244675D01*
Y244768D01*
Y244842D01*
Y244879D01*
Y244897D01*
X208662Y245434D01*
X208736Y245916D01*
X208829Y246323D01*
X208940Y246675D01*
X209014Y246842D01*
X209069Y246971D01*
X209106Y247082D01*
X209162Y247175D01*
X209199Y247249D01*
X209236Y247304D01*
X209254Y247323D01*
Y247341D01*
X209495Y247675D01*
X209736Y247934D01*
X209995Y248156D01*
X210217Y248323D01*
X210439Y248434D01*
X210606Y248526D01*
X210717Y248563D01*
X210736Y248582D01*
X210754D01*
X210884Y248619D01*
X211032Y248638D01*
X211199Y248675D01*
X211384Y248693D01*
X211773Y248730D01*
X212199Y248749D01*
X212569Y248767D01*
X216513D01*
Y236250D01*
D02*
G37*
G36*
X249324D02*
X247065D01*
X245028Y245601D01*
X242973Y236250D01*
X240770D01*
X238288Y248767D01*
X240381D01*
X241955Y240009D01*
X243769Y248767D01*
X246232D01*
X248102Y240157D01*
X249639Y248767D01*
X251750D01*
X249324Y236250D01*
D02*
G37*
G36*
X229123Y256000D02*
X227049D01*
Y261222D01*
X226382D01*
X226179Y261203D01*
X225993Y261185D01*
X225845Y261148D01*
X225734Y261129D01*
X225660Y261092D01*
X225623Y261073D01*
X225605D01*
X225475Y261018D01*
X225364Y260925D01*
X225179Y260759D01*
X225105Y260685D01*
X225049Y260611D01*
X225012Y260574D01*
X224994Y260555D01*
X224938Y260481D01*
X224864Y260370D01*
X224771Y260259D01*
X224697Y260129D01*
X224512Y259814D01*
X224327Y259500D01*
X224160Y259203D01*
X224086Y259074D01*
X224012Y258963D01*
X223957Y258870D01*
X223920Y258796D01*
X223883Y258741D01*
Y258722D01*
X222401Y256000D01*
X219902D01*
X221161Y258426D01*
X221290Y258685D01*
X221420Y258944D01*
X221549Y259166D01*
X221661Y259370D01*
X221772Y259555D01*
X221864Y259722D01*
X222031Y260000D01*
X222160Y260203D01*
X222272Y260351D01*
X222327Y260444D01*
X222346Y260462D01*
X222512Y260666D01*
X222698Y260870D01*
X222883Y261055D01*
X223049Y261203D01*
X223197Y261333D01*
X223327Y261425D01*
X223401Y261499D01*
X223438Y261518D01*
X222975Y261629D01*
X222586Y261777D01*
X222235Y261962D01*
X221957Y262166D01*
X221735Y262333D01*
X221568Y262481D01*
X221475Y262592D01*
X221438Y262610D01*
Y262629D01*
X221198Y262999D01*
X221012Y263388D01*
X220883Y263777D01*
X220809Y264147D01*
X220753Y264481D01*
X220735Y264629D01*
Y264758D01*
X220716Y264851D01*
Y264944D01*
Y264981D01*
Y264999D01*
X220735Y265425D01*
X220790Y265795D01*
X220864Y266147D01*
X220938Y266443D01*
X221031Y266666D01*
X221105Y266851D01*
X221161Y266962D01*
X221179Y266999D01*
X221364Y267295D01*
X221568Y267536D01*
X221753Y267740D01*
X221938Y267888D01*
X222105Y268017D01*
X222235Y268110D01*
X222327Y268147D01*
X222364Y268165D01*
X222512Y268221D01*
X222679Y268277D01*
X223049Y268369D01*
X223438Y268425D01*
X223827Y268480D01*
X224179Y268499D01*
X224345D01*
X224475Y268517D01*
X229123D01*
Y256000D01*
D02*
G37*
G36*
X237159Y236250D02*
X235085D01*
Y240027D01*
X233400Y242120D01*
X230604Y236250D01*
X227901D01*
X231937Y243916D01*
X228086Y248767D01*
X230882D01*
X235085Y243175D01*
Y248767D01*
X237159D01*
Y236250D01*
D02*
G37*
G36*
X251500Y196500D02*
X249426D01*
Y209017D01*
X251500D01*
Y196500D01*
D02*
G37*
G36*
X231780Y176250D02*
X229854D01*
Y184397D01*
X225725Y176250D01*
X223633D01*
Y188767D01*
X225558D01*
Y180398D01*
X229780Y188767D01*
X231780D01*
Y176250D01*
D02*
G37*
G36*
X217411Y188952D02*
X217781Y188897D01*
X218115Y188823D01*
X218448Y188730D01*
X218744Y188601D01*
X219022Y188471D01*
X219281Y188323D01*
X219503Y188193D01*
X219707Y188045D01*
X219892Y187897D01*
X220040Y187767D01*
X220170Y187638D01*
X220263Y187545D01*
X220337Y187471D01*
X220374Y187416D01*
X220392Y187397D01*
X220651Y187045D01*
X220874Y186656D01*
X221059Y186268D01*
X221225Y185860D01*
X221374Y185434D01*
X221485Y185027D01*
X221577Y184620D01*
X221651Y184212D01*
X221707Y183842D01*
X221762Y183508D01*
X221799Y183194D01*
X221818Y182916D01*
Y182712D01*
X221836Y182546D01*
Y182435D01*
Y182416D01*
Y182397D01*
X221818Y181842D01*
X221781Y181324D01*
X221707Y180824D01*
X221614Y180361D01*
X221503Y179935D01*
X221392Y179546D01*
X221262Y179176D01*
X221114Y178861D01*
X220985Y178565D01*
X220855Y178305D01*
X220744Y178083D01*
X220633Y177917D01*
X220540Y177768D01*
X220466Y177657D01*
X220429Y177602D01*
X220411Y177583D01*
X220170Y177305D01*
X219911Y177083D01*
X219652Y176880D01*
X219374Y176694D01*
X219096Y176546D01*
X218837Y176417D01*
X218577Y176324D01*
X218318Y176231D01*
X218078Y176176D01*
X217855Y176120D01*
X217652Y176102D01*
X217485Y176065D01*
X217337D01*
X217244Y176046D01*
X217152D01*
X216855Y176065D01*
X216578Y176083D01*
X216059Y176194D01*
X215596Y176343D01*
X215393Y176435D01*
X215208Y176528D01*
X215041Y176620D01*
X214893Y176713D01*
X214763Y176787D01*
X214671Y176861D01*
X214578Y176917D01*
X214522Y176972D01*
X214485Y176991D01*
X214467Y177009D01*
X214263Y177213D01*
X214078Y177416D01*
X213763Y177898D01*
X213485Y178416D01*
X213263Y178916D01*
X213171Y179157D01*
X213097Y179379D01*
X213041Y179583D01*
X212985Y179750D01*
X212948Y179898D01*
X212911Y180009D01*
X212893Y180083D01*
Y180101D01*
X214911Y180879D01*
X215022Y180379D01*
X215170Y179972D01*
X215300Y179620D01*
X215448Y179342D01*
X215578Y179120D01*
X215689Y178972D01*
X215763Y178879D01*
X215781Y178842D01*
X216004Y178639D01*
X216244Y178472D01*
X216485Y178361D01*
X216707Y178287D01*
X216893Y178250D01*
X217059Y178231D01*
X217152Y178213D01*
X217189D01*
X217392Y178231D01*
X217578Y178250D01*
X217948Y178361D01*
X218244Y178528D01*
X218503Y178713D01*
X218726Y178879D01*
X218874Y179046D01*
X218966Y179157D01*
X219003Y179176D01*
Y179194D01*
X219114Y179398D01*
X219226Y179620D01*
X219318Y179879D01*
X219392Y180138D01*
X219522Y180694D01*
X219596Y181250D01*
X219633Y181509D01*
X219652Y181749D01*
X219670Y181972D01*
Y182157D01*
X219688Y182323D01*
Y182435D01*
Y182527D01*
Y182546D01*
Y182953D01*
X219652Y183342D01*
X219614Y183694D01*
X219577Y184008D01*
X219522Y184305D01*
X219466Y184583D01*
X219411Y184823D01*
X219337Y185027D01*
X219263Y185212D01*
X219207Y185379D01*
X219151Y185508D01*
X219096Y185619D01*
X219040Y185693D01*
X219022Y185767D01*
X218985Y185786D01*
Y185805D01*
X218837Y185990D01*
X218689Y186138D01*
X218540Y186268D01*
X218392Y186379D01*
X218078Y186564D01*
X217781Y186675D01*
X217522Y186749D01*
X217318Y186786D01*
X217244Y186805D01*
X217133D01*
X216837Y186786D01*
X216578Y186712D01*
X216355Y186638D01*
X216152Y186527D01*
X215985Y186434D01*
X215856Y186341D01*
X215781Y186268D01*
X215763Y186249D01*
X215559Y186027D01*
X215393Y185786D01*
X215245Y185527D01*
X215133Y185268D01*
X215059Y185045D01*
X215004Y184860D01*
X214985Y184786D01*
Y184731D01*
X214967Y184712D01*
Y184694D01*
X212911Y185286D01*
X212985Y185582D01*
X213078Y185860D01*
X213171Y186119D01*
X213263Y186379D01*
X213374Y186601D01*
X213467Y186805D01*
X213578Y186971D01*
X213671Y187138D01*
X213763Y187286D01*
X213856Y187416D01*
X213930Y187527D01*
X214004Y187619D01*
X214059Y187675D01*
X214097Y187730D01*
X214115Y187767D01*
X214133D01*
X214356Y187971D01*
X214596Y188156D01*
X214837Y188323D01*
X215078Y188471D01*
X215319Y188582D01*
X215559Y188675D01*
X216022Y188823D01*
X216226Y188878D01*
X216411Y188915D01*
X216578Y188934D01*
X216726Y188952D01*
X216855Y188971D01*
X217022D01*
X217411Y188952D01*
D02*
G37*
G36*
X238705Y181527D02*
Y176250D01*
X236631D01*
Y181509D01*
X232872Y188767D01*
X235280D01*
X237631Y183823D01*
X240038Y188767D01*
X242464D01*
X238705Y181527D01*
D02*
G37*
G36*
X247445Y196500D02*
X245371D01*
Y201722D01*
X244704D01*
X244501Y201703D01*
X244316Y201685D01*
X244167Y201648D01*
X244056Y201629D01*
X243982Y201592D01*
X243945Y201574D01*
X243927D01*
X243797Y201518D01*
X243686Y201425D01*
X243501Y201259D01*
X243427Y201185D01*
X243371Y201111D01*
X243334Y201074D01*
X243316Y201055D01*
X243260Y200981D01*
X243186Y200870D01*
X243093Y200759D01*
X243019Y200629D01*
X242834Y200314D01*
X242649Y200000D01*
X242482Y199703D01*
X242408Y199574D01*
X242334Y199463D01*
X242279Y199370D01*
X242242Y199296D01*
X242205Y199240D01*
Y199222D01*
X240723Y196500D01*
X238224D01*
X239483Y198926D01*
X239612Y199185D01*
X239742Y199444D01*
X239872Y199666D01*
X239983Y199870D01*
X240094Y200055D01*
X240186Y200222D01*
X240353Y200500D01*
X240483Y200703D01*
X240594Y200851D01*
X240649Y200944D01*
X240668Y200963D01*
X240834Y201166D01*
X241020Y201370D01*
X241205Y201555D01*
X241371Y201703D01*
X241520Y201833D01*
X241649Y201925D01*
X241723Y201999D01*
X241760Y202018D01*
X241297Y202129D01*
X240909Y202277D01*
X240557Y202462D01*
X240279Y202666D01*
X240057Y202833D01*
X239890Y202981D01*
X239797Y203092D01*
X239760Y203110D01*
Y203129D01*
X239520Y203499D01*
X239335Y203888D01*
X239205Y204277D01*
X239131Y204647D01*
X239075Y204981D01*
X239057Y205129D01*
Y205258D01*
X239038Y205351D01*
Y205443D01*
Y205480D01*
Y205499D01*
X239057Y205925D01*
X239112Y206295D01*
X239186Y206647D01*
X239261Y206943D01*
X239353Y207166D01*
X239427Y207351D01*
X239483Y207462D01*
X239501Y207499D01*
X239686Y207795D01*
X239890Y208036D01*
X240075Y208239D01*
X240260Y208388D01*
X240427Y208517D01*
X240557Y208610D01*
X240649Y208647D01*
X240686Y208665D01*
X240834Y208721D01*
X241001Y208776D01*
X241371Y208869D01*
X241760Y208925D01*
X242149Y208980D01*
X242501Y208999D01*
X242668D01*
X242797Y209017D01*
X247445D01*
Y196500D01*
D02*
G37*
G36*
X232928Y209202D02*
X233317Y209147D01*
X233687Y209073D01*
X234039Y208962D01*
X234354Y208832D01*
X234650Y208702D01*
X234928Y208536D01*
X235168Y208388D01*
X235391Y208239D01*
X235594Y208091D01*
X235761Y207943D01*
X235891Y207814D01*
X236002Y207703D01*
X236094Y207628D01*
X236131Y207573D01*
X236150Y207554D01*
X236390Y207221D01*
X236594Y206869D01*
X236779Y206499D01*
X236946Y206110D01*
X237076Y205721D01*
X237187Y205314D01*
X237279Y204925D01*
X237353Y204536D01*
X237409Y204184D01*
X237446Y203851D01*
X237483Y203536D01*
X237502Y203277D01*
Y203055D01*
X237520Y202907D01*
Y202796D01*
Y202759D01*
X237502Y202185D01*
X237464Y201648D01*
X237390Y201148D01*
X237298Y200685D01*
X237205Y200240D01*
X237094Y199851D01*
X236964Y199500D01*
X236835Y199166D01*
X236705Y198889D01*
X236576Y198629D01*
X236465Y198426D01*
X236372Y198259D01*
X236279Y198111D01*
X236205Y198018D01*
X236168Y197963D01*
X236150Y197944D01*
X235891Y197648D01*
X235594Y197407D01*
X235317Y197185D01*
X235002Y197000D01*
X234705Y196833D01*
X234409Y196704D01*
X234113Y196593D01*
X233835Y196500D01*
X233576Y196426D01*
X233335Y196389D01*
X233113Y196352D01*
X232928Y196315D01*
X232780D01*
X232650Y196296D01*
X232558D01*
X232076Y196315D01*
X231632Y196389D01*
X231243Y196463D01*
X230891Y196574D01*
X230613Y196667D01*
X230502Y196704D01*
X230410Y196759D01*
X230336Y196778D01*
X230261Y196815D01*
X230243Y196833D01*
X230224D01*
X230002Y196648D01*
X229799Y196481D01*
X229613Y196352D01*
X229465Y196222D01*
X229336Y196111D01*
X229224Y196019D01*
X229058Y195889D01*
X228947Y195796D01*
X228873Y195759D01*
X228836Y195722D01*
X228502Y195537D01*
X228354Y195463D01*
X228206Y195389D01*
X228095Y195333D01*
X228002Y195296D01*
X227947Y195259D01*
X227928D01*
X227169Y197037D01*
X227502Y197204D01*
X227817Y197370D01*
X228095Y197555D01*
X228336Y197722D01*
X228539Y197870D01*
X228706Y197981D01*
X228799Y198055D01*
X228836Y198092D01*
X228595Y198444D01*
X228410Y198815D01*
X228243Y199148D01*
X228095Y199463D01*
X228002Y199740D01*
X227928Y199944D01*
X227910Y200018D01*
X227891Y200074D01*
X227873Y200111D01*
Y200129D01*
X227762Y200555D01*
X227688Y201018D01*
X227632Y201444D01*
X227595Y201870D01*
X227577Y202055D01*
Y202222D01*
X227558Y202370D01*
Y202499D01*
Y202610D01*
Y202684D01*
Y202740D01*
Y202759D01*
X227577Y203333D01*
X227614Y203870D01*
X227688Y204370D01*
X227780Y204832D01*
X227873Y205258D01*
X228002Y205666D01*
X228113Y206017D01*
X228243Y206332D01*
X228373Y206629D01*
X228502Y206869D01*
X228632Y207073D01*
X228725Y207240D01*
X228817Y207388D01*
X228891Y207480D01*
X228928Y207536D01*
X228947Y207554D01*
X229206Y207851D01*
X229502Y208110D01*
X229780Y208332D01*
X230076Y208517D01*
X230391Y208684D01*
X230687Y208813D01*
X230965Y208925D01*
X231243Y209017D01*
X231502Y209073D01*
X231743Y209128D01*
X231965Y209165D01*
X232150Y209202D01*
X232298D01*
X232428Y209221D01*
X232521D01*
X232928Y209202D01*
D02*
G37*
G36*
X66203Y65148D02*
X64092D01*
Y67518D01*
X62518D01*
X62333Y67314D01*
X62185Y67110D01*
X62055Y66907D01*
X61944Y66740D01*
X61852Y66573D01*
X61796Y66444D01*
X61759Y66370D01*
X61740Y66333D01*
X61648Y66092D01*
X61574Y65870D01*
X61537Y65648D01*
X61500Y65462D01*
X61481Y65314D01*
X61463Y65203D01*
Y65111D01*
Y65092D01*
X61481Y64851D01*
X61500Y64629D01*
X61611Y64222D01*
X61778Y63851D01*
X61963Y63555D01*
X62148Y63333D01*
X62315Y63166D01*
X62426Y63055D01*
X62444Y63037D01*
X62463Y63018D01*
X62703Y62870D01*
X62944Y62741D01*
X63500Y62518D01*
X64074Y62370D01*
X64629Y62259D01*
X64870Y62222D01*
X65111Y62203D01*
X65333Y62166D01*
X65518D01*
X65666Y62148D01*
X65888D01*
X66277Y62166D01*
X66629Y62185D01*
X66962Y62222D01*
X67277Y62277D01*
X67555Y62333D01*
X67814Y62407D01*
X68036Y62481D01*
X68240Y62555D01*
X68425Y62629D01*
X68592Y62703D01*
X68721Y62778D01*
X68832Y62833D01*
X68906Y62889D01*
X68962Y62926D01*
X68999Y62963D01*
X69018D01*
X69203Y63129D01*
X69369Y63296D01*
X69499Y63463D01*
X69610Y63648D01*
X69795Y64000D01*
X69925Y64351D01*
X69999Y64648D01*
X70017Y64777D01*
X70036Y64888D01*
X70054Y64981D01*
Y65055D01*
Y65092D01*
Y65111D01*
X70036Y65425D01*
X69980Y65703D01*
X69888Y65944D01*
X69795Y66166D01*
X69703Y66333D01*
X69610Y66462D01*
X69555Y66555D01*
X69536Y66573D01*
X69332Y66777D01*
X69092Y66962D01*
X68832Y67110D01*
X68610Y67221D01*
X68388Y67314D01*
X68221Y67370D01*
X68092Y67407D01*
X68073Y67425D01*
X68055D01*
X68518Y69481D01*
X68851Y69406D01*
X69166Y69332D01*
X69443Y69221D01*
X69721Y69110D01*
X69962Y68999D01*
X70184Y68870D01*
X70388Y68758D01*
X70573Y68629D01*
X70740Y68518D01*
X70888Y68407D01*
X70999Y68295D01*
X71110Y68221D01*
X71184Y68147D01*
X71240Y68092D01*
X71258Y68055D01*
X71277Y68036D01*
X71443Y67832D01*
X71591Y67592D01*
X71721Y67351D01*
X71832Y67110D01*
X71999Y66629D01*
X72110Y66147D01*
X72147Y65944D01*
X72165Y65740D01*
X72184Y65555D01*
X72202Y65407D01*
X72221Y65277D01*
Y65166D01*
Y65111D01*
Y65092D01*
X72184Y64537D01*
X72110Y64037D01*
X71980Y63592D01*
X71851Y63203D01*
X71776Y63037D01*
X71721Y62889D01*
X71647Y62759D01*
X71591Y62666D01*
X71554Y62574D01*
X71517Y62518D01*
X71480Y62481D01*
Y62463D01*
X71184Y62074D01*
X70832Y61722D01*
X70480Y61426D01*
X70110Y61167D01*
X69795Y60963D01*
X69666Y60870D01*
X69536Y60815D01*
X69443Y60759D01*
X69369Y60722D01*
X69314Y60685D01*
X69295D01*
X68721Y60463D01*
X68129Y60296D01*
X67536Y60167D01*
X66981Y60093D01*
X66722Y60056D01*
X66499Y60037D01*
X66277Y60019D01*
X66110D01*
X65962Y60000D01*
X65759D01*
X65037Y60037D01*
X64370Y60111D01*
X64055Y60148D01*
X63777Y60204D01*
X63500Y60278D01*
X63259Y60333D01*
X63037Y60389D01*
X62833Y60463D01*
X62666Y60518D01*
X62518Y60556D01*
X62407Y60611D01*
X62333Y60630D01*
X62277Y60667D01*
X62259D01*
X61740Y60944D01*
X61296Y61241D01*
X60907Y61555D01*
X60592Y61852D01*
X60352Y62111D01*
X60185Y62333D01*
X60111Y62407D01*
X60074Y62463D01*
X60055Y62500D01*
X60037Y62518D01*
X59796Y62963D01*
X59611Y63426D01*
X59482Y63889D01*
X59389Y64296D01*
X59352Y64481D01*
X59333Y64666D01*
X59315Y64814D01*
Y64944D01*
X59296Y65055D01*
Y65129D01*
Y65185D01*
Y65203D01*
X59315Y65666D01*
X59389Y66111D01*
X59482Y66536D01*
X59574Y66907D01*
X59685Y67221D01*
X59722Y67351D01*
X59759Y67481D01*
X59796Y67555D01*
X59833Y67629D01*
X59852Y67666D01*
Y67684D01*
X60074Y68129D01*
X60315Y68518D01*
X60537Y68832D01*
X60759Y69110D01*
X60944Y69332D01*
X61092Y69481D01*
X61185Y69573D01*
X61222Y69610D01*
X66203D01*
Y65148D01*
D02*
G37*
G36*
X145434Y132039D02*
X145916Y131965D01*
X146323Y131872D01*
X146675Y131761D01*
X146841Y131687D01*
X146971Y131632D01*
X147082Y131595D01*
X147175Y131539D01*
X147249Y131502D01*
X147304Y131465D01*
X147323Y131446D01*
X147341D01*
X147675Y131206D01*
X147934Y130965D01*
X148156Y130706D01*
X148323Y130484D01*
X148434Y130261D01*
X148526Y130095D01*
X148563Y129984D01*
X148582Y129965D01*
Y129947D01*
X148619Y129817D01*
X148638Y129669D01*
X148675Y129502D01*
X148693Y129317D01*
X148730Y128928D01*
X148749Y128502D01*
X148767Y128132D01*
Y127947D01*
Y127799D01*
Y127688D01*
Y127577D01*
Y127521D01*
Y127502D01*
Y124188D01*
X136250D01*
Y126262D01*
X140972D01*
Y127613D01*
Y127947D01*
X140990Y128262D01*
X141009Y128558D01*
X141027Y128817D01*
X141064Y129058D01*
X141083Y129262D01*
X141120Y129465D01*
X141157Y129632D01*
X141194Y129780D01*
X141231Y129909D01*
X141250Y130002D01*
X141286Y130095D01*
X141305Y130169D01*
X141323Y130206D01*
X141342Y130243D01*
X141509Y130521D01*
X141694Y130780D01*
X141916Y131002D01*
X142120Y131187D01*
X142305Y131335D01*
X142472Y131446D01*
X142583Y131521D01*
X142601Y131539D01*
X142620D01*
X142990Y131706D01*
X143360Y131835D01*
X143749Y131928D01*
X144101Y132002D01*
X144416Y132039D01*
X144564D01*
X144675Y132058D01*
X144897D01*
X145434Y132039D01*
D02*
G37*
G36*
X140879Y120410D02*
X140379Y120299D01*
X139972Y120151D01*
X139620Y120022D01*
X139342Y119874D01*
X139120Y119744D01*
X138972Y119633D01*
X138879Y119559D01*
X138842Y119540D01*
X138639Y119318D01*
X138472Y119077D01*
X138361Y118837D01*
X138287Y118614D01*
X138250Y118429D01*
X138231Y118263D01*
X138213Y118170D01*
Y118152D01*
Y118133D01*
X138231Y117929D01*
X138250Y117744D01*
X138361Y117374D01*
X138527Y117078D01*
X138713Y116818D01*
X138879Y116596D01*
X139046Y116448D01*
X139157Y116355D01*
X139176Y116318D01*
X139194D01*
X139398Y116207D01*
X139620Y116096D01*
X139879Y116004D01*
X140139Y115929D01*
X140694Y115800D01*
X141250Y115726D01*
X141509Y115689D01*
X141749Y115670D01*
X141972Y115652D01*
X142157D01*
X142323Y115633D01*
X142953D01*
X143342Y115670D01*
X143694Y115707D01*
X144008Y115744D01*
X144305Y115800D01*
X144583Y115855D01*
X144823Y115911D01*
X145027Y115985D01*
X145212Y116059D01*
X145379Y116115D01*
X145508Y116170D01*
X145619Y116226D01*
X145694Y116281D01*
X145767Y116300D01*
X145786Y116337D01*
X145805D01*
X145990Y116485D01*
X146138Y116633D01*
X146267Y116781D01*
X146379Y116929D01*
X146564Y117244D01*
X146675Y117541D01*
X146749Y117800D01*
X146786Y118003D01*
X146805Y118077D01*
Y118133D01*
Y118170D01*
Y118188D01*
X146786Y118485D01*
X146712Y118744D01*
X146638Y118966D01*
X146527Y119170D01*
X146434Y119337D01*
X146341Y119466D01*
X146267Y119540D01*
X146249Y119559D01*
X146027Y119762D01*
X145786Y119929D01*
X145527Y120077D01*
X145268Y120188D01*
X145045Y120262D01*
X144860Y120318D01*
X144786Y120337D01*
X144731D01*
X144712Y120355D01*
X144694D01*
X145286Y122410D01*
X145582Y122336D01*
X145860Y122244D01*
X146119Y122151D01*
X146379Y122058D01*
X146601Y121947D01*
X146805Y121855D01*
X146971Y121744D01*
X147138Y121651D01*
X147286Y121559D01*
X147416Y121466D01*
X147527Y121392D01*
X147619Y121318D01*
X147675Y121262D01*
X147730Y121225D01*
X147767Y121207D01*
Y121188D01*
X147971Y120966D01*
X148156Y120725D01*
X148323Y120485D01*
X148471Y120244D01*
X148582Y120003D01*
X148675Y119762D01*
X148823Y119299D01*
X148878Y119096D01*
X148915Y118911D01*
X148934Y118744D01*
X148952Y118596D01*
X148971Y118466D01*
Y118374D01*
Y118318D01*
Y118300D01*
X148952Y117911D01*
X148897Y117541D01*
X148823Y117207D01*
X148730Y116874D01*
X148601Y116578D01*
X148471Y116300D01*
X148323Y116041D01*
X148193Y115818D01*
X148045Y115615D01*
X147897Y115430D01*
X147767Y115281D01*
X147638Y115152D01*
X147545Y115059D01*
X147471Y114985D01*
X147416Y114948D01*
X147397Y114930D01*
X147045Y114670D01*
X146656Y114448D01*
X146267Y114263D01*
X145860Y114096D01*
X145434Y113948D01*
X145027Y113837D01*
X144620Y113745D01*
X144212Y113671D01*
X143842Y113615D01*
X143509Y113559D01*
X143194Y113522D01*
X142916Y113504D01*
X142712D01*
X142546Y113485D01*
X142397D01*
X141842Y113504D01*
X141323Y113541D01*
X140824Y113615D01*
X140361Y113708D01*
X139935Y113819D01*
X139546Y113930D01*
X139176Y114059D01*
X138861Y114207D01*
X138565Y114337D01*
X138305Y114467D01*
X138083Y114578D01*
X137916Y114689D01*
X137768Y114782D01*
X137657Y114855D01*
X137602Y114893D01*
X137583Y114911D01*
X137305Y115152D01*
X137083Y115411D01*
X136880Y115670D01*
X136694Y115948D01*
X136546Y116226D01*
X136417Y116485D01*
X136324Y116744D01*
X136231Y117003D01*
X136176Y117244D01*
X136120Y117466D01*
X136102Y117670D01*
X136065Y117837D01*
Y117985D01*
X136046Y118077D01*
Y118152D01*
Y118170D01*
X136065Y118466D01*
X136083Y118744D01*
X136194Y119263D01*
X136343Y119725D01*
X136435Y119929D01*
X136528Y120114D01*
X136620Y120281D01*
X136713Y120429D01*
X136787Y120559D01*
X136861Y120651D01*
X136917Y120744D01*
X136972Y120799D01*
X136991Y120836D01*
X137009Y120855D01*
X137213Y121059D01*
X137416Y121244D01*
X137898Y121559D01*
X138416Y121836D01*
X138916Y122058D01*
X139157Y122151D01*
X139379Y122225D01*
X139583Y122281D01*
X139750Y122336D01*
X139898Y122373D01*
X140009Y122410D01*
X140083Y122429D01*
X140101D01*
X140879Y120410D01*
D02*
G37*
G36*
X148767Y139872D02*
X141194D01*
X140916Y139853D01*
X140675Y139834D01*
X140453D01*
X140250Y139816D01*
X140064Y139797D01*
X139916Y139779D01*
X139787Y139760D01*
X139676Y139742D01*
X139583Y139723D01*
X139509D01*
X139435Y139686D01*
X139398D01*
X139194Y139612D01*
X139028Y139520D01*
X138879Y139427D01*
X138750Y139316D01*
X138657Y139223D01*
X138583Y139149D01*
X138546Y139094D01*
X138527Y139075D01*
X138416Y138890D01*
X138342Y138705D01*
X138287Y138520D01*
X138250Y138335D01*
X138231Y138168D01*
X138213Y138038D01*
Y137946D01*
Y137909D01*
X138231Y137612D01*
X138287Y137335D01*
X138361Y137094D01*
X138435Y136909D01*
X138509Y136742D01*
X138583Y136631D01*
X138639Y136557D01*
X138657Y136538D01*
X138842Y136353D01*
X139046Y136224D01*
X139250Y136113D01*
X139472Y136020D01*
X139657Y135964D01*
X139805Y135927D01*
X139898Y135890D01*
X139935D01*
X140046Y135872D01*
X140157D01*
X140453Y135853D01*
X140805Y135835D01*
X141138D01*
X141472Y135816D01*
X148767D01*
Y133743D01*
X141583D01*
X141120Y133761D01*
X140694Y133779D01*
X140305Y133798D01*
X139953Y133835D01*
X139639Y133872D01*
X139361Y133909D01*
X139102Y133946D01*
X138898Y133965D01*
X138713Y134002D01*
X138565Y134039D01*
X138435Y134076D01*
X138342Y134094D01*
X138287Y134113D01*
X138250Y134131D01*
X138231D01*
X137861Y134298D01*
X137546Y134502D01*
X137268Y134724D01*
X137046Y134946D01*
X136861Y135131D01*
X136731Y135298D01*
X136639Y135409D01*
X136620Y135428D01*
Y135446D01*
X136435Y135816D01*
X136287Y136224D01*
X136194Y136650D01*
X136120Y137038D01*
X136083Y137409D01*
X136065Y137557D01*
Y137705D01*
X136046Y137816D01*
Y137890D01*
Y137946D01*
Y137964D01*
X136083Y138520D01*
X136157Y139001D01*
X136269Y139427D01*
X136398Y139779D01*
X136454Y139927D01*
X136509Y140075D01*
X136565Y140186D01*
X136620Y140279D01*
X136676Y140353D01*
X136694Y140408D01*
X136731Y140427D01*
Y140445D01*
X137009Y140779D01*
X137305Y141038D01*
X137620Y141242D01*
X137898Y141408D01*
X138157Y141538D01*
X138361Y141612D01*
X138435Y141631D01*
X138490Y141649D01*
X138527Y141668D01*
X138546D01*
X138768Y141723D01*
X139028Y141760D01*
X139305Y141797D01*
X139601Y141834D01*
X140194Y141871D01*
X140787Y141908D01*
X141083Y141927D01*
X141342D01*
X141583Y141945D01*
X148767D01*
Y139872D01*
D02*
G37*
G36*
X116990Y68684D02*
X114583D01*
Y72573D01*
X116990D01*
Y68684D01*
D02*
G37*
G36*
X123767Y64999D02*
X115398D01*
X115139Y64981D01*
X114916Y64963D01*
X114713Y64944D01*
X114527Y64925D01*
X114361Y64907D01*
X114213Y64870D01*
X114083Y64851D01*
X113879Y64777D01*
X113750Y64740D01*
X113676Y64703D01*
X113657Y64685D01*
X113509Y64555D01*
X113398Y64407D01*
X113324Y64240D01*
X113268Y64092D01*
X113231Y63944D01*
X113213Y63833D01*
Y63759D01*
Y63722D01*
X113231Y63500D01*
X113305Y63296D01*
X113416Y63129D01*
X113527Y62981D01*
X113639Y62889D01*
X113750Y62796D01*
X113824Y62759D01*
X113842Y62741D01*
X114046Y62648D01*
X114287Y62592D01*
X114546Y62537D01*
X114805Y62500D01*
X115046Y62481D01*
X115231Y62463D01*
X115416D01*
X115139Y60500D01*
X114768Y60518D01*
X114416Y60537D01*
X114083Y60574D01*
X113787Y60630D01*
X113509Y60685D01*
X113268Y60759D01*
X113028Y60833D01*
X112824Y60926D01*
X112657Y61000D01*
X112491Y61074D01*
X112361Y61148D01*
X112250Y61204D01*
X112176Y61259D01*
X112120Y61296D01*
X112083Y61333D01*
X112065D01*
X111880Y61500D01*
X111731Y61667D01*
X111602Y61852D01*
X111472Y62055D01*
X111287Y62426D01*
X111176Y62796D01*
X111102Y63129D01*
X111083Y63278D01*
X111065Y63407D01*
X111046Y63500D01*
Y63592D01*
Y63629D01*
Y63648D01*
X111065Y64055D01*
X111120Y64407D01*
X111213Y64722D01*
X111306Y64999D01*
X111380Y65222D01*
X111472Y65388D01*
X111528Y65481D01*
X111546Y65518D01*
X111750Y65796D01*
X111972Y66037D01*
X112213Y66222D01*
X112454Y66388D01*
X112657Y66518D01*
X112824Y66610D01*
X112935Y66666D01*
X112954Y66685D01*
X112972D01*
X113157Y66759D01*
X113361Y66814D01*
X113824Y66907D01*
X114287Y66981D01*
X114768Y67018D01*
X114972Y67036D01*
X115176Y67055D01*
X115361D01*
X115527Y67073D01*
X123767D01*
Y64999D01*
D02*
G37*
G36*
X141990Y108467D02*
X139583D01*
Y112356D01*
X141990D01*
Y108467D01*
D02*
G37*
G36*
X138361Y73675D02*
X141768D01*
Y78841D01*
X143879D01*
Y73675D01*
X146656D01*
Y79230D01*
X148767D01*
Y71601D01*
X136250D01*
Y79415D01*
X138361D01*
Y73675D01*
D02*
G37*
G36*
X138676Y69212D02*
X138935Y69082D01*
X139194Y68953D01*
X139416Y68823D01*
X139620Y68712D01*
X139805Y68601D01*
X139972Y68509D01*
X140250Y68342D01*
X140453Y68212D01*
X140601Y68101D01*
X140694Y68046D01*
X140712Y68027D01*
X140916Y67860D01*
X141120Y67675D01*
X141305Y67490D01*
X141453Y67323D01*
X141583Y67175D01*
X141675Y67046D01*
X141749Y66972D01*
X141768Y66935D01*
X141879Y67397D01*
X142027Y67786D01*
X142212Y68138D01*
X142416Y68416D01*
X142583Y68638D01*
X142731Y68805D01*
X142842Y68897D01*
X142860Y68934D01*
X142879D01*
X143249Y69175D01*
X143638Y69360D01*
X144027Y69490D01*
X144397Y69564D01*
X144731Y69619D01*
X144879Y69638D01*
X145008D01*
X145101Y69657D01*
X145249D01*
X145675Y69638D01*
X146045Y69583D01*
X146397Y69508D01*
X146693Y69434D01*
X146916Y69342D01*
X147101Y69268D01*
X147212Y69212D01*
X147249Y69194D01*
X147545Y69008D01*
X147786Y68805D01*
X147990Y68620D01*
X148138Y68434D01*
X148267Y68268D01*
X148360Y68138D01*
X148397Y68046D01*
X148415Y68009D01*
X148471Y67860D01*
X148526Y67694D01*
X148619Y67323D01*
X148675Y66935D01*
X148730Y66546D01*
X148749Y66194D01*
Y66027D01*
X148767Y65898D01*
Y65787D01*
Y65694D01*
Y65638D01*
Y65620D01*
Y61250D01*
X136250D01*
Y63324D01*
X141472D01*
Y63731D01*
Y63990D01*
X141453Y64194D01*
X141435Y64379D01*
X141398Y64527D01*
X141379Y64639D01*
X141342Y64713D01*
X141323Y64750D01*
Y64768D01*
X141268Y64898D01*
X141175Y65009D01*
X141009Y65194D01*
X140935Y65268D01*
X140861Y65324D01*
X140824Y65361D01*
X140805Y65379D01*
X140731Y65435D01*
X140620Y65509D01*
X140509Y65601D01*
X140379Y65676D01*
X140064Y65861D01*
X139750Y66046D01*
X139453Y66212D01*
X139324Y66287D01*
X139213Y66361D01*
X139120Y66416D01*
X139046Y66453D01*
X138990Y66490D01*
X138972D01*
X136250Y67972D01*
Y70471D01*
X138676Y69212D01*
D02*
G37*
G36*
X140287Y88969D02*
X140657Y88932D01*
X140990Y88877D01*
X141268Y88803D01*
X141490Y88729D01*
X141657Y88673D01*
X141768Y88636D01*
X141805Y88617D01*
X142083Y88469D01*
X142342Y88303D01*
X142564Y88118D01*
X142749Y87951D01*
X142898Y87784D01*
X142990Y87655D01*
X143064Y87581D01*
X143083Y87544D01*
X143175Y87414D01*
X143268Y87247D01*
X143453Y86896D01*
X143601Y86525D01*
X143749Y86155D01*
X143879Y85822D01*
X143916Y85673D01*
X143971Y85544D01*
X144008Y85433D01*
X144027Y85359D01*
X144045Y85303D01*
Y85285D01*
X144120Y85025D01*
X144194Y84785D01*
X144268Y84562D01*
X144342Y84377D01*
X144416Y84192D01*
X144471Y84044D01*
X144545Y83914D01*
X144601Y83785D01*
X144694Y83600D01*
X144768Y83488D01*
X144805Y83414D01*
X144823Y83396D01*
X144953Y83266D01*
X145101Y83155D01*
X145231Y83081D01*
X145360Y83044D01*
X145490Y83007D01*
X145582Y82989D01*
X145656D01*
X145842Y83007D01*
X146008Y83062D01*
X146156Y83137D01*
X146286Y83211D01*
X146397Y83285D01*
X146471Y83359D01*
X146508Y83414D01*
X146527Y83433D01*
X146638Y83618D01*
X146730Y83840D01*
X146786Y84044D01*
X146841Y84248D01*
X146860Y84433D01*
X146878Y84599D01*
Y84692D01*
Y84729D01*
X146860Y85025D01*
X146823Y85285D01*
X146749Y85507D01*
X146675Y85692D01*
X146601Y85840D01*
X146527Y85951D01*
X146490Y86007D01*
X146471Y86025D01*
X146286Y86192D01*
X146082Y86321D01*
X145842Y86414D01*
X145619Y86507D01*
X145397Y86562D01*
X145231Y86599D01*
X145156Y86618D01*
X145101Y86636D01*
X145064D01*
X145175Y88710D01*
X145508Y88692D01*
X145823Y88636D01*
X146101Y88581D01*
X146379Y88506D01*
X146619Y88432D01*
X146860Y88340D01*
X147064Y88229D01*
X147249Y88136D01*
X147416Y88043D01*
X147564Y87951D01*
X147693Y87858D01*
X147786Y87784D01*
X147860Y87710D01*
X147934Y87655D01*
X147952Y87636D01*
X147971Y87618D01*
X148156Y87414D01*
X148304Y87210D01*
X148434Y86969D01*
X148545Y86747D01*
X148730Y86266D01*
X148841Y85822D01*
X148897Y85599D01*
X148915Y85414D01*
X148934Y85229D01*
X148952Y85081D01*
X148971Y84951D01*
Y84859D01*
Y84803D01*
Y84785D01*
X148952Y84359D01*
X148897Y83951D01*
X148841Y83618D01*
X148767Y83322D01*
X148675Y83081D01*
X148619Y82896D01*
X148563Y82785D01*
X148545Y82766D01*
Y82748D01*
X148378Y82451D01*
X148175Y82211D01*
X147971Y81989D01*
X147767Y81803D01*
X147582Y81655D01*
X147434Y81563D01*
X147341Y81489D01*
X147323Y81470D01*
X147304D01*
X146990Y81322D01*
X146675Y81211D01*
X146360Y81118D01*
X146082Y81063D01*
X145842Y81026D01*
X145638Y81007D01*
X145471D01*
X145156Y81026D01*
X144842Y81063D01*
X144564Y81118D01*
X144323Y81192D01*
X144120Y81248D01*
X143953Y81304D01*
X143860Y81341D01*
X143823Y81359D01*
X143546Y81507D01*
X143305Y81674D01*
X143101Y81840D01*
X142935Y81989D01*
X142786Y82137D01*
X142694Y82248D01*
X142620Y82322D01*
X142601Y82340D01*
X142435Y82600D01*
X142268Y82896D01*
X142120Y83229D01*
X141990Y83544D01*
X141879Y83840D01*
X141842Y83951D01*
X141805Y84062D01*
X141768Y84155D01*
X141749Y84229D01*
X141731Y84266D01*
Y84285D01*
X141657Y84544D01*
X141583Y84785D01*
X141509Y85007D01*
X141435Y85192D01*
X141379Y85377D01*
X141323Y85525D01*
X141286Y85655D01*
X141250Y85766D01*
X141175Y85933D01*
X141120Y86062D01*
X141101Y86118D01*
X141083Y86136D01*
X141009Y86266D01*
X140935Y86396D01*
X140842Y86488D01*
X140768Y86562D01*
X140657Y86673D01*
X140620Y86710D01*
X140601D01*
X140490Y86784D01*
X140361Y86821D01*
X140139Y86896D01*
X140027D01*
X139953Y86914D01*
X139879D01*
X139620Y86896D01*
X139379Y86821D01*
X139176Y86747D01*
X138990Y86636D01*
X138861Y86544D01*
X138750Y86451D01*
X138676Y86377D01*
X138657Y86358D01*
X138490Y86136D01*
X138379Y85896D01*
X138287Y85655D01*
X138231Y85433D01*
X138194Y85211D01*
X138176Y85044D01*
Y84933D01*
Y84914D01*
Y84896D01*
X138194Y84562D01*
X138287Y84248D01*
X138398Y83988D01*
X138546Y83748D01*
X138731Y83525D01*
X138935Y83340D01*
X139157Y83192D01*
X139379Y83062D01*
X139601Y82951D01*
X139824Y82859D01*
X140027Y82785D01*
X140212Y82729D01*
X140361Y82692D01*
X140472Y82674D01*
X140564Y82655D01*
X140583D01*
X140342Y80637D01*
X139953Y80692D01*
X139583Y80748D01*
X139250Y80841D01*
X138916Y80933D01*
X138620Y81063D01*
X138342Y81192D01*
X138102Y81322D01*
X137861Y81470D01*
X137639Y81637D01*
X137435Y81803D01*
X137102Y82155D01*
X136805Y82526D01*
X136583Y82896D01*
X136398Y83266D01*
X136269Y83618D01*
X136176Y83951D01*
X136120Y84248D01*
X136083Y84488D01*
X136046Y84674D01*
Y84748D01*
Y84803D01*
Y84822D01*
Y84840D01*
X136065Y85229D01*
X136102Y85581D01*
X136139Y85914D01*
X136213Y86229D01*
X136306Y86507D01*
X136398Y86766D01*
X136491Y87007D01*
X136602Y87210D01*
X136694Y87377D01*
X136787Y87544D01*
X136880Y87673D01*
X136972Y87784D01*
X137046Y87858D01*
X137083Y87914D01*
X137120Y87951D01*
X137139Y87969D01*
X137361Y88155D01*
X137583Y88303D01*
X137805Y88451D01*
X138028Y88562D01*
X138490Y88747D01*
X138935Y88858D01*
X139120Y88895D01*
X139305Y88932D01*
X139472Y88951D01*
X139601Y88969D01*
X139731Y88988D01*
X139879D01*
X140287Y88969D01*
D02*
G37*
G36*
X148767Y99579D02*
X146656D01*
Y102635D01*
X136250D01*
Y104708D01*
X146656D01*
Y107745D01*
X148767D01*
Y99579D01*
D02*
G37*
G36*
X138361Y92821D02*
X141768D01*
Y97987D01*
X143879D01*
Y92821D01*
X146656D01*
Y98376D01*
X148767D01*
Y90747D01*
X136250D01*
Y98561D01*
X138361D01*
Y92821D01*
D02*
G37*
G36*
X115287Y81868D02*
X115657Y81831D01*
X115990Y81776D01*
X116268Y81701D01*
X116490Y81627D01*
X116657Y81572D01*
X116768Y81535D01*
X116805Y81516D01*
X117083Y81368D01*
X117342Y81202D01*
X117564Y81016D01*
X117749Y80850D01*
X117898Y80683D01*
X117990Y80554D01*
X118064Y80479D01*
X118083Y80442D01*
X118175Y80313D01*
X118268Y80146D01*
X118453Y79794D01*
X118601Y79424D01*
X118749Y79054D01*
X118879Y78720D01*
X118916Y78572D01*
X118971Y78443D01*
X119008Y78331D01*
X119027Y78257D01*
X119045Y78202D01*
Y78183D01*
X119120Y77924D01*
X119194Y77683D01*
X119268Y77461D01*
X119342Y77276D01*
X119416Y77091D01*
X119471Y76943D01*
X119545Y76813D01*
X119601Y76684D01*
X119694Y76498D01*
X119768Y76387D01*
X119805Y76313D01*
X119823Y76295D01*
X119953Y76165D01*
X120101Y76054D01*
X120231Y75980D01*
X120360Y75943D01*
X120490Y75906D01*
X120582Y75887D01*
X120656D01*
X120842Y75906D01*
X121008Y75961D01*
X121156Y76035D01*
X121286Y76109D01*
X121397Y76184D01*
X121471Y76258D01*
X121508Y76313D01*
X121527Y76332D01*
X121638Y76517D01*
X121730Y76739D01*
X121786Y76943D01*
X121841Y77146D01*
X121860Y77332D01*
X121878Y77498D01*
Y77591D01*
Y77628D01*
X121860Y77924D01*
X121823Y78183D01*
X121749Y78406D01*
X121675Y78591D01*
X121601Y78739D01*
X121527Y78850D01*
X121490Y78906D01*
X121471Y78924D01*
X121286Y79091D01*
X121082Y79220D01*
X120842Y79313D01*
X120619Y79405D01*
X120397Y79461D01*
X120231Y79498D01*
X120156Y79517D01*
X120101Y79535D01*
X120064D01*
X120175Y81609D01*
X120508Y81590D01*
X120823Y81535D01*
X121101Y81479D01*
X121379Y81405D01*
X121619Y81331D01*
X121860Y81239D01*
X122064Y81128D01*
X122249Y81035D01*
X122416Y80942D01*
X122564Y80850D01*
X122693Y80757D01*
X122786Y80683D01*
X122860Y80609D01*
X122934Y80554D01*
X122952Y80535D01*
X122971Y80517D01*
X123156Y80313D01*
X123304Y80109D01*
X123434Y79868D01*
X123545Y79646D01*
X123730Y79165D01*
X123841Y78720D01*
X123897Y78498D01*
X123915Y78313D01*
X123934Y78128D01*
X123952Y77980D01*
X123971Y77850D01*
Y77758D01*
Y77702D01*
Y77683D01*
X123952Y77257D01*
X123897Y76850D01*
X123841Y76517D01*
X123767Y76221D01*
X123675Y75980D01*
X123619Y75795D01*
X123563Y75684D01*
X123545Y75665D01*
Y75647D01*
X123378Y75350D01*
X123175Y75110D01*
X122971Y74887D01*
X122767Y74702D01*
X122582Y74554D01*
X122434Y74461D01*
X122341Y74387D01*
X122323Y74369D01*
X122304D01*
X121990Y74221D01*
X121675Y74110D01*
X121360Y74017D01*
X121082Y73962D01*
X120842Y73924D01*
X120638Y73906D01*
X120471D01*
X120156Y73924D01*
X119842Y73962D01*
X119564Y74017D01*
X119323Y74091D01*
X119120Y74147D01*
X118953Y74202D01*
X118860Y74239D01*
X118823Y74258D01*
X118546Y74406D01*
X118305Y74573D01*
X118101Y74739D01*
X117935Y74887D01*
X117786Y75036D01*
X117694Y75147D01*
X117620Y75221D01*
X117601Y75239D01*
X117435Y75498D01*
X117268Y75795D01*
X117120Y76128D01*
X116990Y76443D01*
X116879Y76739D01*
X116842Y76850D01*
X116805Y76961D01*
X116768Y77054D01*
X116749Y77128D01*
X116731Y77165D01*
Y77183D01*
X116657Y77443D01*
X116583Y77683D01*
X116509Y77906D01*
X116435Y78091D01*
X116379Y78276D01*
X116323Y78424D01*
X116286Y78554D01*
X116250Y78665D01*
X116175Y78831D01*
X116120Y78961D01*
X116101Y79017D01*
X116083Y79035D01*
X116009Y79165D01*
X115935Y79294D01*
X115842Y79387D01*
X115768Y79461D01*
X115657Y79572D01*
X115620Y79609D01*
X115601D01*
X115490Y79683D01*
X115361Y79720D01*
X115139Y79794D01*
X115027D01*
X114953Y79813D01*
X114879D01*
X114620Y79794D01*
X114379Y79720D01*
X114176Y79646D01*
X113990Y79535D01*
X113861Y79443D01*
X113750Y79350D01*
X113676Y79276D01*
X113657Y79257D01*
X113490Y79035D01*
X113379Y78794D01*
X113287Y78554D01*
X113231Y78331D01*
X113194Y78109D01*
X113176Y77943D01*
Y77832D01*
Y77813D01*
Y77794D01*
X113194Y77461D01*
X113287Y77146D01*
X113398Y76887D01*
X113546Y76646D01*
X113731Y76424D01*
X113935Y76239D01*
X114157Y76091D01*
X114379Y75961D01*
X114601Y75850D01*
X114824Y75758D01*
X115027Y75684D01*
X115212Y75628D01*
X115361Y75591D01*
X115472Y75573D01*
X115564Y75554D01*
X115583D01*
X115342Y73536D01*
X114953Y73591D01*
X114583Y73647D01*
X114250Y73739D01*
X113916Y73832D01*
X113620Y73962D01*
X113342Y74091D01*
X113102Y74221D01*
X112861Y74369D01*
X112639Y74536D01*
X112435Y74702D01*
X112102Y75054D01*
X111805Y75424D01*
X111583Y75795D01*
X111398Y76165D01*
X111269Y76517D01*
X111176Y76850D01*
X111120Y77146D01*
X111083Y77387D01*
X111046Y77572D01*
Y77646D01*
Y77702D01*
Y77720D01*
Y77739D01*
X111065Y78128D01*
X111102Y78480D01*
X111139Y78813D01*
X111213Y79128D01*
X111306Y79405D01*
X111398Y79665D01*
X111491Y79905D01*
X111602Y80109D01*
X111694Y80276D01*
X111787Y80442D01*
X111880Y80572D01*
X111972Y80683D01*
X112046Y80757D01*
X112083Y80813D01*
X112120Y80850D01*
X112139Y80868D01*
X112361Y81053D01*
X112583Y81202D01*
X112805Y81350D01*
X113028Y81461D01*
X113490Y81646D01*
X113935Y81757D01*
X114120Y81794D01*
X114305Y81831D01*
X114472Y81850D01*
X114601Y81868D01*
X114731Y81887D01*
X114879D01*
X115287Y81868D01*
D02*
G37*
G36*
X97017Y94496D02*
X88259Y92923D01*
X97017Y91108D01*
Y88645D01*
X88407Y86775D01*
X97017Y85238D01*
Y83127D01*
X84500Y85553D01*
Y87812D01*
X93851Y89849D01*
X84500Y91904D01*
Y94108D01*
X97017Y96589D01*
Y94496D01*
D02*
G37*
G36*
X88537Y82368D02*
X88907Y82331D01*
X89240Y82276D01*
X89518Y82201D01*
X89740Y82127D01*
X89907Y82072D01*
X90018Y82035D01*
X90055Y82016D01*
X90333Y81868D01*
X90592Y81702D01*
X90814Y81516D01*
X90999Y81350D01*
X91147Y81183D01*
X91240Y81053D01*
X91314Y80979D01*
X91333Y80942D01*
X91425Y80813D01*
X91518Y80646D01*
X91703Y80294D01*
X91851Y79924D01*
X91999Y79554D01*
X92129Y79220D01*
X92166Y79072D01*
X92221Y78943D01*
X92259Y78832D01*
X92277Y78757D01*
X92296Y78702D01*
Y78683D01*
X92370Y78424D01*
X92444Y78183D01*
X92518Y77961D01*
X92592Y77776D01*
X92666Y77591D01*
X92721Y77443D01*
X92795Y77313D01*
X92851Y77183D01*
X92944Y76998D01*
X93018Y76887D01*
X93055Y76813D01*
X93073Y76795D01*
X93203Y76665D01*
X93351Y76554D01*
X93481Y76480D01*
X93610Y76443D01*
X93740Y76406D01*
X93832Y76387D01*
X93906D01*
X94092Y76406D01*
X94258Y76461D01*
X94406Y76535D01*
X94536Y76610D01*
X94647Y76684D01*
X94721Y76758D01*
X94758Y76813D01*
X94777Y76832D01*
X94888Y77017D01*
X94980Y77239D01*
X95036Y77443D01*
X95091Y77646D01*
X95110Y77832D01*
X95128Y77998D01*
Y78091D01*
Y78128D01*
X95110Y78424D01*
X95073Y78683D01*
X94999Y78906D01*
X94925Y79091D01*
X94851Y79239D01*
X94777Y79350D01*
X94740Y79405D01*
X94721Y79424D01*
X94536Y79591D01*
X94332Y79720D01*
X94092Y79813D01*
X93869Y79906D01*
X93647Y79961D01*
X93481Y79998D01*
X93406Y80017D01*
X93351Y80035D01*
X93314D01*
X93425Y82109D01*
X93758Y82090D01*
X94073Y82035D01*
X94351Y81979D01*
X94629Y81905D01*
X94869Y81831D01*
X95110Y81739D01*
X95314Y81628D01*
X95499Y81535D01*
X95666Y81442D01*
X95814Y81350D01*
X95943Y81257D01*
X96036Y81183D01*
X96110Y81109D01*
X96184Y81053D01*
X96202Y81035D01*
X96221Y81016D01*
X96406Y80813D01*
X96554Y80609D01*
X96684Y80368D01*
X96795Y80146D01*
X96980Y79665D01*
X97091Y79220D01*
X97147Y78998D01*
X97165Y78813D01*
X97184Y78628D01*
X97202Y78480D01*
X97221Y78350D01*
Y78257D01*
Y78202D01*
Y78183D01*
X97202Y77758D01*
X97147Y77350D01*
X97091Y77017D01*
X97017Y76721D01*
X96925Y76480D01*
X96869Y76295D01*
X96813Y76184D01*
X96795Y76165D01*
Y76147D01*
X96628Y75850D01*
X96425Y75610D01*
X96221Y75387D01*
X96017Y75202D01*
X95832Y75054D01*
X95684Y74962D01*
X95591Y74887D01*
X95573Y74869D01*
X95554D01*
X95240Y74721D01*
X94925Y74610D01*
X94610Y74517D01*
X94332Y74462D01*
X94092Y74425D01*
X93888Y74406D01*
X93721D01*
X93406Y74425D01*
X93092Y74462D01*
X92814Y74517D01*
X92573Y74591D01*
X92370Y74647D01*
X92203Y74702D01*
X92110Y74739D01*
X92073Y74758D01*
X91796Y74906D01*
X91555Y75073D01*
X91351Y75239D01*
X91185Y75387D01*
X91036Y75535D01*
X90944Y75647D01*
X90870Y75721D01*
X90851Y75739D01*
X90685Y75999D01*
X90518Y76295D01*
X90370Y76628D01*
X90240Y76943D01*
X90129Y77239D01*
X90092Y77350D01*
X90055Y77461D01*
X90018Y77554D01*
X89999Y77628D01*
X89981Y77665D01*
Y77684D01*
X89907Y77943D01*
X89833Y78183D01*
X89759Y78406D01*
X89685Y78591D01*
X89629Y78776D01*
X89574Y78924D01*
X89537Y79054D01*
X89500Y79165D01*
X89425Y79331D01*
X89370Y79461D01*
X89351Y79517D01*
X89333Y79535D01*
X89259Y79665D01*
X89185Y79794D01*
X89092Y79887D01*
X89018Y79961D01*
X88907Y80072D01*
X88870Y80109D01*
X88851D01*
X88740Y80183D01*
X88611Y80220D01*
X88389Y80294D01*
X88277D01*
X88203Y80313D01*
X88129D01*
X87870Y80294D01*
X87629Y80220D01*
X87426Y80146D01*
X87240Y80035D01*
X87111Y79942D01*
X87000Y79850D01*
X86926Y79776D01*
X86907Y79757D01*
X86741Y79535D01*
X86629Y79294D01*
X86537Y79054D01*
X86481Y78832D01*
X86444Y78609D01*
X86426Y78443D01*
Y78331D01*
Y78313D01*
Y78295D01*
X86444Y77961D01*
X86537Y77646D01*
X86648Y77387D01*
X86796Y77147D01*
X86981Y76924D01*
X87185Y76739D01*
X87407Y76591D01*
X87629Y76461D01*
X87851Y76350D01*
X88074Y76258D01*
X88277Y76184D01*
X88463Y76128D01*
X88611Y76091D01*
X88722Y76073D01*
X88814Y76054D01*
X88833D01*
X88592Y74036D01*
X88203Y74091D01*
X87833Y74147D01*
X87500Y74239D01*
X87166Y74332D01*
X86870Y74462D01*
X86592Y74591D01*
X86352Y74721D01*
X86111Y74869D01*
X85889Y75036D01*
X85685Y75202D01*
X85352Y75554D01*
X85056Y75924D01*
X84833Y76295D01*
X84648Y76665D01*
X84518Y77017D01*
X84426Y77350D01*
X84370Y77646D01*
X84333Y77887D01*
X84296Y78072D01*
Y78146D01*
Y78202D01*
Y78220D01*
Y78239D01*
X84315Y78628D01*
X84352Y78980D01*
X84389Y79313D01*
X84463Y79628D01*
X84556Y79906D01*
X84648Y80165D01*
X84741Y80405D01*
X84852Y80609D01*
X84944Y80776D01*
X85037Y80942D01*
X85130Y81072D01*
X85222Y81183D01*
X85296Y81257D01*
X85333Y81313D01*
X85370Y81350D01*
X85389Y81368D01*
X85611Y81553D01*
X85833Y81702D01*
X86055Y81850D01*
X86278Y81961D01*
X86741Y82146D01*
X87185Y82257D01*
X87370Y82294D01*
X87555Y82331D01*
X87722Y82350D01*
X87851Y82368D01*
X87981Y82387D01*
X88129D01*
X88537Y82368D01*
D02*
G37*
G36*
X91277Y106255D02*
X91851Y106217D01*
X92129Y106199D01*
X92370Y106162D01*
X92592Y106125D01*
X92795Y106106D01*
X92981Y106069D01*
X93147Y106032D01*
X93295Y105995D01*
X93406Y105977D01*
X93499Y105958D01*
X93573Y105940D01*
X93610Y105921D01*
X93629D01*
X94073Y105773D01*
X94462Y105625D01*
X94795Y105458D01*
X95073Y105292D01*
X95314Y105162D01*
X95480Y105051D01*
X95573Y104977D01*
X95610Y104940D01*
X95869Y104699D01*
X96091Y104477D01*
X96277Y104236D01*
X96425Y104033D01*
X96536Y103847D01*
X96628Y103718D01*
X96665Y103625D01*
X96684Y103588D01*
X96795Y103292D01*
X96869Y102940D01*
X96943Y102588D01*
X96980Y102236D01*
X96999Y101922D01*
Y101792D01*
X97017Y101681D01*
Y101570D01*
Y101496D01*
Y101459D01*
Y101440D01*
Y97663D01*
X84500D01*
Y101551D01*
X84518Y101996D01*
X84556Y102403D01*
X84611Y102755D01*
X84685Y103051D01*
X84741Y103292D01*
X84796Y103459D01*
X84833Y103570D01*
X84852Y103607D01*
X85000Y103903D01*
X85167Y104162D01*
X85333Y104384D01*
X85500Y104588D01*
X85648Y104736D01*
X85778Y104866D01*
X85852Y104940D01*
X85889Y104958D01*
X86166Y105162D01*
X86481Y105347D01*
X86796Y105514D01*
X87111Y105644D01*
X87370Y105755D01*
X87592Y105829D01*
X87685Y105866D01*
X87740Y105884D01*
X87777Y105903D01*
X87796D01*
X88259Y106032D01*
X88740Y106125D01*
X89222Y106180D01*
X89666Y106236D01*
X89870D01*
X90055Y106255D01*
X90222D01*
X90351Y106273D01*
X90629D01*
X91277Y106255D01*
D02*
G37*
G36*
X91314Y121531D02*
X91851Y121494D01*
X92351Y121420D01*
X92814Y121327D01*
X93240Y121235D01*
X93629Y121105D01*
X93981Y120994D01*
X94314Y120864D01*
X94592Y120735D01*
X94832Y120605D01*
X95055Y120475D01*
X95221Y120383D01*
X95369Y120290D01*
X95462Y120216D01*
X95517Y120179D01*
X95536Y120161D01*
X95832Y119883D01*
X96091Y119605D01*
X96314Y119309D01*
X96517Y119012D01*
X96665Y118716D01*
X96813Y118420D01*
X96925Y118124D01*
X97017Y117846D01*
X97073Y117587D01*
X97128Y117346D01*
X97165Y117124D01*
X97202Y116939D01*
Y116791D01*
X97221Y116661D01*
Y116587D01*
Y116568D01*
X97184Y116013D01*
X97110Y115513D01*
X96999Y115069D01*
X96869Y114680D01*
X96795Y114531D01*
X96721Y114383D01*
X96665Y114254D01*
X96610Y114143D01*
X96573Y114069D01*
X96536Y114013D01*
X96499Y113976D01*
Y113958D01*
X96202Y113587D01*
X95869Y113235D01*
X95517Y112958D01*
X95166Y112698D01*
X94851Y112495D01*
X94703Y112421D01*
X94592Y112365D01*
X94480Y112310D01*
X94406Y112273D01*
X94369Y112235D01*
X94351D01*
X94073Y112124D01*
X93777Y112013D01*
X93166Y111865D01*
X92555Y111754D01*
X91962Y111661D01*
X91703Y111643D01*
X91444Y111624D01*
X91222Y111606D01*
X91036D01*
X90888Y111587D01*
X90666D01*
X90111Y111606D01*
X89574Y111643D01*
X89074Y111717D01*
X88611Y111810D01*
X88185Y111921D01*
X87796Y112050D01*
X87426Y112180D01*
X87092Y112328D01*
X86815Y112458D01*
X86555Y112587D01*
X86333Y112717D01*
X86148Y112828D01*
X86018Y112921D01*
X85907Y112995D01*
X85852Y113032D01*
X85833Y113050D01*
X85555Y113309D01*
X85333Y113569D01*
X85130Y113865D01*
X84944Y114143D01*
X84796Y114439D01*
X84667Y114735D01*
X84574Y115013D01*
X84481Y115291D01*
X84426Y115550D01*
X84370Y115791D01*
X84352Y116013D01*
X84315Y116198D01*
Y116346D01*
X84296Y116476D01*
Y116550D01*
Y116568D01*
X84315Y116976D01*
X84370Y117346D01*
X84445Y117716D01*
X84537Y118050D01*
X84667Y118364D01*
X84796Y118642D01*
X84926Y118901D01*
X85074Y119142D01*
X85222Y119364D01*
X85352Y119550D01*
X85500Y119698D01*
X85611Y119827D01*
X85704Y119938D01*
X85778Y120012D01*
X85833Y120049D01*
X85852Y120068D01*
X86203Y120327D01*
X86574Y120549D01*
X86963Y120753D01*
X87370Y120920D01*
X87777Y121068D01*
X88185Y121198D01*
X88574Y121290D01*
X88962Y121364D01*
X89333Y121420D01*
X89666Y121475D01*
X89981Y121512D01*
X90240Y121531D01*
X90462Y121549D01*
X90759D01*
X91314Y121531D01*
D02*
G37*
G36*
X97017Y107958D02*
X84500D01*
Y110032D01*
X97017D01*
Y107958D01*
D02*
G37*
G36*
X90240Y69184D02*
X87833D01*
Y73073D01*
X90240D01*
Y69184D01*
D02*
G37*
G36*
X115879Y103736D02*
X115379Y103625D01*
X114972Y103477D01*
X114620Y103347D01*
X114342Y103199D01*
X114120Y103070D01*
X113972Y102959D01*
X113879Y102885D01*
X113842Y102866D01*
X113639Y102644D01*
X113472Y102403D01*
X113361Y102162D01*
X113287Y101940D01*
X113250Y101755D01*
X113231Y101588D01*
X113213Y101496D01*
Y101477D01*
Y101459D01*
X113231Y101255D01*
X113250Y101070D01*
X113361Y100700D01*
X113527Y100403D01*
X113713Y100144D01*
X113879Y99922D01*
X114046Y99774D01*
X114157Y99681D01*
X114176Y99644D01*
X114194D01*
X114398Y99533D01*
X114620Y99422D01*
X114879Y99329D01*
X115139Y99255D01*
X115694Y99126D01*
X116250Y99052D01*
X116509Y99015D01*
X116749Y98996D01*
X116972Y98977D01*
X117157D01*
X117323Y98959D01*
X117953D01*
X118342Y98996D01*
X118694Y99033D01*
X119008Y99070D01*
X119305Y99126D01*
X119583Y99181D01*
X119823Y99237D01*
X120027Y99311D01*
X120212Y99385D01*
X120379Y99440D01*
X120508Y99496D01*
X120619Y99551D01*
X120694Y99607D01*
X120767Y99626D01*
X120786Y99663D01*
X120805D01*
X120990Y99811D01*
X121138Y99959D01*
X121267Y100107D01*
X121379Y100255D01*
X121564Y100570D01*
X121675Y100866D01*
X121749Y101125D01*
X121786Y101329D01*
X121805Y101403D01*
Y101459D01*
Y101496D01*
Y101514D01*
X121786Y101811D01*
X121712Y102070D01*
X121638Y102292D01*
X121527Y102496D01*
X121434Y102662D01*
X121341Y102792D01*
X121267Y102866D01*
X121249Y102885D01*
X121027Y103088D01*
X120786Y103255D01*
X120527Y103403D01*
X120268Y103514D01*
X120045Y103588D01*
X119860Y103644D01*
X119786Y103662D01*
X119731D01*
X119712Y103681D01*
X119694D01*
X120286Y105736D01*
X120582Y105662D01*
X120860Y105569D01*
X121119Y105477D01*
X121379Y105384D01*
X121601Y105273D01*
X121805Y105181D01*
X121971Y105070D01*
X122138Y104977D01*
X122286Y104884D01*
X122416Y104792D01*
X122527Y104718D01*
X122619Y104644D01*
X122675Y104588D01*
X122730Y104551D01*
X122767Y104532D01*
Y104514D01*
X122971Y104292D01*
X123156Y104051D01*
X123323Y103810D01*
X123471Y103570D01*
X123582Y103329D01*
X123675Y103088D01*
X123823Y102625D01*
X123878Y102422D01*
X123915Y102236D01*
X123934Y102070D01*
X123952Y101922D01*
X123971Y101792D01*
Y101699D01*
Y101644D01*
Y101625D01*
X123952Y101236D01*
X123897Y100866D01*
X123823Y100533D01*
X123730Y100200D01*
X123601Y99903D01*
X123471Y99626D01*
X123323Y99366D01*
X123193Y99144D01*
X123045Y98940D01*
X122897Y98755D01*
X122767Y98607D01*
X122638Y98478D01*
X122545Y98385D01*
X122471Y98311D01*
X122416Y98274D01*
X122397Y98255D01*
X122045Y97996D01*
X121656Y97774D01*
X121267Y97589D01*
X120860Y97422D01*
X120434Y97274D01*
X120027Y97163D01*
X119620Y97070D01*
X119212Y96996D01*
X118842Y96941D01*
X118509Y96885D01*
X118194Y96848D01*
X117916Y96830D01*
X117712D01*
X117546Y96811D01*
X117397D01*
X116842Y96830D01*
X116323Y96867D01*
X115824Y96941D01*
X115361Y97033D01*
X114935Y97144D01*
X114546Y97255D01*
X114176Y97385D01*
X113861Y97533D01*
X113565Y97663D01*
X113305Y97792D01*
X113083Y97903D01*
X112916Y98015D01*
X112768Y98107D01*
X112657Y98181D01*
X112602Y98218D01*
X112583Y98237D01*
X112305Y98478D01*
X112083Y98737D01*
X111880Y98996D01*
X111694Y99274D01*
X111546Y99551D01*
X111417Y99811D01*
X111324Y100070D01*
X111231Y100329D01*
X111176Y100570D01*
X111120Y100792D01*
X111102Y100996D01*
X111065Y101163D01*
Y101311D01*
X111046Y101403D01*
Y101477D01*
Y101496D01*
X111065Y101792D01*
X111083Y102070D01*
X111194Y102588D01*
X111343Y103051D01*
X111435Y103255D01*
X111528Y103440D01*
X111620Y103607D01*
X111713Y103755D01*
X111787Y103884D01*
X111861Y103977D01*
X111917Y104070D01*
X111972Y104125D01*
X111991Y104162D01*
X112009Y104181D01*
X112213Y104384D01*
X112416Y104570D01*
X112898Y104884D01*
X113416Y105162D01*
X113916Y105384D01*
X114157Y105477D01*
X114379Y105551D01*
X114583Y105606D01*
X114750Y105662D01*
X114898Y105699D01*
X115009Y105736D01*
X115083Y105755D01*
X115101D01*
X115879Y103736D01*
D02*
G37*
G36*
X123767Y93996D02*
X115009Y92423D01*
X123767Y90608D01*
Y88145D01*
X115157Y86275D01*
X123767Y84738D01*
Y82627D01*
X111250Y85053D01*
Y87312D01*
X120601Y89349D01*
X111250Y91404D01*
Y93608D01*
X123767Y96089D01*
Y93996D01*
D02*
G37*
G36*
X113361Y109643D02*
X123675D01*
Y107569D01*
X111250D01*
Y114791D01*
X113361D01*
Y109643D01*
D02*
G37*
G36*
X97017Y65500D02*
X88648D01*
X88389Y65481D01*
X88166Y65462D01*
X87963Y65444D01*
X87777Y65426D01*
X87611Y65407D01*
X87463Y65370D01*
X87333Y65351D01*
X87129Y65277D01*
X87000Y65240D01*
X86926Y65203D01*
X86907Y65185D01*
X86759Y65055D01*
X86648Y64907D01*
X86574Y64740D01*
X86518Y64592D01*
X86481Y64444D01*
X86463Y64333D01*
Y64259D01*
Y64222D01*
X86481Y64000D01*
X86555Y63796D01*
X86666Y63629D01*
X86778Y63481D01*
X86889Y63389D01*
X87000Y63296D01*
X87074Y63259D01*
X87092Y63240D01*
X87296Y63148D01*
X87537Y63092D01*
X87796Y63037D01*
X88055Y63000D01*
X88296Y62981D01*
X88481Y62963D01*
X88666D01*
X88389Y61000D01*
X88018Y61019D01*
X87666Y61037D01*
X87333Y61074D01*
X87037Y61130D01*
X86759Y61185D01*
X86518Y61259D01*
X86278Y61333D01*
X86074Y61426D01*
X85907Y61500D01*
X85741Y61574D01*
X85611Y61648D01*
X85500Y61704D01*
X85426Y61759D01*
X85370Y61796D01*
X85333Y61833D01*
X85315D01*
X85130Y62000D01*
X84981Y62167D01*
X84852Y62352D01*
X84722Y62555D01*
X84537Y62926D01*
X84426Y63296D01*
X84352Y63629D01*
X84333Y63777D01*
X84315Y63907D01*
X84296Y64000D01*
Y64092D01*
Y64129D01*
Y64148D01*
X84315Y64555D01*
X84370Y64907D01*
X84463Y65222D01*
X84556Y65500D01*
X84630Y65722D01*
X84722Y65888D01*
X84778Y65981D01*
X84796Y66018D01*
X85000Y66296D01*
X85222Y66536D01*
X85463Y66722D01*
X85704Y66888D01*
X85907Y67018D01*
X86074Y67111D01*
X86185Y67166D01*
X86203Y67185D01*
X86222D01*
X86407Y67259D01*
X86611Y67314D01*
X87074Y67407D01*
X87537Y67481D01*
X88018Y67518D01*
X88222Y67536D01*
X88426Y67555D01*
X88611D01*
X88777Y67573D01*
X97017D01*
Y65500D01*
D02*
G37*
G36*
X118916Y121549D02*
X123767Y125401D01*
Y122605D01*
X118175Y118401D01*
X123767D01*
Y116328D01*
X111250D01*
Y118401D01*
X115027D01*
X117120Y120086D01*
X111250Y122882D01*
Y125586D01*
X118916Y121549D01*
D02*
G37*
G36*
X252250Y256000D02*
X250176D01*
Y260722D01*
X248491D01*
X248176Y260740D01*
X247880Y260759D01*
X247621Y260777D01*
X247380Y260814D01*
X247176Y260833D01*
X246973Y260870D01*
X246806Y260907D01*
X246658Y260944D01*
X246528Y260981D01*
X246436Y261000D01*
X246343Y261036D01*
X246269Y261055D01*
X246232Y261073D01*
X246195Y261092D01*
X245917Y261259D01*
X245658Y261444D01*
X245436Y261666D01*
X245251Y261870D01*
X245103Y262055D01*
X244991Y262222D01*
X244917Y262333D01*
X244899Y262351D01*
Y262370D01*
X244732Y262740D01*
X244603Y263110D01*
X244510Y263499D01*
X244436Y263851D01*
X244399Y264166D01*
Y264314D01*
X244380Y264425D01*
Y264518D01*
Y264592D01*
Y264629D01*
Y264647D01*
X244399Y265184D01*
X244473Y265666D01*
X244566Y266073D01*
X244677Y266425D01*
X244751Y266591D01*
X244806Y266721D01*
X244843Y266832D01*
X244899Y266925D01*
X244936Y266999D01*
X244973Y267054D01*
X244991Y267073D01*
Y267091D01*
X245232Y267425D01*
X245473Y267684D01*
X245732Y267906D01*
X245954Y268073D01*
X246176Y268184D01*
X246343Y268277D01*
X246454Y268314D01*
X246473Y268332D01*
X246491D01*
X246621Y268369D01*
X246769Y268388D01*
X246936Y268425D01*
X247121Y268443D01*
X247510Y268480D01*
X247936Y268499D01*
X248306Y268517D01*
X252250D01*
Y256000D01*
D02*
G37*
G36*
X68964Y270202D02*
X69372Y270147D01*
X69705Y270091D01*
X70001Y270017D01*
X70242Y269925D01*
X70427Y269869D01*
X70538Y269813D01*
X70557Y269795D01*
X70575D01*
X70872Y269628D01*
X71112Y269425D01*
X71335Y269221D01*
X71520Y269017D01*
X71668Y268832D01*
X71760Y268684D01*
X71834Y268591D01*
X71853Y268573D01*
Y268554D01*
X72001Y268240D01*
X72112Y267925D01*
X72205Y267610D01*
X72260Y267332D01*
X72297Y267092D01*
X72316Y266888D01*
Y266814D01*
Y266758D01*
Y266740D01*
Y266721D01*
X72297Y266406D01*
X72260Y266092D01*
X72205Y265814D01*
X72131Y265573D01*
X72075Y265369D01*
X72020Y265203D01*
X71983Y265110D01*
X71964Y265073D01*
X71816Y264795D01*
X71649Y264555D01*
X71483Y264351D01*
X71335Y264184D01*
X71186Y264036D01*
X71075Y263944D01*
X71001Y263870D01*
X70983Y263851D01*
X70723Y263685D01*
X70427Y263518D01*
X70094Y263370D01*
X69779Y263240D01*
X69483Y263129D01*
X69372Y263092D01*
X69261Y263055D01*
X69168Y263018D01*
X69094Y262999D01*
X69057Y262981D01*
X69038D01*
X68779Y262907D01*
X68538Y262833D01*
X68316Y262759D01*
X68131Y262685D01*
X67946Y262629D01*
X67798Y262574D01*
X67668Y262537D01*
X67557Y262500D01*
X67390Y262425D01*
X67261Y262370D01*
X67205Y262351D01*
X67187Y262333D01*
X67057Y262259D01*
X66927Y262185D01*
X66835Y262092D01*
X66761Y262018D01*
X66650Y261907D01*
X66613Y261870D01*
Y261851D01*
X66539Y261740D01*
X66502Y261611D01*
X66428Y261388D01*
Y261277D01*
X66409Y261203D01*
Y261148D01*
Y261129D01*
X66428Y260870D01*
X66502Y260629D01*
X66576Y260426D01*
X66687Y260240D01*
X66779Y260111D01*
X66872Y260000D01*
X66946Y259926D01*
X66965Y259907D01*
X67187Y259741D01*
X67428Y259629D01*
X67668Y259537D01*
X67890Y259481D01*
X68113Y259444D01*
X68279Y259426D01*
X68427D01*
X68761Y259444D01*
X69075Y259537D01*
X69335Y259648D01*
X69575Y259796D01*
X69798Y259981D01*
X69983Y260185D01*
X70131Y260407D01*
X70261Y260629D01*
X70372Y260851D01*
X70464Y261074D01*
X70538Y261277D01*
X70594Y261462D01*
X70631Y261611D01*
X70649Y261722D01*
X70668Y261814D01*
Y261833D01*
X72686Y261592D01*
X72631Y261203D01*
X72575Y260833D01*
X72483Y260500D01*
X72390Y260166D01*
X72260Y259870D01*
X72131Y259592D01*
X72001Y259352D01*
X71853Y259111D01*
X71686Y258889D01*
X71520Y258685D01*
X71168Y258352D01*
X70798Y258055D01*
X70427Y257833D01*
X70057Y257648D01*
X69705Y257519D01*
X69372Y257426D01*
X69075Y257370D01*
X68835Y257333D01*
X68650Y257296D01*
X68483D01*
X68094Y257315D01*
X67742Y257352D01*
X67409Y257389D01*
X67094Y257463D01*
X66816Y257556D01*
X66557Y257648D01*
X66316Y257741D01*
X66113Y257852D01*
X65946Y257944D01*
X65780Y258037D01*
X65650Y258130D01*
X65539Y258222D01*
X65465Y258296D01*
X65409Y258333D01*
X65372Y258370D01*
X65354Y258389D01*
X65168Y258611D01*
X65020Y258833D01*
X64872Y259055D01*
X64761Y259278D01*
X64576Y259741D01*
X64465Y260185D01*
X64428Y260370D01*
X64391Y260555D01*
X64372Y260722D01*
X64354Y260851D01*
X64335Y260981D01*
Y261055D01*
Y261111D01*
Y261129D01*
X64354Y261537D01*
X64391Y261907D01*
X64446Y262240D01*
X64520Y262518D01*
X64594Y262740D01*
X64650Y262907D01*
X64687Y263018D01*
X64706Y263055D01*
X64854Y263333D01*
X65020Y263592D01*
X65205Y263814D01*
X65372Y263999D01*
X65539Y264147D01*
X65668Y264240D01*
X65743Y264314D01*
X65780Y264333D01*
X65909Y264425D01*
X66076Y264518D01*
X66428Y264703D01*
X66798Y264851D01*
X67168Y264999D01*
X67502Y265129D01*
X67650Y265166D01*
X67779Y265221D01*
X67890Y265258D01*
X67965Y265277D01*
X68020Y265296D01*
X68039D01*
X68298Y265369D01*
X68538Y265444D01*
X68761Y265518D01*
X68946Y265592D01*
X69131Y265666D01*
X69279Y265721D01*
X69409Y265795D01*
X69538Y265851D01*
X69724Y265944D01*
X69835Y266018D01*
X69909Y266055D01*
X69927Y266073D01*
X70057Y266203D01*
X70168Y266351D01*
X70242Y266481D01*
X70279Y266610D01*
X70316Y266740D01*
X70335Y266832D01*
Y266888D01*
Y266906D01*
X70316Y267092D01*
X70261Y267258D01*
X70186Y267406D01*
X70112Y267536D01*
X70038Y267647D01*
X69964Y267721D01*
X69909Y267758D01*
X69890Y267777D01*
X69705Y267888D01*
X69483Y267980D01*
X69279Y268036D01*
X69075Y268092D01*
X68890Y268110D01*
X68724Y268129D01*
X68594D01*
X68298Y268110D01*
X68039Y268073D01*
X67816Y267999D01*
X67631Y267925D01*
X67483Y267851D01*
X67372Y267777D01*
X67316Y267740D01*
X67298Y267721D01*
X67131Y267536D01*
X67002Y267332D01*
X66909Y267092D01*
X66816Y266869D01*
X66761Y266647D01*
X66724Y266481D01*
X66705Y266406D01*
X66687Y266351D01*
Y266332D01*
Y266314D01*
X64613Y266425D01*
X64632Y266758D01*
X64687Y267073D01*
X64743Y267351D01*
X64817Y267629D01*
X64891Y267869D01*
X64983Y268110D01*
X65094Y268314D01*
X65187Y268499D01*
X65279Y268666D01*
X65372Y268814D01*
X65465Y268943D01*
X65539Y269036D01*
X65613Y269110D01*
X65668Y269184D01*
X65687Y269202D01*
X65705Y269221D01*
X65909Y269406D01*
X66113Y269554D01*
X66354Y269684D01*
X66576Y269795D01*
X67057Y269980D01*
X67502Y270091D01*
X67724Y270147D01*
X67909Y270165D01*
X68094Y270184D01*
X68242Y270202D01*
X68372Y270221D01*
X68538D01*
X68964Y270202D01*
D02*
G37*
G36*
X73658Y238250D02*
X69770D01*
X69326Y238269D01*
X68918Y238305D01*
X68566Y238361D01*
X68270Y238435D01*
X68029Y238491D01*
X67863Y238546D01*
X67752Y238583D01*
X67715Y238602D01*
X67418Y238750D01*
X67159Y238917D01*
X66937Y239083D01*
X66733Y239250D01*
X66585Y239398D01*
X66455Y239528D01*
X66381Y239602D01*
X66363Y239639D01*
X66159Y239916D01*
X65974Y240231D01*
X65807Y240546D01*
X65678Y240861D01*
X65567Y241120D01*
X65493Y241342D01*
X65456Y241435D01*
X65437Y241490D01*
X65419Y241527D01*
Y241546D01*
X65289Y242009D01*
X65196Y242490D01*
X65141Y242972D01*
X65085Y243416D01*
Y243620D01*
X65067Y243805D01*
Y243972D01*
X65048Y244101D01*
Y244212D01*
Y244305D01*
Y244361D01*
Y244379D01*
X65067Y245027D01*
X65104Y245601D01*
X65122Y245879D01*
X65159Y246119D01*
X65196Y246342D01*
X65215Y246545D01*
X65252Y246731D01*
X65289Y246897D01*
X65326Y247045D01*
X65345Y247157D01*
X65363Y247249D01*
X65381Y247323D01*
X65400Y247360D01*
Y247379D01*
X65548Y247823D01*
X65696Y248212D01*
X65863Y248545D01*
X66030Y248823D01*
X66159Y249064D01*
X66270Y249230D01*
X66344Y249323D01*
X66381Y249360D01*
X66622Y249619D01*
X66844Y249841D01*
X67085Y250027D01*
X67289Y250175D01*
X67474Y250286D01*
X67604Y250378D01*
X67696Y250415D01*
X67733Y250434D01*
X68029Y250545D01*
X68381Y250619D01*
X68733Y250693D01*
X69085Y250730D01*
X69400Y250749D01*
X69529D01*
X69640Y250767D01*
X73658D01*
Y238250D01*
D02*
G37*
G36*
X63317Y267906D02*
X60262D01*
Y257500D01*
X58188D01*
Y267906D01*
X55151D01*
Y270017D01*
X63317D01*
Y267906D01*
D02*
G37*
G36*
X59697Y288684D02*
X60198Y288610D01*
X60642Y288499D01*
X61031Y288369D01*
X61179Y288295D01*
X61327Y288221D01*
X61457Y288165D01*
X61568Y288110D01*
X61642Y288073D01*
X61697Y288036D01*
X61734Y287999D01*
X61753D01*
X62123Y287703D01*
X62475Y287369D01*
X62753Y287017D01*
X63012Y286666D01*
X63216Y286351D01*
X63290Y286203D01*
X63345Y286092D01*
X63401Y285980D01*
X63438Y285906D01*
X63475Y285869D01*
Y285851D01*
X63586Y285573D01*
X63697Y285277D01*
X63845Y284666D01*
X63956Y284055D01*
X64049Y283462D01*
X64067Y283203D01*
X64086Y282944D01*
X64104Y282722D01*
Y282536D01*
X64123Y282388D01*
Y282259D01*
Y282185D01*
Y282166D01*
X64104Y281611D01*
X64067Y281074D01*
X63993Y280574D01*
X63901Y280111D01*
X63790Y279685D01*
X63660Y279296D01*
X63531Y278926D01*
X63382Y278592D01*
X63253Y278315D01*
X63123Y278055D01*
X62993Y277833D01*
X62882Y277648D01*
X62790Y277518D01*
X62716Y277407D01*
X62679Y277352D01*
X62660Y277333D01*
X62401Y277055D01*
X62142Y276833D01*
X61845Y276630D01*
X61568Y276444D01*
X61271Y276296D01*
X60975Y276167D01*
X60697Y276074D01*
X60420Y275982D01*
X60160Y275926D01*
X59920Y275870D01*
X59697Y275852D01*
X59512Y275815D01*
X59364D01*
X59235Y275796D01*
X59142D01*
X58735Y275815D01*
X58364Y275870D01*
X57994Y275944D01*
X57661Y276037D01*
X57346Y276167D01*
X57068Y276296D01*
X56809Y276426D01*
X56568Y276574D01*
X56346Y276722D01*
X56161Y276852D01*
X56013Y277000D01*
X55883Y277111D01*
X55772Y277204D01*
X55698Y277278D01*
X55661Y277333D01*
X55642Y277352D01*
X55383Y277703D01*
X55161Y278074D01*
X54957Y278463D01*
X54791Y278870D01*
X54643Y279277D01*
X54513Y279685D01*
X54420Y280074D01*
X54346Y280462D01*
X54291Y280833D01*
X54235Y281166D01*
X54198Y281481D01*
X54180Y281740D01*
X54161Y281962D01*
Y282129D01*
Y282222D01*
Y282259D01*
X54180Y282814D01*
X54217Y283351D01*
X54291Y283851D01*
X54383Y284314D01*
X54476Y284740D01*
X54605Y285129D01*
X54717Y285480D01*
X54846Y285814D01*
X54976Y286092D01*
X55105Y286332D01*
X55235Y286555D01*
X55328Y286721D01*
X55420Y286869D01*
X55494Y286962D01*
X55531Y287017D01*
X55550Y287036D01*
X55827Y287332D01*
X56105Y287591D01*
X56402Y287814D01*
X56698Y288017D01*
X56994Y288165D01*
X57290Y288314D01*
X57587Y288425D01*
X57864Y288517D01*
X58124Y288573D01*
X58364Y288628D01*
X58587Y288665D01*
X58772Y288702D01*
X58920D01*
X59049Y288721D01*
X59142D01*
X59697Y288684D01*
D02*
G37*
G36*
X82500Y257500D02*
X80426D01*
Y262722D01*
X79759D01*
X79556Y262703D01*
X79371Y262685D01*
X79222Y262648D01*
X79111Y262629D01*
X79037Y262592D01*
X79000Y262574D01*
X78982D01*
X78852Y262518D01*
X78741Y262425D01*
X78556Y262259D01*
X78482Y262185D01*
X78426Y262111D01*
X78389Y262074D01*
X78371Y262055D01*
X78315Y261981D01*
X78241Y261870D01*
X78149Y261759D01*
X78074Y261629D01*
X77889Y261314D01*
X77704Y261000D01*
X77537Y260703D01*
X77463Y260574D01*
X77389Y260463D01*
X77334Y260370D01*
X77297Y260296D01*
X77260Y260240D01*
Y260222D01*
X75778Y257500D01*
X73279D01*
X74538Y259926D01*
X74668Y260185D01*
X74797Y260444D01*
X74927Y260666D01*
X75038Y260870D01*
X75149Y261055D01*
X75241Y261222D01*
X75408Y261500D01*
X75538Y261703D01*
X75649Y261851D01*
X75704Y261944D01*
X75723Y261963D01*
X75890Y262166D01*
X76075Y262370D01*
X76260Y262555D01*
X76427Y262703D01*
X76575Y262833D01*
X76704Y262925D01*
X76778Y262999D01*
X76815Y263018D01*
X76353Y263129D01*
X75964Y263277D01*
X75612Y263462D01*
X75334Y263666D01*
X75112Y263833D01*
X74945Y263981D01*
X74853Y264092D01*
X74816Y264110D01*
Y264129D01*
X74575Y264499D01*
X74390Y264888D01*
X74260Y265277D01*
X74186Y265647D01*
X74131Y265981D01*
X74112Y266129D01*
Y266258D01*
X74093Y266351D01*
Y266444D01*
Y266481D01*
Y266499D01*
X74112Y266925D01*
X74167Y267295D01*
X74242Y267647D01*
X74316Y267943D01*
X74408Y268166D01*
X74482Y268351D01*
X74538Y268462D01*
X74556Y268499D01*
X74742Y268795D01*
X74945Y269036D01*
X75130Y269240D01*
X75315Y269388D01*
X75482Y269517D01*
X75612Y269610D01*
X75704Y269647D01*
X75741Y269665D01*
X75890Y269721D01*
X76056Y269776D01*
X76427Y269869D01*
X76815Y269925D01*
X77204Y269980D01*
X77556Y269999D01*
X77723D01*
X77852Y270017D01*
X82500D01*
Y257500D01*
D02*
G37*
G36*
X61752Y216500D02*
X54531D01*
Y218611D01*
X59678D01*
Y228925D01*
X61752D01*
Y216500D01*
D02*
G37*
G36*
X78528Y229202D02*
X78935Y229147D01*
X79269Y229091D01*
X79565Y229017D01*
X79806Y228925D01*
X79991Y228869D01*
X80102Y228813D01*
X80121Y228795D01*
X80139D01*
X80435Y228628D01*
X80676Y228425D01*
X80898Y228221D01*
X81083Y228017D01*
X81232Y227832D01*
X81324Y227684D01*
X81398Y227591D01*
X81417Y227573D01*
Y227554D01*
X81565Y227240D01*
X81676Y226925D01*
X81769Y226610D01*
X81824Y226332D01*
X81861Y226092D01*
X81880Y225888D01*
Y225814D01*
Y225758D01*
Y225740D01*
Y225721D01*
X81861Y225406D01*
X81824Y225092D01*
X81769Y224814D01*
X81694Y224573D01*
X81639Y224370D01*
X81583Y224203D01*
X81546Y224110D01*
X81528Y224073D01*
X81380Y223796D01*
X81213Y223555D01*
X81046Y223351D01*
X80898Y223185D01*
X80750Y223036D01*
X80639Y222944D01*
X80565Y222870D01*
X80547Y222851D01*
X80287Y222684D01*
X79991Y222518D01*
X79658Y222370D01*
X79343Y222240D01*
X79047Y222129D01*
X78935Y222092D01*
X78824Y222055D01*
X78732Y222018D01*
X78658Y221999D01*
X78621Y221981D01*
X78602D01*
X78343Y221907D01*
X78102Y221833D01*
X77880Y221759D01*
X77695Y221685D01*
X77510Y221629D01*
X77362Y221574D01*
X77232Y221537D01*
X77121Y221500D01*
X76954Y221425D01*
X76825Y221370D01*
X76769Y221351D01*
X76751Y221333D01*
X76621Y221259D01*
X76491Y221185D01*
X76399Y221092D01*
X76325Y221018D01*
X76214Y220907D01*
X76177Y220870D01*
Y220851D01*
X76102Y220740D01*
X76066Y220611D01*
X75991Y220389D01*
Y220277D01*
X75973Y220203D01*
Y220148D01*
Y220129D01*
X75991Y219870D01*
X76066Y219629D01*
X76139Y219426D01*
X76251Y219240D01*
X76343Y219111D01*
X76436Y219000D01*
X76510Y218926D01*
X76528Y218907D01*
X76751Y218741D01*
X76991Y218629D01*
X77232Y218537D01*
X77454Y218481D01*
X77676Y218444D01*
X77843Y218426D01*
X77991D01*
X78324Y218444D01*
X78639Y218537D01*
X78899Y218648D01*
X79139Y218796D01*
X79361Y218981D01*
X79547Y219185D01*
X79695Y219407D01*
X79824Y219629D01*
X79935Y219851D01*
X80028Y220074D01*
X80102Y220277D01*
X80158Y220463D01*
X80195Y220611D01*
X80213Y220722D01*
X80232Y220814D01*
Y220833D01*
X82250Y220592D01*
X82194Y220203D01*
X82139Y219833D01*
X82046Y219500D01*
X81954Y219166D01*
X81824Y218870D01*
X81694Y218592D01*
X81565Y218352D01*
X81417Y218111D01*
X81250Y217889D01*
X81083Y217685D01*
X80732Y217352D01*
X80361Y217055D01*
X79991Y216833D01*
X79621Y216648D01*
X79269Y216518D01*
X78935Y216426D01*
X78639Y216370D01*
X78398Y216333D01*
X78213Y216296D01*
X78047D01*
X77658Y216315D01*
X77306Y216352D01*
X76973Y216389D01*
X76658Y216463D01*
X76380Y216556D01*
X76121Y216648D01*
X75880Y216741D01*
X75677Y216852D01*
X75510Y216944D01*
X75343Y217037D01*
X75214Y217130D01*
X75103Y217222D01*
X75029Y217296D01*
X74973Y217333D01*
X74936Y217370D01*
X74917Y217389D01*
X74732Y217611D01*
X74584Y217833D01*
X74436Y218055D01*
X74325Y218278D01*
X74140Y218741D01*
X74029Y219185D01*
X73992Y219370D01*
X73955Y219555D01*
X73936Y219722D01*
X73917Y219851D01*
X73899Y219981D01*
Y220055D01*
Y220111D01*
Y220129D01*
X73917Y220537D01*
X73955Y220907D01*
X74010Y221240D01*
X74084Y221518D01*
X74158Y221740D01*
X74214Y221907D01*
X74251Y222018D01*
X74269Y222055D01*
X74418Y222333D01*
X74584Y222592D01*
X74769Y222814D01*
X74936Y222999D01*
X75103Y223148D01*
X75232Y223240D01*
X75306Y223314D01*
X75343Y223333D01*
X75473Y223425D01*
X75640Y223518D01*
X75991Y223703D01*
X76362Y223851D01*
X76732Y223999D01*
X77065Y224129D01*
X77214Y224166D01*
X77343Y224221D01*
X77454Y224258D01*
X77528Y224277D01*
X77584Y224296D01*
X77602D01*
X77862Y224370D01*
X78102Y224444D01*
X78324Y224518D01*
X78510Y224592D01*
X78695Y224666D01*
X78843Y224721D01*
X78973Y224795D01*
X79102Y224851D01*
X79287Y224944D01*
X79398Y225018D01*
X79472Y225055D01*
X79491Y225073D01*
X79621Y225203D01*
X79732Y225351D01*
X79806Y225480D01*
X79843Y225610D01*
X79880Y225740D01*
X79898Y225832D01*
Y225888D01*
Y225906D01*
X79880Y226092D01*
X79824Y226258D01*
X79750Y226406D01*
X79676Y226536D01*
X79602Y226647D01*
X79528Y226721D01*
X79472Y226758D01*
X79454Y226777D01*
X79269Y226888D01*
X79047Y226980D01*
X78843Y227036D01*
X78639Y227092D01*
X78454Y227110D01*
X78287Y227129D01*
X78158D01*
X77862Y227110D01*
X77602Y227073D01*
X77380Y226999D01*
X77195Y226925D01*
X77047Y226851D01*
X76936Y226777D01*
X76880Y226740D01*
X76862Y226721D01*
X76695Y226536D01*
X76565Y226332D01*
X76473Y226092D01*
X76380Y225869D01*
X76325Y225647D01*
X76288Y225480D01*
X76269Y225406D01*
X76251Y225351D01*
Y225332D01*
Y225314D01*
X74177Y225425D01*
X74195Y225758D01*
X74251Y226073D01*
X74306Y226351D01*
X74380Y226629D01*
X74454Y226869D01*
X74547Y227110D01*
X74658Y227314D01*
X74751Y227499D01*
X74843Y227666D01*
X74936Y227814D01*
X75029Y227943D01*
X75103Y228036D01*
X75177Y228110D01*
X75232Y228184D01*
X75251Y228202D01*
X75269Y228221D01*
X75473Y228406D01*
X75677Y228554D01*
X75917Y228684D01*
X76139Y228795D01*
X76621Y228980D01*
X77065Y229091D01*
X77288Y229147D01*
X77473Y229165D01*
X77658Y229184D01*
X77806Y229202D01*
X77936Y229221D01*
X78102D01*
X78528Y229202D01*
D02*
G37*
G36*
X68085D02*
X68455Y229147D01*
X68788Y229073D01*
X69122Y228980D01*
X69418Y228851D01*
X69696Y228721D01*
X69955Y228573D01*
X70177Y228443D01*
X70381Y228295D01*
X70566Y228147D01*
X70714Y228017D01*
X70844Y227888D01*
X70936Y227795D01*
X71010Y227721D01*
X71048Y227666D01*
X71066Y227647D01*
X71325Y227295D01*
X71547Y226906D01*
X71733Y226518D01*
X71899Y226110D01*
X72047Y225684D01*
X72158Y225277D01*
X72251Y224869D01*
X72325Y224462D01*
X72381Y224092D01*
X72436Y223759D01*
X72473Y223444D01*
X72492Y223166D01*
Y222962D01*
X72510Y222796D01*
Y222684D01*
Y222666D01*
Y222647D01*
X72492Y222092D01*
X72455Y221574D01*
X72381Y221074D01*
X72288Y220611D01*
X72177Y220185D01*
X72066Y219796D01*
X71936Y219426D01*
X71788Y219111D01*
X71659Y218815D01*
X71529Y218555D01*
X71418Y218333D01*
X71307Y218167D01*
X71214Y218018D01*
X71140Y217907D01*
X71103Y217852D01*
X71084Y217833D01*
X70844Y217555D01*
X70585Y217333D01*
X70325Y217130D01*
X70048Y216944D01*
X69770Y216796D01*
X69511Y216667D01*
X69251Y216574D01*
X68992Y216481D01*
X68751Y216426D01*
X68529Y216370D01*
X68326Y216352D01*
X68159Y216315D01*
X68011D01*
X67918Y216296D01*
X67826D01*
X67529Y216315D01*
X67252Y216333D01*
X66733Y216444D01*
X66270Y216593D01*
X66066Y216685D01*
X65881Y216778D01*
X65715Y216870D01*
X65567Y216963D01*
X65437Y217037D01*
X65344Y217111D01*
X65252Y217167D01*
X65196Y217222D01*
X65159Y217241D01*
X65141Y217259D01*
X64937Y217463D01*
X64752Y217666D01*
X64437Y218148D01*
X64159Y218666D01*
X63937Y219166D01*
X63844Y219407D01*
X63770Y219629D01*
X63715Y219833D01*
X63659Y220000D01*
X63622Y220148D01*
X63585Y220259D01*
X63567Y220333D01*
Y220352D01*
X65585Y221129D01*
X65696Y220629D01*
X65844Y220222D01*
X65974Y219870D01*
X66122Y219592D01*
X66252Y219370D01*
X66363Y219222D01*
X66437Y219129D01*
X66455Y219092D01*
X66677Y218889D01*
X66918Y218722D01*
X67159Y218611D01*
X67381Y218537D01*
X67566Y218500D01*
X67733Y218481D01*
X67826Y218463D01*
X67863D01*
X68066Y218481D01*
X68252Y218500D01*
X68622Y218611D01*
X68918Y218778D01*
X69177Y218963D01*
X69399Y219129D01*
X69548Y219296D01*
X69640Y219407D01*
X69677Y219426D01*
Y219444D01*
X69788Y219648D01*
X69899Y219870D01*
X69992Y220129D01*
X70066Y220389D01*
X70196Y220944D01*
X70270Y221500D01*
X70307Y221759D01*
X70325Y221999D01*
X70344Y222222D01*
Y222407D01*
X70362Y222573D01*
Y222684D01*
Y222777D01*
Y222796D01*
Y223203D01*
X70325Y223592D01*
X70288Y223944D01*
X70251Y224258D01*
X70196Y224555D01*
X70140Y224832D01*
X70085Y225073D01*
X70010Y225277D01*
X69936Y225462D01*
X69881Y225629D01*
X69825Y225758D01*
X69770Y225869D01*
X69714Y225944D01*
X69696Y226017D01*
X69659Y226036D01*
Y226055D01*
X69511Y226240D01*
X69362Y226388D01*
X69214Y226518D01*
X69066Y226629D01*
X68751Y226814D01*
X68455Y226925D01*
X68196Y226999D01*
X67992Y227036D01*
X67918Y227055D01*
X67807D01*
X67511Y227036D01*
X67252Y226962D01*
X67029Y226888D01*
X66826Y226777D01*
X66659Y226684D01*
X66529Y226591D01*
X66455Y226518D01*
X66437Y226499D01*
X66233Y226277D01*
X66066Y226036D01*
X65918Y225777D01*
X65807Y225518D01*
X65733Y225295D01*
X65678Y225110D01*
X65659Y225036D01*
Y224981D01*
X65641Y224962D01*
Y224944D01*
X63585Y225536D01*
X63659Y225832D01*
X63752Y226110D01*
X63844Y226369D01*
X63937Y226629D01*
X64048Y226851D01*
X64141Y227055D01*
X64252Y227221D01*
X64344Y227388D01*
X64437Y227536D01*
X64530Y227666D01*
X64604Y227777D01*
X64678Y227869D01*
X64733Y227925D01*
X64770Y227980D01*
X64789Y228017D01*
X64807D01*
X65030Y228221D01*
X65270Y228406D01*
X65511Y228573D01*
X65752Y228721D01*
X65992Y228832D01*
X66233Y228925D01*
X66696Y229073D01*
X66900Y229128D01*
X67085Y229165D01*
X67252Y229184D01*
X67400Y229202D01*
X67529Y229221D01*
X67696D01*
X68085Y229202D01*
D02*
G37*
G36*
X64345Y238250D02*
X62141D01*
X61308Y241083D01*
X57160D01*
X56271Y238250D01*
X54031D01*
X58160Y250767D01*
X60363D01*
X64345Y238250D01*
D02*
G37*
G36*
X80028Y250952D02*
X80435Y250897D01*
X80769Y250841D01*
X81065Y250767D01*
X81306Y250675D01*
X81491Y250619D01*
X81602Y250564D01*
X81621Y250545D01*
X81639D01*
X81935Y250378D01*
X82176Y250175D01*
X82398Y249971D01*
X82584Y249767D01*
X82732Y249582D01*
X82824Y249434D01*
X82898Y249341D01*
X82917Y249323D01*
Y249304D01*
X83065Y248990D01*
X83176Y248675D01*
X83269Y248360D01*
X83324Y248082D01*
X83361Y247842D01*
X83380Y247638D01*
Y247564D01*
Y247508D01*
Y247490D01*
Y247471D01*
X83361Y247157D01*
X83324Y246842D01*
X83269Y246564D01*
X83195Y246323D01*
X83139Y246119D01*
X83083Y245953D01*
X83046Y245860D01*
X83028Y245823D01*
X82880Y245546D01*
X82713Y245305D01*
X82546Y245101D01*
X82398Y244935D01*
X82250Y244786D01*
X82139Y244694D01*
X82065Y244620D01*
X82046Y244601D01*
X81787Y244435D01*
X81491Y244268D01*
X81158Y244120D01*
X80843Y243990D01*
X80547Y243879D01*
X80435Y243842D01*
X80324Y243805D01*
X80232Y243768D01*
X80158Y243749D01*
X80121Y243731D01*
X80102D01*
X79843Y243657D01*
X79602Y243583D01*
X79380Y243509D01*
X79195Y243435D01*
X79010Y243379D01*
X78862Y243323D01*
X78732Y243286D01*
X78621Y243249D01*
X78454Y243175D01*
X78325Y243120D01*
X78269Y243101D01*
X78251Y243083D01*
X78121Y243009D01*
X77991Y242935D01*
X77899Y242842D01*
X77825Y242768D01*
X77714Y242657D01*
X77677Y242620D01*
Y242601D01*
X77603Y242490D01*
X77565Y242361D01*
X77491Y242139D01*
Y242027D01*
X77473Y241953D01*
Y241898D01*
Y241879D01*
X77491Y241620D01*
X77565Y241379D01*
X77639Y241176D01*
X77751Y240991D01*
X77843Y240861D01*
X77936Y240750D01*
X78010Y240676D01*
X78028Y240657D01*
X78251Y240490D01*
X78491Y240379D01*
X78732Y240287D01*
X78954Y240231D01*
X79176Y240194D01*
X79343Y240176D01*
X79491D01*
X79825Y240194D01*
X80139Y240287D01*
X80399Y240398D01*
X80639Y240546D01*
X80861Y240731D01*
X81047Y240935D01*
X81195Y241157D01*
X81324Y241379D01*
X81435Y241602D01*
X81528Y241824D01*
X81602Y242027D01*
X81658Y242213D01*
X81695Y242361D01*
X81713Y242472D01*
X81732Y242564D01*
Y242583D01*
X83750Y242342D01*
X83694Y241953D01*
X83639Y241583D01*
X83546Y241250D01*
X83454Y240916D01*
X83324Y240620D01*
X83195Y240342D01*
X83065Y240102D01*
X82917Y239861D01*
X82750Y239639D01*
X82584Y239435D01*
X82232Y239102D01*
X81861Y238806D01*
X81491Y238583D01*
X81121Y238398D01*
X80769Y238269D01*
X80435Y238176D01*
X80139Y238120D01*
X79899Y238083D01*
X79713Y238046D01*
X79547D01*
X79158Y238065D01*
X78806Y238102D01*
X78473Y238139D01*
X78158Y238213D01*
X77880Y238305D01*
X77621Y238398D01*
X77380Y238491D01*
X77177Y238602D01*
X77010Y238694D01*
X76843Y238787D01*
X76714Y238880D01*
X76603Y238972D01*
X76529Y239046D01*
X76473Y239083D01*
X76436Y239120D01*
X76417Y239139D01*
X76232Y239361D01*
X76084Y239583D01*
X75936Y239805D01*
X75825Y240028D01*
X75640Y240490D01*
X75529Y240935D01*
X75492Y241120D01*
X75455Y241305D01*
X75436Y241472D01*
X75417Y241602D01*
X75399Y241731D01*
Y241805D01*
Y241861D01*
Y241879D01*
X75417Y242287D01*
X75455Y242657D01*
X75510Y242990D01*
X75584Y243268D01*
X75658Y243490D01*
X75714Y243657D01*
X75751Y243768D01*
X75769Y243805D01*
X75918Y244083D01*
X76084Y244342D01*
X76269Y244564D01*
X76436Y244749D01*
X76603Y244897D01*
X76732Y244990D01*
X76806Y245064D01*
X76843Y245083D01*
X76973Y245175D01*
X77140Y245268D01*
X77491Y245453D01*
X77862Y245601D01*
X78232Y245749D01*
X78565Y245879D01*
X78713Y245916D01*
X78843Y245971D01*
X78954Y246008D01*
X79028Y246027D01*
X79084Y246045D01*
X79102D01*
X79362Y246119D01*
X79602Y246194D01*
X79825Y246268D01*
X80010Y246342D01*
X80195Y246416D01*
X80343Y246471D01*
X80473Y246545D01*
X80602Y246601D01*
X80787Y246694D01*
X80898Y246768D01*
X80972Y246805D01*
X80991Y246823D01*
X81121Y246953D01*
X81232Y247101D01*
X81306Y247230D01*
X81343Y247360D01*
X81380Y247490D01*
X81398Y247582D01*
Y247638D01*
Y247656D01*
X81380Y247842D01*
X81324Y248008D01*
X81250Y248156D01*
X81176Y248286D01*
X81102Y248397D01*
X81028Y248471D01*
X80972Y248508D01*
X80954Y248527D01*
X80769Y248638D01*
X80547Y248730D01*
X80343Y248786D01*
X80139Y248841D01*
X79954Y248860D01*
X79787Y248878D01*
X79658D01*
X79362Y248860D01*
X79102Y248823D01*
X78880Y248749D01*
X78695Y248675D01*
X78547Y248601D01*
X78436Y248527D01*
X78380Y248490D01*
X78362Y248471D01*
X78195Y248286D01*
X78065Y248082D01*
X77973Y247842D01*
X77880Y247619D01*
X77825Y247397D01*
X77788Y247230D01*
X77769Y247157D01*
X77751Y247101D01*
Y247082D01*
Y247064D01*
X75677Y247175D01*
X75695Y247508D01*
X75751Y247823D01*
X75806Y248101D01*
X75880Y248379D01*
X75954Y248619D01*
X76047Y248860D01*
X76158Y249064D01*
X76251Y249249D01*
X76343Y249415D01*
X76436Y249564D01*
X76529Y249693D01*
X76603Y249786D01*
X76677Y249860D01*
X76732Y249934D01*
X76751Y249953D01*
X76769Y249971D01*
X76973Y250156D01*
X77177Y250304D01*
X77417Y250434D01*
X77639Y250545D01*
X78121Y250730D01*
X78565Y250841D01*
X78787Y250897D01*
X78973Y250915D01*
X79158Y250934D01*
X79306Y250952D01*
X79436Y250971D01*
X79602D01*
X80028Y250952D01*
D02*
G37*
G36*
X70085Y288702D02*
X70493Y288647D01*
X70826Y288591D01*
X71122Y288517D01*
X71363Y288425D01*
X71548Y288369D01*
X71659Y288314D01*
X71678Y288295D01*
X71696D01*
X71993Y288128D01*
X72233Y287925D01*
X72456Y287721D01*
X72641Y287517D01*
X72789Y287332D01*
X72881Y287184D01*
X72955Y287092D01*
X72974Y287073D01*
Y287054D01*
X73122Y286740D01*
X73233Y286425D01*
X73326Y286110D01*
X73381Y285832D01*
X73418Y285592D01*
X73437Y285388D01*
Y285314D01*
Y285258D01*
Y285240D01*
Y285221D01*
X73418Y284907D01*
X73381Y284592D01*
X73326Y284314D01*
X73252Y284073D01*
X73196Y283870D01*
X73141Y283703D01*
X73103Y283610D01*
X73085Y283573D01*
X72937Y283295D01*
X72770Y283055D01*
X72604Y282851D01*
X72456Y282684D01*
X72307Y282536D01*
X72196Y282444D01*
X72122Y282370D01*
X72104Y282351D01*
X71844Y282185D01*
X71548Y282018D01*
X71215Y281870D01*
X70900Y281740D01*
X70604Y281629D01*
X70493Y281592D01*
X70382Y281555D01*
X70289Y281518D01*
X70215Y281499D01*
X70178Y281481D01*
X70159D01*
X69900Y281407D01*
X69659Y281333D01*
X69437Y281259D01*
X69252Y281185D01*
X69067Y281129D01*
X68919Y281074D01*
X68789Y281036D01*
X68678Y281000D01*
X68511Y280925D01*
X68382Y280870D01*
X68326Y280851D01*
X68308Y280833D01*
X68178Y280759D01*
X68049Y280685D01*
X67956Y280592D01*
X67882Y280518D01*
X67771Y280407D01*
X67734Y280370D01*
Y280351D01*
X67660Y280240D01*
X67623Y280111D01*
X67549Y279888D01*
Y279777D01*
X67530Y279703D01*
Y279648D01*
Y279629D01*
X67549Y279370D01*
X67623Y279129D01*
X67697Y278926D01*
X67808Y278741D01*
X67900Y278611D01*
X67993Y278500D01*
X68067Y278426D01*
X68085Y278407D01*
X68308Y278241D01*
X68548Y278129D01*
X68789Y278037D01*
X69011Y277981D01*
X69234Y277944D01*
X69400Y277926D01*
X69548D01*
X69882Y277944D01*
X70196Y278037D01*
X70456Y278148D01*
X70696Y278296D01*
X70919Y278481D01*
X71104Y278685D01*
X71252Y278907D01*
X71382Y279129D01*
X71493Y279352D01*
X71585Y279574D01*
X71659Y279777D01*
X71715Y279963D01*
X71752Y280111D01*
X71770Y280222D01*
X71789Y280314D01*
Y280333D01*
X73807Y280092D01*
X73752Y279703D01*
X73696Y279333D01*
X73604Y279000D01*
X73511Y278666D01*
X73381Y278370D01*
X73252Y278092D01*
X73122Y277852D01*
X72974Y277611D01*
X72807Y277389D01*
X72641Y277185D01*
X72289Y276852D01*
X71919Y276556D01*
X71548Y276333D01*
X71178Y276148D01*
X70826Y276019D01*
X70493Y275926D01*
X70196Y275870D01*
X69956Y275833D01*
X69770Y275796D01*
X69604D01*
X69215Y275815D01*
X68863Y275852D01*
X68530Y275889D01*
X68215Y275963D01*
X67937Y276056D01*
X67678Y276148D01*
X67438Y276241D01*
X67234Y276352D01*
X67067Y276444D01*
X66901Y276537D01*
X66771Y276630D01*
X66660Y276722D01*
X66586Y276796D01*
X66530Y276833D01*
X66493Y276870D01*
X66475Y276889D01*
X66289Y277111D01*
X66141Y277333D01*
X65993Y277555D01*
X65882Y277778D01*
X65697Y278241D01*
X65586Y278685D01*
X65549Y278870D01*
X65512Y279055D01*
X65493Y279222D01*
X65475Y279352D01*
X65456Y279481D01*
Y279555D01*
Y279611D01*
Y279629D01*
X65475Y280037D01*
X65512Y280407D01*
X65567Y280740D01*
X65641Y281018D01*
X65715Y281240D01*
X65771Y281407D01*
X65808Y281518D01*
X65827Y281555D01*
X65975Y281833D01*
X66141Y282092D01*
X66326Y282314D01*
X66493Y282499D01*
X66660Y282647D01*
X66789Y282740D01*
X66863Y282814D01*
X66901Y282833D01*
X67030Y282925D01*
X67197Y283018D01*
X67549Y283203D01*
X67919Y283351D01*
X68289Y283499D01*
X68622Y283629D01*
X68771Y283666D01*
X68900Y283721D01*
X69011Y283759D01*
X69085Y283777D01*
X69141Y283796D01*
X69159D01*
X69419Y283870D01*
X69659Y283944D01*
X69882Y284018D01*
X70067Y284092D01*
X70252Y284166D01*
X70400Y284221D01*
X70530Y284295D01*
X70659Y284351D01*
X70844Y284444D01*
X70956Y284518D01*
X71030Y284555D01*
X71048Y284573D01*
X71178Y284703D01*
X71289Y284851D01*
X71363Y284981D01*
X71400Y285110D01*
X71437Y285240D01*
X71456Y285332D01*
Y285388D01*
Y285406D01*
X71437Y285592D01*
X71382Y285758D01*
X71307Y285906D01*
X71233Y286036D01*
X71159Y286147D01*
X71085Y286221D01*
X71030Y286258D01*
X71011Y286277D01*
X70826Y286388D01*
X70604Y286480D01*
X70400Y286536D01*
X70196Y286591D01*
X70011Y286610D01*
X69845Y286628D01*
X69715D01*
X69419Y286610D01*
X69159Y286573D01*
X68937Y286499D01*
X68752Y286425D01*
X68604Y286351D01*
X68493Y286277D01*
X68437Y286240D01*
X68419Y286221D01*
X68252Y286036D01*
X68123Y285832D01*
X68030Y285592D01*
X67937Y285369D01*
X67882Y285147D01*
X67845Y284981D01*
X67826Y284907D01*
X67808Y284851D01*
Y284832D01*
Y284814D01*
X65734Y284925D01*
X65752Y285258D01*
X65808Y285573D01*
X65863Y285851D01*
X65938Y286129D01*
X66012Y286369D01*
X66104Y286610D01*
X66215Y286814D01*
X66308Y286999D01*
X66400Y287166D01*
X66493Y287314D01*
X66586Y287443D01*
X66660Y287536D01*
X66734Y287610D01*
X66789Y287684D01*
X66808Y287703D01*
X66826Y287721D01*
X67030Y287906D01*
X67234Y288054D01*
X67474Y288184D01*
X67697Y288295D01*
X68178Y288480D01*
X68622Y288591D01*
X68845Y288647D01*
X69030Y288665D01*
X69215Y288684D01*
X69363Y288702D01*
X69493Y288721D01*
X69659D01*
X70085Y288702D01*
D02*
G37*
G36*
X74038Y336250D02*
X72075D01*
Y338657D01*
X74038D01*
Y336250D01*
D02*
G37*
G36*
X75250Y315000D02*
X71361D01*
X70917Y315019D01*
X70510Y315056D01*
X70158Y315111D01*
X69862Y315185D01*
X69621Y315241D01*
X69454Y315296D01*
X69343Y315333D01*
X69306Y315352D01*
X69010Y315500D01*
X68751Y315667D01*
X68528Y315833D01*
X68325Y316000D01*
X68177Y316148D01*
X68047Y316278D01*
X67973Y316352D01*
X67954Y316389D01*
X67751Y316667D01*
X67566Y316981D01*
X67399Y317296D01*
X67269Y317611D01*
X67158Y317870D01*
X67084Y318092D01*
X67047Y318185D01*
X67029Y318240D01*
X67010Y318277D01*
Y318296D01*
X66880Y318759D01*
X66788Y319240D01*
X66732Y319722D01*
X66677Y320166D01*
Y320370D01*
X66658Y320555D01*
Y320722D01*
X66640Y320851D01*
Y320962D01*
Y321055D01*
Y321110D01*
Y321129D01*
X66658Y321777D01*
X66695Y322351D01*
X66714Y322629D01*
X66751Y322870D01*
X66788Y323092D01*
X66806Y323295D01*
X66844Y323481D01*
X66880Y323647D01*
X66918Y323795D01*
X66936Y323907D01*
X66955Y323999D01*
X66973Y324073D01*
X66992Y324110D01*
Y324129D01*
X67140Y324573D01*
X67288Y324962D01*
X67455Y325295D01*
X67621Y325573D01*
X67751Y325814D01*
X67862Y325980D01*
X67936Y326073D01*
X67973Y326110D01*
X68214Y326369D01*
X68436Y326591D01*
X68677Y326777D01*
X68880Y326925D01*
X69065Y327036D01*
X69195Y327128D01*
X69288Y327165D01*
X69325Y327184D01*
X69621Y327295D01*
X69973Y327369D01*
X70325Y327443D01*
X70676Y327480D01*
X70991Y327499D01*
X71121D01*
X71232Y327517D01*
X75250D01*
Y315000D01*
D02*
G37*
G36*
X59447Y336250D02*
X57188D01*
X53540Y348767D01*
X55762D01*
X58262Y339490D01*
X60854Y348767D01*
X63095D01*
X59447Y336250D01*
D02*
G37*
G36*
X79630Y348767D02*
X80037Y348675D01*
X80408Y348545D01*
X80704Y348415D01*
X80945Y348267D01*
X81130Y348138D01*
X81241Y348045D01*
X81259Y348027D01*
X81278Y348008D01*
X81426Y347860D01*
X81556Y347675D01*
X81796Y347286D01*
X81981Y346879D01*
X82130Y346471D01*
X82241Y346101D01*
X82278Y345953D01*
X82315Y345805D01*
X82333Y345694D01*
X82352Y345601D01*
X82370Y345545D01*
Y345527D01*
X80556Y345157D01*
X80519Y345453D01*
X80463Y345694D01*
X80389Y345916D01*
X80315Y346082D01*
X80241Y346212D01*
X80185Y346323D01*
X80148Y346379D01*
X80130Y346397D01*
X79982Y346545D01*
X79834Y346638D01*
X79686Y346712D01*
X79556Y346767D01*
X79445Y346805D01*
X79334Y346823D01*
X79260D01*
X79074Y346805D01*
X78908Y346767D01*
X78760Y346712D01*
X78649Y346638D01*
X78556Y346564D01*
X78482Y346508D01*
X78445Y346471D01*
X78426Y346453D01*
X78315Y346305D01*
X78241Y346138D01*
X78167Y345971D01*
X78130Y345823D01*
X78112Y345675D01*
X78093Y345564D01*
Y345490D01*
Y345453D01*
X78112Y345175D01*
X78167Y344934D01*
X78241Y344731D01*
X78315Y344564D01*
X78389Y344434D01*
X78463Y344323D01*
X78519Y344268D01*
X78537Y344249D01*
X78723Y344120D01*
X78908Y344008D01*
X79111Y343953D01*
X79315Y343897D01*
X79482Y343879D01*
X79630Y343860D01*
X79759D01*
X79963Y341898D01*
X79778Y341953D01*
X79611Y342009D01*
X79445Y342046D01*
X79315Y342064D01*
X79222Y342083D01*
X79074D01*
X78871Y342064D01*
X78686Y342009D01*
X78519Y341916D01*
X78371Y341824D01*
X78260Y341712D01*
X78167Y341638D01*
X78112Y341564D01*
X78093Y341546D01*
X77963Y341342D01*
X77852Y341101D01*
X77778Y340861D01*
X77741Y340638D01*
X77704Y340435D01*
X77686Y340268D01*
Y340157D01*
Y340139D01*
Y340120D01*
X77704Y339768D01*
X77760Y339472D01*
X77815Y339194D01*
X77889Y338991D01*
X77982Y338805D01*
X78038Y338694D01*
X78093Y338602D01*
X78112Y338583D01*
X78278Y338398D01*
X78445Y338268D01*
X78630Y338176D01*
X78797Y338120D01*
X78926Y338083D01*
X79037Y338046D01*
X79149D01*
X79352Y338065D01*
X79537Y338120D01*
X79704Y338194D01*
X79834Y338287D01*
X79945Y338361D01*
X80037Y338435D01*
X80093Y338490D01*
X80111Y338509D01*
X80241Y338694D01*
X80352Y338916D01*
X80445Y339139D01*
X80500Y339361D01*
X80556Y339565D01*
X80574Y339713D01*
X80593Y339824D01*
Y339842D01*
Y339861D01*
X82500Y339583D01*
X82407Y338991D01*
X82278Y338490D01*
X82185Y338250D01*
X82093Y338046D01*
X82000Y337842D01*
X81908Y337676D01*
X81815Y337509D01*
X81722Y337379D01*
X81648Y337268D01*
X81574Y337157D01*
X81519Y337083D01*
X81463Y337028D01*
X81445Y337009D01*
X81426Y336991D01*
X81241Y336824D01*
X81056Y336676D01*
X80871Y336546D01*
X80667Y336454D01*
X80278Y336269D01*
X79926Y336157D01*
X79611Y336102D01*
X79463Y336083D01*
X79352Y336065D01*
X79260Y336046D01*
X79130D01*
X78871Y336065D01*
X78630Y336102D01*
X78389Y336157D01*
X78149Y336213D01*
X77741Y336398D01*
X77389Y336602D01*
X77093Y336805D01*
X76982Y336898D01*
X76890Y336991D01*
X76815Y337046D01*
X76741Y337102D01*
X76723Y337139D01*
X76704Y337157D01*
X76519Y337379D01*
X76353Y337602D01*
X76223Y337842D01*
X76112Y338083D01*
X75927Y338546D01*
X75797Y338991D01*
X75760Y339213D01*
X75723Y339398D01*
X75704Y339565D01*
X75686Y339713D01*
X75667Y339824D01*
Y339916D01*
Y339972D01*
Y339990D01*
X75686Y340416D01*
X75760Y340805D01*
X75834Y341138D01*
X75945Y341416D01*
X76038Y341638D01*
X76130Y341805D01*
X76204Y341916D01*
X76223Y341953D01*
X76445Y342231D01*
X76667Y342453D01*
X76890Y342620D01*
X77112Y342768D01*
X77315Y342860D01*
X77463Y342916D01*
X77575Y342953D01*
X77593Y342971D01*
X77612D01*
X77352Y343157D01*
X77130Y343360D01*
X76926Y343564D01*
X76778Y343731D01*
X76649Y343897D01*
X76575Y344008D01*
X76519Y344082D01*
X76501Y344120D01*
X76371Y344379D01*
X76278Y344638D01*
X76204Y344879D01*
X76167Y345120D01*
X76130Y345305D01*
X76112Y345471D01*
Y345564D01*
Y345601D01*
Y345823D01*
X76149Y346045D01*
X76241Y346453D01*
X76371Y346823D01*
X76519Y347156D01*
X76686Y347434D01*
X76760Y347545D01*
X76815Y347638D01*
X76871Y347712D01*
X76908Y347767D01*
X76926Y347786D01*
X76945Y347804D01*
X77112Y347990D01*
X77278Y348138D01*
X77463Y348267D01*
X77649Y348378D01*
X78019Y348563D01*
X78371Y348675D01*
X78704Y348749D01*
X78834Y348767D01*
X78945Y348786D01*
X79056Y348804D01*
X79408D01*
X79630Y348767D01*
D02*
G37*
G36*
X67668D02*
X68076Y348675D01*
X68446Y348545D01*
X68742Y348415D01*
X68983Y348267D01*
X69168Y348138D01*
X69279Y348045D01*
X69298Y348027D01*
X69316Y348008D01*
X69464Y347860D01*
X69594Y347675D01*
X69835Y347286D01*
X70020Y346879D01*
X70168Y346471D01*
X70279Y346101D01*
X70316Y345953D01*
X70353Y345805D01*
X70372Y345694D01*
X70390Y345601D01*
X70409Y345545D01*
Y345527D01*
X68594Y345157D01*
X68557Y345453D01*
X68501Y345694D01*
X68427Y345916D01*
X68353Y346082D01*
X68279Y346212D01*
X68224Y346323D01*
X68187Y346379D01*
X68168Y346397D01*
X68020Y346545D01*
X67872Y346638D01*
X67724Y346712D01*
X67594Y346767D01*
X67483Y346805D01*
X67372Y346823D01*
X67298D01*
X67113Y346805D01*
X66946Y346767D01*
X66798Y346712D01*
X66687Y346638D01*
X66594Y346564D01*
X66520Y346508D01*
X66483Y346471D01*
X66465Y346453D01*
X66354Y346305D01*
X66279Y346138D01*
X66205Y345971D01*
X66168Y345823D01*
X66150Y345675D01*
X66131Y345564D01*
Y345490D01*
Y345453D01*
X66150Y345175D01*
X66205Y344934D01*
X66279Y344731D01*
X66354Y344564D01*
X66428Y344434D01*
X66502Y344323D01*
X66557Y344268D01*
X66576Y344249D01*
X66761Y344120D01*
X66946Y344008D01*
X67150Y343953D01*
X67353Y343897D01*
X67520Y343879D01*
X67668Y343860D01*
X67798D01*
X68001Y341898D01*
X67816Y341953D01*
X67650Y342009D01*
X67483Y342046D01*
X67353Y342064D01*
X67261Y342083D01*
X67113D01*
X66909Y342064D01*
X66724Y342009D01*
X66557Y341916D01*
X66409Y341824D01*
X66298Y341712D01*
X66205Y341638D01*
X66150Y341564D01*
X66131Y341546D01*
X66002Y341342D01*
X65891Y341101D01*
X65816Y340861D01*
X65780Y340638D01*
X65743Y340435D01*
X65724Y340268D01*
Y340157D01*
Y340139D01*
Y340120D01*
X65743Y339768D01*
X65798Y339472D01*
X65854Y339194D01*
X65928Y338991D01*
X66020Y338805D01*
X66076Y338694D01*
X66131Y338602D01*
X66150Y338583D01*
X66316Y338398D01*
X66483Y338268D01*
X66668Y338176D01*
X66835Y338120D01*
X66965Y338083D01*
X67076Y338046D01*
X67187D01*
X67390Y338065D01*
X67576Y338120D01*
X67742Y338194D01*
X67872Y338287D01*
X67983Y338361D01*
X68076Y338435D01*
X68131Y338490D01*
X68150Y338509D01*
X68279Y338694D01*
X68390Y338916D01*
X68483Y339139D01*
X68538Y339361D01*
X68594Y339565D01*
X68612Y339713D01*
X68631Y339824D01*
Y339842D01*
Y339861D01*
X70538Y339583D01*
X70446Y338991D01*
X70316Y338490D01*
X70223Y338250D01*
X70131Y338046D01*
X70038Y337842D01*
X69946Y337676D01*
X69853Y337509D01*
X69761Y337379D01*
X69686Y337268D01*
X69612Y337157D01*
X69557Y337083D01*
X69501Y337028D01*
X69483Y337009D01*
X69464Y336991D01*
X69279Y336824D01*
X69094Y336676D01*
X68909Y336546D01*
X68705Y336454D01*
X68316Y336269D01*
X67965Y336157D01*
X67650Y336102D01*
X67502Y336083D01*
X67390Y336065D01*
X67298Y336046D01*
X67168D01*
X66909Y336065D01*
X66668Y336102D01*
X66428Y336157D01*
X66187Y336213D01*
X65780Y336398D01*
X65428Y336602D01*
X65131Y336805D01*
X65020Y336898D01*
X64928Y336991D01*
X64854Y337046D01*
X64780Y337102D01*
X64761Y337139D01*
X64743Y337157D01*
X64557Y337379D01*
X64391Y337602D01*
X64261Y337842D01*
X64150Y338083D01*
X63965Y338546D01*
X63835Y338991D01*
X63798Y339213D01*
X63761Y339398D01*
X63743Y339565D01*
X63724Y339713D01*
X63706Y339824D01*
Y339916D01*
Y339972D01*
Y339990D01*
X63724Y340416D01*
X63798Y340805D01*
X63872Y341138D01*
X63983Y341416D01*
X64076Y341638D01*
X64169Y341805D01*
X64243Y341916D01*
X64261Y341953D01*
X64483Y342231D01*
X64706Y342453D01*
X64928Y342620D01*
X65150Y342768D01*
X65354Y342860D01*
X65502Y342916D01*
X65613Y342953D01*
X65631Y342971D01*
X65650D01*
X65391Y343157D01*
X65168Y343360D01*
X64965Y343564D01*
X64817Y343731D01*
X64687Y343897D01*
X64613Y344008D01*
X64557Y344082D01*
X64539Y344120D01*
X64409Y344379D01*
X64317Y344638D01*
X64243Y344879D01*
X64206Y345120D01*
X64169Y345305D01*
X64150Y345471D01*
Y345564D01*
Y345601D01*
Y345823D01*
X64187Y346045D01*
X64280Y346453D01*
X64409Y346823D01*
X64557Y347156D01*
X64724Y347434D01*
X64798Y347545D01*
X64854Y347638D01*
X64909Y347712D01*
X64946Y347767D01*
X64965Y347786D01*
X64983Y347804D01*
X65150Y347990D01*
X65317Y348138D01*
X65502Y348267D01*
X65687Y348378D01*
X66057Y348563D01*
X66409Y348675D01*
X66742Y348749D01*
X66872Y348767D01*
X66983Y348786D01*
X67094Y348804D01*
X67446D01*
X67668Y348767D01*
D02*
G37*
G36*
X89250Y276000D02*
X87324D01*
Y285869D01*
X85288Y276000D01*
X83306D01*
X81232Y285869D01*
Y276000D01*
X79307D01*
Y288517D01*
X82436D01*
X84288Y279944D01*
X86158Y288517D01*
X89250D01*
Y276000D01*
D02*
G37*
G36*
X77325D02*
X75251D01*
Y288517D01*
X77325D01*
Y276000D01*
D02*
G37*
G36*
X58205Y296000D02*
X56131D01*
Y308517D01*
X58205D01*
Y296000D01*
D02*
G37*
G36*
X60881Y327684D02*
X61381Y327610D01*
X61825Y327499D01*
X62214Y327369D01*
X62362Y327295D01*
X62511Y327221D01*
X62640Y327165D01*
X62751Y327110D01*
X62825Y327073D01*
X62881Y327036D01*
X62918Y326999D01*
X62937D01*
X63307Y326702D01*
X63659Y326369D01*
X63936Y326017D01*
X64196Y325666D01*
X64399Y325351D01*
X64473Y325203D01*
X64529Y325092D01*
X64584Y324981D01*
X64622Y324906D01*
X64658Y324869D01*
Y324851D01*
X64770Y324573D01*
X64881Y324277D01*
X65029Y323666D01*
X65140Y323055D01*
X65233Y322462D01*
X65251Y322203D01*
X65269Y321944D01*
X65288Y321721D01*
Y321536D01*
X65307Y321388D01*
Y321259D01*
Y321185D01*
Y321166D01*
X65288Y320611D01*
X65251Y320074D01*
X65177Y319574D01*
X65084Y319111D01*
X64973Y318685D01*
X64844Y318296D01*
X64714Y317926D01*
X64566Y317592D01*
X64436Y317315D01*
X64307Y317055D01*
X64177Y316833D01*
X64066Y316648D01*
X63973Y316518D01*
X63899Y316407D01*
X63862Y316352D01*
X63844Y316333D01*
X63584Y316056D01*
X63325Y315833D01*
X63029Y315630D01*
X62751Y315444D01*
X62455Y315296D01*
X62159Y315167D01*
X61881Y315074D01*
X61603Y314981D01*
X61344Y314926D01*
X61103Y314870D01*
X60881Y314852D01*
X60696Y314815D01*
X60548D01*
X60418Y314796D01*
X60326D01*
X59918Y314815D01*
X59548Y314870D01*
X59178Y314944D01*
X58844Y315037D01*
X58530Y315167D01*
X58252Y315296D01*
X57993Y315426D01*
X57752Y315574D01*
X57530Y315722D01*
X57344Y315852D01*
X57196Y316000D01*
X57067Y316111D01*
X56956Y316204D01*
X56881Y316278D01*
X56845Y316333D01*
X56826Y316352D01*
X56567Y316703D01*
X56344Y317074D01*
X56141Y317463D01*
X55974Y317870D01*
X55826Y318277D01*
X55697Y318685D01*
X55604Y319074D01*
X55530Y319463D01*
X55474Y319833D01*
X55419Y320166D01*
X55382Y320481D01*
X55363Y320740D01*
X55345Y320962D01*
Y321129D01*
Y321222D01*
Y321259D01*
X55363Y321814D01*
X55400Y322351D01*
X55474Y322851D01*
X55567Y323314D01*
X55659Y323740D01*
X55789Y324129D01*
X55900Y324481D01*
X56030Y324814D01*
X56159Y325092D01*
X56289Y325332D01*
X56419Y325555D01*
X56511Y325721D01*
X56604Y325869D01*
X56678Y325962D01*
X56715Y326017D01*
X56733Y326036D01*
X57011Y326332D01*
X57289Y326591D01*
X57585Y326814D01*
X57881Y327017D01*
X58178Y327165D01*
X58474Y327313D01*
X58770Y327425D01*
X59048Y327517D01*
X59307Y327573D01*
X59548Y327628D01*
X59770Y327665D01*
X59955Y327702D01*
X60103D01*
X60233Y327721D01*
X60326D01*
X60881Y327684D01*
D02*
G37*
G36*
X68500Y296000D02*
X64612D01*
X64167Y296019D01*
X63760Y296056D01*
X63408Y296111D01*
X63112Y296185D01*
X62871Y296241D01*
X62704Y296296D01*
X62593Y296333D01*
X62556Y296352D01*
X62260Y296500D01*
X62001Y296667D01*
X61778Y296833D01*
X61575Y297000D01*
X61427Y297148D01*
X61297Y297278D01*
X61223Y297352D01*
X61204Y297389D01*
X61001Y297666D01*
X60816Y297981D01*
X60649Y298296D01*
X60519Y298611D01*
X60408Y298870D01*
X60334Y299092D01*
X60297Y299185D01*
X60279Y299240D01*
X60260Y299277D01*
Y299296D01*
X60131Y299759D01*
X60038Y300240D01*
X59982Y300722D01*
X59927Y301166D01*
Y301370D01*
X59908Y301555D01*
Y301722D01*
X59890Y301851D01*
Y301962D01*
Y302055D01*
Y302111D01*
Y302129D01*
X59908Y302777D01*
X59945Y303351D01*
X59964Y303629D01*
X60001Y303869D01*
X60038Y304092D01*
X60056Y304295D01*
X60093Y304481D01*
X60131Y304647D01*
X60167Y304795D01*
X60186Y304907D01*
X60205Y304999D01*
X60223Y305073D01*
X60242Y305110D01*
Y305129D01*
X60390Y305573D01*
X60538Y305962D01*
X60704Y306295D01*
X60871Y306573D01*
X61001Y306814D01*
X61112Y306980D01*
X61186Y307073D01*
X61223Y307110D01*
X61464Y307369D01*
X61686Y307591D01*
X61927Y307777D01*
X62130Y307925D01*
X62315Y308036D01*
X62445Y308128D01*
X62538Y308165D01*
X62575Y308184D01*
X62871Y308295D01*
X63223Y308369D01*
X63575Y308443D01*
X63926Y308480D01*
X64241Y308499D01*
X64371D01*
X64482Y308517D01*
X68500D01*
Y296000D01*
D02*
G37*
G36*
X71353Y177000D02*
X64131D01*
Y179111D01*
X69279D01*
Y189425D01*
X71353D01*
Y177000D01*
D02*
G37*
G36*
X247778Y326452D02*
X248186Y326397D01*
X248519Y326341D01*
X248815Y326267D01*
X249056Y326175D01*
X249241Y326119D01*
X249352Y326063D01*
X249371Y326045D01*
X249389D01*
X249685Y325878D01*
X249926Y325675D01*
X250148Y325471D01*
X250333Y325267D01*
X250482Y325082D01*
X250574Y324934D01*
X250648Y324841D01*
X250667Y324823D01*
Y324804D01*
X250815Y324490D01*
X250926Y324175D01*
X251019Y323860D01*
X251074Y323582D01*
X251111Y323342D01*
X251130Y323138D01*
Y323064D01*
Y323008D01*
Y322990D01*
Y322971D01*
X251111Y322657D01*
X251074Y322342D01*
X251019Y322064D01*
X250944Y321823D01*
X250889Y321619D01*
X250833Y321453D01*
X250796Y321360D01*
X250778Y321323D01*
X250630Y321045D01*
X250463Y320805D01*
X250296Y320601D01*
X250148Y320434D01*
X250000Y320286D01*
X249889Y320194D01*
X249815Y320120D01*
X249797Y320101D01*
X249537Y319935D01*
X249241Y319768D01*
X248908Y319620D01*
X248593Y319490D01*
X248297Y319379D01*
X248186Y319342D01*
X248074Y319305D01*
X247982Y319268D01*
X247908Y319249D01*
X247871Y319231D01*
X247852D01*
X247593Y319157D01*
X247352Y319083D01*
X247130Y319009D01*
X246945Y318935D01*
X246760Y318879D01*
X246612Y318824D01*
X246482Y318787D01*
X246371Y318750D01*
X246204Y318675D01*
X246075Y318620D01*
X246019Y318601D01*
X246001Y318583D01*
X245871Y318509D01*
X245741Y318435D01*
X245649Y318342D01*
X245575Y318268D01*
X245464Y318157D01*
X245427Y318120D01*
Y318101D01*
X245352Y317990D01*
X245315Y317861D01*
X245241Y317638D01*
Y317527D01*
X245223Y317453D01*
Y317398D01*
Y317379D01*
X245241Y317120D01*
X245315Y316879D01*
X245389Y316676D01*
X245501Y316490D01*
X245593Y316361D01*
X245686Y316250D01*
X245760Y316176D01*
X245778Y316157D01*
X246001Y315991D01*
X246241Y315879D01*
X246482Y315787D01*
X246704Y315731D01*
X246926Y315694D01*
X247093Y315676D01*
X247241D01*
X247575Y315694D01*
X247889Y315787D01*
X248148Y315898D01*
X248389Y316046D01*
X248611Y316231D01*
X248797Y316435D01*
X248945Y316657D01*
X249074Y316879D01*
X249185Y317101D01*
X249278Y317324D01*
X249352Y317527D01*
X249408Y317712D01*
X249445Y317861D01*
X249463Y317972D01*
X249482Y318064D01*
Y318083D01*
X251500Y317842D01*
X251444Y317453D01*
X251389Y317083D01*
X251296Y316750D01*
X251204Y316416D01*
X251074Y316120D01*
X250944Y315842D01*
X250815Y315602D01*
X250667Y315361D01*
X250500Y315139D01*
X250333Y314935D01*
X249982Y314602D01*
X249611Y314305D01*
X249241Y314083D01*
X248871Y313898D01*
X248519Y313769D01*
X248186Y313676D01*
X247889Y313620D01*
X247649Y313583D01*
X247463Y313546D01*
X247297D01*
X246908Y313565D01*
X246556Y313602D01*
X246223Y313639D01*
X245908Y313713D01*
X245630Y313806D01*
X245371Y313898D01*
X245130Y313991D01*
X244927Y314102D01*
X244760Y314194D01*
X244593Y314287D01*
X244464Y314380D01*
X244353Y314472D01*
X244279Y314546D01*
X244223Y314583D01*
X244186Y314620D01*
X244167Y314639D01*
X243982Y314861D01*
X243834Y315083D01*
X243686Y315305D01*
X243575Y315528D01*
X243390Y315991D01*
X243279Y316435D01*
X243242Y316620D01*
X243205Y316805D01*
X243186Y316972D01*
X243167Y317101D01*
X243149Y317231D01*
Y317305D01*
Y317361D01*
Y317379D01*
X243167Y317787D01*
X243205Y318157D01*
X243260Y318490D01*
X243334Y318768D01*
X243408Y318990D01*
X243464Y319157D01*
X243501Y319268D01*
X243519Y319305D01*
X243668Y319583D01*
X243834Y319842D01*
X244019Y320064D01*
X244186Y320249D01*
X244353Y320397D01*
X244482Y320490D01*
X244556Y320564D01*
X244593Y320583D01*
X244723Y320675D01*
X244890Y320768D01*
X245241Y320953D01*
X245612Y321101D01*
X245982Y321249D01*
X246315Y321379D01*
X246464Y321416D01*
X246593Y321471D01*
X246704Y321508D01*
X246778Y321527D01*
X246834Y321545D01*
X246852D01*
X247112Y321619D01*
X247352Y321694D01*
X247575Y321768D01*
X247760Y321842D01*
X247945Y321916D01*
X248093Y321971D01*
X248223Y322045D01*
X248352Y322101D01*
X248537Y322194D01*
X248648Y322268D01*
X248722Y322305D01*
X248741Y322323D01*
X248871Y322453D01*
X248982Y322601D01*
X249056Y322730D01*
X249093Y322860D01*
X249130Y322990D01*
X249148Y323082D01*
Y323138D01*
Y323156D01*
X249130Y323342D01*
X249074Y323508D01*
X249000Y323656D01*
X248926Y323786D01*
X248852Y323897D01*
X248778Y323971D01*
X248722Y324008D01*
X248704Y324027D01*
X248519Y324138D01*
X248297Y324230D01*
X248093Y324286D01*
X247889Y324342D01*
X247704Y324360D01*
X247537Y324379D01*
X247408D01*
X247112Y324360D01*
X246852Y324323D01*
X246630Y324249D01*
X246445Y324175D01*
X246297Y324101D01*
X246186Y324027D01*
X246130Y323990D01*
X246112Y323971D01*
X245945Y323786D01*
X245815Y323582D01*
X245723Y323342D01*
X245630Y323119D01*
X245575Y322897D01*
X245538Y322730D01*
X245519Y322657D01*
X245501Y322601D01*
Y322582D01*
Y322564D01*
X243427Y322675D01*
X243445Y323008D01*
X243501Y323323D01*
X243556Y323601D01*
X243630Y323879D01*
X243704Y324119D01*
X243797Y324360D01*
X243908Y324564D01*
X244001Y324749D01*
X244093Y324916D01*
X244186Y325064D01*
X244279Y325193D01*
X244353Y325286D01*
X244427Y325360D01*
X244482Y325434D01*
X244501Y325452D01*
X244519Y325471D01*
X244723Y325656D01*
X244927Y325804D01*
X245167Y325934D01*
X245389Y326045D01*
X245871Y326230D01*
X246315Y326341D01*
X246538Y326397D01*
X246723Y326415D01*
X246908Y326434D01*
X247056Y326452D01*
X247186Y326471D01*
X247352D01*
X247778Y326452D01*
D02*
G37*
G36*
X231002Y296500D02*
X228928D01*
Y300277D01*
X227243Y302370D01*
X224447Y296500D01*
X221744D01*
X225780Y304166D01*
X221929Y309017D01*
X224725D01*
X228928Y303425D01*
Y309017D01*
X231002D01*
Y296500D01*
D02*
G37*
G36*
Y313750D02*
X223781D01*
Y315861D01*
X228928D01*
Y326175D01*
X231002D01*
Y313750D01*
D02*
G37*
G36*
X63132Y157500D02*
X59243D01*
X58799Y157519D01*
X58392Y157556D01*
X58040Y157611D01*
X57744Y157685D01*
X57503Y157741D01*
X57336Y157796D01*
X57225Y157833D01*
X57188Y157852D01*
X56892Y158000D01*
X56633Y158167D01*
X56410Y158333D01*
X56207Y158500D01*
X56059Y158648D01*
X55929Y158778D01*
X55855Y158852D01*
X55836Y158889D01*
X55633Y159166D01*
X55448Y159481D01*
X55281Y159796D01*
X55151Y160111D01*
X55040Y160370D01*
X54966Y160592D01*
X54929Y160685D01*
X54910Y160740D01*
X54892Y160777D01*
Y160796D01*
X54762Y161259D01*
X54670Y161740D01*
X54614Y162222D01*
X54559Y162666D01*
Y162870D01*
X54540Y163055D01*
Y163222D01*
X54522Y163351D01*
Y163462D01*
Y163555D01*
Y163610D01*
Y163629D01*
X54540Y164277D01*
X54577Y164851D01*
X54596Y165129D01*
X54633Y165369D01*
X54670Y165592D01*
X54688Y165795D01*
X54725Y165981D01*
X54762Y166147D01*
X54799Y166295D01*
X54818Y166406D01*
X54837Y166499D01*
X54855Y166573D01*
X54873Y166610D01*
Y166629D01*
X55022Y167073D01*
X55170Y167462D01*
X55336Y167795D01*
X55503Y168073D01*
X55633Y168314D01*
X55744Y168480D01*
X55818Y168573D01*
X55855Y168610D01*
X56096Y168869D01*
X56318Y169091D01*
X56558Y169277D01*
X56762Y169425D01*
X56947Y169536D01*
X57077Y169628D01*
X57170Y169665D01*
X57207Y169684D01*
X57503Y169795D01*
X57855Y169869D01*
X58207Y169943D01*
X58558Y169980D01*
X58873Y169999D01*
X59003D01*
X59114Y170017D01*
X63132D01*
Y157500D01*
D02*
G37*
G36*
X237335Y326452D02*
X237705Y326397D01*
X238038Y326323D01*
X238372Y326230D01*
X238668Y326101D01*
X238946Y325971D01*
X239205Y325823D01*
X239427Y325693D01*
X239631Y325545D01*
X239816Y325397D01*
X239964Y325267D01*
X240094Y325138D01*
X240186Y325045D01*
X240260Y324971D01*
X240298Y324916D01*
X240316Y324897D01*
X240575Y324545D01*
X240797Y324156D01*
X240983Y323768D01*
X241149Y323360D01*
X241297Y322934D01*
X241409Y322527D01*
X241501Y322119D01*
X241575Y321712D01*
X241631Y321342D01*
X241686Y321008D01*
X241723Y320694D01*
X241742Y320416D01*
Y320212D01*
X241760Y320046D01*
Y319935D01*
Y319916D01*
Y319897D01*
X241742Y319342D01*
X241705Y318824D01*
X241631Y318324D01*
X241538Y317861D01*
X241427Y317435D01*
X241316Y317046D01*
X241186Y316676D01*
X241038Y316361D01*
X240909Y316065D01*
X240779Y315805D01*
X240668Y315583D01*
X240557Y315417D01*
X240464Y315268D01*
X240390Y315157D01*
X240353Y315102D01*
X240334Y315083D01*
X240094Y314805D01*
X239834Y314583D01*
X239575Y314380D01*
X239298Y314194D01*
X239020Y314046D01*
X238761Y313917D01*
X238501Y313824D01*
X238242Y313731D01*
X238001Y313676D01*
X237779Y313620D01*
X237575Y313602D01*
X237409Y313565D01*
X237261D01*
X237168Y313546D01*
X237076D01*
X236779Y313565D01*
X236502Y313583D01*
X235983Y313694D01*
X235520Y313843D01*
X235317Y313935D01*
X235131Y314028D01*
X234965Y314120D01*
X234816Y314213D01*
X234687Y314287D01*
X234594Y314361D01*
X234502Y314417D01*
X234446Y314472D01*
X234409Y314491D01*
X234391Y314509D01*
X234187Y314713D01*
X234002Y314916D01*
X233687Y315398D01*
X233409Y315916D01*
X233187Y316416D01*
X233095Y316657D01*
X233020Y316879D01*
X232965Y317083D01*
X232909Y317250D01*
X232872Y317398D01*
X232835Y317509D01*
X232817Y317583D01*
Y317601D01*
X234835Y318379D01*
X234946Y317879D01*
X235094Y317472D01*
X235224Y317120D01*
X235372Y316842D01*
X235502Y316620D01*
X235613Y316472D01*
X235687Y316379D01*
X235705Y316342D01*
X235928Y316139D01*
X236168Y315972D01*
X236409Y315861D01*
X236631Y315787D01*
X236816Y315750D01*
X236983Y315731D01*
X237076Y315713D01*
X237113D01*
X237316Y315731D01*
X237502Y315750D01*
X237872Y315861D01*
X238168Y316028D01*
X238427Y316213D01*
X238650Y316379D01*
X238798Y316546D01*
X238890Y316657D01*
X238927Y316676D01*
Y316694D01*
X239038Y316898D01*
X239149Y317120D01*
X239242Y317379D01*
X239316Y317638D01*
X239446Y318194D01*
X239520Y318750D01*
X239557Y319009D01*
X239575Y319249D01*
X239594Y319472D01*
Y319657D01*
X239612Y319823D01*
Y319935D01*
Y320027D01*
Y320046D01*
Y320453D01*
X239575Y320842D01*
X239538Y321194D01*
X239501Y321508D01*
X239446Y321805D01*
X239390Y322082D01*
X239335Y322323D01*
X239261Y322527D01*
X239186Y322712D01*
X239131Y322879D01*
X239075Y323008D01*
X239020Y323119D01*
X238964Y323194D01*
X238946Y323268D01*
X238909Y323286D01*
Y323305D01*
X238761Y323490D01*
X238612Y323638D01*
X238464Y323768D01*
X238316Y323879D01*
X238001Y324064D01*
X237705Y324175D01*
X237446Y324249D01*
X237242Y324286D01*
X237168Y324305D01*
X237057D01*
X236761Y324286D01*
X236502Y324212D01*
X236279Y324138D01*
X236076Y324027D01*
X235909Y323934D01*
X235779Y323842D01*
X235705Y323768D01*
X235687Y323749D01*
X235483Y323527D01*
X235317Y323286D01*
X235168Y323027D01*
X235057Y322768D01*
X234983Y322545D01*
X234928Y322360D01*
X234909Y322286D01*
Y322231D01*
X234891Y322212D01*
Y322194D01*
X232835Y322786D01*
X232909Y323082D01*
X233002Y323360D01*
X233095Y323619D01*
X233187Y323879D01*
X233298Y324101D01*
X233391Y324305D01*
X233502Y324471D01*
X233594Y324638D01*
X233687Y324786D01*
X233780Y324916D01*
X233854Y325027D01*
X233928Y325119D01*
X233983Y325175D01*
X234020Y325230D01*
X234039Y325267D01*
X234057D01*
X234280Y325471D01*
X234520Y325656D01*
X234761Y325823D01*
X235002Y325971D01*
X235242Y326082D01*
X235483Y326175D01*
X235946Y326323D01*
X236150Y326378D01*
X236335Y326415D01*
X236502Y326434D01*
X236650Y326452D01*
X236779Y326471D01*
X236946D01*
X237335Y326452D01*
D02*
G37*
G36*
X238455Y288952D02*
X238862Y288897D01*
X239196Y288841D01*
X239492Y288767D01*
X239733Y288675D01*
X239918Y288619D01*
X240029Y288563D01*
X240047Y288545D01*
X240066D01*
X240362Y288378D01*
X240603Y288175D01*
X240825Y287971D01*
X241010Y287767D01*
X241159Y287582D01*
X241251Y287434D01*
X241325Y287341D01*
X241344Y287323D01*
Y287304D01*
X241492Y286990D01*
X241603Y286675D01*
X241695Y286360D01*
X241751Y286082D01*
X241788Y285842D01*
X241807Y285638D01*
Y285564D01*
Y285508D01*
Y285490D01*
Y285471D01*
X241788Y285156D01*
X241751Y284842D01*
X241695Y284564D01*
X241621Y284323D01*
X241566Y284119D01*
X241510Y283953D01*
X241473Y283860D01*
X241455Y283823D01*
X241307Y283545D01*
X241140Y283305D01*
X240973Y283101D01*
X240825Y282934D01*
X240677Y282786D01*
X240566Y282694D01*
X240492Y282620D01*
X240473Y282601D01*
X240214Y282435D01*
X239918Y282268D01*
X239585Y282120D01*
X239270Y281990D01*
X238974Y281879D01*
X238862Y281842D01*
X238751Y281805D01*
X238659Y281768D01*
X238585Y281749D01*
X238548Y281731D01*
X238529D01*
X238270Y281657D01*
X238029Y281583D01*
X237807Y281509D01*
X237622Y281435D01*
X237437Y281379D01*
X237288Y281324D01*
X237159Y281287D01*
X237048Y281250D01*
X236881Y281175D01*
X236751Y281120D01*
X236696Y281101D01*
X236677Y281083D01*
X236548Y281009D01*
X236418Y280935D01*
X236326Y280842D01*
X236252Y280768D01*
X236140Y280657D01*
X236103Y280620D01*
Y280601D01*
X236029Y280490D01*
X235992Y280361D01*
X235918Y280138D01*
Y280027D01*
X235900Y279953D01*
Y279898D01*
Y279879D01*
X235918Y279620D01*
X235992Y279379D01*
X236066Y279176D01*
X236178Y278990D01*
X236270Y278861D01*
X236363Y278750D01*
X236437Y278676D01*
X236455Y278657D01*
X236677Y278491D01*
X236918Y278379D01*
X237159Y278287D01*
X237381Y278231D01*
X237603Y278194D01*
X237770Y278176D01*
X237918D01*
X238251Y278194D01*
X238566Y278287D01*
X238825Y278398D01*
X239066Y278546D01*
X239288Y278731D01*
X239473Y278935D01*
X239622Y279157D01*
X239751Y279379D01*
X239862Y279601D01*
X239955Y279824D01*
X240029Y280027D01*
X240084Y280212D01*
X240122Y280361D01*
X240140Y280472D01*
X240159Y280564D01*
Y280583D01*
X242177Y280342D01*
X242121Y279953D01*
X242066Y279583D01*
X241973Y279250D01*
X241881Y278916D01*
X241751Y278620D01*
X241621Y278342D01*
X241492Y278102D01*
X241344Y277861D01*
X241177Y277639D01*
X241010Y277435D01*
X240658Y277102D01*
X240288Y276805D01*
X239918Y276583D01*
X239548Y276398D01*
X239196Y276269D01*
X238862Y276176D01*
X238566Y276120D01*
X238326Y276083D01*
X238140Y276046D01*
X237974D01*
X237585Y276065D01*
X237233Y276102D01*
X236900Y276139D01*
X236585Y276213D01*
X236307Y276306D01*
X236048Y276398D01*
X235807Y276491D01*
X235604Y276602D01*
X235437Y276694D01*
X235270Y276787D01*
X235141Y276880D01*
X235030Y276972D01*
X234955Y277046D01*
X234900Y277083D01*
X234863Y277120D01*
X234844Y277139D01*
X234659Y277361D01*
X234511Y277583D01*
X234363Y277805D01*
X234252Y278028D01*
X234067Y278491D01*
X233955Y278935D01*
X233918Y279120D01*
X233881Y279305D01*
X233863Y279472D01*
X233844Y279601D01*
X233826Y279731D01*
Y279805D01*
Y279861D01*
Y279879D01*
X233844Y280287D01*
X233881Y280657D01*
X233937Y280990D01*
X234011Y281268D01*
X234085Y281490D01*
X234141Y281657D01*
X234178Y281768D01*
X234196Y281805D01*
X234344Y282083D01*
X234511Y282342D01*
X234696Y282564D01*
X234863Y282749D01*
X235030Y282897D01*
X235159Y282990D01*
X235233Y283064D01*
X235270Y283083D01*
X235400Y283175D01*
X235567Y283268D01*
X235918Y283453D01*
X236289Y283601D01*
X236659Y283749D01*
X236992Y283879D01*
X237140Y283916D01*
X237270Y283971D01*
X237381Y284008D01*
X237455Y284027D01*
X237511Y284046D01*
X237529D01*
X237789Y284119D01*
X238029Y284194D01*
X238251Y284268D01*
X238437Y284342D01*
X238622Y284416D01*
X238770Y284471D01*
X238899Y284545D01*
X239029Y284601D01*
X239214Y284694D01*
X239325Y284768D01*
X239399Y284805D01*
X239418Y284823D01*
X239548Y284953D01*
X239659Y285101D01*
X239733Y285231D01*
X239770Y285360D01*
X239807Y285490D01*
X239825Y285582D01*
Y285638D01*
Y285656D01*
X239807Y285842D01*
X239751Y286008D01*
X239677Y286156D01*
X239603Y286286D01*
X239529Y286397D01*
X239455Y286471D01*
X239399Y286508D01*
X239381Y286527D01*
X239196Y286638D01*
X238974Y286730D01*
X238770Y286786D01*
X238566Y286842D01*
X238381Y286860D01*
X238214Y286879D01*
X238085D01*
X237789Y286860D01*
X237529Y286823D01*
X237307Y286749D01*
X237122Y286675D01*
X236974Y286601D01*
X236863Y286527D01*
X236807Y286490D01*
X236789Y286471D01*
X236622Y286286D01*
X236492Y286082D01*
X236400Y285842D01*
X236307Y285619D01*
X236252Y285397D01*
X236215Y285231D01*
X236196Y285156D01*
X236178Y285101D01*
Y285082D01*
Y285064D01*
X234104Y285175D01*
X234122Y285508D01*
X234178Y285823D01*
X234233Y286101D01*
X234307Y286379D01*
X234381Y286619D01*
X234474Y286860D01*
X234585Y287064D01*
X234678Y287249D01*
X234770Y287416D01*
X234863Y287564D01*
X234955Y287693D01*
X235030Y287786D01*
X235104Y287860D01*
X235159Y287934D01*
X235178Y287952D01*
X235196Y287971D01*
X235400Y288156D01*
X235604Y288304D01*
X235844Y288434D01*
X236066Y288545D01*
X236548Y288730D01*
X236992Y288841D01*
X237215Y288897D01*
X237400Y288915D01*
X237585Y288934D01*
X237733Y288952D01*
X237862Y288971D01*
X238029D01*
X238455Y288952D01*
D02*
G37*
G36*
X241251Y256000D02*
X238992D01*
X236955Y265351D01*
X234900Y256000D01*
X232696D01*
X230215Y268517D01*
X232308D01*
X233881Y259759D01*
X235696Y268517D01*
X238159D01*
X240029Y259907D01*
X241566Y268517D01*
X243677D01*
X241251Y256000D01*
D02*
G37*
G36*
X248028Y288952D02*
X248435Y288897D01*
X248769Y288841D01*
X249065Y288767D01*
X249306Y288675D01*
X249491Y288619D01*
X249602Y288563D01*
X249621Y288545D01*
X249639D01*
X249935Y288378D01*
X250176Y288175D01*
X250398Y287971D01*
X250583Y287767D01*
X250732Y287582D01*
X250824Y287434D01*
X250898Y287341D01*
X250917Y287323D01*
Y287304D01*
X251065Y286990D01*
X251176Y286675D01*
X251269Y286360D01*
X251324Y286082D01*
X251361Y285842D01*
X251380Y285638D01*
Y285564D01*
Y285508D01*
Y285490D01*
Y285471D01*
X251361Y285156D01*
X251324Y284842D01*
X251269Y284564D01*
X251194Y284323D01*
X251139Y284119D01*
X251083Y283953D01*
X251046Y283860D01*
X251028Y283823D01*
X250880Y283545D01*
X250713Y283305D01*
X250546Y283101D01*
X250398Y282934D01*
X250250Y282786D01*
X250139Y282694D01*
X250065Y282620D01*
X250047Y282601D01*
X249787Y282435D01*
X249491Y282268D01*
X249158Y282120D01*
X248843Y281990D01*
X248547Y281879D01*
X248435Y281842D01*
X248324Y281805D01*
X248232Y281768D01*
X248158Y281749D01*
X248121Y281731D01*
X248102D01*
X247843Y281657D01*
X247602Y281583D01*
X247380Y281509D01*
X247195Y281435D01*
X247010Y281379D01*
X246862Y281324D01*
X246732Y281287D01*
X246621Y281250D01*
X246454Y281175D01*
X246325Y281120D01*
X246269Y281101D01*
X246251Y281083D01*
X246121Y281009D01*
X245991Y280935D01*
X245899Y280842D01*
X245825Y280768D01*
X245714Y280657D01*
X245676Y280620D01*
Y280601D01*
X245602Y280490D01*
X245565Y280361D01*
X245491Y280138D01*
Y280027D01*
X245473Y279953D01*
Y279898D01*
Y279879D01*
X245491Y279620D01*
X245565Y279379D01*
X245639Y279176D01*
X245751Y278990D01*
X245843Y278861D01*
X245936Y278750D01*
X246010Y278676D01*
X246028Y278657D01*
X246251Y278491D01*
X246491Y278379D01*
X246732Y278287D01*
X246954Y278231D01*
X247176Y278194D01*
X247343Y278176D01*
X247491D01*
X247824Y278194D01*
X248139Y278287D01*
X248398Y278398D01*
X248639Y278546D01*
X248861Y278731D01*
X249047Y278935D01*
X249195Y279157D01*
X249324Y279379D01*
X249435Y279601D01*
X249528Y279824D01*
X249602Y280027D01*
X249658Y280212D01*
X249695Y280361D01*
X249713Y280472D01*
X249732Y280564D01*
Y280583D01*
X251750Y280342D01*
X251694Y279953D01*
X251639Y279583D01*
X251546Y279250D01*
X251454Y278916D01*
X251324Y278620D01*
X251194Y278342D01*
X251065Y278102D01*
X250917Y277861D01*
X250750Y277639D01*
X250583Y277435D01*
X250232Y277102D01*
X249861Y276805D01*
X249491Y276583D01*
X249121Y276398D01*
X248769Y276269D01*
X248435Y276176D01*
X248139Y276120D01*
X247899Y276083D01*
X247713Y276046D01*
X247547D01*
X247158Y276065D01*
X246806Y276102D01*
X246473Y276139D01*
X246158Y276213D01*
X245880Y276306D01*
X245621Y276398D01*
X245380Y276491D01*
X245177Y276602D01*
X245010Y276694D01*
X244843Y276787D01*
X244714Y276880D01*
X244603Y276972D01*
X244529Y277046D01*
X244473Y277083D01*
X244436Y277120D01*
X244417Y277139D01*
X244232Y277361D01*
X244084Y277583D01*
X243936Y277805D01*
X243825Y278028D01*
X243640Y278491D01*
X243529Y278935D01*
X243492Y279120D01*
X243455Y279305D01*
X243436Y279472D01*
X243417Y279601D01*
X243399Y279731D01*
Y279805D01*
Y279861D01*
Y279879D01*
X243417Y280287D01*
X243455Y280657D01*
X243510Y280990D01*
X243584Y281268D01*
X243658Y281490D01*
X243714Y281657D01*
X243751Y281768D01*
X243769Y281805D01*
X243918Y282083D01*
X244084Y282342D01*
X244269Y282564D01*
X244436Y282749D01*
X244603Y282897D01*
X244732Y282990D01*
X244806Y283064D01*
X244843Y283083D01*
X244973Y283175D01*
X245140Y283268D01*
X245491Y283453D01*
X245862Y283601D01*
X246232Y283749D01*
X246565Y283879D01*
X246714Y283916D01*
X246843Y283971D01*
X246954Y284008D01*
X247028Y284027D01*
X247084Y284046D01*
X247102D01*
X247362Y284119D01*
X247602Y284194D01*
X247824Y284268D01*
X248010Y284342D01*
X248195Y284416D01*
X248343Y284471D01*
X248473Y284545D01*
X248602Y284601D01*
X248787Y284694D01*
X248898Y284768D01*
X248972Y284805D01*
X248991Y284823D01*
X249121Y284953D01*
X249232Y285101D01*
X249306Y285231D01*
X249343Y285360D01*
X249380Y285490D01*
X249398Y285582D01*
Y285638D01*
Y285656D01*
X249380Y285842D01*
X249324Y286008D01*
X249250Y286156D01*
X249176Y286286D01*
X249102Y286397D01*
X249028Y286471D01*
X248972Y286508D01*
X248954Y286527D01*
X248769Y286638D01*
X248547Y286730D01*
X248343Y286786D01*
X248139Y286842D01*
X247954Y286860D01*
X247787Y286879D01*
X247658D01*
X247362Y286860D01*
X247102Y286823D01*
X246880Y286749D01*
X246695Y286675D01*
X246547Y286601D01*
X246436Y286527D01*
X246380Y286490D01*
X246362Y286471D01*
X246195Y286286D01*
X246065Y286082D01*
X245973Y285842D01*
X245880Y285619D01*
X245825Y285397D01*
X245788Y285231D01*
X245769Y285156D01*
X245751Y285101D01*
Y285082D01*
Y285064D01*
X243677Y285175D01*
X243695Y285508D01*
X243751Y285823D01*
X243806Y286101D01*
X243880Y286379D01*
X243955Y286619D01*
X244047Y286860D01*
X244158Y287064D01*
X244251Y287249D01*
X244343Y287416D01*
X244436Y287564D01*
X244529Y287693D01*
X244603Y287786D01*
X244677Y287860D01*
X244732Y287934D01*
X244751Y287952D01*
X244769Y287971D01*
X244973Y288156D01*
X245177Y288304D01*
X245417Y288434D01*
X245639Y288545D01*
X246121Y288730D01*
X246565Y288841D01*
X246787Y288897D01*
X246973Y288915D01*
X247158Y288934D01*
X247306Y288952D01*
X247436Y288971D01*
X247602D01*
X248028Y288952D01*
D02*
G37*
G36*
X237335Y309202D02*
X237705Y309147D01*
X238038Y309073D01*
X238372Y308980D01*
X238668Y308851D01*
X238946Y308721D01*
X239205Y308573D01*
X239427Y308443D01*
X239631Y308295D01*
X239816Y308147D01*
X239964Y308017D01*
X240094Y307888D01*
X240186Y307795D01*
X240260Y307721D01*
X240298Y307666D01*
X240316Y307647D01*
X240575Y307295D01*
X240797Y306906D01*
X240983Y306518D01*
X241149Y306110D01*
X241297Y305684D01*
X241409Y305277D01*
X241501Y304869D01*
X241575Y304462D01*
X241631Y304092D01*
X241686Y303759D01*
X241723Y303444D01*
X241742Y303166D01*
Y302962D01*
X241760Y302796D01*
Y302684D01*
Y302666D01*
Y302647D01*
X241742Y302092D01*
X241705Y301574D01*
X241631Y301074D01*
X241538Y300611D01*
X241427Y300185D01*
X241316Y299796D01*
X241186Y299426D01*
X241038Y299111D01*
X240909Y298815D01*
X240779Y298555D01*
X240668Y298333D01*
X240557Y298167D01*
X240464Y298018D01*
X240390Y297907D01*
X240353Y297852D01*
X240334Y297833D01*
X240094Y297555D01*
X239834Y297333D01*
X239575Y297130D01*
X239298Y296944D01*
X239020Y296796D01*
X238761Y296667D01*
X238501Y296574D01*
X238242Y296481D01*
X238001Y296426D01*
X237779Y296370D01*
X237575Y296352D01*
X237409Y296315D01*
X237261D01*
X237168Y296296D01*
X237076D01*
X236779Y296315D01*
X236502Y296333D01*
X235983Y296444D01*
X235520Y296593D01*
X235317Y296685D01*
X235131Y296778D01*
X234965Y296870D01*
X234816Y296963D01*
X234687Y297037D01*
X234594Y297111D01*
X234502Y297167D01*
X234446Y297222D01*
X234409Y297241D01*
X234391Y297259D01*
X234187Y297463D01*
X234002Y297666D01*
X233687Y298148D01*
X233409Y298666D01*
X233187Y299166D01*
X233095Y299407D01*
X233020Y299629D01*
X232965Y299833D01*
X232909Y300000D01*
X232872Y300148D01*
X232835Y300259D01*
X232817Y300333D01*
Y300351D01*
X234835Y301129D01*
X234946Y300629D01*
X235094Y300222D01*
X235224Y299870D01*
X235372Y299592D01*
X235502Y299370D01*
X235613Y299222D01*
X235687Y299129D01*
X235705Y299092D01*
X235928Y298889D01*
X236168Y298722D01*
X236409Y298611D01*
X236631Y298537D01*
X236816Y298500D01*
X236983Y298481D01*
X237076Y298463D01*
X237113D01*
X237316Y298481D01*
X237502Y298500D01*
X237872Y298611D01*
X238168Y298778D01*
X238427Y298963D01*
X238650Y299129D01*
X238798Y299296D01*
X238890Y299407D01*
X238927Y299426D01*
Y299444D01*
X239038Y299648D01*
X239149Y299870D01*
X239242Y300129D01*
X239316Y300389D01*
X239446Y300944D01*
X239520Y301500D01*
X239557Y301759D01*
X239575Y301999D01*
X239594Y302222D01*
Y302407D01*
X239612Y302573D01*
Y302684D01*
Y302777D01*
Y302796D01*
Y303203D01*
X239575Y303592D01*
X239538Y303944D01*
X239501Y304258D01*
X239446Y304555D01*
X239390Y304832D01*
X239335Y305073D01*
X239261Y305277D01*
X239186Y305462D01*
X239131Y305629D01*
X239075Y305758D01*
X239020Y305869D01*
X238964Y305944D01*
X238946Y306017D01*
X238909Y306036D01*
Y306055D01*
X238761Y306240D01*
X238612Y306388D01*
X238464Y306518D01*
X238316Y306629D01*
X238001Y306814D01*
X237705Y306925D01*
X237446Y306999D01*
X237242Y307036D01*
X237168Y307055D01*
X237057D01*
X236761Y307036D01*
X236502Y306962D01*
X236279Y306888D01*
X236076Y306777D01*
X235909Y306684D01*
X235779Y306591D01*
X235705Y306518D01*
X235687Y306499D01*
X235483Y306277D01*
X235317Y306036D01*
X235168Y305777D01*
X235057Y305518D01*
X234983Y305295D01*
X234928Y305110D01*
X234909Y305036D01*
Y304981D01*
X234891Y304962D01*
Y304944D01*
X232835Y305536D01*
X232909Y305832D01*
X233002Y306110D01*
X233095Y306369D01*
X233187Y306629D01*
X233298Y306851D01*
X233391Y307055D01*
X233502Y307221D01*
X233594Y307388D01*
X233687Y307536D01*
X233780Y307666D01*
X233854Y307777D01*
X233928Y307869D01*
X233983Y307925D01*
X234020Y307980D01*
X234039Y308017D01*
X234057D01*
X234280Y308221D01*
X234520Y308406D01*
X234761Y308573D01*
X235002Y308721D01*
X235242Y308832D01*
X235483Y308925D01*
X235946Y309073D01*
X236150Y309128D01*
X236335Y309165D01*
X236502Y309184D01*
X236650Y309202D01*
X236779Y309221D01*
X236946D01*
X237335Y309202D01*
D02*
G37*
G36*
X247778D02*
X248186Y309147D01*
X248519Y309091D01*
X248815Y309017D01*
X249056Y308925D01*
X249241Y308869D01*
X249352Y308813D01*
X249371Y308795D01*
X249389D01*
X249685Y308628D01*
X249926Y308425D01*
X250148Y308221D01*
X250333Y308017D01*
X250482Y307832D01*
X250574Y307684D01*
X250648Y307591D01*
X250667Y307573D01*
Y307554D01*
X250815Y307240D01*
X250926Y306925D01*
X251019Y306610D01*
X251074Y306332D01*
X251111Y306092D01*
X251130Y305888D01*
Y305814D01*
Y305758D01*
Y305740D01*
Y305721D01*
X251111Y305406D01*
X251074Y305092D01*
X251019Y304814D01*
X250944Y304573D01*
X250889Y304370D01*
X250833Y304203D01*
X250796Y304110D01*
X250778Y304073D01*
X250630Y303796D01*
X250463Y303555D01*
X250296Y303351D01*
X250148Y303185D01*
X250000Y303036D01*
X249889Y302944D01*
X249815Y302870D01*
X249797Y302851D01*
X249537Y302684D01*
X249241Y302518D01*
X248908Y302370D01*
X248593Y302240D01*
X248297Y302129D01*
X248186Y302092D01*
X248074Y302055D01*
X247982Y302018D01*
X247908Y301999D01*
X247871Y301981D01*
X247852D01*
X247593Y301907D01*
X247352Y301833D01*
X247130Y301759D01*
X246945Y301685D01*
X246760Y301629D01*
X246612Y301574D01*
X246482Y301537D01*
X246371Y301500D01*
X246204Y301425D01*
X246075Y301370D01*
X246019Y301351D01*
X246001Y301333D01*
X245871Y301259D01*
X245741Y301185D01*
X245649Y301092D01*
X245575Y301018D01*
X245464Y300907D01*
X245427Y300870D01*
Y300851D01*
X245352Y300740D01*
X245315Y300611D01*
X245241Y300389D01*
Y300277D01*
X245223Y300203D01*
Y300148D01*
Y300129D01*
X245241Y299870D01*
X245315Y299629D01*
X245389Y299426D01*
X245501Y299240D01*
X245593Y299111D01*
X245686Y299000D01*
X245760Y298926D01*
X245778Y298907D01*
X246001Y298741D01*
X246241Y298629D01*
X246482Y298537D01*
X246704Y298481D01*
X246926Y298444D01*
X247093Y298426D01*
X247241D01*
X247575Y298444D01*
X247889Y298537D01*
X248148Y298648D01*
X248389Y298796D01*
X248611Y298981D01*
X248797Y299185D01*
X248945Y299407D01*
X249074Y299629D01*
X249185Y299851D01*
X249278Y300074D01*
X249352Y300277D01*
X249408Y300462D01*
X249445Y300611D01*
X249463Y300722D01*
X249482Y300814D01*
Y300833D01*
X251500Y300592D01*
X251444Y300203D01*
X251389Y299833D01*
X251296Y299500D01*
X251204Y299166D01*
X251074Y298870D01*
X250944Y298592D01*
X250815Y298352D01*
X250667Y298111D01*
X250500Y297889D01*
X250333Y297685D01*
X249982Y297352D01*
X249611Y297055D01*
X249241Y296833D01*
X248871Y296648D01*
X248519Y296518D01*
X248186Y296426D01*
X247889Y296370D01*
X247649Y296333D01*
X247463Y296296D01*
X247297D01*
X246908Y296315D01*
X246556Y296352D01*
X246223Y296389D01*
X245908Y296463D01*
X245630Y296556D01*
X245371Y296648D01*
X245130Y296741D01*
X244927Y296852D01*
X244760Y296944D01*
X244593Y297037D01*
X244464Y297130D01*
X244353Y297222D01*
X244279Y297296D01*
X244223Y297333D01*
X244186Y297370D01*
X244167Y297389D01*
X243982Y297611D01*
X243834Y297833D01*
X243686Y298055D01*
X243575Y298278D01*
X243390Y298741D01*
X243279Y299185D01*
X243242Y299370D01*
X243205Y299555D01*
X243186Y299722D01*
X243167Y299851D01*
X243149Y299981D01*
Y300055D01*
Y300111D01*
Y300129D01*
X243167Y300537D01*
X243205Y300907D01*
X243260Y301240D01*
X243334Y301518D01*
X243408Y301740D01*
X243464Y301907D01*
X243501Y302018D01*
X243519Y302055D01*
X243668Y302333D01*
X243834Y302592D01*
X244019Y302814D01*
X244186Y302999D01*
X244353Y303148D01*
X244482Y303240D01*
X244556Y303314D01*
X244593Y303333D01*
X244723Y303425D01*
X244890Y303518D01*
X245241Y303703D01*
X245612Y303851D01*
X245982Y303999D01*
X246315Y304129D01*
X246464Y304166D01*
X246593Y304221D01*
X246704Y304258D01*
X246778Y304277D01*
X246834Y304296D01*
X246852D01*
X247112Y304370D01*
X247352Y304444D01*
X247575Y304518D01*
X247760Y304592D01*
X247945Y304666D01*
X248093Y304721D01*
X248223Y304795D01*
X248352Y304851D01*
X248537Y304944D01*
X248648Y305018D01*
X248722Y305055D01*
X248741Y305073D01*
X248871Y305203D01*
X248982Y305351D01*
X249056Y305480D01*
X249093Y305610D01*
X249130Y305740D01*
X249148Y305832D01*
Y305888D01*
Y305906D01*
X249130Y306092D01*
X249074Y306258D01*
X249000Y306406D01*
X248926Y306536D01*
X248852Y306647D01*
X248778Y306721D01*
X248722Y306758D01*
X248704Y306777D01*
X248519Y306888D01*
X248297Y306980D01*
X248093Y307036D01*
X247889Y307092D01*
X247704Y307110D01*
X247537Y307129D01*
X247408D01*
X247112Y307110D01*
X246852Y307073D01*
X246630Y306999D01*
X246445Y306925D01*
X246297Y306851D01*
X246186Y306777D01*
X246130Y306740D01*
X246112Y306721D01*
X245945Y306536D01*
X245815Y306332D01*
X245723Y306092D01*
X245630Y305869D01*
X245575Y305647D01*
X245538Y305480D01*
X245519Y305406D01*
X245501Y305351D01*
Y305332D01*
Y305314D01*
X243427Y305425D01*
X243445Y305758D01*
X243501Y306073D01*
X243556Y306351D01*
X243630Y306629D01*
X243704Y306869D01*
X243797Y307110D01*
X243908Y307314D01*
X244001Y307499D01*
X244093Y307666D01*
X244186Y307814D01*
X244279Y307943D01*
X244353Y308036D01*
X244427Y308110D01*
X244482Y308184D01*
X244501Y308202D01*
X244519Y308221D01*
X244723Y308406D01*
X244927Y308554D01*
X245167Y308684D01*
X245389Y308795D01*
X245871Y308980D01*
X246315Y309091D01*
X246538Y309147D01*
X246723Y309165D01*
X246908Y309184D01*
X247056Y309202D01*
X247186Y309221D01*
X247352D01*
X247778Y309202D01*
D02*
G37*
G36*
X80463Y170184D02*
X80963Y170110D01*
X81408Y169980D01*
X81797Y169851D01*
X81963Y169776D01*
X82111Y169721D01*
X82241Y169647D01*
X82334Y169591D01*
X82426Y169554D01*
X82482Y169517D01*
X82519Y169480D01*
X82537D01*
X82926Y169184D01*
X83278Y168832D01*
X83574Y168480D01*
X83834Y168110D01*
X84037Y167795D01*
X84130Y167666D01*
X84185Y167536D01*
X84241Y167443D01*
X84278Y167369D01*
X84315Y167314D01*
Y167295D01*
X84537Y166721D01*
X84704Y166129D01*
X84833Y165536D01*
X84907Y164981D01*
X84944Y164722D01*
X84963Y164499D01*
X84981Y164277D01*
Y164110D01*
X85000Y163962D01*
Y163851D01*
Y163777D01*
Y163759D01*
X84963Y163036D01*
X84889Y162370D01*
X84852Y162055D01*
X84796Y161777D01*
X84722Y161500D01*
X84667Y161259D01*
X84611Y161037D01*
X84537Y160833D01*
X84481Y160666D01*
X84445Y160518D01*
X84389Y160407D01*
X84370Y160333D01*
X84333Y160278D01*
Y160259D01*
X84056Y159740D01*
X83759Y159296D01*
X83445Y158907D01*
X83148Y158593D01*
X82889Y158352D01*
X82667Y158185D01*
X82593Y158111D01*
X82537Y158074D01*
X82500Y158055D01*
X82482Y158037D01*
X82037Y157796D01*
X81574Y157611D01*
X81111Y157481D01*
X80704Y157389D01*
X80519Y157352D01*
X80334Y157333D01*
X80186Y157315D01*
X80056D01*
X79945Y157296D01*
X79797D01*
X79334Y157315D01*
X78889Y157389D01*
X78464Y157481D01*
X78093Y157574D01*
X77779Y157685D01*
X77649Y157722D01*
X77519Y157759D01*
X77445Y157796D01*
X77371Y157833D01*
X77334Y157852D01*
X77316D01*
X76871Y158074D01*
X76482Y158315D01*
X76168Y158537D01*
X75890Y158759D01*
X75668Y158944D01*
X75519Y159092D01*
X75427Y159185D01*
X75390Y159222D01*
Y164203D01*
X79852D01*
Y162092D01*
X77482D01*
Y160518D01*
X77686Y160333D01*
X77890Y160185D01*
X78093Y160055D01*
X78260Y159944D01*
X78427Y159852D01*
X78556Y159796D01*
X78630Y159759D01*
X78667Y159740D01*
X78908Y159648D01*
X79130Y159574D01*
X79352Y159537D01*
X79538Y159500D01*
X79686Y159481D01*
X79797Y159463D01*
X79908D01*
X80149Y159481D01*
X80371Y159500D01*
X80778Y159611D01*
X81149Y159777D01*
X81445Y159963D01*
X81667Y160148D01*
X81834Y160315D01*
X81945Y160426D01*
X81963Y160444D01*
X81982Y160463D01*
X82130Y160703D01*
X82260Y160944D01*
X82482Y161500D01*
X82630Y162074D01*
X82741Y162629D01*
X82778Y162870D01*
X82796Y163111D01*
X82834Y163333D01*
Y163518D01*
X82852Y163666D01*
Y163796D01*
Y163870D01*
Y163888D01*
X82834Y164277D01*
X82815Y164629D01*
X82778Y164962D01*
X82723Y165277D01*
X82667Y165555D01*
X82593Y165814D01*
X82519Y166036D01*
X82445Y166240D01*
X82371Y166425D01*
X82297Y166592D01*
X82222Y166721D01*
X82167Y166832D01*
X82111Y166906D01*
X82074Y166962D01*
X82037Y166999D01*
Y167017D01*
X81871Y167203D01*
X81704Y167369D01*
X81537Y167499D01*
X81352Y167610D01*
X81000Y167795D01*
X80649Y167925D01*
X80352Y167999D01*
X80223Y168017D01*
X80112Y168036D01*
X80019Y168055D01*
X79889D01*
X79575Y168036D01*
X79297Y167980D01*
X79056Y167888D01*
X78834Y167795D01*
X78667Y167703D01*
X78538Y167610D01*
X78445Y167554D01*
X78427Y167536D01*
X78223Y167332D01*
X78038Y167092D01*
X77890Y166832D01*
X77779Y166610D01*
X77686Y166388D01*
X77630Y166221D01*
X77593Y166092D01*
X77575Y166073D01*
Y166055D01*
X75519Y166518D01*
X75594Y166851D01*
X75668Y167166D01*
X75779Y167443D01*
X75890Y167721D01*
X76001Y167962D01*
X76131Y168184D01*
X76242Y168388D01*
X76371Y168573D01*
X76482Y168740D01*
X76593Y168888D01*
X76705Y168999D01*
X76779Y169110D01*
X76853Y169184D01*
X76908Y169240D01*
X76945Y169258D01*
X76964Y169277D01*
X77168Y169443D01*
X77408Y169591D01*
X77649Y169721D01*
X77890Y169832D01*
X78371Y169999D01*
X78853Y170110D01*
X79056Y170147D01*
X79260Y170165D01*
X79445Y170184D01*
X79593Y170202D01*
X79723Y170221D01*
X79908D01*
X80463Y170184D01*
D02*
G37*
G36*
X62650Y177000D02*
X60576D01*
Y181722D01*
X58891D01*
X58576Y181740D01*
X58280Y181759D01*
X58021Y181777D01*
X57780Y181814D01*
X57576Y181833D01*
X57373Y181870D01*
X57206Y181907D01*
X57058Y181944D01*
X56929Y181981D01*
X56836Y181999D01*
X56743Y182036D01*
X56669Y182055D01*
X56632Y182073D01*
X56595Y182092D01*
X56317Y182259D01*
X56058Y182444D01*
X55836Y182666D01*
X55651Y182870D01*
X55503Y183055D01*
X55392Y183222D01*
X55318Y183333D01*
X55299Y183351D01*
Y183370D01*
X55132Y183740D01*
X55003Y184110D01*
X54910Y184499D01*
X54836Y184851D01*
X54799Y185166D01*
Y185314D01*
X54781Y185425D01*
Y185518D01*
Y185592D01*
Y185629D01*
Y185647D01*
X54799Y186184D01*
X54873Y186666D01*
X54966Y187073D01*
X55077Y187425D01*
X55151Y187591D01*
X55206Y187721D01*
X55244Y187832D01*
X55299Y187925D01*
X55336Y187999D01*
X55373Y188054D01*
X55392Y188073D01*
Y188091D01*
X55632Y188425D01*
X55873Y188684D01*
X56132Y188906D01*
X56354Y189073D01*
X56577Y189184D01*
X56743Y189277D01*
X56854Y189314D01*
X56873Y189332D01*
X56891D01*
X57021Y189369D01*
X57169Y189388D01*
X57336Y189425D01*
X57521Y189443D01*
X57910Y189480D01*
X58336Y189499D01*
X58706Y189517D01*
X62650D01*
Y177000D01*
D02*
G37*
G36*
X73427Y157500D02*
X71501D01*
Y165647D01*
X67372Y157500D01*
X65280D01*
Y170017D01*
X67206D01*
Y161648D01*
X71427Y170017D01*
X73427D01*
Y157500D01*
D02*
G37*
G36*
X77778Y189702D02*
X78186Y189647D01*
X78519Y189591D01*
X78815Y189517D01*
X79056Y189425D01*
X79241Y189369D01*
X79352Y189314D01*
X79371Y189295D01*
X79389D01*
X79685Y189128D01*
X79926Y188925D01*
X80148Y188721D01*
X80333Y188517D01*
X80482Y188332D01*
X80574Y188184D01*
X80648Y188091D01*
X80667Y188073D01*
Y188054D01*
X80815Y187740D01*
X80926Y187425D01*
X81019Y187110D01*
X81074Y186832D01*
X81111Y186592D01*
X81130Y186388D01*
Y186314D01*
Y186258D01*
Y186240D01*
Y186221D01*
X81111Y185907D01*
X81074Y185592D01*
X81019Y185314D01*
X80944Y185073D01*
X80889Y184870D01*
X80833Y184703D01*
X80796Y184610D01*
X80778Y184573D01*
X80630Y184296D01*
X80463Y184055D01*
X80296Y183851D01*
X80148Y183685D01*
X80000Y183536D01*
X79889Y183444D01*
X79815Y183370D01*
X79797Y183351D01*
X79537Y183185D01*
X79241Y183018D01*
X78908Y182870D01*
X78593Y182740D01*
X78297Y182629D01*
X78186Y182592D01*
X78074Y182555D01*
X77982Y182518D01*
X77908Y182499D01*
X77871Y182481D01*
X77852D01*
X77593Y182407D01*
X77352Y182333D01*
X77130Y182259D01*
X76945Y182185D01*
X76760Y182129D01*
X76612Y182073D01*
X76482Y182036D01*
X76371Y181999D01*
X76204Y181925D01*
X76075Y181870D01*
X76019Y181851D01*
X76001Y181833D01*
X75871Y181759D01*
X75741Y181685D01*
X75649Y181592D01*
X75575Y181518D01*
X75464Y181407D01*
X75427Y181370D01*
Y181351D01*
X75353Y181240D01*
X75315Y181111D01*
X75241Y180889D01*
Y180777D01*
X75223Y180703D01*
Y180648D01*
Y180629D01*
X75241Y180370D01*
X75315Y180129D01*
X75389Y179926D01*
X75501Y179741D01*
X75593Y179611D01*
X75686Y179500D01*
X75760Y179426D01*
X75778Y179407D01*
X76001Y179240D01*
X76241Y179129D01*
X76482Y179037D01*
X76704Y178981D01*
X76926Y178944D01*
X77093Y178926D01*
X77241D01*
X77575Y178944D01*
X77889Y179037D01*
X78148Y179148D01*
X78389Y179296D01*
X78611Y179481D01*
X78797Y179685D01*
X78945Y179907D01*
X79074Y180129D01*
X79185Y180352D01*
X79278Y180574D01*
X79352Y180777D01*
X79408Y180963D01*
X79445Y181111D01*
X79463Y181222D01*
X79482Y181314D01*
Y181333D01*
X81500Y181092D01*
X81444Y180703D01*
X81389Y180333D01*
X81296Y180000D01*
X81204Y179666D01*
X81074Y179370D01*
X80944Y179092D01*
X80815Y178852D01*
X80667Y178611D01*
X80500Y178389D01*
X80333Y178185D01*
X79982Y177852D01*
X79611Y177556D01*
X79241Y177333D01*
X78871Y177148D01*
X78519Y177019D01*
X78186Y176926D01*
X77889Y176870D01*
X77649Y176833D01*
X77463Y176796D01*
X77297D01*
X76908Y176815D01*
X76556Y176852D01*
X76223Y176889D01*
X75908Y176963D01*
X75630Y177056D01*
X75371Y177148D01*
X75130Y177241D01*
X74927Y177352D01*
X74760Y177444D01*
X74593Y177537D01*
X74464Y177630D01*
X74353Y177722D01*
X74278Y177796D01*
X74223Y177833D01*
X74186Y177870D01*
X74167Y177889D01*
X73982Y178111D01*
X73834Y178333D01*
X73686Y178555D01*
X73575Y178778D01*
X73390Y179240D01*
X73279Y179685D01*
X73242Y179870D01*
X73205Y180055D01*
X73186Y180222D01*
X73168Y180352D01*
X73149Y180481D01*
Y180555D01*
Y180611D01*
Y180629D01*
X73168Y181037D01*
X73205Y181407D01*
X73260Y181740D01*
X73334Y182018D01*
X73408Y182240D01*
X73464Y182407D01*
X73501Y182518D01*
X73519Y182555D01*
X73667Y182833D01*
X73834Y183092D01*
X74019Y183314D01*
X74186Y183499D01*
X74353Y183647D01*
X74482Y183740D01*
X74556Y183814D01*
X74593Y183833D01*
X74723Y183925D01*
X74890Y184018D01*
X75241Y184203D01*
X75612Y184351D01*
X75982Y184499D01*
X76315Y184629D01*
X76463Y184666D01*
X76593Y184721D01*
X76704Y184758D01*
X76778Y184777D01*
X76834Y184795D01*
X76852D01*
X77112Y184870D01*
X77352Y184944D01*
X77575Y185018D01*
X77760Y185092D01*
X77945Y185166D01*
X78093Y185221D01*
X78223Y185295D01*
X78352Y185351D01*
X78537Y185444D01*
X78648Y185518D01*
X78723Y185555D01*
X78741Y185573D01*
X78871Y185703D01*
X78982Y185851D01*
X79056Y185981D01*
X79093Y186110D01*
X79130Y186240D01*
X79148Y186332D01*
Y186388D01*
Y186406D01*
X79130Y186592D01*
X79074Y186758D01*
X79000Y186906D01*
X78926Y187036D01*
X78852Y187147D01*
X78778Y187221D01*
X78723Y187258D01*
X78704Y187277D01*
X78519Y187388D01*
X78297Y187480D01*
X78093Y187536D01*
X77889Y187591D01*
X77704Y187610D01*
X77537Y187628D01*
X77408D01*
X77112Y187610D01*
X76852Y187573D01*
X76630Y187499D01*
X76445Y187425D01*
X76297Y187351D01*
X76186Y187277D01*
X76130Y187240D01*
X76112Y187221D01*
X75945Y187036D01*
X75815Y186832D01*
X75723Y186592D01*
X75630Y186369D01*
X75575Y186147D01*
X75538Y185981D01*
X75519Y185907D01*
X75501Y185851D01*
Y185832D01*
Y185814D01*
X73427Y185925D01*
X73445Y186258D01*
X73501Y186573D01*
X73556Y186851D01*
X73630Y187129D01*
X73705Y187369D01*
X73797Y187610D01*
X73908Y187814D01*
X74001Y187999D01*
X74093Y188165D01*
X74186Y188314D01*
X74278Y188443D01*
X74353Y188536D01*
X74427Y188610D01*
X74482Y188684D01*
X74501Y188703D01*
X74519Y188721D01*
X74723Y188906D01*
X74927Y189054D01*
X75167Y189184D01*
X75389Y189295D01*
X75871Y189480D01*
X76315Y189591D01*
X76537Y189647D01*
X76723Y189665D01*
X76908Y189684D01*
X77056Y189702D01*
X77186Y189721D01*
X77352D01*
X77778Y189702D01*
D02*
G37*
%LPC*%
G36*
X60455Y325555D02*
X60326D01*
X60103Y325536D01*
X59881Y325517D01*
X59678Y325462D01*
X59474Y325388D01*
X59122Y325221D01*
X58826Y325036D01*
X58604Y324832D01*
X58437Y324666D01*
X58363Y324592D01*
X58326Y324536D01*
X58289Y324518D01*
Y324499D01*
X58141Y324295D01*
X58030Y324073D01*
X57826Y323555D01*
X57678Y323036D01*
X57585Y322518D01*
X57567Y322258D01*
X57530Y322036D01*
X57511Y321833D01*
Y321647D01*
X57493Y321499D01*
Y321388D01*
Y321314D01*
Y321296D01*
Y320888D01*
X57530Y320518D01*
X57567Y320185D01*
X57622Y319851D01*
X57678Y319555D01*
X57752Y319296D01*
X57826Y319055D01*
X57900Y318833D01*
X57974Y318648D01*
X58048Y318481D01*
X58122Y318333D01*
X58178Y318222D01*
X58233Y318129D01*
X58270Y318074D01*
X58289Y318037D01*
X58307Y318018D01*
X58455Y317833D01*
X58622Y317666D01*
X58789Y317537D01*
X58955Y317407D01*
X59122Y317315D01*
X59289Y317222D01*
X59622Y317092D01*
X59900Y317018D01*
X60011Y317000D01*
X60122Y316981D01*
X60215Y316963D01*
X60326D01*
X60548Y316981D01*
X60752Y317018D01*
X60955Y317055D01*
X61140Y317129D01*
X61492Y317296D01*
X61788Y317500D01*
X62029Y317703D01*
X62196Y317870D01*
X62251Y317944D01*
X62307Y318000D01*
X62325Y318018D01*
X62344Y318037D01*
X62492Y318259D01*
X62603Y318481D01*
X62807Y319000D01*
X62955Y319537D01*
X63047Y320055D01*
X63085Y320296D01*
X63122Y320518D01*
X63140Y320722D01*
Y320907D01*
X63159Y321055D01*
Y321166D01*
Y321240D01*
Y321259D01*
X63140Y321647D01*
X63122Y322018D01*
X63085Y322370D01*
X63029Y322684D01*
X62973Y322981D01*
X62918Y323240D01*
X62844Y323481D01*
X62770Y323703D01*
X62696Y323888D01*
X62622Y324055D01*
X62566Y324184D01*
X62511Y324295D01*
X62455Y324388D01*
X62418Y324444D01*
X62381Y324481D01*
Y324499D01*
X62233Y324684D01*
X62066Y324851D01*
X61899Y324981D01*
X61714Y325110D01*
X61548Y325221D01*
X61381Y325295D01*
X61048Y325425D01*
X60770Y325499D01*
X60640Y325517D01*
X60529Y325536D01*
X60455Y325555D01*
D02*
G37*
G36*
X66426Y306406D02*
X65074D01*
X64704Y306388D01*
X64426Y306369D01*
X64186Y306351D01*
X64019Y306332D01*
X63908Y306314D01*
X63834Y306295D01*
X63815D01*
X63612Y306221D01*
X63426Y306147D01*
X63260Y306036D01*
X63112Y305943D01*
X63001Y305832D01*
X62908Y305758D01*
X62852Y305703D01*
X62834Y305684D01*
X62686Y305499D01*
X62575Y305295D01*
X62464Y305073D01*
X62389Y304869D01*
X62315Y304684D01*
X62278Y304536D01*
X62241Y304444D01*
Y304425D01*
Y304407D01*
X62167Y304092D01*
X62130Y303721D01*
X62093Y303370D01*
X62056Y303018D01*
Y302703D01*
X62038Y302573D01*
Y302444D01*
Y302351D01*
Y302277D01*
Y302240D01*
Y302222D01*
Y301740D01*
X62075Y301314D01*
X62093Y300944D01*
X62130Y300629D01*
X62167Y300388D01*
X62204Y300203D01*
X62223Y300092D01*
X62241Y300074D01*
Y300055D01*
X62315Y299777D01*
X62389Y299518D01*
X62482Y299314D01*
X62556Y299148D01*
X62612Y299018D01*
X62667Y298926D01*
X62704Y298870D01*
X62723Y298852D01*
X62945Y298611D01*
X63186Y298444D01*
X63297Y298370D01*
X63371Y298333D01*
X63426Y298315D01*
X63445Y298296D01*
X63630Y298241D01*
X63852Y298185D01*
X64093Y298148D01*
X64334Y298129D01*
X64556D01*
X64723Y298111D01*
X66426D01*
Y306406D01*
D02*
G37*
G36*
X144971Y129909D02*
X144860D01*
X144638Y129891D01*
X144434Y129873D01*
X144268Y129817D01*
X144120Y129780D01*
X143990Y129724D01*
X143897Y129669D01*
X143842Y129650D01*
X143823Y129632D01*
X143675Y129521D01*
X143546Y129410D01*
X143453Y129298D01*
X143360Y129187D01*
X143305Y129095D01*
X143268Y129021D01*
X143231Y128965D01*
Y128947D01*
X143175Y128762D01*
X143138Y128539D01*
X143120Y128280D01*
X143101Y128021D01*
X143083Y127780D01*
Y127577D01*
Y127502D01*
Y127447D01*
Y127410D01*
Y127391D01*
Y126262D01*
X146656D01*
Y127262D01*
Y127502D01*
Y127706D01*
X146638Y127891D01*
Y128076D01*
X146619Y128373D01*
X146582Y128595D01*
X146564Y128762D01*
X146527Y128873D01*
X146508Y128928D01*
Y128947D01*
X146434Y129095D01*
X146360Y129224D01*
X146249Y129335D01*
X146156Y129447D01*
X146064Y129521D01*
X145990Y129576D01*
X145934Y129613D01*
X145916Y129632D01*
X145749Y129724D01*
X145564Y129798D01*
X145397Y129836D01*
X145231Y129873D01*
X145082Y129891D01*
X144971Y129909D01*
D02*
G37*
G36*
X250176Y266406D02*
X248732D01*
X248547Y266388D01*
X248361D01*
X248065Y266369D01*
X247843Y266332D01*
X247676Y266314D01*
X247565Y266277D01*
X247510Y266258D01*
X247491D01*
X247343Y266184D01*
X247213Y266110D01*
X247102Y265999D01*
X246991Y265906D01*
X246917Y265814D01*
X246862Y265740D01*
X246825Y265684D01*
X246806Y265666D01*
X246714Y265499D01*
X246639Y265314D01*
X246602Y265147D01*
X246565Y264981D01*
X246547Y264832D01*
X246528Y264721D01*
Y264647D01*
Y264610D01*
X246547Y264388D01*
X246565Y264184D01*
X246621Y264018D01*
X246658Y263870D01*
X246714Y263740D01*
X246769Y263647D01*
X246788Y263592D01*
X246806Y263573D01*
X246917Y263425D01*
X247028Y263295D01*
X247139Y263203D01*
X247250Y263110D01*
X247343Y263055D01*
X247417Y263018D01*
X247473Y262981D01*
X247491D01*
X247676Y262925D01*
X247899Y262888D01*
X248158Y262870D01*
X248417Y262851D01*
X248658Y262833D01*
X250176D01*
Y266406D01*
D02*
G37*
G36*
X145175Y67509D02*
X145082D01*
X144860Y67490D01*
X144675Y67472D01*
X144490Y67435D01*
X144360Y67397D01*
X144231Y67342D01*
X144157Y67305D01*
X144101Y67286D01*
X144082Y67268D01*
X143953Y67175D01*
X143842Y67064D01*
X143768Y66972D01*
X143694Y66860D01*
X143638Y66768D01*
X143601Y66712D01*
X143583Y66657D01*
Y66638D01*
X143564Y66546D01*
X143546Y66453D01*
X143527Y66194D01*
X143490Y65898D01*
Y65601D01*
X143471Y65305D01*
Y65175D01*
Y65064D01*
Y64972D01*
Y64898D01*
Y64861D01*
Y64842D01*
Y63324D01*
X146656D01*
Y64935D01*
Y65175D01*
Y65398D01*
X146638Y65601D01*
Y65787D01*
Y65935D01*
X146619Y66083D01*
Y66194D01*
X146601Y66305D01*
X146582Y66453D01*
X146564Y66546D01*
X146545Y66601D01*
Y66620D01*
X146490Y66768D01*
X146416Y66898D01*
X146323Y67009D01*
X146249Y67101D01*
X146175Y67175D01*
X146101Y67231D01*
X146064Y67249D01*
X146045Y67268D01*
X145897Y67342D01*
X145749Y67416D01*
X145434Y67472D01*
X145286Y67490D01*
X145175Y67509D01*
D02*
G37*
G36*
X60576Y187406D02*
X59132D01*
X58947Y187388D01*
X58762D01*
X58465Y187369D01*
X58243Y187332D01*
X58077Y187314D01*
X57965Y187277D01*
X57910Y187258D01*
X57891D01*
X57743Y187184D01*
X57614Y187110D01*
X57502Y186999D01*
X57391Y186906D01*
X57317Y186814D01*
X57262Y186740D01*
X57225Y186684D01*
X57206Y186666D01*
X57114Y186499D01*
X57040Y186314D01*
X57003Y186147D01*
X56965Y185981D01*
X56947Y185832D01*
X56929Y185721D01*
Y185647D01*
Y185610D01*
X56947Y185388D01*
X56965Y185184D01*
X57021Y185018D01*
X57058Y184870D01*
X57114Y184740D01*
X57169Y184647D01*
X57188Y184592D01*
X57206Y184573D01*
X57317Y184425D01*
X57428Y184296D01*
X57540Y184203D01*
X57651Y184110D01*
X57743Y184055D01*
X57817Y184018D01*
X57873Y183981D01*
X57891D01*
X58077Y183925D01*
X58299Y183888D01*
X58558Y183870D01*
X58817Y183851D01*
X59058Y183833D01*
X60576D01*
Y187406D01*
D02*
G37*
G36*
X73176Y325406D02*
X71824D01*
X71454Y325388D01*
X71176Y325369D01*
X70936Y325351D01*
X70769Y325332D01*
X70658Y325314D01*
X70584Y325295D01*
X70565D01*
X70362Y325221D01*
X70176Y325147D01*
X70010Y325036D01*
X69862Y324943D01*
X69751Y324832D01*
X69658Y324758D01*
X69602Y324703D01*
X69584Y324684D01*
X69436Y324499D01*
X69325Y324295D01*
X69214Y324073D01*
X69139Y323870D01*
X69065Y323684D01*
X69028Y323536D01*
X68991Y323444D01*
Y323425D01*
Y323406D01*
X68917Y323092D01*
X68880Y322721D01*
X68843Y322370D01*
X68806Y322018D01*
Y321703D01*
X68788Y321573D01*
Y321444D01*
Y321351D01*
Y321277D01*
Y321240D01*
Y321222D01*
Y320740D01*
X68825Y320314D01*
X68843Y319944D01*
X68880Y319629D01*
X68917Y319388D01*
X68954Y319203D01*
X68973Y319092D01*
X68991Y319074D01*
Y319055D01*
X69065Y318777D01*
X69139Y318518D01*
X69232Y318314D01*
X69306Y318148D01*
X69362Y318018D01*
X69417Y317926D01*
X69454Y317870D01*
X69473Y317852D01*
X69695Y317611D01*
X69936Y317444D01*
X70047Y317370D01*
X70121Y317333D01*
X70176Y317315D01*
X70195Y317296D01*
X70380Y317241D01*
X70602Y317185D01*
X70843Y317148D01*
X71084Y317129D01*
X71306D01*
X71473Y317111D01*
X73176D01*
Y325406D01*
D02*
G37*
G36*
X227049Y266406D02*
X224975D01*
X224771Y266388D01*
X224438D01*
X224290Y266369D01*
X224179D01*
X224068Y266351D01*
X223920Y266332D01*
X223827Y266314D01*
X223771Y266295D01*
X223753D01*
X223605Y266240D01*
X223475Y266166D01*
X223364Y266073D01*
X223272Y265999D01*
X223197Y265925D01*
X223142Y265851D01*
X223123Y265814D01*
X223105Y265795D01*
X223031Y265647D01*
X222957Y265499D01*
X222901Y265184D01*
X222883Y265036D01*
X222864Y264925D01*
Y264851D01*
Y264832D01*
X222883Y264610D01*
X222901Y264425D01*
X222938Y264240D01*
X222975Y264110D01*
X223031Y263981D01*
X223068Y263907D01*
X223086Y263851D01*
X223105Y263832D01*
X223197Y263703D01*
X223309Y263592D01*
X223401Y263518D01*
X223512Y263444D01*
X223605Y263388D01*
X223660Y263351D01*
X223716Y263333D01*
X223734D01*
X223827Y263314D01*
X223920Y263295D01*
X224179Y263277D01*
X224475Y263240D01*
X224771D01*
X225068Y263221D01*
X227049D01*
Y266406D01*
D02*
G37*
G36*
X214439Y246656D02*
X212995D01*
X212810Y246638D01*
X212624D01*
X212328Y246619D01*
X212106Y246582D01*
X211939Y246564D01*
X211828Y246527D01*
X211773Y246508D01*
X211754D01*
X211606Y246434D01*
X211476Y246360D01*
X211365Y246249D01*
X211254Y246156D01*
X211180Y246064D01*
X211125Y245990D01*
X211087Y245934D01*
X211069Y245916D01*
X210976Y245749D01*
X210902Y245564D01*
X210865Y245397D01*
X210828Y245231D01*
X210810Y245082D01*
X210791Y244971D01*
Y244897D01*
Y244860D01*
X210810Y244638D01*
X210828Y244434D01*
X210884Y244268D01*
X210921Y244120D01*
X210976Y243990D01*
X211032Y243897D01*
X211050Y243842D01*
X211069Y243823D01*
X211180Y243675D01*
X211291Y243545D01*
X211402Y243453D01*
X211513Y243360D01*
X211606Y243305D01*
X211680Y243268D01*
X211736Y243231D01*
X211754D01*
X211939Y243175D01*
X212162Y243138D01*
X212421Y243120D01*
X212680Y243101D01*
X212921Y243083D01*
X214439D01*
Y246656D01*
D02*
G37*
G36*
X90999Y119401D02*
X90388D01*
X90018Y119364D01*
X89685Y119327D01*
X89351Y119272D01*
X89055Y119216D01*
X88796Y119142D01*
X88555Y119068D01*
X88333Y118994D01*
X88148Y118920D01*
X87981Y118846D01*
X87833Y118772D01*
X87722Y118716D01*
X87629Y118661D01*
X87574Y118624D01*
X87537Y118605D01*
X87518Y118587D01*
X87333Y118439D01*
X87166Y118272D01*
X87037Y118105D01*
X86907Y117938D01*
X86815Y117772D01*
X86722Y117605D01*
X86592Y117272D01*
X86518Y116994D01*
X86500Y116883D01*
X86481Y116772D01*
X86463Y116679D01*
Y116624D01*
Y116587D01*
Y116568D01*
X86481Y116346D01*
X86518Y116142D01*
X86555Y115939D01*
X86629Y115754D01*
X86796Y115402D01*
X87000Y115105D01*
X87203Y114865D01*
X87370Y114698D01*
X87444Y114643D01*
X87500Y114587D01*
X87518Y114569D01*
X87537Y114550D01*
X87759Y114402D01*
X87981Y114291D01*
X88500Y114087D01*
X89037Y113939D01*
X89555Y113846D01*
X89796Y113809D01*
X90018Y113772D01*
X90222Y113754D01*
X90407D01*
X90555Y113735D01*
X90759D01*
X91147Y113754D01*
X91518Y113772D01*
X91870Y113809D01*
X92184Y113865D01*
X92481Y113920D01*
X92740Y113976D01*
X92981Y114050D01*
X93203Y114124D01*
X93388Y114198D01*
X93555Y114272D01*
X93684Y114328D01*
X93795Y114383D01*
X93888Y114439D01*
X93944Y114476D01*
X93981Y114513D01*
X93999D01*
X94184Y114661D01*
X94351Y114828D01*
X94480Y114994D01*
X94610Y115180D01*
X94721Y115346D01*
X94795Y115513D01*
X94925Y115846D01*
X94999Y116124D01*
X95017Y116253D01*
X95036Y116365D01*
X95055Y116439D01*
Y116513D01*
Y116550D01*
Y116568D01*
X95036Y116791D01*
X95017Y117013D01*
X94962Y117216D01*
X94888Y117420D01*
X94721Y117772D01*
X94536Y118068D01*
X94332Y118290D01*
X94166Y118457D01*
X94092Y118531D01*
X94036Y118568D01*
X94017Y118605D01*
X93999D01*
X93795Y118753D01*
X93573Y118864D01*
X93055Y119068D01*
X92536Y119216D01*
X92018Y119309D01*
X91758Y119327D01*
X91536Y119364D01*
X91333Y119383D01*
X91147D01*
X90999Y119401D01*
D02*
G37*
G36*
X80426Y267906D02*
X78352D01*
X78149Y267888D01*
X77815D01*
X77667Y267869D01*
X77556D01*
X77445Y267851D01*
X77297Y267832D01*
X77204Y267814D01*
X77149Y267795D01*
X77130D01*
X76982Y267740D01*
X76852Y267666D01*
X76741Y267573D01*
X76649Y267499D01*
X76575Y267425D01*
X76519Y267351D01*
X76501Y267314D01*
X76482Y267295D01*
X76408Y267147D01*
X76334Y266999D01*
X76278Y266684D01*
X76260Y266536D01*
X76241Y266425D01*
Y266351D01*
Y266332D01*
X76260Y266110D01*
X76278Y265925D01*
X76315Y265740D01*
X76353Y265610D01*
X76408Y265481D01*
X76445Y265407D01*
X76464Y265351D01*
X76482Y265333D01*
X76575Y265203D01*
X76686Y265092D01*
X76778Y265018D01*
X76890Y264944D01*
X76982Y264888D01*
X77038Y264851D01*
X77093Y264833D01*
X77112D01*
X77204Y264814D01*
X77297Y264795D01*
X77556Y264777D01*
X77852Y264740D01*
X78149D01*
X78445Y264722D01*
X80426D01*
Y267906D01*
D02*
G37*
G36*
X71585Y248656D02*
X70233D01*
X69862Y248638D01*
X69585Y248619D01*
X69344Y248601D01*
X69177Y248582D01*
X69066Y248564D01*
X68992Y248545D01*
X68974D01*
X68770Y248471D01*
X68585Y248397D01*
X68418Y248286D01*
X68270Y248193D01*
X68159Y248082D01*
X68066Y248008D01*
X68011Y247953D01*
X67992Y247934D01*
X67844Y247749D01*
X67733Y247545D01*
X67622Y247323D01*
X67548Y247119D01*
X67474Y246934D01*
X67437Y246786D01*
X67400Y246694D01*
Y246675D01*
Y246656D01*
X67326Y246342D01*
X67289Y245971D01*
X67252Y245620D01*
X67215Y245268D01*
Y244953D01*
X67196Y244823D01*
Y244694D01*
Y244601D01*
Y244527D01*
Y244490D01*
Y244472D01*
Y243990D01*
X67233Y243564D01*
X67252Y243194D01*
X67289Y242879D01*
X67326Y242638D01*
X67363Y242453D01*
X67381Y242342D01*
X67400Y242324D01*
Y242305D01*
X67474Y242027D01*
X67548Y241768D01*
X67641Y241565D01*
X67715Y241398D01*
X67770Y241268D01*
X67826Y241176D01*
X67863Y241120D01*
X67881Y241101D01*
X68103Y240861D01*
X68344Y240694D01*
X68455Y240620D01*
X68529Y240583D01*
X68585Y240565D01*
X68603Y240546D01*
X68789Y240490D01*
X69011Y240435D01*
X69251Y240398D01*
X69492Y240379D01*
X69714D01*
X69881Y240361D01*
X71585D01*
Y248656D01*
D02*
G37*
G36*
X91073Y104125D02*
X90240D01*
X89814Y104088D01*
X89444Y104070D01*
X89129Y104033D01*
X88888Y103996D01*
X88703Y103959D01*
X88592Y103940D01*
X88574Y103921D01*
X88555D01*
X88277Y103847D01*
X88018Y103773D01*
X87815Y103681D01*
X87648Y103607D01*
X87518Y103551D01*
X87426Y103496D01*
X87370Y103459D01*
X87352Y103440D01*
X87111Y103218D01*
X86944Y102977D01*
X86870Y102866D01*
X86833Y102792D01*
X86815Y102736D01*
X86796Y102718D01*
X86741Y102533D01*
X86685Y102310D01*
X86648Y102070D01*
X86629Y101829D01*
Y101607D01*
X86611Y101440D01*
Y101366D01*
Y101311D01*
Y101292D01*
Y101274D01*
Y99737D01*
X94906D01*
Y100663D01*
Y100885D01*
Y101088D01*
X94888Y101459D01*
X94869Y101736D01*
X94851Y101977D01*
X94832Y102144D01*
X94814Y102255D01*
X94795Y102329D01*
Y102348D01*
X94721Y102551D01*
X94647Y102736D01*
X94536Y102903D01*
X94443Y103051D01*
X94332Y103162D01*
X94258Y103255D01*
X94203Y103310D01*
X94184Y103329D01*
X93999Y103477D01*
X93795Y103588D01*
X93573Y103699D01*
X93370Y103773D01*
X93184Y103847D01*
X93036Y103884D01*
X92944Y103921D01*
X92907D01*
X92592Y103996D01*
X92221Y104033D01*
X91870Y104070D01*
X91518Y104107D01*
X91203D01*
X91073Y104125D01*
D02*
G37*
G36*
X59271Y247842D02*
X57845Y243194D01*
X60660D01*
X59271Y247842D01*
D02*
G37*
G36*
X235576Y166805D02*
X235446D01*
X235224Y166786D01*
X235002Y166767D01*
X234798Y166712D01*
X234594Y166638D01*
X234243Y166471D01*
X233946Y166286D01*
X233724Y166082D01*
X233557Y165916D01*
X233483Y165842D01*
X233446Y165786D01*
X233409Y165767D01*
Y165749D01*
X233261Y165545D01*
X233150Y165323D01*
X232946Y164805D01*
X232798Y164286D01*
X232706Y163768D01*
X232687Y163508D01*
X232650Y163286D01*
X232632Y163083D01*
Y162897D01*
X232613Y162749D01*
Y162638D01*
Y162564D01*
Y162546D01*
Y162138D01*
X232650Y161768D01*
X232687Y161435D01*
X232743Y161101D01*
X232798Y160805D01*
X232872Y160546D01*
X232946Y160305D01*
X233020Y160083D01*
X233095Y159898D01*
X233169Y159731D01*
X233243Y159583D01*
X233298Y159472D01*
X233354Y159379D01*
X233391Y159324D01*
X233409Y159287D01*
X233428Y159268D01*
X233576Y159083D01*
X233743Y158916D01*
X233909Y158787D01*
X234076Y158657D01*
X234243Y158565D01*
X234409Y158472D01*
X234743Y158342D01*
X235020Y158268D01*
X235131Y158250D01*
X235243Y158231D01*
X235335Y158213D01*
X235446D01*
X235668Y158231D01*
X235872Y158268D01*
X236076Y158305D01*
X236261Y158379D01*
X236613Y158546D01*
X236909Y158750D01*
X237150Y158953D01*
X237316Y159120D01*
X237372Y159194D01*
X237427Y159250D01*
X237446Y159268D01*
X237465Y159287D01*
X237613Y159509D01*
X237724Y159731D01*
X237927Y160250D01*
X238076Y160787D01*
X238168Y161305D01*
X238205Y161546D01*
X238242Y161768D01*
X238261Y161972D01*
Y162157D01*
X238279Y162305D01*
Y162416D01*
Y162490D01*
Y162509D01*
X238261Y162897D01*
X238242Y163268D01*
X238205Y163620D01*
X238150Y163934D01*
X238094Y164231D01*
X238039Y164490D01*
X237964Y164731D01*
X237890Y164953D01*
X237816Y165138D01*
X237742Y165305D01*
X237687Y165434D01*
X237631Y165545D01*
X237576Y165638D01*
X237539Y165693D01*
X237502Y165730D01*
Y165749D01*
X237353Y165934D01*
X237187Y166101D01*
X237020Y166231D01*
X236835Y166360D01*
X236668Y166471D01*
X236502Y166545D01*
X236168Y166675D01*
X235891Y166749D01*
X235761Y166767D01*
X235650Y166786D01*
X235576Y166805D01*
D02*
G37*
G36*
X232650Y207054D02*
X232539D01*
X232317Y207036D01*
X232095Y207017D01*
X231891Y206962D01*
X231706Y206888D01*
X231354Y206721D01*
X231058Y206536D01*
X230817Y206332D01*
X230650Y206166D01*
X230576Y206092D01*
X230539Y206036D01*
X230502Y206017D01*
Y205999D01*
X230354Y205795D01*
X230243Y205555D01*
X230039Y205036D01*
X229891Y204499D01*
X229799Y203981D01*
X229780Y203722D01*
X229743Y203499D01*
X229725Y203277D01*
Y203110D01*
X229706Y202944D01*
Y202833D01*
Y202759D01*
Y202740D01*
Y202351D01*
X229743Y201999D01*
X229780Y201666D01*
X229836Y201351D01*
X229891Y201055D01*
X229965Y200796D01*
X230021Y200555D01*
X230095Y200333D01*
X230169Y200148D01*
X230243Y199981D01*
X230317Y199833D01*
X230373Y199722D01*
X230428Y199629D01*
X230465Y199574D01*
X230484Y199537D01*
X230502Y199518D01*
X230854Y199814D01*
X231187Y200074D01*
X231521Y200296D01*
X231817Y200481D01*
X232076Y200629D01*
X232280Y200740D01*
X232354Y200777D01*
X232409Y200796D01*
X232428Y200814D01*
X232446D01*
X233020Y199370D01*
X232780Y199259D01*
X232558Y199129D01*
X232335Y199000D01*
X232150Y198870D01*
X231984Y198759D01*
X231854Y198666D01*
X231780Y198592D01*
X231743Y198574D01*
X232039Y198481D01*
X232187Y198444D01*
X232317Y198426D01*
X232428D01*
X232521Y198407D01*
X232595D01*
X232817Y198426D01*
X233020Y198444D01*
X233224Y198500D01*
X233409Y198574D01*
X233743Y198741D01*
X234020Y198944D01*
X234261Y199129D01*
X234428Y199296D01*
X234502Y199370D01*
X234539Y199426D01*
X234557Y199444D01*
X234576Y199463D01*
X234724Y199685D01*
X234835Y199907D01*
X235039Y200425D01*
X235168Y200981D01*
X235280Y201518D01*
X235298Y201759D01*
X235335Y201999D01*
X235354Y202203D01*
Y202388D01*
X235372Y202555D01*
Y202666D01*
Y202740D01*
Y202759D01*
X235354Y203147D01*
X235335Y203518D01*
X235298Y203870D01*
X235242Y204184D01*
X235187Y204481D01*
X235113Y204740D01*
X235039Y204981D01*
X234965Y205203D01*
X234891Y205388D01*
X234835Y205555D01*
X234761Y205684D01*
X234705Y205795D01*
X234650Y205888D01*
X234613Y205944D01*
X234576Y205980D01*
Y205999D01*
X234428Y206184D01*
X234261Y206351D01*
X234094Y206480D01*
X233928Y206610D01*
X233743Y206721D01*
X233576Y206795D01*
X233261Y206925D01*
X232965Y206999D01*
X232854Y207017D01*
X232743Y207036D01*
X232650Y207054D01*
D02*
G37*
G36*
X245371Y206906D02*
X243297D01*
X243093Y206888D01*
X242760D01*
X242612Y206869D01*
X242501D01*
X242390Y206851D01*
X242242Y206832D01*
X242149Y206814D01*
X242094Y206795D01*
X242075D01*
X241927Y206740D01*
X241797Y206666D01*
X241686Y206573D01*
X241594Y206499D01*
X241520Y206425D01*
X241464Y206351D01*
X241446Y206314D01*
X241427Y206295D01*
X241353Y206147D01*
X241279Y205999D01*
X241223Y205684D01*
X241205Y205536D01*
X241186Y205425D01*
Y205351D01*
Y205332D01*
X241205Y205110D01*
X241223Y204925D01*
X241260Y204740D01*
X241297Y204610D01*
X241353Y204481D01*
X241390Y204407D01*
X241409Y204351D01*
X241427Y204333D01*
X241520Y204203D01*
X241631Y204092D01*
X241723Y204018D01*
X241834Y203944D01*
X241927Y203888D01*
X241982Y203851D01*
X242038Y203833D01*
X242057D01*
X242149Y203814D01*
X242242Y203796D01*
X242501Y203777D01*
X242797Y203740D01*
X243093D01*
X243390Y203722D01*
X245371D01*
Y206906D01*
D02*
G37*
G36*
X66073Y88330D02*
X65240D01*
X64814Y88293D01*
X64444Y88275D01*
X64129Y88238D01*
X63888Y88201D01*
X63703Y88164D01*
X63592Y88145D01*
X63574Y88127D01*
X63555D01*
X63277Y88053D01*
X63018Y87979D01*
X62814Y87886D01*
X62648Y87812D01*
X62518Y87756D01*
X62426Y87701D01*
X62370Y87664D01*
X62352Y87645D01*
X62111Y87423D01*
X61944Y87182D01*
X61870Y87071D01*
X61833Y86997D01*
X61815Y86942D01*
X61796Y86923D01*
X61740Y86738D01*
X61685Y86516D01*
X61648Y86275D01*
X61629Y86034D01*
Y85812D01*
X61611Y85646D01*
Y85571D01*
Y85516D01*
Y85497D01*
Y85479D01*
Y83942D01*
X69906D01*
Y84868D01*
Y85090D01*
Y85294D01*
X69888Y85664D01*
X69869Y85942D01*
X69851Y86182D01*
X69832Y86349D01*
X69814Y86460D01*
X69795Y86534D01*
Y86553D01*
X69721Y86756D01*
X69647Y86942D01*
X69536Y87108D01*
X69443Y87256D01*
X69332Y87367D01*
X69258Y87460D01*
X69203Y87516D01*
X69184Y87534D01*
X68999Y87682D01*
X68795Y87793D01*
X68573Y87905D01*
X68369Y87979D01*
X68184Y88053D01*
X68036Y88090D01*
X67944Y88127D01*
X67906D01*
X67592Y88201D01*
X67221Y88238D01*
X66870Y88275D01*
X66518Y88312D01*
X66203D01*
X66073Y88330D01*
D02*
G37*
G36*
X61058Y167906D02*
X59706D01*
X59336Y167888D01*
X59058Y167869D01*
X58818Y167851D01*
X58651Y167832D01*
X58540Y167814D01*
X58466Y167795D01*
X58447D01*
X58243Y167721D01*
X58058Y167647D01*
X57892Y167536D01*
X57744Y167443D01*
X57632Y167332D01*
X57540Y167258D01*
X57484Y167203D01*
X57466Y167184D01*
X57318Y166999D01*
X57207Y166795D01*
X57095Y166573D01*
X57021Y166369D01*
X56947Y166184D01*
X56910Y166036D01*
X56873Y165944D01*
Y165925D01*
Y165907D01*
X56799Y165592D01*
X56762Y165221D01*
X56725Y164870D01*
X56688Y164518D01*
Y164203D01*
X56670Y164073D01*
Y163944D01*
Y163851D01*
Y163777D01*
Y163740D01*
Y163722D01*
Y163240D01*
X56707Y162814D01*
X56725Y162444D01*
X56762Y162129D01*
X56799Y161888D01*
X56836Y161703D01*
X56855Y161592D01*
X56873Y161574D01*
Y161555D01*
X56947Y161277D01*
X57021Y161018D01*
X57114Y160814D01*
X57188Y160648D01*
X57244Y160518D01*
X57299Y160426D01*
X57336Y160370D01*
X57355Y160352D01*
X57577Y160111D01*
X57818Y159944D01*
X57929Y159870D01*
X58003Y159833D01*
X58058Y159815D01*
X58077Y159796D01*
X58262Y159740D01*
X58484Y159685D01*
X58725Y159648D01*
X58966Y159629D01*
X59188D01*
X59355Y159611D01*
X61058D01*
Y167906D01*
D02*
G37*
G36*
X59272Y286555D02*
X59142D01*
X58920Y286536D01*
X58698Y286517D01*
X58494Y286462D01*
X58290Y286388D01*
X57938Y286221D01*
X57642Y286036D01*
X57420Y285832D01*
X57253Y285666D01*
X57179Y285592D01*
X57142Y285536D01*
X57105Y285518D01*
Y285499D01*
X56957Y285295D01*
X56846Y285073D01*
X56642Y284555D01*
X56494Y284036D01*
X56402Y283518D01*
X56383Y283258D01*
X56346Y283036D01*
X56328Y282833D01*
Y282647D01*
X56309Y282499D01*
Y282388D01*
Y282314D01*
Y282296D01*
Y281888D01*
X56346Y281518D01*
X56383Y281185D01*
X56439Y280851D01*
X56494Y280555D01*
X56568Y280296D01*
X56642Y280055D01*
X56716Y279833D01*
X56790Y279648D01*
X56865Y279481D01*
X56939Y279333D01*
X56994Y279222D01*
X57050Y279129D01*
X57087Y279074D01*
X57105Y279037D01*
X57124Y279018D01*
X57272Y278833D01*
X57439Y278666D01*
X57605Y278537D01*
X57772Y278407D01*
X57938Y278315D01*
X58105Y278222D01*
X58438Y278092D01*
X58716Y278018D01*
X58827Y278000D01*
X58938Y277981D01*
X59031Y277963D01*
X59142D01*
X59364Y277981D01*
X59568Y278018D01*
X59772Y278055D01*
X59957Y278129D01*
X60309Y278296D01*
X60605Y278500D01*
X60845Y278703D01*
X61012Y278870D01*
X61068Y278944D01*
X61123Y279000D01*
X61142Y279018D01*
X61160Y279037D01*
X61308Y279259D01*
X61420Y279481D01*
X61623Y280000D01*
X61771Y280537D01*
X61864Y281055D01*
X61901Y281296D01*
X61938Y281518D01*
X61957Y281722D01*
Y281907D01*
X61975Y282055D01*
Y282166D01*
Y282240D01*
Y282259D01*
X61957Y282647D01*
X61938Y283018D01*
X61901Y283370D01*
X61845Y283684D01*
X61790Y283981D01*
X61734Y284240D01*
X61660Y284481D01*
X61586Y284703D01*
X61512Y284888D01*
X61438Y285055D01*
X61382Y285184D01*
X61327Y285295D01*
X61271Y285388D01*
X61234Y285443D01*
X61197Y285480D01*
Y285499D01*
X61049Y285684D01*
X60883Y285851D01*
X60716Y285980D01*
X60531Y286110D01*
X60364Y286221D01*
X60198Y286295D01*
X59864Y286425D01*
X59586Y286499D01*
X59457Y286517D01*
X59346Y286536D01*
X59272Y286555D01*
D02*
G37*
%LPD*%
D40*
X85750Y329500D02*
Y345500D01*
Y329500D02*
X239500D01*
Y350500D01*
X85750Y345500D02*
Y349750D01*
X32750Y152500D02*
Y351000D01*
Y152500D02*
X274000D01*
Y350750D01*
X173300Y62750D02*
Y78250D01*
X199000D01*
Y62500D02*
Y78250D01*
M02*
